<?xml version="1.0" encoding="utf-8"?>
<!-- Generator: Adobe Illustrator 12.0.0, SVG Export Plug-In . SVG Version: 6.00 Build 51448)  -->
<!DOCTYPE svg PUBLIC "-//W3C//DTD SVG 1.1//EN" "http://www.w3.org/Graphics/SVG/1.1/DTD/svg11.dtd" [
	<!ENTITY ns_svg "http://www.w3.org/2000/svg">
	<!ENTITY ns_xlink "http://www.w3.org/1999/xlink">
]>
<svg  version="1.1" id="Ebene_1" xmlns="&ns_svg;" xmlns:xlink="&ns_xlink;" width="1138.688" height="273.551"
	 viewBox="0 0 1138.688 273.551" overflow="visible" enable-background="new 0 0 1138.688 273.551" xml:space="preserve">
<g opacity="0.15">
	<g opacity="0.6">
		<path fill="#FFFFFF" d="M431.529,163.943c-55.696,0.002-114.667-9.166-168.217-30.948c-90.176-36.683-261.287-0.333-263.002,0.04
			L0,131.603c0.431-0.094,43.669-9.362,97.522-13.961c49.741-4.249,118.979-5.267,166.341,13.999
			c114.564,46.604,254.031,35.279,332.589,0.009c78.186-35.102,128.057-27.084,192.734-0.008
			c64.568,27.03,189.039,33.688,264.404,0.008l0.596,1.336c-34.211,15.284-82.203,23.35-135.121,22.729
			c-49.826-0.601-97.369-8.877-130.443-22.72c-64.299-26.919-113.875-34.893-191.57-0.009
			C554.945,151.891,495.388,163.943,431.529,163.943L431.529,163.943z"/>
	</g>
	<path opacity="0.6" fill="#FFFFFF" enable-background="new    " d="M385.981,176.872c-10.667,0-22.72-0.646-36.733-2.138
		C241.219,163.215,44.242,89.831,42.265,89.089l0.512-1.37c1.978,0.744,198.78,74.06,306.626,85.56
		c54.721,5.829,79.451-1.293,108.085-9.534c28.422-8.186,60.64-17.453,129.502-16.246c73.504,1.288,116.494-28.352,154.396-54.512
		c33.498-23.122,65.133-44.963,112.328-42.531c55.459,2.856,116.344,38.498,170.059,69.934
		c43.016,25.179,80.188,46.913,102.313,43.75l0.203,1.45c-22.684,3.23-60.018-18.624-103.256-43.938
		c-53.574-31.36-114.295-66.895-169.396-69.733c-46.693-2.411-78.123,19.294-111.412,42.271
		c-37.281,25.726-79.43,54.81-150.578,54.813c-1.551,0-3.096-0.015-4.676-0.039c-68.663-1.211-100.754,8.032-129.074,16.185
		C436.444,171.322,417.17,176.872,385.981,176.872L385.981,176.872z"/>
	<path opacity="0.6" fill="#FFFFFF" enable-background="new    " d="M372.062,158.998c-6.647,0-13.805-0.201-21.573-0.622
		C242.01,152.44,41.514,89.306,39.5,88.67l0.44-1.397c2.011,0.637,202.331,63.717,310.625,69.641
		c54.949,3.007,79.277-5.384,107.451-15.094c27.96-9.639,59.65-20.563,128.492-22.896c73.502-2.494,114.879-34.319,151.381-62.399
		C770.153,31.71,800.629,8.27,847.87,8.266c55.533-0.002,118.174,32.448,173.438,61.083c44.252,22.924,82.467,42.728,104.438,38.419
		l0.281,1.438c-22.463,4.396-60.895-15.506-105.391-38.559C965.52,42.09,903.049,9.728,847.877,9.729
		c-46.744,0.001-77.029,23.296-109.094,47.956c-36.678,28.219-78.25,60.196-152.223,62.7
		c-68.623,2.328-100.203,13.213-128.066,22.817C434.162,151.594,412.673,158.998,372.062,158.998L372.062,158.998z"/>
	<path opacity="0.6" fill="#FFFFFF" enable-background="new    " d="M897.272,219.838c-0.24,0-0.477,0-0.717,0
		c-32.902-0.145-54.477-10.346-77.313-21.146c-32.217-15.236-68.721-32.506-146.363-25.606
		c-79.361,7.05-126.194-11.205-175.771-30.548c-32.392-12.634-65.885-25.695-109.295-30.938
		C281.327,98.738,92.162,155.829,90.266,156.41l-0.428-1.405c1.901-0.58,191.369-57.758,298.148-44.859
		c43.599,5.26,77.178,18.357,109.65,31.028c49.413,19.271,96.09,37.476,175.114,30.452c78.033-6.938,114.738,10.428,147.117,25.741
		c22.688,10.726,44.107,20.857,76.688,21.005c0.234,0,0.473,0.002,0.709,0.002c38.135,0,71.836-13.354,101.596-25.144
		c32.666-12.944,60.889-24.122,88.49-16.885l-0.365,1.41c-27.146-7.111-55.152,3.979-87.592,16.829
		C969.52,206.431,935.68,219.838,897.272,219.838L897.272,219.838z"/>
	<path opacity="0.6" fill="#FFFFFF" enable-background="new    " d="M863.62,198.349c-2.795,0.392-5.625,0.717-8.484,0.972
		c-32.777,2.904-55.195-5.258-78.928-13.892c-33.494-12.188-71.463-26.002-148.107-11.938
		c-78.373,14.373-126.693,0.527-177.852-14.132c-33.421-9.579-67.979-19.478-111.69-20.682
		c-107.212-2.941-290.28,71.43-292.118,72.177l-0.555-1.35c1.841-0.76,185.196-75.238,292.709-72.29
		c43.897,1.205,78.547,11.128,112.056,20.734c50.986,14.612,99.142,28.409,177.178,14.099
		c77.053-14.127,115.211-0.247,148.875,12.009c23.578,8.58,45.854,16.679,78.309,13.809c38.271-3.396,70.813-19.926,99.533-34.512
		c31.336-15.917,58.389-29.661,86.549-25.011l-0.24,1.444c-27.688-4.572-54.545,9.073-85.648,24.864
		C928.508,178.213,898.512,193.45,863.62,198.349L863.62,198.349z"/>
	<path opacity="0.6" fill="#FFFFFF" enable-background="new    " d="M877.495,138.526c2.9-0.218,5.881-0.527,8.951-0.94
		c38.359-5.164,70.25-23.229,98.395-39.163c30.354-17.193,56.564-32.045,84.434-28.733l0.172-1.453
		c-28.34-3.367-54.744,11.594-85.328,28.912c-28.023,15.87-59.783,33.859-97.867,38.991c-32.289,4.341-54.9-2.739-78.848-10.239
		c-34.188-10.715-72.939-22.852-149.268-5.24c-77.305,17.847-126.04,6.238-177.634-6.046c-33.911-8.072-68.978-16.42-112.882-15.626
		c-107.526,1.935-287.328,84.66-289.131,85.494l0.617,1.329c1.798-0.841,181.293-83.427,288.539-85.361
		c43.722-0.785,78.694,7.539,112.518,15.591c51.767,12.324,100.666,23.966,178.306,6.048c75.941-17.526,114.49-5.45,148.494,5.206
		C828.797,134.131,849.538,140.628,877.495,138.526L877.495,138.526z"/>
	<g opacity="0.6">
		<path fill="#FFFFFF" d="M434.631,116.889c-152.87-0.011-273.656,64.942-431.222,30.906
			c172.857,46.789,327.908-49.09,500.464-24.643c107.29,15.198,178.731,71.948,288.417,26.036
			c80.744-33.801,185.756-29.865,265.002-1.344c-104.756-46.807-208.736-11.295-311.693,16.256
			C642.764,191.615,539.848,116.889,434.631,116.889L434.631,116.889"/>
	</g>
	<path opacity="0.6" fill="#FFFFFF" enable-background="new    " d="M398.38,81.231c-115.521,0-236.755,47.747-343.718,87.775
		C232.576,113.711,357.8,91.59,541.525,108.748c120.307,11.24,174.133,62.957,281.93,94.098
		c115.701,33.418,211.512-89.688,315.23-110.33c-65.342-9.313-155.869,79.735-216.152,101.296
		c-87.643,31.348-136.252-15.248-207.711-55.539C642.206,97.334,482.85,81.231,398.38,81.231L398.38,81.231"/>
	<path opacity="0.6" fill="#FFFFFF" enable-background="new    " d="M375.161,121.832c-111.417,0-227.109,36.989-332.563,70.329
		c180.53-46.06,306.723-61.693,489.317-35.086c119.582,17.428,170.654,71.835,276.716,108.491
		c113.834,39.336,215.846-78.686,320.492-93.938c-146.014-28.575-228.318,173.742-387.24,51.514
		C655.225,156.492,485.171,121.832,375.161,121.832L375.161,121.832"/>
	<path opacity="0.6" fill="#FFFFFF" enable-background="new    " d="M900.37,60.994c-49.668,0-87.557,31.319-134.178,42.25
		c-90.902,21.313-175.143-0.382-265.985,35.049c-139.132,54.269-270.195,19.833-407.27-12.468
		c186.209,56.784,302.153,28.694,484.259-11.257c84.52-18.543,164.43,7.363,245.775-31.112
		c101.996-48.234,173.779,45.587,267.49,21.021C1025.616,101.357,967.067,60.994,900.37,60.994L900.37,60.994"/>
	<path opacity="0.6" fill="#FFFFFF" enable-background="new    " d="M871.573,0C818.364,0,780.51,34.769,731.69,48.646
		c-89.814,25.531-174.965,7.79-264.057,47.419c-136.454,60.697-268.981,32.414-407.411,6.546
		c188.7,47.938,303.108,14.581,483.198-33.833c83.563-22.466,164.598-0.313,244.063-42.54
		c100.139-53.214,176.426,37.215,268.178,8.522C992.774,35.087,935.76,0,871.573,0L871.573,0"/>
	<path opacity="0.6" fill="#FFFFFF" enable-background="new    " d="M254.376,102.284c-69.508,6.815-124.31,60.66-190.271,74.727
		c80.818,7.711,136.102-85.375,224.129-72.44c100.446,14.76,184.667-5.497,284.093-0.063
		c186.154,10.177,305.104,19.264,479.771-66.688c-106.59,44.149-225.732,104.437-347.188,87.623
		c-80.811-11.187-149.045-32.771-231.183-11.8C391.447,134.652,332.129,94.622,254.376,102.284L254.376,102.284"/>
</g>
</svg>
