<?xml version="1.0" encoding="iso-8859-1"?>
<!-- Generator: Adobe Illustrator 12.0.0, SVG Export Plug-In . SVG Version: 6.00 Build 51448)  -->
<!DOCTYPE svg PUBLIC "-//W3C//DTD SVG 1.1 Basic//EN" "http://www.w3.org/Graphics/SVG/1.1/DTD/svg11-basic.dtd" [
	<!ENTITY ns_svg "http://www.w3.org/2000/svg">
	<!ENTITY ns_xlink "http://www.w3.org/1999/xlink">
]>
<svg  version="1.1" baseProfile="basic" id="Ebene_1" xmlns="&ns_svg;" xmlns:xlink="&ns_xlink;" width="1138.688" height="273.551"
	 viewBox="0 0 1138.688 273.551" overflow="visible" enable-background="new 0 0 1138.688 273.551" xml:space="preserve">
<g opacity="0.3">
	<g opacity="0.6">
		<path fill="#FFFFFF" d="M431.529,163.943c-55.696,0.002-114.667-9.166-168.217-30.949c-90.176-36.682-261.287-0.333-263.002,0.04
			L0,131.603c0.431-0.094,43.669-9.362,97.522-13.961c49.741-4.249,118.979-5.267,166.341,13.999
			c114.564,46.603,254.031,35.279,332.588,0.009c78.186-35.102,128.058-27.084,192.736-0.008
			c64.567,27.03,189.038,33.687,264.404,0.008l0.595,1.336c-34.21,15.284-82.204,23.349-135.122,22.728
			c-49.825-0.6-97.369-8.877-130.442-22.72c-64.3-26.919-113.875-34.892-191.571-0.008
			C554.945,151.891,495.388,163.943,431.529,163.943L431.529,163.943z"/>
	</g>
	<path opacity="0.6" fill="#FFFFFF" d="M385.981,176.872c-10.667,0-22.719-0.646-36.733-2.137
		C241.219,163.215,44.242,89.831,42.265,89.089l0.512-1.37c1.978,0.744,198.78,74.06,306.626,85.56
		c54.721,5.829,79.451-1.293,108.085-9.535c28.422-8.185,60.64-17.453,129.503-16.246c73.504,1.288,116.494-28.351,154.397-54.511
		c33.498-23.122,65.132-44.963,112.327-42.532c55.459,2.857,116.344,38.498,170.059,69.934
		c43.015,25.179,80.188,46.913,102.313,43.75l0.203,1.45c-22.684,3.231-60.019-18.624-103.257-43.938
		C969.46,90.29,908.739,54.756,853.638,51.917c-46.694-2.411-78.124,19.294-111.413,42.271
		c-37.281,25.725-79.429,54.809-150.577,54.813c-1.552,0-3.097-0.014-4.677-0.039c-68.662-1.211-100.754,8.032-129.073,16.185
		C436.444,171.322,417.17,176.872,385.981,176.872L385.981,176.872z"/>
	<path opacity="0.6" fill="#FFFFFF" d="M372.062,158.998c-6.648,0-13.805-0.201-21.574-0.622
		C242.01,152.44,41.514,89.306,39.5,88.67l0.44-1.397c2.011,0.636,202.331,63.717,310.625,69.64
		c54.95,3.007,79.278-5.383,107.452-15.093c27.96-9.639,59.65-20.563,128.492-22.896c73.501-2.494,114.879-34.319,151.38-62.399
		c32.263-24.815,62.741-48.255,109.981-48.259c55.533-0.002,118.174,32.448,173.438,61.083
		c44.251,22.924,82.465,42.727,104.437,38.419l0.28,1.438c-22.461,4.396-60.893-15.506-105.389-38.558
		C965.521,42.09,903.05,9.728,847.878,9.729c-46.744,0.001-77.03,23.296-109.094,47.956c-36.678,28.219-78.25,60.196-152.223,62.7
		c-68.623,2.328-100.203,13.213-128.066,22.817C434.162,151.594,412.673,158.998,372.062,158.998L372.062,158.998z"/>
	<path opacity="0.6" fill="#FFFFFF" d="M897.272,219.838c-0.24,0-0.476,0-0.717,0c-32.903-0.144-54.477-10.346-77.312-21.146
		c-32.218-15.237-68.721-32.506-146.364-25.607c-79.36,7.05-126.193-11.205-175.771-30.548
		c-32.391-12.633-65.884-25.695-109.295-30.938c-106.486-12.861-295.651,44.23-297.547,44.811l-0.428-1.405
		c1.901-0.58,191.369-57.758,298.148-44.859c43.599,5.26,77.178,18.357,109.651,31.028c49.413,19.272,96.091,37.476,175.113,30.452
		c78.033-6.937,114.739,10.428,147.117,25.741c22.688,10.726,44.108,20.858,76.688,21.005c0.234,0,0.473,0.002,0.71,0.002
		c38.133,0,71.836-13.353,101.594-25.143c32.666-12.945,60.89-24.122,88.491-16.885l-0.365,1.41
		c-27.146-7.111-55.152,3.98-87.592,16.829C969.521,206.431,935.681,219.838,897.272,219.838L897.272,219.838z"/>
	<path opacity="0.6" fill="#FFFFFF" d="M863.619,198.349c-2.795,0.392-5.625,0.717-8.483,0.972
		c-32.779,2.904-55.196-5.258-78.929-13.892c-33.493-12.188-71.462-26.002-148.107-11.938
		c-78.372,14.373-126.693,0.527-177.852-14.132c-33.421-9.579-67.979-19.478-111.69-20.682
		c-107.213-2.941-290.28,71.43-292.118,72.177l-0.555-1.35c1.841-0.76,185.196-75.238,292.71-72.29
		c43.897,1.205,78.547,11.128,112.055,20.735c50.987,14.612,99.142,28.409,177.178,14.098
		c77.054-14.127,115.212-0.247,148.876,12.009c23.577,8.58,45.853,16.679,78.308,13.809c38.272-3.396,70.813-19.926,99.533-34.512
		c31.336-15.917,58.39-29.661,86.549-25.011l-0.24,1.444c-27.687-4.572-54.545,9.074-85.648,24.865
		C928.508,178.213,898.512,193.45,863.619,198.349L863.619,198.349z"/>
	<path opacity="0.6" fill="#FFFFFF" d="M877.494,138.526c2.902-0.218,5.882-0.528,8.951-0.941
		c38.36-5.164,70.251-23.229,98.395-39.163c30.354-17.193,56.565-32.045,84.433-28.733l0.173-1.453
		c-28.34-3.368-54.744,11.593-85.328,28.912c-28.023,15.87-59.784,33.859-97.868,38.991c-32.289,4.341-54.9-2.739-78.848-10.239
		c-34.187-10.715-72.938-22.852-149.266-5.241c-77.306,17.847-126.04,6.239-177.635-6.045
		c-33.911-8.073-68.978-16.42-112.882-15.626c-107.526,1.934-287.328,84.66-289.131,85.494l0.617,1.329
		c1.798-0.841,181.293-83.427,288.539-85.362c43.721-0.785,78.694,7.54,112.517,15.591c51.767,12.325,100.665,23.966,178.306,6.048
		c75.942-17.526,114.491-5.45,148.495,5.206C828.797,134.131,849.538,140.628,877.494,138.526L877.494,138.526z"/>
	<g opacity="0.6">
		<path fill="#FFFFFF" d="M434.631,116.889c-152.87-0.011-273.656,64.942-431.222,30.906
			c172.857,46.789,327.908-49.09,500.464-24.642c107.29,15.198,178.732,71.948,288.417,26.036
			c80.744-33.801,185.756-29.865,265.002-1.344c-104.756-46.807-208.737-11.295-311.694,16.256
			C642.764,191.615,539.848,116.889,434.631,116.889L434.631,116.889"/>
	</g>
	<path opacity="0.6" fill="#FFFFFF" d="M398.38,81.231c-115.521,0-236.755,47.747-343.718,87.775
		C232.576,113.711,357.8,91.59,541.525,108.748c120.308,11.241,174.134,62.957,281.931,94.098
		c115.7,33.418,211.512-89.688,315.231-110.33c-65.342-9.313-155.871,79.735-216.154,101.296
		c-87.641,31.347-136.252-15.248-207.71-55.539C642.205,97.334,482.85,81.231,398.38,81.231L398.38,81.231"/>
	<path opacity="0.6" fill="#FFFFFF" d="M375.161,121.832c-111.417,0-227.109,36.99-332.563,70.329
		c180.53-46.059,306.723-61.693,489.317-35.086c119.582,17.428,170.654,71.835,276.716,108.492
		c113.834,39.336,215.846-78.686,320.493-93.938c-146.015-28.575-228.319,173.742-387.241,51.514
		C655.226,156.492,485.171,121.832,375.161,121.832L375.161,121.832"/>
	<path opacity="0.6" fill="#FFFFFF" d="M900.37,60.994c-49.669,0-87.557,31.32-134.179,42.25
		c-90.902,21.313-175.142-0.381-265.984,35.049c-139.132,54.269-270.195,19.833-407.27-12.468
		c186.209,56.785,302.153,28.695,484.259-11.256c84.52-18.543,164.43,7.363,245.776-31.113
		c101.996-48.234,173.778,45.587,267.489,21.022C1025.616,101.357,967.066,60.994,900.37,60.994L900.37,60.994"/>
	<path opacity="0.6" fill="#FFFFFF" d="M871.572,0c-53.208,0-91.061,34.769-139.883,48.646
		c-89.813,25.531-174.964,7.79-264.056,47.419c-136.454,60.697-268.981,32.414-407.411,6.546
		c188.7,47.937,303.108,14.581,483.198-33.833c83.563-22.466,164.599-0.313,244.062-42.54
		c100.139-53.214,176.427,37.214,268.179,8.522C992.774,35.087,935.76,0,871.572,0L871.572,0"/>
	<path opacity="0.6" fill="#FFFFFF" d="M254.376,102.284c-69.508,6.816-124.31,60.661-190.271,74.727
		c80.818,7.711,136.102-85.375,224.129-72.44c100.446,14.759,184.667-5.497,284.093-0.063
		c186.153,10.177,305.104,19.264,479.771-66.688c-106.59,44.149-225.733,104.436-347.188,87.623
		c-80.809-11.187-149.045-32.771-231.183-11.8C391.447,134.652,332.129,94.622,254.376,102.284L254.376,102.284"/>
</g>
</svg>
