<?xml version="1.0" encoding="utf-8"?>
<!-- Generator: Adobe Illustrator 12.0.0, SVG Export Plug-In . SVG Version: 6.00 Build 51448)  -->
<!DOCTYPE svg PUBLIC "-//W3C//DTD SVG 1.1//EN" "http://www.w3.org/Graphics/SVG/1.1/DTD/svg11.dtd" [
	<!ENTITY ns_svg "http://www.w3.org/2000/svg">
	<!ENTITY ns_xlink "http://www.w3.org/1999/xlink">
]>
<svg  version="1.1" id="Ebene_1" xmlns="&ns_svg;" xmlns:xlink="&ns_xlink;" width="1109.95" height="642.834"
	 viewBox="0 0 1109.95 642.834" overflow="visible" enable-background="new 0 0 1109.95 642.834" xml:space="preserve">
<g opacity="0.2">
	<polygon opacity="0.5" fill="none" stroke="#FFFFFF" enable-background="new    " points="750.229,410.645 591.95,329.957 
		399.939,357.43 313.277,482.945 470.878,607.172 723.311,557.647 	"/>
	<polygon opacity="0.5" fill="none" stroke="#FFFFFF" enable-background="new    " points="552.202,136.889 460.676,102.408 
		330.925,114.442 269.613,165.635 358.305,210.845 513.168,193.407 	"/>
	<polygon opacity="0.6" fill="#FFFFFF" stroke="#FFFFFF" points="551.155,136.903 459.634,102.422 329.876,114.46 268.563,165.653 
		357.247,210.861 512.13,193.429 	"/>
	<polygon opacity="0.5" fill="none" stroke="#FFFFFF" enable-background="new    " points="818.991,35.127 730.311,13.179 
		632.274,20.915 610.161,52.943 701.083,80.101 812.651,69.745 	"/>
	<polygon opacity="0.5" fill="none" stroke="#FFFFFF" enable-background="new    " points="921.788,99.291 812.651,69.745 
		701.083,80.101 682.045,123.674 795.834,161.595 925.145,147.033 	"/>
	<polygon opacity="0.5" fill="none" stroke="#FFFFFF" enable-background="new    " points="1065.387,188.931 925.145,147.033 
		795.834,161.595 784.34,224.334 934.6,280.94 1088.098,258.982 	"/>
	<polygon opacity="0.5" fill="none" stroke="#FFFFFF" enable-background="new    " points="632.274,20.915 556.879,0.505 
		458.759,7.712 423.179,37.419 498.376,62.477 610.161,52.943 	"/>
	<polygon opacity="0.5" fill="none" stroke="#FFFFFF" enable-background="new    " points="934.6,280.94 784.34,224.334 
		629.569,243.838 590.95,329.957 749.229,410.645 941.518,378.996 	"/>
	<polygon opacity="0.4" fill="#FFFFFF" stroke="#FFFFFF" points="358.305,210.845 269.613,165.635 115.488,181.314 16.842,249.283 
		95.328,311.151 286.325,287.085 	"/>
	<polygon opacity="0.4" fill="#FFFFFF" stroke="#FFFFFF" points="629.569,243.838 513.168,193.407 358.305,210.845 286.325,287.085 
		399.939,357.43 591.95,329.957 	"/>
	<polygon opacity="0.4" fill="#FFFFFF" stroke="#FFFFFF" points="330.925,114.442 258.238,82.958 129.054,93.984 49.652,140.549 
		115.488,181.314 269.613,165.635 	"/>
	<polygon opacity="0.4" fill="#FFFFFF" stroke="#FFFFFF" points="701.083,80.101 610.161,52.943 498.376,62.477 460.676,102.408 
		552.202,136.889 682.045,123.674 	"/>
	<polygon opacity="0.4" fill="#FFFFFF" stroke="#FFFFFF" points="795.754,161.595 681.975,123.68 552.129,136.889 513.083,193.413 
		629.475,243.844 784.254,224.338 	"/>
	<polygon opacity="0.4" fill="#FFFFFF" stroke="#FFFFFF" points="498.376,62.477 423.179,37.419 311.552,46.229 258.238,82.958 
		330.925,114.442 460.676,102.408 	"/>
</g>
<g opacity="0.2">
	<polygon opacity="0.5" fill="none" stroke="#FFFFFF" enable-background="new    " points="800.229,369.645 641.95,288.957 
		449.939,316.43 363.277,441.945 520.878,566.172 773.311,516.647 	"/>
	<polygon opacity="0.5" fill="none" stroke="#FFFFFF" enable-background="new    " points="602.202,95.889 510.676,61.408 
		380.925,73.442 319.613,124.635 408.305,169.845 563.168,152.407 	"/>
	<polygon opacity="0.6" fill="#FFFFFF" stroke="#FFFFFF" points="601.155,95.903 509.634,61.422 379.876,73.46 318.563,124.653 
		407.247,169.861 562.129,152.429 	"/>
	<polygon opacity="0.5" fill="none" stroke="#FFFFFF" enable-background="new    " points="868.991,-5.873 780.311,-27.821 
		682.274,-20.085 660.161,11.943 751.083,39.101 862.651,28.745 	"/>
	<polygon opacity="0.5" fill="none" stroke="#FFFFFF" enable-background="new    " points="971.788,58.291 862.651,28.745 
		751.083,39.101 732.045,82.674 845.834,120.595 975.145,106.033 	"/>
	<polygon opacity="0.5" fill="none" stroke="#FFFFFF" enable-background="new    " points="1115.387,147.931 975.145,106.033 
		845.834,120.595 834.34,183.334 984.6,239.94 1138.098,217.982 	"/>
	<polygon opacity="0.5" fill="none" stroke="#FFFFFF" enable-background="new    " points="682.274,-20.085 606.879,-40.495 
		508.759,-33.288 473.179,-3.581 548.376,21.477 660.161,11.943 	"/>
	<polygon opacity="0.5" fill="none" stroke="#FFFFFF" enable-background="new    " points="984.6,239.94 834.34,183.334 
		679.569,202.838 640.95,288.957 799.229,369.645 991.518,337.996 	"/>
	<polygon opacity="0.4" fill="#FFFFFF" stroke="#FFFFFF" points="408.305,169.845 319.613,124.635 165.488,140.314 66.842,208.283 
		145.328,270.151 336.325,246.085 	"/>
	<polygon opacity="0.4" fill="#FFFFFF" stroke="#FFFFFF" points="679.569,202.838 563.168,152.407 408.305,169.845 336.325,246.085 
		449.939,316.43 641.95,288.957 	"/>
	<polygon opacity="0.4" fill="#FFFFFF" stroke="#FFFFFF" points="380.925,73.442 308.238,41.958 179.054,52.984 99.652,99.549 
		165.488,140.314 319.613,124.635 	"/>
	<polygon opacity="0.4" fill="#FFFFFF" stroke="#FFFFFF" points="751.083,39.101 660.161,11.943 548.376,21.477 510.676,61.408 
		602.202,95.889 732.045,82.674 	"/>
	<polygon opacity="0.4" fill="#FFFFFF" stroke="#FFFFFF" points="845.754,120.595 731.975,82.68 602.129,95.889 563.083,152.413 
		679.475,202.844 834.254,183.338 	"/>
	<polygon opacity="0.4" fill="#FFFFFF" stroke="#FFFFFF" points="548.376,21.477 473.179,-3.581 361.552,5.229 308.238,41.958 
		380.925,73.442 510.676,61.408 	"/>
</g>
<g opacity="0.2">
	<polygon opacity="0.5" fill="none" stroke="#FFFFFF" enable-background="new    " points="692.202,142.889 600.676,108.408 
		470.925,120.442 409.613,171.635 498.305,216.845 653.168,199.407 	"/>
	<polygon opacity="0.6" fill="#FFFFFF" stroke="#FFFFFF" points="691.155,142.903 599.633,108.422 469.876,120.46 408.563,171.653 
		497.247,216.861 652.129,199.429 	"/>
	<polygon opacity="0.5" fill="none" stroke="#FFFFFF" enable-background="new    " points="958.991,41.127 870.311,19.179 
		772.274,26.915 750.161,58.943 841.083,86.101 952.651,75.745 	"/>
	<polygon opacity="0.5" fill="none" stroke="#FFFFFF" enable-background="new    " points="1061.788,105.291 952.651,75.745 
		841.083,86.101 822.045,129.674 935.834,167.595 1065.145,153.033 	"/>
	<polygon opacity="0.5" fill="none" stroke="#FFFFFF" enable-background="new    " points="1205.387,194.931 1065.145,153.033 
		935.834,167.595 924.34,230.334 1074.6,286.94 1228.098,264.982 	"/>
	<polygon opacity="0.5" fill="none" stroke="#FFFFFF" enable-background="new    " points="772.274,26.915 696.879,6.505 
		598.758,13.712 563.178,43.419 638.375,68.477 750.161,58.943 	"/>
	<polygon opacity="0.5" fill="none" stroke="#FFFFFF" enable-background="new    " points="1074.6,286.94 924.34,230.334 
		769.569,249.838 730.95,335.957 889.229,416.645 1081.518,384.996 	"/>
	<polygon opacity="0.4" fill="#FFFFFF" stroke="#FFFFFF" points="498.305,216.845 409.613,171.635 255.488,187.314 156.842,255.283 
		235.328,317.151 426.325,293.085 	"/>
	<polygon opacity="0.4" fill="#FFFFFF" stroke="#FFFFFF" points="769.569,249.838 653.168,199.407 498.305,216.845 426.325,293.085 
		539.939,363.43 731.95,335.957 	"/>
	<polygon opacity="0.4" fill="#FFFFFF" stroke="#FFFFFF" points="470.925,120.442 398.238,88.958 269.054,99.984 189.652,146.549 
		255.488,187.314 409.613,171.635 	"/>
	<polygon opacity="0.4" fill="#FFFFFF" stroke="#FFFFFF" points="841.083,86.101 750.161,58.943 638.375,68.477 600.676,108.408 
		692.202,142.889 822.045,129.674 	"/>
	<polygon opacity="0.4" fill="#FFFFFF" stroke="#FFFFFF" points="935.754,167.595 821.975,129.68 692.129,142.889 653.083,199.413 
		769.475,249.844 924.254,230.338 	"/>
	<polygon opacity="0.4" fill="#FFFFFF" stroke="#FFFFFF" points="638.375,68.477 563.178,43.419 451.552,52.229 398.238,88.958 
		470.925,120.442 600.676,108.408 	"/>
</g>
</svg>
