<?xml version="1.0" encoding="utf-8"?>
<!-- Generator: Adobe Illustrator 12.0.0, SVG Export Plug-In . SVG Version: 6.00 Build 51448)  -->
<!DOCTYPE svg PUBLIC "-//W3C//DTD SVG 1.1//EN" "http://www.w3.org/Graphics/SVG/1.1/DTD/svg11.dtd" [
	<!ENTITY ns_svg "http://www.w3.org/2000/svg">
	<!ENTITY ns_xlink "http://www.w3.org/1999/xlink">
]>
<svg  version="1.1" id="Ebene_1" xmlns="&ns_svg;" xmlns:xlink="&ns_xlink;" width="1116.967" height="892.293"
	 viewBox="0 0 1116.967 892.293" overflow="visible" enable-background="new 0 0 1116.967 892.293" xml:space="preserve">
<g id="_x2E_.." opacity="0.25">
	<polygon opacity="0.2" fill="#FFFFFF" enable-background="new    " points="709.155,100.26 430.756,378.662 430.756,560.347 
		612.448,560.347 890.848,281.95 890.848,100.26 	"/>
	<polygon opacity="0.2" fill="#FFFFFF" enable-background="new    " points="607.57,448.018 451.922,603.668 451.922,705.26 
		553.499,705.26 709.155,549.599 709.155,448.018 	"/>
	<polygon opacity="0.2" fill="#FFFFFF" enable-background="new    " points="532.354,0 363.301,169.047 363.301,279.377 
		473.631,279.377 642.683,110.327 642.683,0 	"/>
	<polygon opacity="0.2" fill="#FFFFFF" enable-background="new    " points="921.208,314.837 821.846,414.208 821.846,479.056 
		886.694,479.056 986.064,379.685 986.064,314.837 	"/>
	<polygon opacity="0.2" fill="#FFFFFF" enable-background="new    " points="308.677,532.021 212.913,627.776 212.913,690.279 
		275.411,690.279 371.171,594.522 371.171,532.021 	"/>
	<polygon opacity="0.2" fill="#FFFFFF" enable-background="new    " points="262.758,475.258 203.568,534.442 203.568,573.066 
		242.195,573.066 301.38,513.88 301.38,475.258 	"/>
	<polygon opacity="0.2" fill="#FFFFFF" enable-background="new    " points="487.003,684.948 447.919,724.042 447.919,749.548 
		473.428,749.548 512.511,710.462 512.511,684.948 	"/>
	<polygon opacity="0.2" fill="#FFFFFF" enable-background="new    " points="90.978,814.282 43.777,861.49 43.777,892.293 
		74.585,892.293 121.778,845.075 121.778,814.282 	"/>
	<polygon opacity="0.2" fill="#FFFFFF" enable-background="new    " points="123.068,807.048 95.112,835.009 95.112,853.257 
		113.36,853.257 141.314,825.293 141.314,807.048 	"/>
	<polygon opacity="0.2" fill="#FFFFFF" enable-background="new    " points="263.743,778.402 235.787,806.353 235.787,824.6 
		254.032,824.6 281.984,796.638 281.984,778.402 	"/>
	<polygon opacity="0.2" fill="#FFFFFF" enable-background="new    " points="182.894,744.44 154.94,772.396 154.94,790.643 
		173.186,790.643 201.134,762.68 201.134,744.44 	"/>
	<polygon opacity="0.2" fill="#FFFFFF" enable-background="new    " points="463.524,778.402 435.568,806.353 435.568,824.6 
		453.808,824.6 481.76,796.638 481.76,778.402 	"/>
	<polygon opacity="0.2" fill="#FFFFFF" enable-background="new    " points="156.989,486.743 110.421,533.323 110.421,563.708 
		140.815,563.708 187.385,517.141 187.385,486.743 	"/>
	<polygon opacity="0.2" fill="#FFFFFF" enable-background="new    " points="73.829,765.107 0,838.937 0,887.108 48.188,887.108 
		122.007,813.293 122.007,765.107 	"/>
	<polygon opacity="0.2" fill="#FFFFFF" enable-background="new    " points="624.399,583.344 585.313,622.435 585.313,647.942 
		610.819,647.942 649.899,608.854 649.899,583.344 	"/>
	<polygon opacity="0.2" fill="#FFFFFF" enable-background="new    " points="684.311,666.711 645.227,705.799 645.227,731.303 
		670.737,731.303 709.822,692.22 709.822,666.711 	"/>
	<polygon opacity="0.2" fill="#FFFFFF" enable-background="new    " points="241.454,325.448 202.371,364.536 202.371,390.046 
		227.88,390.046 266.963,350.955 266.963,325.448 	"/>
	<polygon opacity="0.2" fill="#FFFFFF" enable-background="new    " points="495.633,163.037 433.84,224.831 433.84,265.16 
		474.163,265.16 535.953,203.364 535.953,163.037 	"/>
	<polygon opacity="0.2" fill="#FFFFFF" enable-background="new    " points="140.038,628.57 102.999,665.614 102.999,689.781 
		127.174,689.781 164.212,652.74 164.212,628.57 	"/>
	<polygon opacity="0.2" fill="#FFFFFF" enable-background="new    " points="275.411,690.279 234.829,730.865 234.829,757.357 
		261.311,757.357 301.899,716.766 301.899,690.279 	"/>
	<polygon opacity="0.2" fill="#FFFFFF" enable-background="new    " points="605.613,203.805 552.864,256.553 552.864,438.247 
		734.554,438.247 787.306,385.497 787.306,203.805 	"/>
	<polygon opacity="0.2" fill="#FFFFFF" enable-background="new    " points="868.38,259.485 848.162,279.703 848.162,349.351 
		917.813,349.351 938.03,329.133 938.03,259.485 	"/>
	<polygon opacity="0.2" fill="#FFFFFF" enable-background="new    " points="573.376,138.354 553.157,158.577 553.157,228.224 
		622.808,228.224 643.026,208.001 643.026,138.354 	"/>
	<polygon opacity="0.2" fill="#FFFFFF" enable-background="new    " points="403.623,489.151 375.074,517.703 375.074,616.031 
		473.407,616.031 501.953,587.485 501.953,489.151 	"/>
	<polygon opacity="0.2" fill="#FFFFFF" enable-background="new    " points="189.856,664.749 174.613,679.991 174.613,732.483 
		227.112,732.483 242.349,717.252 242.349,664.749 	"/>
	<polygon opacity="0.2" fill="#FFFFFF" enable-background="new    " points="226.521,499.458 192.847,533.141 192.847,649.124 
		308.833,649.124 342.507,615.452 342.507,499.458 	"/>
	<polygon opacity="0.2" fill="#FFFFFF" enable-background="new    " points="643.432,536.045 609.758,569.708 609.758,685.708 
		725.745,685.708 759.42,652.031 759.42,536.045 	"/>
	<polygon opacity="0.2" fill="#FFFFFF" enable-background="new    " points="710.972,330.306 668.208,373.07 668.208,520.374 
		815.511,520.374 858.272,477.605 858.272,330.306 	"/>
	<polygon opacity="0.2" fill="#FFFFFF" enable-background="new    " points="354.352,67.513 318.772,103.088 318.772,225.643 
		441.325,225.643 476.905,190.059 476.905,67.513 	"/>
	<polygon opacity="0.2" fill="#FFFFFF" enable-background="new    " points="289.885,204.531 266.944,227.468 266.944,306.479 
		345.95,306.479 368.89,283.538 368.89,204.531 	"/>
	<polygon opacity="0.2" fill="#FFFFFF" enable-background="new    " points="860.383,506.716 837.449,529.656 837.449,608.66 
		916.458,608.66 939.396,585.726 939.396,506.716 	"/>
	<polygon opacity="0.2" fill="#FFFFFF" enable-background="new    " points="374.813,693.419 363.356,704.874 363.356,744.348 
		402.822,744.348 414.283,732.876 414.283,693.419 	"/>
	<polygon opacity="0.2" fill="#FFFFFF" enable-background="new    " points="342.369,725.856 330.912,737.311 330.912,776.784 
		370.385,776.784 381.841,765.323 381.841,725.856 	"/>
	<polygon opacity="0.2" fill="#FFFFFF" enable-background="new    " points="173.042,820.001 161.585,831.446 161.585,870.925 
		201.057,870.925 212.513,859.462 212.513,820.001 	"/>
	<polygon opacity="0.2" fill="#FFFFFF" enable-background="new    " points="302.892,603.333 286.188,620.031 286.188,677.573 
		343.724,677.573 360.432,660.864 360.432,603.333 	"/>
	<polygon opacity="0.2" fill="#FFFFFF" enable-background="new    " points="319.796,448.99 307.998,460.781 307.998,501.419 
		348.633,501.419 360.424,489.621 360.424,448.99 	"/>
	<polygon opacity="0.2" fill="#FFFFFF" enable-background="new    " points="391.641,310.281 360.424,341.49 360.424,448.99 
		467.928,448.99 499.132,417.783 499.132,310.281 	"/>
	<polygon opacity="0.2" fill="#FFFFFF" enable-background="new    " points="346.557,277.066 327.212,296.406 327.212,363.027 
		393.834,363.027 413.171,343.688 413.171,277.066 	"/>
	<polygon opacity="0.1" fill="#FFFFFF" enable-background="new    " points="709.155,100.26 430.756,378.662 430.756,560.347 
		612.448,560.347 890.848,281.95 890.848,100.26 	"/>
	<polygon opacity="0.2" fill="#FFFFFF" enable-background="new    " points="970.066,223.927 744.979,449.012 744.979,595.91 
		891.879,595.91 1116.967,370.829 1116.967,223.927 	"/>
	<polygon opacity="0.2" fill="#FFFFFF" enable-background="new    " points="948.21,168.507 896.114,220.608 896.114,254.614 
		930.114,254.614 982.222,202.51 982.222,168.507 	"/>
	<path id="Streifen" opacity="0.3" fill="#FFFFFF" enable-background="new    " d="M430.756,489.171l71.197-0.021l-0.013,71.193
		h-15.916l0.008-44.025l-44.039,44.025l-11.246,0.025v-11.267l44.039-44.041l-44.031,0.018L430.756,489.171L430.756,489.171z
		 M819.655,100.275v15.916l44.022-0.017l-44.029,44.041l-0.01,11.264l11.245-0.021l44.04-44.035l-0.008,44.035h15.912l0.017-71.199
		L819.655,100.275L819.655,100.275z M451.922,655.594v11.1l30.716-0.014l-30.716,30.72l-0.008,7.857l7.849-0.022l30.715-30.715
		l-0.007,30.715h11.104l0.016-49.659L451.922,655.594L451.922,655.594z M212.926,640.619v11.103l30.711-0.019l-30.715,30.721
		l-0.008,7.854l7.85-0.021l30.713-30.712v30.712h11.1l0.013-49.657L212.926,640.619L212.926,640.619z M327.22,332.093v6.913
		l19.127-0.004l-19.135,19.135v4.893l4.891-0.007l19.131-19.132v19.132h6.912l0.011-30.932L327.22,332.093L327.22,332.093z
		 M821.846,448.121v6.917l19.128-0.008l-19.128,19.139v4.891l4.88-0.005l19.142-19.142l-0.008,19.142h6.917l0.006-30.938
		L821.846,448.121L821.846,448.121z M553.156,206.647v4.82l13.34-0.007l-13.34,13.346v3.414l3.401-0.006l13.348-13.345
		l-0.004,13.345h4.819l0.005-21.579L553.156,206.647L553.156,206.647z M552.87,407.313v6.908h19.126l-19.134,19.131v4.896
		l4.892-0.014l19.126-19.128v19.128h6.919l0.007-30.93L552.87,407.313L552.87,407.313z M609.758,664.119v4.83H623.1l-13.342,13.339
		v3.414l3.4-0.005l13.345-13.35v13.35h4.816l0.003-21.581L609.758,664.119L609.758,664.119z M612.653,450.595v-0.958H557.86v0.958
		H612.653L612.653,450.595z M612.653,455.406v-0.962H557.86v0.962H612.653L612.653,455.406z M612.653,460.2v-0.955H557.86v0.955
		H612.653L612.653,460.2z M612.653,465.016v-0.958H557.86v0.958H612.653L612.653,465.016z M612.653,469.821v-0.959H557.86v0.959
		H612.653L612.653,469.821z M612.653,474.622v-0.954H557.86v0.954H612.653L612.653,474.622z M612.653,479.438v-0.96H557.86v0.96
		H612.653L612.653,479.438z M612.653,484.241v-0.965H557.86v0.965H612.653L612.653,484.241z M890.848,186.253v-1.147H825.4v1.147
		H890.848L890.848,186.253z M890.848,191.996v-1.148H825.4v1.148H890.848L890.848,191.996z M890.848,197.737v-1.146H825.4v1.146
		H890.848L890.848,197.737z M890.848,203.479v-1.146H825.4v1.146H890.848L890.848,203.479z M890.848,209.22v-1.146H825.4v1.146
		H890.848L890.848,209.22z M890.848,214.965v-1.153H825.4v1.153H890.848L890.848,214.965z M890.848,220.704v-1.153H825.4v1.153
		H890.848L890.848,220.704z M890.848,226.443v-1.146H825.4v1.146H890.848L890.848,226.443z M399.757,373.178v-1.146h-65.446v1.146
		H399.757L399.757,373.178z M399.757,378.924v-1.152h-65.446v1.152H399.757L399.757,378.924z M399.757,384.662v-1.153h-65.446v1.153
		H399.757L399.757,384.662z M399.757,390.399v-1.143h-65.446v1.143H399.757L399.757,390.399z M399.757,396.143v-1.146h-65.446v1.146
		H399.757L399.757,396.143z M399.757,401.884v-1.151h-65.446v1.151H399.757L399.757,401.884z M399.757,407.621v-1.146h-65.446v1.146
		H399.757L399.757,407.621z M399.757,413.365v-1.143h-65.446v1.143H399.757L399.757,413.365z M429.663,622.656v-0.854h-48.902v0.854
		H429.663L429.663,622.656z M429.663,626.95v-0.855h-48.902v0.855H429.663L429.663,626.95z M429.663,631.237v-0.854h-48.902v0.854
		H429.663L429.663,631.237z M429.663,635.529v-0.863h-48.902v0.863H429.663L429.663,635.529z M429.663,639.821v-0.857h-48.902v0.857
		H429.663L429.663,639.821z M429.663,644.107v-0.854h-48.902v0.854H429.663L429.663,644.107z M429.663,648.399v-0.858h-48.902v0.858
		H429.663L429.663,648.399z M429.663,652.689v-0.868h-48.902v0.868H429.663L429.663,652.689z M260.976,440.697v-0.855h-48.901v0.855
		H260.976L260.976,440.697z M260.976,444.981v-0.854h-48.901v0.854H260.976L260.976,444.981z M260.976,449.273v-0.857h-48.901v0.857
		H260.976L260.976,449.273z M260.976,453.565v-0.854h-48.901v0.854H260.976L260.976,453.565z M260.976,457.852v-0.854h-48.901v0.854
		H260.976L260.976,457.852z M260.976,462.136v-0.853h-48.901v0.853H260.976L260.976,462.136z M260.976,466.428v-0.858h-48.901v0.858
		H260.976L260.976,466.428z M260.976,470.72v-0.858h-48.901v0.858H260.976L260.976,470.72z M261.345,274.26v-0.854h-48.904v0.854
		H261.345L261.345,274.26z M261.345,278.552v-0.856h-48.904v0.856H261.345L261.345,278.552z M261.345,282.842v-0.854h-48.904v0.854
		H261.345L261.345,282.842z M261.345,287.134v-0.859h-48.904v0.859H261.345L261.345,287.134z M261.345,291.423v-0.856h-48.904v0.856
		H261.345L261.345,291.423z M261.345,295.71v-0.86h-48.904v0.86H261.345L261.345,295.71z M261.345,300v-0.86h-48.904V300H261.345
		L261.345,300z M261.345,304.29v-0.857h-48.904v0.857H261.345L261.345,304.29z M380.452,166.305v-0.858H331.55v0.858H380.452
		L380.452,166.305z M380.452,170.597v-0.858H331.55v0.858H380.452L380.452,170.597z M380.452,174.887v-0.858H331.55v0.858H380.452
		L380.452,174.887z M380.452,179.176v-0.863H331.55v0.863H380.452L380.452,179.176z M380.452,183.466v-0.857H331.55v0.857H380.452
		L380.452,183.466z M380.452,187.752v-0.856H331.55v0.856H380.452L380.452,187.752z M380.452,192.042v-0.856H331.55v0.856H380.452
		L380.452,192.042z M380.452,196.332v-0.854H331.55v0.854H380.452L380.452,196.332z M795.376,107.49v-0.856h-48.904v0.856H795.376
		L795.376,107.49z M795.376,111.783v-0.858h-48.904v0.858H795.376L795.376,111.783z M795.376,116.071v-0.855h-48.904v0.855H795.376
		L795.376,116.071z M795.376,120.36v-0.855h-48.904v0.855H795.376L795.376,120.36z M795.376,124.65v-0.855h-48.904v0.855H795.376
		L795.376,124.65z M795.376,128.937v-0.854h-48.904v0.854H795.376L795.376,128.937z M795.376,133.227v-0.854h-48.904v0.854H795.376
		L795.376,133.227z M795.376,137.519v-0.854h-48.904v0.854H795.376L795.376,137.519z M267.307,697.529v-0.855h-48.898v0.855H267.307
		L267.307,697.529z M267.307,701.811v-0.849h-48.898v0.849H267.307L267.307,701.811z M267.307,706.1v-0.854h-48.898v0.854H267.307
		L267.307,706.1z M267.307,710.398v-0.868h-48.898v0.868H267.307L267.307,710.398z M267.307,714.685v-0.852h-48.898v0.852H267.307
		L267.307,714.685z M267.307,718.97v-0.854h-48.898v0.854H267.307L267.307,718.97z M267.307,723.263v-0.854h-48.898v0.854H267.307
		L267.307,723.263z M267.307,727.556v-0.857h-48.898v0.857H267.307L267.307,727.556z M851.917,481.936v-0.473h-27.07v0.473H851.917
		L851.917,481.936z M851.917,484.316v-0.479h-27.07v0.479H851.917L851.917,484.316z M851.917,486.682v-0.471h-27.07v0.471H851.917
		L851.917,486.682z M851.917,489.06v-0.474h-27.07v0.474H851.917L851.917,489.06z M851.917,491.432v-0.479h-27.07v0.479H851.917
		L851.917,491.432z M851.917,493.806v-0.471h-27.07v0.471H851.917L851.917,493.806z M851.917,496.185v-0.479h-27.07v0.479H851.917
		L851.917,496.185z M851.917,498.552v-0.475h-27.07v0.475H851.917L851.917,498.552z M851.917,501.325v-0.473h-27.07v0.473H851.917
		L851.917,501.325z M851.917,503.703v-0.474h-27.07v0.474H851.917L851.917,503.703z M851.917,506.074V505.6h-27.07v0.479
		L851.917,506.074L851.917,506.074z M851.917,508.448v-0.476h-27.07v0.476H851.917L851.917,508.448z M851.917,510.828v-0.479h-27.07
		v0.479H851.917L851.917,510.828z M851.917,513.197v-0.473h-27.07v0.473H851.917L851.917,513.197z M851.917,515.573V515.1h-27.07
		v0.473H851.917L851.917,515.573z M851.917,517.948v-0.479h-27.07v0.479H851.917L851.917,517.948z M851.917,520.718v-0.478h-27.07
		v0.478H851.917L851.917,520.718z M851.917,523.095v-0.475h-27.07v0.475H851.917L851.917,523.095z M851.917,525.467v-0.472h-27.07
		v0.472H851.917L851.917,525.467z M851.917,527.841v-0.477h-27.07v0.477H851.917L851.917,527.841z M851.917,530.223v-0.474h-27.07
		v0.474H851.917L851.917,530.223z M851.917,532.593v-0.479h-27.07v0.479H851.917L851.917,532.593z M851.917,534.965v-0.472h-27.07
		v0.472H851.917L851.917,534.965z M851.917,537.349v-0.481h-27.07v0.481H851.917L851.917,537.349z"/>
</g>
</svg>
