<?xml version="1.0" encoding="utf-8"?>
<!-- Generator: Adobe Illustrator 12.0.0, SVG Export Plug-In . SVG Version: 6.00 Build 51448)  -->
<!DOCTYPE svg PUBLIC "-//W3C//DTD SVG 1.1//EN" "http://www.w3.org/Graphics/SVG/1.1/DTD/svg11.dtd" [
	<!ENTITY ns_svg "http://www.w3.org/2000/svg">
	<!ENTITY ns_xlink "http://www.w3.org/1999/xlink">
]>
<svg  version="1.1" id="Ebene_1" xmlns="&ns_svg;" xmlns:xlink="&ns_xlink;" width="993.6" height="797.5"
	 viewBox="0 0 993.6 797.5" overflow="visible" enable-background="new 0 0 993.6 797.5" xml:space="preserve">
<g opacity="0.25">
	<g opacity="0.2">
		<g>
			<polygon fill="#FFFFFF" points="379.4,305.7 92.8,304.1 -12.7,400.9 197.9,402.1 -121.4,780.3 -121.4,780.3 267.9,478.4 
				251.2,688.3 356.6,591.5 			"/>
		</g>
	</g>
	<g opacity="0.2">
		<g>
			<polygon fill="#FFFFFF" points="500.8,-94.9 214.1,-96.5 108.7,0.3 319.3,1.5 -121.4,780.3 -121.4,780.3 389.3,77.7 372.5,287.7 
				477.9,190.9 			"/>
		</g>
	</g>
	<g opacity="0.2">
		<g>
			<polygon fill="#FFFFFF" points="926.6,23.8 433.7,24.6 251.3,192.1 613.3,191.5 -121.4,780.3 -121.4,780.3 732.8,321.6 
				701.4,682.4 883.8,514.8 			"/>
		</g>
	</g>
	<g opacity="0.2">
		<g>
			<polygon fill="#FFFFFF" points="481,176.6 437.5,176.4 421.5,191.1 453.5,191.2 -121.4,780.3 -121.4,780.3 464.1,202.8 
				461.5,234.7 477.5,220 			"/>
		</g>
	</g>
	<g opacity="0.2">
		<g>
			<polygon fill="#FFFFFF" points="618.5,437.1 416.4,436 342,504.2 490.5,505 -121.4,780.3 -121.4,780.3 539.9,558.8 528.1,706.8 
				602.4,638.5 			"/>
		</g>
	</g>
	<g opacity="0.2">
		<g>
			<polygon fill="#FFFFFF" points="402,69.7 194,68.6 117.5,138.8 270.3,139.7 -121.4,780.3 -121.4,780.3 321.1,195 308.9,347.4 
				385.4,277.1 			"/>
		</g>
	</g>
	<g opacity="0.2">
		<g>
			<polygon fill="#FFFFFF" points="691.5,108.7 610.7,108.3 581,135.6 640.3,135.9 -121.4,780.3 -121.4,780.3 660.1,157.4 
				655.3,216.5 685.1,189.3 			"/>
		</g>
	</g>
	<g opacity="0.2">
		<g>
			<polygon fill="#FFFFFF" points="648.9,88.4 598.2,88.1 579.5,105.3 616.8,105.5 -121.4,780.3 -121.4,780.3 629.2,119 
				626.2,156.1 644.9,139 			"/>
		</g>
	</g>
	<g opacity="0.2">
		<g>
			<polygon fill="#FFFFFF" points="501.7,540.7 427.6,540.3 400.3,565.3 454.8,565.6 -121.4,780.3 -121.4,780.3 472.9,585.3 
				468.5,639.6 495.8,614.6 			"/>
		</g>
	</g>
	<g opacity="0.2">
		<g>
			<polygon fill="#FFFFFF" points="1006.5,532.1 932.4,531.7 905.1,556.7 959.5,557 -121.4,780.3 -121.4,780.3 977.7,576.7 
				973.3,631.1 1000.6,606 			"/>
		</g>
	</g>
	<g opacity="0.2">
		<g>
			<polygon fill="#FFFFFF" points="368.7,220.8 335.7,220.7 323.6,231.8 347.8,231.9 -121.4,780.3 -121.4,780.3 355.9,240.7 
				353.9,264.8 366.1,253.7 			"/>
		</g>
	</g>
	<g opacity="0.2">
		<g>
			<polygon fill="#FFFFFF" points="859.3,210.7 711.5,209.9 657.1,259.8 765.7,260.4 -121.4,780.3 -121.4,780.3 801.8,299.7 
				793.2,408 847.5,358 			"/>
		</g>
	</g>
	<g opacity="0.2">
		<g>
			<polygon fill="#FFFFFF" points="667.3,-90.6 620.9,-90.8 603.8,-75.2 637.9,-75 134.6,386.9 145.9,399.2 649.3,-62.6 
				646.6,-28.6 663.6,-44.3 			"/>
		</g>
	</g>
	<g opacity="0.2">
		<g>
			<polygon fill="#FFFFFF" points="584.3,645.5 478.4,644.9 439.5,680.6 517.3,681.1 -121.4,780.3 -121.4,780.3 543.1,709.2 
				536.9,786.8 575.8,751 			"/>
		</g>
	</g>
	<g opacity="0.2">
		<g>
			<polygon fill="#FFFFFF" points="158.5,-52.5 109.3,-52.8 91.2,-36.1 127.4,-35.9 -121.4,780.3 -121.4,780.3 139.4,-22.8 
				136.5,13.2 154.6,-3.4 			"/>
		</g>
	</g>
	<g opacity="0.2">
		<g>
			<polygon fill="#FFFFFF" points="687.3,324.5 656.6,324.3 645.4,334.6 667.9,334.7 -121.4,780.3 -121.4,780.3 675.4,342.9 
				673.6,365.4 684.9,355 			"/>
		</g>
	</g>
	<g opacity="0.2">
		<g>
			<polygon fill="#FFFFFF" points="739.2,428.5 658.4,428.1 628.7,455.4 688.1,455.7 -121.4,780.3 -121.4,780.3 707.8,477.2 
				703.1,536.4 732.8,509.1 			"/>
		</g>
	</g>
	<g opacity="0.2">
		<g>
			<polygon fill="#FFFFFF" points="638.3,242 464.1,241.1 400.1,299.9 528,300.6 403.2,415.2 445.7,461.6 570.6,346.9 560.4,474.5 
				624.4,415.7 			"/>
		</g>
	</g>
	<g opacity="0.2">
		<g>
			<polygon fill="#FFFFFF" points="1144.1,260.7 1001.2,259.8 948.6,308.1 1053.6,308.7 -121.4,780.3 -121.4,780.3 1088.5,346.7 
				1080.1,451.4 1132.7,403.1 			"/>
		</g>
	</g>
	<g opacity="0.2">
		<g>
			<polygon fill="#FFFFFF" points="549.1,-276.1 441.3,-276.7 401.7,-240.4 480.8,-239.9 -121.4,780.3 -121.4,780.3 507.1,-211.3 
				500.8,-132.4 540.5,-168.7 			"/>
		</g>
	</g>
	<g opacity="0.2">
		<g>
			<polygon fill="#FFFFFF" points="962,-126.1 919.9,-126.4 904.4,-112.2 935.3,-112 435.1,347 445.4,358.1 945.6,-100.8 943.2,-70 
				958.6,-84.2 			"/>
		</g>
	</g>
	<g opacity="0.2">
		<g>
			<polygon fill="#FFFFFF" points="444.9,317.6 321.9,316.9 276.7,358.4 367.1,359 -121.4,780.3 -121.4,780.3 397.1,391.7 
				389.9,481.8 435.1,440.2 			"/>
		</g>
	</g>
</g>
</svg>
