<?xml version="1.0" encoding="iso-8859-1"?>
<!-- Generator: Adobe Illustrator 12.0.0, SVG Export Plug-In . SVG Version: 6.00 Build 51448)  -->
<!DOCTYPE svg PUBLIC "-//W3C//DTD SVG 1.1 Basic//EN" "http://www.w3.org/Graphics/SVG/1.1/DTD/svg11-basic.dtd" [
	<!ENTITY ns_svg "http://www.w3.org/2000/svg">
	<!ENTITY ns_xlink "http://www.w3.org/1999/xlink">
]>
<svg  version="1.1" baseProfile="basic" id="Ebene_1" xmlns="&ns_svg;" xmlns:xlink="&ns_xlink;" width="1047.473" height="721.596"
	 viewBox="0 0 1047.473 721.596" overflow="visible" enable-background="new 0 0 1047.473 721.596" xml:space="preserve">
<g opacity="0.15">
	<circle opacity="0.3" fill="#FFFFFF" stroke="#FFFFFF" cx="-257.867" cy="-194.011" r="9.489"/>
	<line opacity="0.3" fill="#FFFFFF" stroke="#FFFFFF" stroke-width="2" x1="682" y1="363.032" x2="-257.868" y2="-194.011"/>
	<circle opacity="0.3" fill="#FFFFFF" stroke="#FFFFFF" cx="-257.867" cy="-65.26" r="11.096"/>
	<line opacity="0.3" fill="#FFFFFF" stroke="#FFFFFF" stroke-width="2" x1="682" y1="363.032" x2="-257.868" y2="-65.26"/>
	<circle opacity="0.3" fill="#FFFFFF" stroke="#FFFFFF" cx="-130.118" cy="-49.225" r="10.865"/>
	<line opacity="0.3" fill="#FFFFFF" stroke="#FFFFFF" stroke-width="2" x1="682" y1="363.032" x2="-130.118" y2="-49.225"/>
	<circle opacity="0.3" fill="#FFFFFF" stroke="#FFFFFF" cx="6.152" cy="-40.711" r="11.784"/>
	<line opacity="0.3" fill="#FFFFFF" stroke="#FFFFFF" stroke-width="2" x1="682" y1="363.032" x2="6.149" y2="-40.711"/>
	<circle opacity="0.3" fill="#FFFFFF" stroke="#FFFFFF" cx="-0.36" cy="-194.011" r="12.705"/>
	<line opacity="0.3" fill="#FFFFFF" stroke="#FFFFFF" stroke-width="2" x1="682" y1="363.032" x2="-0.361" y2="-194.011"/>
	<path opacity="0.3" fill="#FFFFFF" stroke="#FFFFFF" d="M136.391-168.461c0,8.029,6.512,14.54,14.541,14.54
		s14.543-6.51,14.543-14.54c0-8.033-6.514-14.542-14.543-14.542S136.391-176.494,136.391-168.461z"/>
	<line opacity="0.3" fill="#FFFFFF" stroke="#FFFFFF" stroke-width="2" x1="682" y1="363.032" x2="150.932" y2="-168.461"/>
	<circle opacity="0.3" fill="#FFFFFF" stroke="#FFFFFF" cx="179.886" cy="-65.26" r="13.622"/>
	<line opacity="0.3" fill="#FFFFFF" stroke="#FFFFFF" stroke-width="2" x1="682" y1="363.032" x2="179.888" y2="-65.26"/>
	<path opacity="0.3" fill="#FFFFFF" stroke="#FFFFFF" d="M162.59,63.492c0,9.555,7.746,17.294,17.298,17.294
		c9.554,0,17.294-7.74,17.294-17.294c0-9.553-7.741-17.296-17.294-17.296C170.336,46.196,162.59,53.939,162.59,63.492z"/>
	<line opacity="0.3" fill="#FFFFFF" stroke="#FFFFFF" stroke-width="2" x1="682" y1="363.032" x2="179.888" y2="63.492"/>
	<circle opacity="0.3" fill="#FFFFFF" stroke="#FFFFFF" cx="31.698" cy="61.488" r="11.785"/>
	<line opacity="0.3" fill="#FFFFFF" stroke="#FFFFFF" stroke-width="2" x1="682" y1="363.032" x2="31.7" y2="61.488"/>
	<circle opacity="0.3" fill="#FFFFFF" stroke="#FFFFFF" cx="133.901" cy="104.071" r="15.458"/>
	<line opacity="0.3" fill="#FFFFFF" stroke="#FFFFFF" stroke-width="2" x1="682" y1="363.032" x2="133.899" y2="104.071"/>
	<path opacity="0.3" fill="#FFFFFF" stroke="#FFFFFF" d="M161.672,192.247c0,10.056,8.158,18.213,18.216,18.213
		c10.061,0,18.213-8.157,18.213-18.213c0-10.063-8.152-18.216-18.213-18.216C169.83,174.03,161.672,182.184,161.672,192.247z"/>
	<line opacity="0.3" fill="#FFFFFF" stroke="#FFFFFF" stroke-width="2" x1="682" y1="363.032" x2="179.888" y2="192.247"/>
	<path opacity="0.3" fill="#FFFFFF" stroke="#FFFFFF" d="M161.672,320.993c0,10.062,8.158,18.215,18.216,18.215
		c10.061,0,18.213-8.153,18.213-18.215c0-10.056-8.152-18.213-18.213-18.213C169.83,302.779,161.672,310.937,161.672,320.993z"/>
	<line opacity="0.3" fill="#FFFFFF" stroke="#FFFFFF" stroke-width="2" x1="682" y1="363.032" x2="179.888" y2="320.993"/>
	<circle opacity="0.3" fill="#FFFFFF" stroke="#FFFFFF" cx="48.732" cy="334.02" r="12.702"/>
	<line opacity="0.3" fill="#FFFFFF" stroke="#FFFFFF" stroke-width="2" x1="682" y1="363.032" x2="48.732" y2="334.02"/>
	<circle opacity="0.3" fill="#FFFFFF" stroke="#FFFFFF" cx="-0.36" cy="243.744" r="12.705"/>
	<line opacity="0.3" fill="#FFFFFF" stroke="#FFFFFF" stroke-width="2" x1="682" y1="363.032" x2="-0.361" y2="243.744"/>
	<circle opacity="0.3" fill="#FFFFFF" stroke="#FFFFFF" cx="-96.049" cy="206.271" r="11.785"/>
	<line opacity="0.3" fill="#FFFFFF" stroke="#FFFFFF" stroke-width="2" x1="682" y1="363.032" x2="-96.051" y2="206.27"/>
	<circle opacity="0.3" fill="#FFFFFF" stroke="#FFFFFF" cx="-232.317" cy="214.788" r="9.947"/>
	<line opacity="0.3" fill="#FFFFFF" stroke="#FFFFFF" stroke-width="2" x1="682" y1="363.032" x2="-232.317" y2="214.788"/>
	<path opacity="0.3" fill="#FFFFFF" stroke="#FFFFFF" d="M-277.001,320.993c0,10.569,8.566,19.134,19.132,19.134
		c10.568,0,19.134-8.564,19.134-19.134c0-10.563-8.566-19.132-19.134-19.132C-268.435,301.86-277.001,310.43-277.001,320.993z"/>
	<line opacity="0.3" fill="#FFFFFF" stroke="#FFFFFF" stroke-width="2" x1="682" y1="363.032" x2="-257.868" y2="320.993"/>
	<circle opacity="0.3" fill="#FFFFFF" stroke="#FFFFFF" cx="-155.668" cy="359.569" r="11.785"/>
	<line opacity="0.3" fill="#FFFFFF" stroke="#FFFFFF" stroke-width="2" x1="682" y1="363.032" x2="-155.666" y2="359.569"/>
	<circle opacity="0.3" fill="#FFFFFF" stroke="#FFFFFF" cx="-111.948" cy="449.746" r="12.703"/>
	<line opacity="0.3" fill="#FFFFFF" stroke="#FFFFFF" stroke-width="2" x1="682" y1="363.032" x2="-111.951" y2="449.746"/>
	<circle opacity="0.3" fill="#FFFFFF" stroke="#FFFFFF" cx="-111.948" cy="578.498" r="13.622"/>
	<line opacity="0.3" fill="#FFFFFF" stroke="#FFFFFF" stroke-width="2" x1="682" y1="363.032" x2="-111.951" y2="578.498"/>
	<path opacity="0.3" fill="#FFFFFF" stroke="#FFFFFF" d="M-218.553,623.59c0,6.506,5.276,11.782,11.787,11.782
		c6.51,0,11.786-5.276,11.786-11.782c0-6.515-5.276-11.787-11.786-11.787C-213.277,611.803-218.553,617.075-218.553,623.59z"/>
	<line opacity="0.3" fill="#FFFFFF" stroke="#FFFFFF" stroke-width="2" x1="682" y1="363.032" x2="-206.766" y2="623.59"/>
	<path opacity="0.3" fill="#FFFFFF" stroke="#FFFFFF" d="M-268.735,707.249c0,6.006,4.865,10.869,10.867,10.869
		c6.002,0,10.868-4.863,10.868-10.869c0-6-4.866-10.865-10.868-10.865C-263.869,696.384-268.735,701.249-268.735,707.249z"/>
	<line opacity="0.3" fill="#FFFFFF" stroke="#FFFFFF" stroke-width="2" x1="682" y1="363.032" x2="-257.868" y2="707.246"/>
	<circle opacity="0.3" fill="#FFFFFF" stroke="#FFFFFF" cx="-181.218" cy="768.369" r="11.783"/>
	<line opacity="0.3" fill="#FFFFFF" stroke="#FFFFFF" stroke-width="2" x1="682" y1="363.032" x2="-181.215" y2="768.369"/>
	<path opacity="0.3" fill="#FFFFFF" stroke="#FFFFFF" d="M-61.324,776.888c0,9.041,7.33,16.378,16.374,16.378
		s16.378-7.337,16.378-16.378c0-9.046-7.335-16.379-16.378-16.379S-61.324,767.842-61.324,776.888z"/>
	<line opacity="0.3" fill="#FFFFFF" stroke="#FFFFFF" stroke-width="2" x1="682" y1="363.032" x2="-44.951" y2="776.888"/>
	<circle opacity="0.3" fill="#FFFFFF" stroke="#FFFFFF" cx="-0.36" cy="681.5" r="12.705"/>
	<line opacity="0.3" fill="#FFFFFF" stroke="#FFFFFF" stroke-width="2" x1="682" y1="363.032" x2="-0.361" y2="681.5"/>
	<path opacity="0.3" fill="#FFFFFF" stroke="#FFFFFF" d="M18.51,707.248c0,8.543,6.922,15.462,15.459,15.462
		c8.541,0,15.458-6.919,15.458-15.462c0-8.536-6.917-15.456-15.458-15.456C25.432,691.792,18.51,698.712,18.51,707.248z"/>
	<line opacity="0.3" fill="#FFFFFF" stroke="#FFFFFF" stroke-width="2" x1="682" y1="363.032" x2="33.969" y2="707.246"/>
	<path opacity="0.3" fill="#FFFFFF" stroke="#FFFFFF" d="M74.94,785.401c0,9.051,7.33,16.38,16.379,16.38
		c9.044,0,16.376-7.329,16.376-16.38c0-9.044-7.333-16.375-16.376-16.375C82.27,769.026,74.94,776.357,74.94,785.401z"/>
	<line opacity="0.3" fill="#FFFFFF" stroke="#FFFFFF" stroke-width="2" x1="682" y1="363.032" x2="91.319" y2="785.401"/>
	<path opacity="0.3" fill="#FFFFFF" stroke="#FFFFFF" d="M205.693,793.913c0,12.098,9.802,21.889,21.89,21.889
		c12.087,0,21.886-9.791,21.886-21.889c0-12.078-9.799-21.884-21.886-21.884C215.495,772.029,205.693,781.835,205.693,793.913z"/>
	<line opacity="0.3" fill="#FFFFFF" stroke="#FFFFFF" stroke-width="2" x1="682" y1="363.032" x2="227.583" y2="793.913"/>
	<circle opacity="0.3" fill="#FFFFFF" stroke="#FFFFFF" cx="257.14" cy="681.5" r="18.213"/>
	<line opacity="0.3" fill="#FFFFFF" stroke="#FFFFFF" stroke-width="2" x1="682" y1="363.032" x2="257.139" y2="681.5"/>
	<path opacity="0.3" fill="#FFFFFF" stroke="#FFFFFF" d="M182.9,598.041c0,10.563,8.565,19.131,19.131,19.131
		c10.568,0,19.135-8.568,19.135-19.131c0-10.57-8.567-19.137-19.135-19.137C191.465,578.904,182.9,587.471,182.9,598.041z"/>
	<line opacity="0.3" fill="#FFFFFF" stroke="#FFFFFF" stroke-width="2" x1="682" y1="363.032" x2="202.031" y2="598.041"/>
	<circle opacity="0.3" fill="#FFFFFF" stroke="#FFFFFF" cx="128.389" cy="535.581" r="17.295"/>
	<line opacity="0.3" fill="#FFFFFF" stroke="#FFFFFF" stroke-width="2" x1="682" y1="363.032" x2="128.389" y2="535.581"/>
	<path opacity="0.3" fill="#FFFFFF" stroke="#FFFFFF" d="M111.094,389.665c0,9.548,7.742,17.292,17.295,17.292
		c9.554,0,17.294-7.744,17.294-17.292c0-9.559-7.74-17.297-17.294-17.297C118.836,372.368,111.094,380.106,111.094,389.665z"/>
	<line opacity="0.3" fill="#FFFFFF" stroke="#FFFFFF" stroke-width="2" x1="682" y1="363.032" x2="128.389" y2="389.665"/>
	<path opacity="0.3" fill="#FFFFFF" stroke="#FFFFFF" d="M233.999,385.122c0,10.561,8.567,19.131,19.135,19.131
		c10.565,0,19.131-8.57,19.131-19.131c0-10.568-8.566-19.135-19.131-19.135C242.566,365.987,233.999,374.554,233.999,385.122z"/>
	<line opacity="0.3" fill="#FFFFFF" stroke="#FFFFFF" stroke-width="2" x1="682" y1="363.032" x2="253.134" y2="385.122"/>
	<path opacity="0.3" fill="#FFFFFF" stroke="#FFFFFF" d="M372.105,393.637c0,9.552,7.741,17.296,17.294,17.296
		c9.552,0,17.29-7.744,17.29-17.296s-7.738-17.293-17.29-17.293C379.846,376.344,372.105,384.085,372.105,393.637z"/>
	<line opacity="0.3" fill="#FFFFFF" stroke="#FFFFFF" stroke-width="2" x1="682" y1="363.032" x2="389.401" y2="393.637"/>
	<path opacity="0.5" fill="#FFFFFF" stroke="#FFFFFF" d="M449.838,449.746c0,12.091,9.801,21.889,21.886,21.889
		s21.889-9.798,21.889-21.889s-9.804-21.889-21.889-21.889S449.838,437.655,449.838,449.746z"/>
	<line opacity="0.3" fill="#FFFFFF" stroke="#FFFFFF" stroke-width="2" x1="682" y1="363.032" x2="471.724" y2="449.746"/>
	<path opacity="0.5" fill="#FFFFFF" stroke="#FFFFFF" d="M449.838,578.498c0,12.087,9.801,21.887,21.886,21.887
		s21.889-9.8,21.889-21.887c0-12.089-9.804-21.888-21.889-21.888S449.838,566.409,449.838,578.498z"/>
	<line opacity="0.3" fill="#FFFFFF" stroke="#FFFFFF" stroke-width="2" x1="682" y1="363.032" x2="471.724" y2="578.498"/>
	<path opacity="0.3" fill="#FFFFFF" stroke="#FFFFFF" d="M319.167,589.521c0,10.564,8.564,19.132,19.134,19.132
		c10.565,0,19.134-8.567,19.134-19.132c0-10.567-8.569-19.135-19.134-19.135C327.731,570.386,319.167,578.953,319.167,589.521z"/>
	<line opacity="0.3" fill="#FFFFFF" stroke="#FFFFFF" stroke-width="2" x1="682" y1="363.032" x2="338.301" y2="589.521"/>
	<path opacity="0.3" fill="#FFFFFF" stroke="#FFFFFF" d="M308.512,707.248c0,9.558,7.743,17.299,17.295,17.299
		c9.553,0,17.298-7.741,17.298-17.299c0-9.551-7.745-17.292-17.298-17.292C316.255,689.956,308.512,697.697,308.512,707.248z"/>
	<line opacity="0.3" fill="#FFFFFF" stroke="#FFFFFF" stroke-width="2" x1="682" y1="363.032" x2="325.806" y2="707.246"/>
	<path opacity="0.3" fill="#FFFFFF" stroke="#FFFFFF" d="M341.963,802.438c0,12.084,9.797,21.887,21.887,21.887
		c12.086,0,21.888-9.803,21.888-21.887c0-12.091-9.802-21.889-21.888-21.889C351.76,780.55,341.963,790.348,341.963,802.438z"/>
	<line opacity="0.3" fill="#FFFFFF" stroke="#FFFFFF" stroke-width="2" x1="682" y1="363.032" x2="363.849" y2="802.438"/>
	<path opacity="0.5" fill="#FFFFFF" stroke="#FFFFFF" d="M478.225,810.952c0,12.091,9.799,21.887,21.887,21.887
		c12.092,0,21.889-9.796,21.889-21.887c0-12.084-9.797-21.889-21.889-21.889C488.025,789.063,478.225,798.868,478.225,810.952z"/>
	<line opacity="0.3" fill="#FFFFFF" stroke="#FFFFFF" stroke-width="2" x1="682" y1="363.032" x2="500.113" y2="810.952"/>
	<circle opacity="0.5" fill="#FFFFFF" stroke="#FFFFFF" cx="514.64" cy="681.5" r="21.888"/>
	<line opacity="0.3" fill="#FFFFFF" stroke="#FFFFFF" stroke-width="2" x1="682" y1="363.032" x2="514.64" y2="681.5"/>
	<path opacity="0.5" fill="#FFFFFF" stroke="#FFFFFF" d="M595.753,707.246c0,12.095,9.805,21.892,21.892,21.892
		c12.085,0,21.885-9.797,21.885-21.892c0-12.085-9.8-21.882-21.885-21.882C605.558,685.364,595.753,695.161,595.753,707.246z"/>
	<line opacity="0.3" fill="#FFFFFF" stroke="#FFFFFF" stroke-width="2" x1="682" y1="363.032" x2="617.645" y2="707.246"/>
	<path opacity="0.5" fill="#FFFFFF" stroke="#FFFFFF" d="M614.493,819.466c0,12.091,9.802,21.889,21.89,21.889
		c12.086,0,21.888-9.798,21.888-21.889c0-12.084-9.802-21.884-21.888-21.884C624.295,797.582,614.493,807.382,614.493,819.466z"/>
	<line opacity="0.3" fill="#FFFFFF" stroke="#FFFFFF" stroke-width="2" x1="682" y1="363.032" x2="636.383" y2="819.466"/>
	<path opacity="0.5" fill="#FFFFFF" stroke="#FFFFFF" d="M750.758,827.988c0,12.083,9.802,21.887,21.89,21.887
		c12.086,0,21.886-9.804,21.886-21.887c0-12.088-9.8-21.889-21.886-21.889C760.56,806.1,750.758,815.9,750.758,827.988z"/>
	<line opacity="0.3" fill="#FFFFFF" stroke="#FFFFFF" stroke-width="2" x1="682" y1="363.032" x2="772.648" y2="827.988"/>
	<path opacity="0.5" fill="#FFFFFF" stroke="#FFFFFF" d="M750.256,681.5c0,12.087,9.803,21.888,21.893,21.888
		c12.085,0,21.886-9.801,21.886-21.888c0-12.089-9.801-21.886-21.886-21.886C760.059,659.614,750.256,669.411,750.256,681.5z"/>
	<line opacity="0.3" fill="#FFFFFF" stroke="#FFFFFF" stroke-width="2" x1="682" y1="363.032" x2="772.149" y2="681.5"/>
	<path opacity="0.5" fill="#FFFFFF" stroke="#FFFFFF" d="M725.206,563.97c0,12.09,9.802,21.891,21.889,21.891
		c12.09,0,21.888-9.801,21.888-21.891c0-12.087-9.798-21.888-21.888-21.888C735.008,542.082,725.206,551.883,725.206,563.97z"/>
	<line opacity="0.3" fill="#FFFFFF" stroke="#FFFFFF" stroke-width="2" x1="682" y1="363.032" x2="747.095" y2="563.97"/>
	<circle opacity="0.5" fill="#FFFFFF" stroke="#FFFFFF" cx="643.393" cy="535.581" r="21.889"/>
	<line opacity="0.3" fill="#FFFFFF" stroke="#FFFFFF" stroke-width="2" x1="682" y1="363.032" x2="643.392" y2="535.581"/>
	<path opacity="0.5" fill="#FFFFFF" stroke="#FFFFFF" d="M621.504,389.665c0,12.084,9.801,21.885,21.888,21.885
		c12.091,0,21.89-9.801,21.89-21.885c0-12.089-9.799-21.891-21.89-21.891C631.305,367.774,621.504,377.576,621.504,389.665z"/>
	<line opacity="0.3" fill="#FFFFFF" stroke="#FFFFFF" stroke-width="2" x1="682" y1="363.032" x2="643.392" y2="389.665"/>
	<circle opacity="0.5" fill="#FFFFFF" stroke="#FFFFFF" cx="798.197" cy="419.187" r="21.889"/>
	<line opacity="0.3" fill="#FFFFFF" stroke="#FFFFFF" stroke-width="2" x1="682" y1="363.032" x2="798.195" y2="419.187"/>
	<path opacity="0.5" fill="#FFFFFF" stroke="#FFFFFF" d="M750.256,243.744c0,12.087,9.803,21.888,21.893,21.888
		c12.085,0,21.886-9.801,21.886-21.888s-9.801-21.888-21.886-21.888C760.059,221.856,750.256,231.657,750.256,243.744z"/>
	<line opacity="0.3" fill="#FFFFFF" stroke="#FFFFFF" stroke-width="2" x1="682" y1="363.032" x2="772.149" y2="243.744"/>
	<path opacity="0.5" fill="#FFFFFF" stroke="#FFFFFF" d="M699.66,155.17c0,12.087,9.798,21.889,21.882,21.889
		c12.091,0,21.892-9.802,21.892-21.889c0-12.086-9.801-21.888-21.892-21.888C709.458,133.282,699.66,143.084,699.66,155.17z"/>
	<line opacity="0.3" fill="#FFFFFF" stroke="#FFFFFF" stroke-width="2" x1="682" y1="363.032" x2="721.542" y2="155.17"/>
	<circle opacity="0.5" fill="#FFFFFF" stroke="#FFFFFF" cx="585.281" cy="163.689" r="21.888"/>
	<line opacity="0.3" fill="#FFFFFF" stroke="#FFFFFF" stroke-width="2" x1="682" y1="363.032" x2="585.282" y2="163.689"/>
	<path opacity="0.5" fill="#FFFFFF" stroke="#FFFFFF" d="M595.753,320.993c0,12.091,9.805,21.889,21.892,21.889
		c12.085,0,21.885-9.798,21.885-21.889c0-12.084-9.8-21.888-21.885-21.888C605.558,299.105,595.753,308.908,595.753,320.993z"/>
	<line opacity="0.3" fill="#FFFFFF" stroke="#FFFFFF" stroke-width="2" x1="682" y1="363.032" x2="617.645" y2="320.993"/>
	<circle opacity="0.5" fill="#FFFFFF" stroke="#FFFFFF" cx="457.533" cy="308.472" r="18.214"/>
	<line opacity="0.3" fill="#FFFFFF" stroke="#FFFFFF" stroke-width="2" x1="682" y1="363.032" x2="457.532" y2="308.472"/>
	<circle opacity="0.3" fill="#FFFFFF" stroke="#FFFFFF" cx="385.89" cy="243.744" r="18.213"/>
	<line opacity="0.3" fill="#FFFFFF" stroke="#FFFFFF" stroke-width="2" x1="682" y1="363.032" x2="385.891" y2="243.744"/>
	<circle opacity="0.3" fill="#FFFFFF" stroke="#FFFFFF" cx="385.89" cy="97.825" r="16.376"/>
	<line opacity="0.3" fill="#FFFFFF" stroke="#FFFFFF" stroke-width="2" x1="682" y1="363.032" x2="385.891" y2="97.824"/>
	<path opacity="0.5" fill="#FFFFFF" stroke="#FFFFFF" d="M525.402,129.621c0,9.552,7.741,17.297,17.293,17.297
		c9.557,0,17.299-7.745,17.299-17.297s-7.742-17.296-17.299-17.296C533.143,112.324,525.402,120.069,525.402,129.621z"/>
	<line opacity="0.3" fill="#FFFFFF" stroke="#FFFFFF" stroke-width="2" x1="682" y1="363.032" x2="542.694" y2="129.621"/>
	<path opacity="0.5" fill="#FFFFFF" stroke="#FFFFFF" d="M425.038,35.939c0,8.536,6.923,15.458,15.456,15.458
		c8.542,0,15.458-6.922,15.458-15.458c0-8.54-6.916-15.458-15.458-15.458C431.961,20.481,425.038,27.399,425.038,35.939z"/>
	<line opacity="0.3" fill="#FFFFFF" stroke="#FFFFFF" stroke-width="2" x1="682" y1="363.032" x2="440.494" y2="35.939"/>
	<circle opacity="0.3" fill="#FFFFFF" stroke="#FFFFFF" cx="385.89" cy="-48.092" r="18.213"/>
	<line opacity="0.3" fill="#FFFFFF" stroke="#FFFFFF" stroke-width="2" x1="682" y1="363.032" x2="385.891" y2="-48.092"/>
	<circle opacity="0.3" fill="#FFFFFF" stroke="#FFFFFF" cx="385.89" cy="-194.011" r="19.131"/>
	<line opacity="0.3" fill="#FFFFFF" stroke="#FFFFFF" stroke-width="2" x1="682" y1="363.032" x2="385.891" y2="-194.011"/>
	<path opacity="0.5" fill="#FFFFFF" stroke="#FFFFFF" d="M537.845-142.911c0,12.088,9.795,21.888,21.888,21.888
		c12.086,0,21.886-9.8,21.886-21.888c0-12.091-9.8-21.887-21.886-21.887C547.64-164.798,537.845-155.002,537.845-142.911z"/>
	<line opacity="0.3" fill="#FFFFFF" stroke="#FFFFFF" stroke-width="2" x1="682" y1="363.032" x2="559.733" y2="-142.911"/>
	<path opacity="0.5" fill="#FFFFFF" stroke="#FFFFFF" d="M595.753-65.26c0,12.088,9.805,21.887,21.892,21.887
		c12.085,0,21.885-9.799,21.885-21.887s-9.8-21.887-21.885-21.887C605.558-87.146,595.753-77.348,595.753-65.26z"/>
	<line opacity="0.3" fill="#FFFFFF" stroke="#FFFFFF" stroke-width="2" x1="682" y1="363.032" x2="617.645" y2="-65.26"/>
	<path opacity="0.5" fill="#FFFFFF" stroke="#FFFFFF" d="M665.593,1.87c0,12.089,9.797,21.889,21.889,21.889
		c12.089,0,21.888-9.8,21.888-21.889c0-12.084-9.799-21.888-21.888-21.888C675.39-20.018,665.593-10.215,665.593,1.87z"/>
	<line opacity="0.3" fill="#FFFFFF" stroke="#FFFFFF" stroke-width="2" x1="682" y1="363.032" x2="687.482" y2="1.87"/>
	<path opacity="0.5" fill="#FFFFFF" stroke="#FFFFFF" d="M801.857,10.39c0,12.086,9.805,21.888,21.89,21.888
		c12.086,0,21.886-9.802,21.886-21.888c0-12.092-9.8-21.889-21.886-21.889C811.661-11.499,801.857-1.702,801.857,10.39z"/>
	<line opacity="0.3" fill="#FFFFFF" stroke="#FFFFFF" stroke-width="2" x1="682" y1="363.032" x2="823.746" y2="10.39"/>
	<path opacity="0.5" fill="#FFFFFF" stroke="#FFFFFF" d="M750.256-194.011c0,12.09,9.803,21.888,21.893,21.888
		c12.085,0,21.886-9.798,21.886-21.888s-9.801-21.888-21.886-21.888C760.059-215.898,750.256-206.101,750.256-194.011z"/>
	<line opacity="0.3" fill="#FFFFFF" stroke="#FFFFFF" stroke-width="2" x1="682" y1="363.032" x2="772.149" y2="-194.011"/>
	<path opacity="0.9" fill="#FFFFFF" stroke="#FFFFFF" d="M946.64-117.36c0,12.087,9.804,21.887,21.889,21.887
		c12.09,0,21.888-9.8,21.888-21.887c0-12.09-9.798-21.888-21.888-21.888C956.444-139.249,946.64-129.451,946.64-117.36z"/>
	<line opacity="0.3" fill="#FFFFFF" stroke="#FFFFFF" stroke-width="2" x1="682" y1="363.032" x2="968.529" y2="-117.36"/>
	<circle opacity="0.9" fill="#FFFFFF" stroke="#FFFFFF" cx="1055.398" cy="-65.26" r="21.887"/>
	<line opacity="0.3" fill="#FFFFFF" stroke="#FFFFFF" stroke-width="2" x1="682" y1="363.032" x2="1055.399" y2="-65.26"/>
	<path opacity="0.9" fill="#FFFFFF" stroke="#FFFFFF" d="M1033.511,63.492c0,12.091,9.801,21.887,21.888,21.887
		s21.887-9.796,21.887-21.887c0-12.089-9.8-21.888-21.887-21.888S1033.511,51.403,1033.511,63.492z"/>
	<line opacity="0.3" fill="#FFFFFF" stroke="#FFFFFF" stroke-width="2" x1="682" y1="363.032" x2="1055.399" y2="63.492"/>
	<path opacity="0.5" fill="#FFFFFF" stroke="#FFFFFF" d="M827.408,10.39c0,12.086,9.8,21.888,21.888,21.888
		c12.087,0,21.888-9.802,21.888-21.888c0-12.092-9.801-21.889-21.888-21.889C837.208-11.499,827.408-1.702,827.408,10.39z"/>
	<line opacity="0.3" fill="#FFFFFF" stroke="#FFFFFF" stroke-width="2" x1="682" y1="363.032" x2="849.296" y2="10.39"/>
	<path opacity="0.9" fill="#FFFFFF" stroke="#FFFFFF" d="M887.594,192.247c0,12.084,9.797,21.887,21.885,21.887
		s21.889-9.803,21.889-21.887c0-12.093-9.801-21.891-21.889-21.891S887.594,180.154,887.594,192.247z"/>
	<line opacity="0.3" fill="#FFFFFF" stroke="#FFFFFF" stroke-width="2" x1="682" y1="363.032" x2="909.479" y2="192.247"/>
	<path opacity="0.9" fill="#FFFFFF" stroke="#FFFFFF" d="M921.092,291.439c0,12.088,9.799,21.886,21.886,21.886
		c12.092,0,21.888-9.798,21.888-21.886c0-12.092-9.796-21.889-21.888-21.889C930.891,269.55,921.092,279.347,921.092,291.439z"/>
	<line opacity="0.3" fill="#FFFFFF" stroke="#FFFFFF" stroke-width="2" x1="682" y1="363.032" x2="942.978" y2="291.439"/>
	<circle opacity="0.9" fill="#FFFFFF" stroke="#FFFFFF" cx="1079.245" cy="299.953" r="21.888"/>
	<line opacity="0.3" fill="#FFFFFF" stroke="#FFFFFF" stroke-width="2" x1="682" y1="363.032" x2="1079.243" y2="299.953"/>
	<path opacity="0.9" fill="#FFFFFF" stroke="#FFFFFF" d="M1007.762,97.824c0,12.089,9.801,21.889,21.887,21.889
		c12.087,0,21.891-9.8,21.891-21.889c0-12.09-9.804-21.885-21.891-21.885C1017.563,75.938,1007.762,85.733,1007.762,97.824z"/>
	<line opacity="0.3" fill="#FFFFFF" stroke="#FFFFFF" stroke-width="2" x1="682" y1="363.032" x2="1029.649" y2="97.824"/>
	<path opacity="0.9" fill="#FFFFFF" stroke="#FFFFFF" d="M1179.43,192.247c0,12.084,9.801,21.887,21.888,21.887
		c12.085,0,21.887-9.803,21.887-21.887c0-12.093-9.802-21.891-21.887-21.891C1189.231,170.356,1179.43,180.154,1179.43,192.247z"/>
	<line opacity="0.3" fill="#FFFFFF" stroke="#FFFFFF" stroke-width="2" x1="682" y1="363.032" x2="1201.318" y2="192.247"/>
	<path opacity="0.9" fill="#FFFFFF" stroke="#FFFFFF" d="M1193.626,308.472c0,12.088,9.796,21.886,21.888,21.886
		c12.087,0,21.888-9.798,21.888-21.886c0-12.089-9.801-21.889-21.888-21.889C1203.422,286.583,1193.626,296.383,1193.626,308.472z"
		/>
	<line opacity="0.3" fill="#FFFFFF" stroke="#FFFFFF" stroke-width="2" x1="682" y1="363.032" x2="1215.514" y2="308.472"/>
	<path opacity="0.9" fill="#FFFFFF" stroke="#FFFFFF" d="M1329.89,316.988c0,12.089,9.798,21.887,21.889,21.887
		c12.083,0,21.888-9.798,21.888-21.887c0-12.089-9.805-21.886-21.888-21.886C1339.688,295.102,1329.89,304.899,1329.89,316.988z"/>
	<line opacity="0.3" fill="#FFFFFF" stroke="#FFFFFF" stroke-width="2" x1="682" y1="363.032" x2="1351.779" y2="316.988"/>
	<path opacity="0.9" fill="#FFFFFF" stroke="#FFFFFF" d="M1265.264,97.824c0,12.089,9.8,21.889,21.885,21.889
		c12.094,0,21.891-9.8,21.891-21.889c0-12.09-9.797-21.885-21.891-21.885C1275.064,75.938,1265.264,85.733,1265.264,97.824z"/>
	<line opacity="0.3" fill="#FFFFFF" stroke="#FFFFFF" stroke-width="2" x1="682" y1="363.032" x2="1287.149" y2="97.824"/>
	<circle opacity="0.9" fill="#FFFFFF" stroke="#FFFFFF" cx="1258.096" cy="-15.163" r="21.889"/>
	<line opacity="0.3" fill="#FFFFFF" stroke="#FFFFFF" stroke-width="2" x1="682" y1="363.032" x2="1258.096" y2="-15.163"/>
	<circle opacity="0.9" fill="#FFFFFF" stroke="#FFFFFF" cx="1158.401" cy="-48.092" r="21.887"/>
	<line opacity="0.3" fill="#FFFFFF" stroke="#FFFFFF" stroke-width="2" x1="682" y1="363.032" x2="1158.401" y2="-48.092"/>
	<circle opacity="0.9" fill="#FFFFFF" stroke="#FFFFFF" cx="1158.401" cy="-194.011" r="21.887"/>
	<line opacity="0.3" fill="#FFFFFF" stroke="#FFFFFF" stroke-width="2" x1="682" y1="363.032" x2="1158.401" y2="-194.011"/>
	<path opacity="0.9" fill="#FFFFFF" stroke="#FFFFFF" d="M1355.44-91.811c0,12.087,9.801,21.887,21.886,21.887
		c12.088,0,21.888-9.8,21.888-21.887c0-12.091-9.8-21.889-21.888-21.889C1365.24-113.699,1355.44-103.901,1355.44-91.811z"/>
	<line opacity="0.3" fill="#FFFFFF" stroke="#FFFFFF" stroke-width="2" x1="682" y1="363.032" x2="1377.325" y2="-91.811"/>
	<path opacity="0.3" fill="#FFFFFF" stroke="#FFFFFF" stroke-width="2" d="M682,363.032"/>
	<path opacity="0.3" fill="#FFFFFF" stroke="#FFFFFF" stroke-width="2" d="M682,363.032"/>
	<path opacity="0.3" fill="#FFFFFF" stroke="#FFFFFF" stroke-width="2" d="M682,363.032"/>
	<path opacity="0.3" fill="#FFFFFF" stroke="#FFFFFF" stroke-width="2" d="M682,363.032"/>
	<path opacity="0.3" fill="#FFFFFF" stroke="#FFFFFF" stroke-width="2" d="M682,363.032"/>
	<path opacity="0.3" fill="#FFFFFF" stroke="#FFFFFF" stroke-width="2" d="M682,363.032"/>
	<path opacity="0.3" fill="#FFFFFF" stroke="#FFFFFF" stroke-width="2" d="M682,363.032"/>
	<path opacity="0.3" fill="#FFFFFF" stroke="#FFFFFF" stroke-width="2" d="M682,363.032"/>
	<path opacity="0.3" fill="#FFFFFF" stroke="#FFFFFF" stroke-width="2" d="M682,363.032"/>
	<path opacity="0.3" fill="#FFFFFF" stroke="#FFFFFF" stroke-width="2" d="M682,363.032"/>
	<path opacity="0.3" fill="#FFFFFF" stroke="#FFFFFF" stroke-width="2" d="M682,363.032"/>
	<path opacity="0.3" fill="#FFFFFF" stroke="#FFFFFF" stroke-width="2" d="M682,363.032"/>
	<path opacity="0.3" fill="#FFFFFF" stroke="#FFFFFF" stroke-width="2" d="M682,363.032"/>
	<path opacity="0.3" fill="#FFFFFF" stroke="#FFFFFF" stroke-width="2" d="M682,363.032"/>
	<path opacity="0.9" fill="#FFFFFF" stroke="#FFFFFF" d="M1402.875,90.702c-12.083,0-21.884,9.795-21.884,21.887
		c0,12.089,9.801,21.887,21.884,21.887"/>
	<line opacity="0.3" fill="#FFFFFF" stroke="#FFFFFF" stroke-width="2" x1="682" y1="363.032" x2="1402.875" y2="112.588"/>
	<path opacity="0.3" fill="#FFFFFF" stroke="#FFFFFF" stroke-width="2" d="M682,363.032"/>
	<path opacity="0.3" fill="#FFFFFF" stroke="#FFFFFF" stroke-width="2" d="M682,363.032"/>
	<path opacity="0.3" fill="#FFFFFF" stroke="#FFFFFF" stroke-width="2" d="M682,363.032"/>
	<path opacity="0.3" fill="#FFFFFF" stroke="#FFFFFF" stroke-width="2" d="M682,363.032"/>
	<path opacity="0.3" fill="#FFFFFF" stroke="#FFFFFF" stroke-width="2" d="M682,363.032"/>
	<path opacity="0.3" fill="#FFFFFF" stroke="#FFFFFF" stroke-width="2" d="M682,363.032"/>
	<path opacity="0.3" fill="#FFFFFF" stroke="#FFFFFF" stroke-width="2" d="M682,363.032"/>
	<path opacity="0.3" fill="#FFFFFF" stroke="#FFFFFF" stroke-width="2" d="M682,363.032"/>
	<path opacity="0.3" fill="#FFFFFF" stroke="#FFFFFF" stroke-width="2" d="M682,363.032"/>
	<path opacity="0.3" fill="#FFFFFF" stroke="#FFFFFF" stroke-width="2" d="M682,363.032"/>
	<path opacity="0.3" fill="#FFFFFF" stroke="#FFFFFF" stroke-width="2" d="M682,363.032"/>
	<path opacity="0.3" fill="#FFFFFF" stroke="#FFFFFF" stroke-width="2" d="M682,363.032"/>
	<path opacity="0.3" fill="#FFFFFF" stroke="#FFFFFF" stroke-width="2" d="M682,363.032"/>
	<path opacity="0.3" fill="#FFFFFF" stroke="#FFFFFF" stroke-width="2" d="M682,363.032"/>
	<path opacity="0.3" fill="#FFFFFF" stroke="#FFFFFF" stroke-width="2" d="M682,363.032"/>
	<path opacity="0.3" fill="#FFFFFF" stroke="#FFFFFF" stroke-width="2" d="M682,363.032"/>
	<path opacity="0.3" fill="#FFFFFF" stroke="#FFFFFF" stroke-width="2" d="M682,363.032"/>
	<path opacity="0.9" fill="#FFFFFF" stroke="#FFFFFF" d="M1287.308,802.438c0,12.084,9.801,21.887,21.888,21.887
		c12.088,0,21.888-9.803,21.888-21.887c0-12.091-9.8-21.889-21.888-21.889C1297.109,780.55,1287.308,790.348,1287.308,802.438z"/>
	<line opacity="0.3" fill="#FFFFFF" stroke="#FFFFFF" stroke-width="2" x1="682" y1="363.032" x2="1309.196" y2="802.438"/>
	<circle opacity="0.9" fill="#FFFFFF" stroke="#FFFFFF" cx="1158.401" cy="827.419" r="21.887"/>
	<line opacity="0.3" fill="#FFFFFF" stroke="#FFFFFF" stroke-width="2" x1="682" y1="363.032" x2="1158.401" y2="827.419"/>
	<circle opacity="0.9" fill="#FFFFFF" stroke="#FFFFFF" cx="1158.401" cy="681.5" r="21.887"/>
	<line opacity="0.3" fill="#FFFFFF" stroke="#FFFFFF" stroke-width="2" x1="682" y1="363.032" x2="1158.401" y2="681.5"/>
	<path opacity="0.9" fill="#FFFFFF" stroke="#FFFFFF" d="M1304.34,725.791c0,12.077,9.801,21.884,21.888,21.884
		c12.085,0,21.889-9.807,21.889-21.884c0-12.097-9.804-21.891-21.889-21.891C1314.141,703.9,1304.34,713.694,1304.34,725.791z"/>
	<line opacity="0.3" fill="#FFFFFF" stroke="#FFFFFF" stroke-width="2" x1="682" y1="363.032" x2="1326.228" y2="725.791"/>
	<path opacity="0.9" fill="#FFFFFF" stroke="#FFFFFF" d="M1265.264,535.581c0,12.086,9.8,21.887,21.885,21.887
		c12.094,0,21.891-9.801,21.891-21.887s-9.797-21.886-21.891-21.886C1275.064,513.695,1265.264,523.495,1265.264,535.581z"/>
	<line opacity="0.3" fill="#FFFFFF" stroke="#FFFFFF" stroke-width="2" x1="682" y1="363.032" x2="1287.149" y2="535.581"/>
	<circle opacity="0.9" fill="#FFFFFF" stroke="#FFFFFF" cx="1283.645" cy="393.637" r="21.887"/>
	<line opacity="0.3" fill="#FFFFFF" stroke="#FFFFFF" stroke-width="2" x1="682" y1="363.032" x2="1283.644" y2="393.637"/>
	<circle opacity="0.9" fill="#FFFFFF" stroke="#FFFFFF" cx="1147.378" cy="402.154" r="21.888"/>
	<line opacity="0.3" fill="#FFFFFF" stroke="#FFFFFF" stroke-width="2" x1="682" y1="363.032" x2="1147.379" y2="402.154"/>
	<path opacity="0.9" fill="#FFFFFF" stroke="#FFFFFF" d="M1179.43,578.498c0,12.087,9.801,21.887,21.888,21.887
		c12.085,0,21.887-9.8,21.887-21.887c0-12.089-9.802-21.888-21.887-21.888C1189.231,556.61,1179.43,566.409,1179.43,578.498z"/>
	<line opacity="0.3" fill="#FFFFFF" stroke="#FFFFFF" stroke-width="2" x1="682" y1="363.032" x2="1201.318" y2="578.498"/>
	<path opacity="0.9" fill="#FFFFFF" stroke="#FFFFFF" d="M1007.762,535.581c0,12.086,9.801,21.887,21.887,21.887
		c12.087,0,21.891-9.801,21.891-21.887s-9.804-21.886-21.891-21.886C1017.563,513.695,1007.762,523.495,1007.762,535.581z"/>
	<line opacity="0.3" fill="#FFFFFF" stroke="#FFFFFF" stroke-width="2" x1="682" y1="363.032" x2="1029.649" y2="535.581"/>
	<path opacity="0.9" fill="#FFFFFF" stroke="#FFFFFF" d="M989.226,410.672c0,12.085,9.794,21.885,21.888,21.885
		c12.085,0,21.888-9.8,21.888-21.885c0-12.088-9.803-21.89-21.888-21.89C999.02,388.782,989.226,398.584,989.226,410.672z"/>
	<line opacity="0.3" fill="#FFFFFF" stroke="#FFFFFF" stroke-width="2" x1="682" y1="363.032" x2="1011.114" y2="410.672"/>
	<circle opacity="0.9" fill="#FFFFFF" stroke="#FFFFFF" cx="874.846" cy="419.187" r="21.888"/>
	<line opacity="0.3" fill="#FFFFFF" stroke="#FFFFFF" stroke-width="2" x1="682" y1="363.032" x2="874.846" y2="419.187"/>
	<circle opacity="0.9" fill="#FFFFFF" stroke="#FFFFFF" cx="909.481" cy="578.498" r="21.887"/>
	<line opacity="0.3" fill="#FFFFFF" stroke="#FFFFFF" stroke-width="2" x1="682" y1="363.032" x2="909.479" y2="578.498"/>
	<path opacity="0.9" fill="#FFFFFF" stroke="#FFFFFF" d="M895.537,700.238c0,12.084,9.802,21.888,21.89,21.888
		c12.091,0,21.888-9.804,21.888-21.888c0-12.089-9.797-21.889-21.888-21.889C905.339,678.35,895.537,688.149,895.537,700.238z"/>
	<line opacity="0.3" fill="#FFFFFF" stroke="#FFFFFF" stroke-width="2" x1="682" y1="363.032" x2="917.427" y2="700.238"/>
	<path opacity="0.9" fill="#FFFFFF" stroke="#FFFFFF" d="M1033.511,707.246c0,12.095,9.801,21.892,21.888,21.892
		s21.887-9.797,21.887-21.892c0-12.085-9.8-21.882-21.887-21.882S1033.511,695.161,1033.511,707.246z"/>
	<line opacity="0.3" fill="#FFFFFF" stroke="#FFFFFF" stroke-width="2" x1="682" y1="363.032" x2="1055.399" y2="707.246"/>
	<path opacity="0.9" fill="#FFFFFF" stroke="#FFFFFF" d="M1033.511,836.004c0,12.088,9.801,21.888,21.888,21.888
		s21.887-9.8,21.887-21.888c0-12.092-9.8-21.889-21.887-21.889S1033.511,823.912,1033.511,836.004z"/>
	<line opacity="0.3" fill="#FFFFFF" stroke="#FFFFFF" stroke-width="2" x1="682" y1="363.032" x2="1055.399" y2="836.004"/>
	<path opacity="0.9" fill="#FFFFFF" stroke="#FFFFFF" d="M878.508,827.988c0,12.083,9.801,21.887,21.888,21.887
		c12.088,0,21.888-9.804,21.888-21.887c0-12.088-9.8-21.889-21.888-21.889C888.309,806.1,878.508,815.9,878.508,827.988z"/>
	<line opacity="0.3" fill="#FFFFFF" stroke="#FFFFFF" stroke-width="2" x1="682" y1="363.032" x2="900.396" y2="827.988"/>
</g>
<g opacity="0.3">
	<path opacity="0.4" fill="#FFFFFF" stroke="#FFFFFF" d="M666.19,363.137c0,8.774,7.113,15.888,15.889,15.888
		c8.771,0,15.889-7.113,15.889-15.888c0-8.775-7.117-15.887-15.889-15.887C673.303,347.25,666.19,354.361,666.19,363.137z"/>
	<circle opacity="0.5" fill="#FFFFFF" stroke="#FFFFFF" cx="682.078" cy="363.137" r="10.639"/>
	<path opacity="0.3" fill="#FFFFFF" stroke="#FFFFFF" d="M660.19,363.136c0,12.09,9.799,21.889,21.889,21.889
		c12.084,0,21.889-9.799,21.889-21.889c0-12.089-9.803-21.886-21.889-21.886C669.989,341.25,660.19,351.047,660.19,363.136z"/>
	<path opacity="0.6" fill="#FFFFFF" stroke="#FFFFFF" d="M676.357,363.137c0,3.16,2.562,5.722,5.723,5.722
		c3.157,0,5.721-2.562,5.721-5.722c0-3.16-2.563-5.72-5.721-5.72C678.918,357.417,676.357,359.977,676.357,363.137z"/>
</g>
</svg>
