<?xml version="1.0" encoding="utf-8"?>
<!-- Generator: Adobe Illustrator 12.0.0, SVG Export Plug-In . SVG Version: 6.00 Build 51448)  -->
<!DOCTYPE svg PUBLIC "-//W3C//DTD SVG 1.1//EN" "http://www.w3.org/Graphics/SVG/1.1/DTD/svg11.dtd" [
	<!ENTITY ns_svg "http://www.w3.org/2000/svg">
	<!ENTITY ns_xlink "http://www.w3.org/1999/xlink">
]>
<svg  version="1.1" id="Ebene_1" xmlns="&ns_svg;" xmlns:xlink="&ns_xlink;" width="993.628" height="797.523"
	 viewBox="0 0 993.628 797.523" overflow="visible" enable-background="new 0 0 993.628 797.523" xml:space="preserve">
<g opacity="0.15">
	<g opacity="0.2">
		<g>
			<polygon fill="#FFFFFF" points="423.533,423.393 211.927,389.866 123.116,449.489 278.572,474.111 0,797.523 0,797.523 
				321.708,538.358 285.627,691.569 374.44,631.952 			"/>
		</g>
	</g>
	<g opacity="0.2">
		<g>
			<polygon fill="#FFFFFF" points="558.39,141.071 346.783,107.548 257.972,167.171 413.432,191.792 0,797.523 0,797.523 
				456.563,256.043 420.484,409.251 509.298,349.628 			"/>
		</g>
	</g>
	<g opacity="0.2">
		<g>
			<polygon fill="#FFFFFF" points="859.64,276.812 495.396,221.783 341.681,324.986 609.273,365.399 0,797.523 0,797.523 
				682.873,475 618.957,737.986 772.664,634.793 			"/>
		</g>
	</g>
	<g opacity="0.2">
		<g>
			<polygon fill="#FFFFFF" points="513.167,339.447 481.059,334.355 467.577,343.408 491.167,347.14 0,797.523 0,797.523 
				497.714,356.887 492.243,380.143 505.716,371.095 			"/>
		</g>
	</g>
	<g opacity="0.2">
		<g>
			<polygon fill="#FFFFFF" points="585.351,547.42 436.166,523.783 373.544,565.824 483.146,583.178 0,797.523 0,797.523 
				513.56,628.471 488.127,736.486 550.732,694.444 			"/>
		</g>
	</g>
	<g opacity="0.2">
		<g>
			<polygon fill="#FFFFFF" points="466.855,251.562 313.279,227.242 248.825,270.511 361.647,288.377 0,797.523 0,797.523 
				392.953,335.002 366.769,446.193 431.223,402.925 			"/>
		</g>
	</g>
	<g opacity="0.2">
		<g>
			<polygon fill="#FFFFFF" points="676.339,313.033 616.71,303.584 591.677,320.386 635.484,327.325 0,797.523 0,797.523 
				647.65,345.437 637.486,388.613 662.509,371.809 			"/>
		</g>
	</g>
	<g opacity="0.2">
		<g>
			<polygon fill="#FFFFFF" points="647.197,293.221 609.744,287.284 594.025,297.838 621.544,302.191 0,797.523 0,797.523 
				629.187,313.567 622.789,340.685 638.515,330.136 			"/>
		</g>
	</g>
	<g opacity="0.2">
		<g>
			<polygon fill="#FFFFFF" points="487.391,610.777 432.658,602.109 409.696,617.527 449.902,623.896 0,797.523 0,797.523 
				461.056,640.514 451.729,680.143 474.693,664.722 			"/>
		</g>
	</g>
	<g opacity="0.2">
		<g>
			<polygon fill="#FFFFFF" points="861.335,661.385 806.611,652.712 783.646,668.143 823.837,674.505 0,797.523 0,797.523 
				835.007,691.111 825.681,730.753 848.638,715.328 			"/>
		</g>
	</g>
	<g opacity="0.2">
		<g>
			<polygon fill="#FFFFFF" points="425.2,359.444 400.855,355.597 390.643,362.443 408.527,365.281 0,797.523 0,797.523 
				413.478,372.677 409.334,390.289 419.549,383.435 			"/>
		</g>
	</g>
	<g opacity="0.2">
		<g>
			<polygon fill="#FFFFFF" points="788.837,407.292 679.705,390 633.914,420.749 714.08,433.443 0,797.523 0,797.523 
				736.322,466.575 717.714,545.584 763.521,514.836 			"/>
		</g>
	</g>
	<g opacity="0.2">
		<g>
			<polygon fill="#FFFFFF" points="680.994,163.039 646.724,157.614 632.335,167.266 657.515,171.252 233.507,455.722 
				240.49,466.124 664.496,181.66 658.646,206.473 673.035,196.814 			"/>
		</g>
	</g>
	<g opacity="0.2">
		<g>
			<polygon fill="#FFFFFF" points="536.578,697.533 458.421,685.157 425.63,707.177 483.047,716.263 0,797.523 0,797.523 
				498.964,739.99 485.642,796.566 518.449,774.552 			"/>
		</g>
	</g>
	<g opacity="0.2">
		<g>
			<polygon fill="#FFFFFF" points="300.748,133.79 264.424,128.035 249.173,138.27 275.857,142.5 0,797.523 0,797.523 
				283.27,153.529 277.071,179.831 292.322,169.59 			"/>
		</g>
	</g>
	<g opacity="0.2">
		<g>
			<polygon fill="#FFFFFF" points="648.931,471.95 626.294,468.357 616.794,474.746 633.423,477.368 0,797.523 0,797.523 
				638.035,484.236 634.181,500.631 643.681,494.253 			"/>
		</g>
	</g>
	<g opacity="0.2">
		<g>
			<polygon fill="#FFFFFF" points="675.56,554.709 615.871,545.259 590.822,562.073 634.673,569.02 0,797.523 0,797.523 
				646.839,587.148 636.662,630.365 661.714,613.539 			"/>
		</g>
	</g>
	<g opacity="0.2">
		<g>
			<polygon fill="#FFFFFF" points="622.029,405.519 493.44,385.158 439.467,421.383 533.933,436.34 428.743,506.967 
				454.955,546.004 560.146,475.39 538.23,568.489 592.189,532.254 			"/>
		</g>
	</g>
	<g opacity="0.2">
		<g>
			<polygon fill="#FFFFFF" points="993.628,476.334 888.109,459.604 843.822,489.348 921.339,501.621 0,797.523 0,797.523 
				942.851,533.654 924.863,610.053 969.16,580.33 			"/>
		</g>
	</g>
	<g opacity="0.2">
		<g>
			<polygon fill="#FFFFFF" points="614.523,12.598 534.992,0 501.617,22.408 560.035,31.657 0,797.523 0,797.523 576.248,55.805 
				562.685,113.389 596.064,90.978 			"/>
		</g>
	</g>
	<g opacity="0.2">
		<g>
			<polygon fill="#FFFFFF" points="902.697,169.994 871.648,165.076 858.613,173.826 881.416,177.435 460.067,460.134 
				466.391,469.558 887.751,186.869 882.464,209.348 895.494,200.595 			"/>
		</g>
	</g>
	<g opacity="0.2">
		<g>
			<polygon fill="#FFFFFF" points="470.618,439.548 379.801,425.165 341.692,450.746 408.406,461.316 0,797.523 0,797.523 
				426.916,488.887 411.437,554.645 449.554,529.041 			"/>
		</g>
	</g>
</g>
</svg>
