<?xml version="1.0" encoding="iso-8859-1"?>
<!-- Generator: Adobe Illustrator 12.0.0, SVG Export Plug-In . SVG Version: 6.00 Build 51448)  -->
<!DOCTYPE svg PUBLIC "-//W3C//DTD SVG 1.1 Basic//EN" "http://www.w3.org/Graphics/SVG/1.1/DTD/svg11-basic.dtd" [
	<!ENTITY ns_svg "http://www.w3.org/2000/svg">
	<!ENTITY ns_xlink "http://www.w3.org/1999/xlink">
]>
<svg  version="1.1" baseProfile="basic" id="Ebene_1" xmlns="&ns_svg;" xmlns:xlink="&ns_xlink;" width="1047.473" height="721.596"
	 viewBox="0 0 1047.473 721.596" overflow="visible" enable-background="new 0 0 1047.473 721.596" xml:space="preserve">
<g opacity="0.2">
	<circle opacity="0.3" fill="#FFFFFF" stroke="#FFFFFF" cx="-7.862" cy="-39.911" r="15.828"/>
	<line opacity="0.3" fill="#FFFFFF" stroke="#FFFFFF" stroke-width="2" x1="-87.001" y1="342.98" x2="-7.863" y2="-39.911"/>
	<circle opacity="0.3" fill="#FFFFFF" stroke="#FFFFFF" cx="-7.862" cy="53.192" r="15.828"/>
	<line opacity="0.3" fill="#FFFFFF" stroke="#FFFFFF" stroke-width="2" x1="-87.001" y1="342.98" x2="-7.863" y2="53.192"/>
	<path opacity="0.3" fill="#FFFFFF" stroke="#FFFFFF" d="M68.691,64.788c0,8.738,7.089,15.827,15.827,15.827
		c8.743,0,15.828-7.089,15.828-15.827c0-8.743-7.085-15.827-15.828-15.827C75.78,48.961,68.691,56.045,68.691,64.788z"/>
	<line opacity="0.3" fill="#FFFFFF" stroke="#FFFFFF" stroke-width="2" x1="-87.001" y1="342.98" x2="84.518" y2="64.788"/>
	<circle opacity="0.3" fill="#FFFFFF" stroke="#FFFFFF" cx="183.059" cy="70.945" r="15.827"/>
	<line opacity="0.3" fill="#FFFFFF" stroke="#FFFFFF" stroke-width="2" x1="-87.001" y1="342.98" x2="183.057" y2="70.945"/>
	<circle opacity="0.3" fill="#FFFFFF" stroke="#FFFFFF" cx="178.35" cy="-39.911" r="15.828"/>
	<line opacity="0.3" fill="#FFFFFF" stroke="#FFFFFF" stroke-width="2" x1="-87.001" y1="342.98" x2="178.349" y2="-39.911"/>
	<circle opacity="0.3" fill="#FFFFFF" stroke="#FFFFFF" cx="287.755" cy="-21.436" r="15.828"/>
	<line opacity="0.3" fill="#FFFFFF" stroke="#FFFFFF" stroke-width="2" x1="-87.001" y1="342.98" x2="287.754" y2="-21.436"/>
	<circle opacity="0.3" fill="#FFFFFF" stroke="#FFFFFF" cx="308.692" cy="53.192" r="15.828"/>
	<line opacity="0.3" fill="#FFFFFF" stroke="#FFFFFF" stroke-width="2" x1="-87.001" y1="342.98" x2="308.693" y2="53.192"/>
	<circle opacity="0.3" fill="#FFFFFF" stroke="#FFFFFF" cx="308.692" cy="146.297" r="15.828"/>
	<line opacity="0.3" fill="#FFFFFF" stroke="#FFFFFF" stroke-width="2" x1="-87.001" y1="342.98" x2="308.693" y2="146.297"/>
	<circle opacity="0.3" fill="#FFFFFF" stroke="#FFFFFF" cx="201.532" cy="144.848" r="15.828"/>
	<line opacity="0.3" fill="#FFFFFF" stroke="#FFFFFF" stroke-width="2" x1="-87.001" y1="342.98" x2="201.534" y2="144.848"/>
	<circle opacity="0.3" fill="#FFFFFF" stroke="#FFFFFF" cx="275.438" cy="175.641" r="15.828"/>
	<line opacity="0.3" fill="#FFFFFF" stroke="#FFFFFF" stroke-width="2" x1="-87.001" y1="342.98" x2="275.437" y2="175.641"/>
	<path opacity="0.3" fill="#FFFFFF" stroke="#FFFFFF" d="M292.864,239.404c0,8.739,7.089,15.827,15.83,15.827
		c8.743,0,15.827-7.088,15.827-15.827c0-8.745-7.084-15.83-15.827-15.83C299.952,223.574,292.864,230.659,292.864,239.404z"/>
	<line opacity="0.3" fill="#FFFFFF" stroke="#FFFFFF" stroke-width="2" x1="-87.001" y1="342.98" x2="308.693" y2="239.404"/>
	<circle opacity="0.3" fill="#FFFFFF" stroke="#FFFFFF" cx="308.692" cy="332.504" r="15.828"/>
	<line opacity="0.3" fill="#FFFFFF" stroke="#FFFFFF" stroke-width="2" x1="-87.001" y1="342.98" x2="308.693" y2="332.504"/>
	<circle opacity="0.3" fill="#FFFFFF" stroke="#FFFFFF" cx="213.85" cy="341.925" r="15.827"/>
	<line opacity="0.3" fill="#FFFFFF" stroke="#FFFFFF" stroke-width="2" x1="-87.001" y1="342.98" x2="213.85" y2="341.925"/>
	<circle opacity="0.3" fill="#FFFFFF" stroke="#FFFFFF" cx="178.35" cy="276.643" r="15.828"/>
	<line opacity="0.3" fill="#FFFFFF" stroke="#FFFFFF" stroke-width="2" x1="-87.001" y1="342.98" x2="178.349" y2="276.643"/>
	<path opacity="0.3" fill="#FFFFFF" stroke="#FFFFFF" d="M93.326,249.544c0,8.742,7.089,15.828,15.828,15.828
		c8.74,0,15.829-7.086,15.829-15.828c0-8.74-7.089-15.827-15.829-15.827C100.415,233.718,93.326,240.804,93.326,249.544z"/>
	<line opacity="0.3" fill="#FFFFFF" stroke="#FFFFFF" stroke-width="2" x1="-87.001" y1="342.98" x2="109.154" y2="249.544"/>
	<path opacity="0.3" fill="#FFFFFF" stroke="#FFFFFF" d="M-5.213,255.704c0,8.742,7.086,15.828,15.827,15.828
		c8.745,0,15.827-7.086,15.827-15.828c0-8.743-7.082-15.827-15.827-15.827C1.874,239.877-5.213,246.961-5.213,255.704z"/>
	<line opacity="0.3" fill="#FFFFFF" stroke="#FFFFFF" stroke-width="2" x1="-87.001" y1="342.98" x2="10.615" y2="255.704"/>
	<circle opacity="0.3" fill="#FFFFFF" stroke="#FFFFFF" cx="-7.862" cy="332.504" r="15.828"/>
	<line opacity="0.3" fill="#FFFFFF" stroke="#FFFFFF" stroke-width="2" x1="-87.001" y1="342.98" x2="-7.863" y2="332.504"/>
	<circle opacity="0.3" fill="#FFFFFF" stroke="#FFFFFF" cx="66.042" cy="360.4" r="15.828"/>
	<line opacity="0.3" fill="#FFFFFF" stroke="#FFFFFF" stroke-width="2" x1="-87.001" y1="342.98" x2="66.043" y2="360.4"/>
	<path opacity="0.3" fill="#FFFFFF" stroke="#FFFFFF" d="M81.829,425.609c0,8.743,7.086,15.829,15.827,15.829
		c8.745,0,15.83-7.086,15.83-15.829c0-8.742-7.085-15.829-15.83-15.829C88.915,409.78,81.829,416.867,81.829,425.609z"/>
	<line opacity="0.3" fill="#FFFFFF" stroke="#FFFFFF" stroke-width="2" x1="-87.001" y1="342.98" x2="97.656" y2="425.609"/>
	<path opacity="0.3" fill="#FFFFFF" stroke="#FFFFFF" d="M81.829,518.714c0,8.74,7.086,15.827,15.827,15.827
		c8.745,0,15.83-7.087,15.83-15.827c0-8.741-7.085-15.827-15.83-15.827C88.915,502.887,81.829,509.973,81.829,518.714z"/>
	<line opacity="0.3" fill="#FFFFFF" stroke="#FFFFFF" stroke-width="2" x1="-87.001" y1="342.98" x2="97.656" y2="518.714"/>
	<path opacity="0.3" fill="#FFFFFF" stroke="#FFFFFF" d="M13.262,551.32c0,8.738,7.086,15.826,15.829,15.826
		s15.828-7.088,15.828-15.826c0-8.745-7.085-15.827-15.828-15.827S13.262,542.575,13.262,551.32z"/>
	<line opacity="0.3" fill="#FFFFFF" stroke="#FFFFFF" stroke-width="2" x1="-87.001" y1="342.98" x2="29.091" y2="551.32"/>
	<path opacity="0.3" fill="#FFFFFF" stroke="#FFFFFF" d="M-23.69,611.816c0,8.746,7.087,15.83,15.828,15.83
		c8.743,0,15.829-7.084,15.829-15.83c0-8.739-7.086-15.824-15.829-15.824C-16.603,595.992-23.69,603.077-23.69,611.816z"/>
	<line opacity="0.3" fill="#FFFFFF" stroke="#FFFFFF" stroke-width="2" x1="-87.001" y1="342.98" x2="-7.863" y2="611.816"/>
	<circle opacity="0.3" fill="#FFFFFF" stroke="#FFFFFF" cx="47.566" cy="656.016" r="15.827"/>
	<line opacity="0.3" fill="#FFFFFF" stroke="#FFFFFF" stroke-width="2" x1="-87.001" y1="342.98" x2="47.569" y2="656.016"/>
	<path opacity="0.3" fill="#FFFFFF" stroke="#FFFFFF" d="M130.28,662.176c0,8.737,7.084,15.829,15.825,15.829
		c8.741,0,15.829-7.092,15.829-15.829c0-8.742-7.088-15.829-15.829-15.829C137.365,646.347,130.28,653.434,130.28,662.176z"/>
	<line opacity="0.3" fill="#FFFFFF" stroke="#FFFFFF" stroke-width="2" x1="-87.001" y1="342.98" x2="146.105" y2="662.176"/>
	<circle opacity="0.3" fill="#FFFFFF" stroke="#FFFFFF" cx="178.35" cy="593.198" r="15.828"/>
	<line opacity="0.3" fill="#FFFFFF" stroke="#FFFFFF" stroke-width="2" x1="-87.001" y1="342.98" x2="178.349" y2="593.198"/>
	<path opacity="0.3" fill="#FFFFFF" stroke="#FFFFFF" d="M187.347,611.816c0,8.746,7.087,15.83,15.828,15.83
		c8.744,0,15.827-7.084,15.827-15.83c0-8.739-7.083-15.824-15.827-15.824C194.434,595.992,187.347,603.077,187.347,611.816z"/>
	<line opacity="0.3" fill="#FFFFFF" stroke="#FFFFFF" stroke-width="2" x1="-87.001" y1="342.98" x2="203.175" y2="611.816"/>
	<path opacity="0.3" fill="#FFFFFF" stroke="#FFFFFF" d="M228.817,668.332c0,8.747,7.084,15.829,15.83,15.829
		c8.74,0,15.827-7.082,15.827-15.829c0-8.739-7.087-15.826-15.827-15.826C235.901,652.506,228.817,659.593,228.817,668.332z"/>
	<line opacity="0.3" fill="#FFFFFF" stroke="#FFFFFF" stroke-width="2" x1="-87.001" y1="342.98" x2="244.646" y2="668.332"/>
	<path opacity="0.3" fill="#FFFFFF" stroke="#FFFFFF" d="M327.353,674.487c0,8.748,7.089,15.829,15.829,15.829
		c8.741,0,15.827-7.081,15.827-15.829c0-8.733-7.086-15.824-15.827-15.824C334.442,658.663,327.353,665.754,327.353,674.487z"/>
	<line opacity="0.3" fill="#FFFFFF" stroke="#FFFFFF" stroke-width="2" x1="-87.001" y1="342.98" x2="343.182" y2="674.487"/>
	<circle opacity="0.3" fill="#FFFFFF" stroke="#FFFFFF" cx="364.556" cy="593.198" r="15.827"/>
	<line opacity="0.3" fill="#FFFFFF" stroke="#FFFFFF" stroke-width="2" x1="-87.001" y1="342.98" x2="364.556" y2="593.198"/>
	<path opacity="0.3" fill="#FFFFFF" stroke="#FFFFFF" d="M308.879,532.846c0,8.738,7.086,15.827,15.827,15.827
		c8.743,0,15.829-7.089,15.829-15.827c0-8.743-7.086-15.83-15.829-15.83C315.965,517.016,308.879,524.103,308.879,532.846z"/>
	<line opacity="0.3" fill="#FFFFFF" stroke="#FFFFFF" stroke-width="2" x1="-87.001" y1="342.98" x2="324.706" y2="532.846"/>
	<circle opacity="0.3" fill="#FFFFFF" stroke="#FFFFFF" cx="271.452" cy="487.681" r="15.827"/>
	<line opacity="0.3" fill="#FFFFFF" stroke="#FFFFFF" stroke-width="2" x1="-87.001" y1="342.98" x2="271.453" y2="487.681"/>
	<path opacity="0.3" fill="#FFFFFF" stroke="#FFFFFF" d="M255.625,382.163c0,8.738,7.085,15.826,15.828,15.826
		s15.827-7.088,15.827-15.826c0-8.747-7.084-15.829-15.827-15.829S255.625,373.416,255.625,382.163z"/>
	<line opacity="0.3" fill="#FFFFFF" stroke="#FFFFFF" stroke-width="2" x1="-87.001" y1="342.98" x2="271.453" y2="382.163"/>
	<path opacity="0.3" fill="#FFFFFF" stroke="#FFFFFF" d="M345.83,378.878c0,8.737,7.087,15.827,15.829,15.827
		c8.74,0,15.827-7.09,15.827-15.827c0-8.742-7.087-15.829-15.827-15.829C352.917,363.049,345.83,370.136,345.83,378.878z"/>
	<line opacity="0.3" fill="#FFFFFF" stroke="#FFFFFF" stroke-width="2" x1="-87.001" y1="342.98" x2="361.659" y2="378.878"/>
	<path opacity="0.3" fill="#FFFFFF" stroke="#FFFFFF" d="M444.371,385.035c0,8.741,7.084,15.828,15.827,15.828
		c8.74,0,15.822-7.087,15.822-15.828s-7.082-15.826-15.822-15.826C451.456,369.209,444.371,376.294,444.371,385.035z"/>
	<line opacity="0.3" fill="#FFFFFF" stroke="#FFFFFF" stroke-width="2" x1="-87.001" y1="342.98" x2="460.198" y2="385.035"/>
	<circle opacity="0.5" fill="#FFFFFF" stroke="#FFFFFF" cx="519.73" cy="425.609" r="15.828"/>
	<line opacity="0.3" fill="#FFFFFF" stroke="#FFFFFF" stroke-width="2" x1="-87.001" y1="342.98" x2="519.729" y2="425.609"/>
	<circle opacity="0.5" fill="#FFFFFF" stroke="#FFFFFF" cx="519.73" cy="518.714" r="15.828"/>
	<line opacity="0.3" fill="#FFFFFF" stroke="#FFFFFF" stroke-width="2" x1="-87.001" y1="342.98" x2="519.729" y2="518.714"/>
	<circle opacity="0.3" fill="#FFFFFF" stroke="#FFFFFF" cx="423.247" cy="526.685" r="15.829"/>
	<line opacity="0.3" fill="#FFFFFF" stroke="#FFFFFF" stroke-width="2" x1="-87.001" y1="342.98" x2="423.246" y2="526.685"/>
	<path opacity="0.3" fill="#FFFFFF" stroke="#FFFFFF" d="M398.384,611.816c0,8.746,7.086,15.83,15.827,15.83
		c8.743,0,15.829-7.084,15.829-15.83c0-8.739-7.086-15.824-15.829-15.824C405.47,595.992,398.384,603.077,398.384,611.816z"/>
	<line opacity="0.3" fill="#FFFFFF" stroke="#FFFFFF" stroke-width="2" x1="-87.001" y1="342.98" x2="414.211" y2="611.816"/>
	<path opacity="0.3" fill="#FFFFFF" stroke="#FFFFFF" d="M425.894,680.653c0,8.737,7.084,15.826,15.827,15.826
		c8.74,0,15.827-7.089,15.827-15.826c0-8.744-7.087-15.829-15.827-15.829C432.979,664.824,425.894,671.909,425.894,680.653z"/>
	<line opacity="0.3" fill="#FFFFFF" stroke="#FFFFFF" stroke-width="2" x1="-87.001" y1="342.98" x2="441.721" y2="680.653"/>
	<path opacity="0.5" fill="#FFFFFF" stroke="#FFFFFF" d="M524.431,686.809c0,8.743,7.086,15.827,15.827,15.827
		c8.743,0,15.829-7.084,15.829-15.827c0-8.738-7.086-15.829-15.829-15.829C531.517,670.979,524.431,678.07,524.431,686.809z"/>
	<line opacity="0.3" fill="#FFFFFF" stroke="#FFFFFF" stroke-width="2" x1="-87.001" y1="342.98" x2="540.258" y2="686.809"/>
	<circle opacity="0.5" fill="#FFFFFF" stroke="#FFFFFF" cx="550.763" cy="593.198" r="15.828"/>
	<line opacity="0.3" fill="#FFFFFF" stroke="#FFFFFF" stroke-width="2" x1="-87.001" y1="342.98" x2="550.763" y2="593.198"/>
	<path opacity="0.5" fill="#FFFFFF" stroke="#FFFFFF" d="M609.418,611.816c0,8.746,7.09,15.83,15.831,15.83
		c8.739,0,15.825-7.084,15.825-15.83c0-8.739-7.086-15.824-15.825-15.824C616.508,595.992,609.418,603.077,609.418,611.816z"/>
	<line opacity="0.3" fill="#FFFFFF" stroke="#FFFFFF" stroke-width="2" x1="-87.001" y1="342.98" x2="625.249" y2="611.816"/>
	<path opacity="0.5" fill="#FFFFFF" stroke="#FFFFFF" d="M622.97,692.965c0,8.744,7.087,15.829,15.829,15.829
		c8.74,0,15.827-7.085,15.827-15.829c0-8.738-7.087-15.824-15.827-15.824C630.057,677.141,622.97,684.227,622.97,692.965z"/>
	<line opacity="0.3" fill="#FFFFFF" stroke="#FFFFFF" stroke-width="2" x1="-87.001" y1="342.98" x2="638.799" y2="692.965"/>
	<path opacity="0.5" fill="#FFFFFF" stroke="#FFFFFF" d="M721.508,699.129c0,8.737,7.087,15.826,15.828,15.826
		c8.74,0,15.826-7.089,15.826-15.826c0-8.742-7.086-15.829-15.826-15.829C728.595,683.3,721.508,690.387,721.508,699.129z"/>
	<line opacity="0.3" fill="#FFFFFF" stroke="#FFFFFF" stroke-width="2" x1="-87.001" y1="342.98" x2="737.336" y2="699.129"/>
	<circle opacity="0.5" fill="#FFFFFF" stroke="#FFFFFF" cx="736.973" cy="593.198" r="15.829"/>
	<line opacity="0.3" fill="#FFFFFF" stroke="#FFFFFF" stroke-width="2" x1="-87.001" y1="342.98" x2="736.976" y2="593.198"/>
	<circle opacity="0.5" fill="#FFFFFF" stroke="#FFFFFF" cx="718.858" cy="508.208" r="15.828"/>
	<line opacity="0.3" fill="#FFFFFF" stroke="#FFFFFF" stroke-width="2" x1="-87.001" y1="342.98" x2="718.859" y2="508.208"/>
	<circle opacity="0.5" fill="#FFFFFF" stroke="#FFFFFF" cx="643.868" cy="487.681" r="15.828"/>
	<line opacity="0.3" fill="#FFFFFF" stroke="#FFFFFF" stroke-width="2" x1="-87.001" y1="342.98" x2="643.867" y2="487.681"/>
	<circle opacity="0.5" fill="#FFFFFF" stroke="#FFFFFF" cx="643.868" cy="382.163" r="15.828"/>
	<line opacity="0.3" fill="#FFFFFF" stroke="#FFFFFF" stroke-width="2" x1="-87.001" y1="342.98" x2="643.867" y2="382.163"/>
	<circle opacity="0.5" fill="#FFFFFF" stroke="#FFFFFF" cx="755.812" cy="403.511" r="15.829"/>
	<line opacity="0.3" fill="#FFFFFF" stroke="#FFFFFF" stroke-width="2" x1="-87.001" y1="342.98" x2="755.81" y2="403.511"/>
	<circle opacity="0.5" fill="#FFFFFF" stroke="#FFFFFF" cx="736.973" cy="276.643" r="15.829"/>
	<line opacity="0.3" fill="#FFFFFF" stroke="#FFFFFF" stroke-width="2" x1="-87.001" y1="342.98" x2="736.976" y2="276.643"/>
	<circle opacity="0.5" fill="#FFFFFF" stroke="#FFFFFF" cx="700.384" cy="212.592" r="15.827"/>
	<line opacity="0.3" fill="#FFFFFF" stroke="#FFFFFF" stroke-width="2" x1="-87.001" y1="342.98" x2="700.381" y2="212.592"/>
	<circle opacity="0.5" fill="#FFFFFF" stroke="#FFFFFF" cx="601.846" cy="218.753" r="15.828"/>
	<line opacity="0.3" fill="#FFFFFF" stroke="#FFFFFF" stroke-width="2" x1="-87.001" y1="342.98" x2="601.846" y2="218.753"/>
	<circle opacity="0.5" fill="#FFFFFF" stroke="#FFFFFF" cx="625.246" cy="332.504" r="15.828"/>
	<line opacity="0.3" fill="#FFFFFF" stroke="#FFFFFF" stroke-width="2" x1="-87.001" y1="342.98" x2="625.249" y2="332.504"/>
	<circle opacity="0.5" fill="#FFFFFF" stroke="#FFFFFF" cx="509.467" cy="323.449" r="15.827"/>
	<line opacity="0.3" fill="#FFFFFF" stroke="#FFFFFF" stroke-width="2" x1="-87.001" y1="342.98" x2="509.467" y2="323.449"/>
	<circle opacity="0.3" fill="#FFFFFF" stroke="#FFFFFF" cx="457.66" cy="276.643" r="15.827"/>
	<line opacity="0.3" fill="#FFFFFF" stroke="#FFFFFF" stroke-width="2" x1="-87.001" y1="342.98" x2="457.66" y2="276.643"/>
	<circle opacity="0.3" fill="#FFFFFF" stroke="#FFFFFF" cx="457.66" cy="171.124" r="15.827"/>
	<line opacity="0.3" fill="#FFFFFF" stroke="#FFFFFF" stroke-width="2" x1="-87.001" y1="342.98" x2="457.66" y2="171.124"/>
	<path opacity="0.5" fill="#FFFFFF" stroke="#FFFFFF" d="M555.224,194.117c0,8.741,7.085,15.828,15.826,15.828
		c8.744,0,15.829-7.087,15.829-15.828s-7.085-15.828-15.829-15.828C562.309,178.289,555.224,185.376,555.224,194.117z"/>
	<line opacity="0.3" fill="#FFFFFF" stroke="#FFFFFF" stroke-width="2" x1="-87.001" y1="342.98" x2="571.05" y2="194.117"/>
	<path opacity="0.5" fill="#FFFFFF" stroke="#FFFFFF" d="M481.319,126.373c0,8.74,7.089,15.828,15.827,15.828
		c8.746,0,15.827-7.088,15.827-15.828c0-8.744-7.081-15.827-15.827-15.827C488.408,110.545,481.319,117.629,481.319,126.373z"/>
	<line opacity="0.3" fill="#FFFFFF" stroke="#FFFFFF" stroke-width="2" x1="-87.001" y1="342.98" x2="497.146" y2="126.373"/>
	<circle opacity="0.3" fill="#FFFFFF" stroke="#FFFFFF" cx="457.66" cy="65.607" r="15.827"/>
	<line opacity="0.3" fill="#FFFFFF" stroke="#FFFFFF" stroke-width="2" x1="-87.001" y1="342.98" x2="457.66" y2="65.607"/>
	<circle opacity="0.3" fill="#FFFFFF" stroke="#FFFFFF" cx="457.66" cy="-39.911" r="15.827"/>
	<line opacity="0.3" fill="#FFFFFF" stroke="#FFFFFF" stroke-width="2" x1="-87.001" y1="342.98" x2="457.66" y2="-39.911"/>
	<path opacity="0.5" fill="#FFFFFF" stroke="#FFFFFF" d="M567.543-2.96c0,8.742,7.083,15.828,15.827,15.828
		c8.74,0,15.827-7.086,15.827-15.828c0-8.744-7.087-15.827-15.827-15.827C574.626-18.787,567.543-11.704,567.543-2.96z"/>
	<line opacity="0.3" fill="#FFFFFF" stroke="#FFFFFF" stroke-width="2" x1="-87.001" y1="342.98" x2="583.37" y2="-2.96"/>
	<circle opacity="0.5" fill="#FFFFFF" stroke="#FFFFFF" cx="625.246" cy="53.192" r="15.828"/>
	<line opacity="0.3" fill="#FFFFFF" stroke="#FFFFFF" stroke-width="2" x1="-87.001" y1="342.98" x2="625.249" y2="53.192"/>
	<circle opacity="0.5" fill="#FFFFFF" stroke="#FFFFFF" cx="675.749" cy="101.736" r="15.828"/>
	<line opacity="0.3" fill="#FFFFFF" stroke="#FFFFFF" stroke-width="2" x1="-87.001" y1="342.98" x2="675.75" y2="101.736"/>
	<path opacity="0.5" fill="#FFFFFF" stroke="#FFFFFF" d="M758.458,107.897c0,8.74,7.09,15.828,15.829,15.828
		c8.74,0,15.826-7.087,15.826-15.828c0-8.744-7.086-15.829-15.826-15.829C765.548,92.068,758.458,99.153,758.458,107.897z"/>
	<line opacity="0.3" fill="#FFFFFF" stroke="#FFFFFF" stroke-width="2" x1="-87.001" y1="342.98" x2="774.287" y2="107.897"/>
	<circle opacity="0.5" fill="#FFFFFF" stroke="#FFFFFF" cx="736.973" cy="-39.911" r="15.829"/>
	<line opacity="0.3" fill="#FFFFFF" stroke="#FFFFFF" stroke-width="2" x1="-87.001" y1="342.98" x2="736.976" y2="-39.911"/>
	<circle opacity="0.9" fill="#FFFFFF" stroke="#FFFFFF" cx="878.984" cy="15.517" r="15.828"/>
	<line opacity="0.3" fill="#FFFFFF" stroke="#FFFFFF" stroke-width="2" x1="-87.001" y1="342.98" x2="878.984" y2="15.517"/>
	<circle opacity="0.9" fill="#FFFFFF" stroke="#FFFFFF" cx="941.802" cy="53.192" r="15.827"/>
	<line opacity="0.3" fill="#FFFFFF" stroke="#FFFFFF" stroke-width="2" x1="-87.001" y1="342.98" x2="941.802" y2="53.192"/>
	<circle opacity="0.9" fill="#FFFFFF" stroke="#FFFFFF" cx="941.802" cy="146.297" r="15.827"/>
	<line opacity="0.3" fill="#FFFFFF" stroke="#FFFFFF" stroke-width="2" x1="-87.001" y1="342.98" x2="941.802" y2="146.297"/>
	<path opacity="0.5" fill="#FFFFFF" stroke="#FFFFFF" d="M776.936,107.897c0,8.74,7.086,15.828,15.827,15.828
		s15.828-7.087,15.828-15.828c0-8.744-7.087-15.829-15.828-15.829S776.936,99.153,776.936,107.897z"/>
	<line opacity="0.3" fill="#FFFFFF" stroke="#FFFFFF" stroke-width="2" x1="-87.001" y1="342.98" x2="792.763" y2="107.897"/>
	<path opacity="0.9" fill="#FFFFFF" stroke="#FFFFFF" d="M820.457,239.404c0,8.739,7.085,15.827,15.826,15.827
		c8.74,0,15.829-7.088,15.829-15.827c0-8.745-7.089-15.83-15.829-15.83C827.542,223.574,820.457,230.659,820.457,239.404z"/>
	<line opacity="0.3" fill="#FFFFFF" stroke="#FFFFFF" stroke-width="2" x1="-87.001" y1="342.98" x2="836.283" y2="239.404"/>
	<path opacity="0.9" fill="#FFFFFF" stroke="#FFFFFF" d="M844.681,311.133c0,8.741,7.086,15.827,15.826,15.827
		c8.745,0,15.828-7.085,15.828-15.827c0-8.744-7.083-15.829-15.828-15.829C851.767,295.304,844.681,302.389,844.681,311.133z"/>
	<line opacity="0.3" fill="#FFFFFF" stroke="#FFFFFF" stroke-width="2" x1="-87.001" y1="342.98" x2="860.507" y2="311.133"/>
	<circle opacity="0.9" fill="#FFFFFF" stroke="#FFFFFF" cx="959.047" cy="317.29" r="15.828"/>
	<line opacity="0.3" fill="#FFFFFF" stroke="#FFFFFF" stroke-width="2" x1="-87.001" y1="342.98" x2="959.046" y2="317.29"/>
	<circle opacity="0.9" fill="#FFFFFF" stroke="#FFFFFF" cx="923.183" cy="171.124" r="15.828"/>
	<line opacity="0.3" fill="#FFFFFF" stroke="#FFFFFF" stroke-width="2" x1="-87.001" y1="342.98" x2="923.182" y2="171.124"/>
	<path opacity="0.9" fill="#FFFFFF" stroke="#FFFFFF" d="M1031.493,239.404c0,8.739,7.087,15.827,15.827,15.827
		s15.827-7.088,15.827-15.827c0-8.745-7.087-15.83-15.827-15.83S1031.493,230.659,1031.493,239.404z"/>
	<line opacity="0.3" fill="#FFFFFF" stroke="#FFFFFF" stroke-width="2" x1="-87.001" y1="342.98" x2="1047.321" y2="239.404"/>
	<path opacity="0.9" fill="#FFFFFF" stroke="#FFFFFF" d="M1041.759,323.449c0,8.742,7.084,15.827,15.828,15.827
		c8.74,0,15.827-7.085,15.827-15.827s-7.087-15.828-15.827-15.828C1048.843,307.621,1041.759,314.708,1041.759,323.449z"/>
	<line opacity="0.3" fill="#FFFFFF" stroke="#FFFFFF" stroke-width="2" x1="-87.001" y1="342.98" x2="1057.587" y2="323.449"/>
	<path opacity="0.9" fill="#FFFFFF" stroke="#FFFFFF" d="M1140.295,329.608c0,8.742,7.086,15.827,15.829,15.827
		c8.737,0,15.827-7.085,15.827-15.827c0-8.743-7.09-15.827-15.827-15.827C1147.381,313.781,1140.295,320.866,1140.295,329.608z"/>
	<line opacity="0.3" fill="#FFFFFF" stroke="#FFFFFF" stroke-width="2" x1="-87.001" y1="342.98" x2="1156.124" y2="329.608"/>
	<path opacity="0.9" fill="#FFFFFF" stroke="#FFFFFF" d="M1093.563,171.124c0,8.742,7.087,15.829,15.826,15.829
		c8.744,0,15.829-7.087,15.829-15.829c0-8.744-7.085-15.827-15.829-15.827C1100.65,155.297,1093.563,162.38,1093.563,171.124z"/>
	<line opacity="0.3" fill="#FFFFFF" stroke="#FFFFFF" stroke-width="2" x1="-87.001" y1="342.98" x2="1109.389" y2="171.124"/>
	<circle opacity="0.9" fill="#FFFFFF" stroke="#FFFFFF" cx="1088.379" cy="89.419" r="15.828"/>
	<line opacity="0.3" fill="#FFFFFF" stroke="#FFFFFF" stroke-width="2" x1="-87.001" y1="342.98" x2="1088.379" y2="89.419"/>
	<circle opacity="0.9" fill="#FFFFFF" stroke="#FFFFFF" cx="1016.286" cy="65.607" r="15.827"/>
	<line opacity="0.3" fill="#FFFFFF" stroke="#FFFFFF" stroke-width="2" x1="-87.001" y1="342.98" x2="1016.286" y2="65.607"/>
	<circle opacity="0.9" fill="#FFFFFF" stroke="#FFFFFF" cx="1016.286" cy="-39.911" r="15.827"/>
	<line opacity="0.3" fill="#FFFFFF" stroke="#FFFFFF" stroke-width="2" x1="-87.001" y1="342.98" x2="1016.286" y2="-39.911"/>
	<circle opacity="0.9" fill="#FFFFFF" stroke="#FFFFFF" cx="1174.598" cy="33.993" r="15.827"/>
	<line opacity="0.3" fill="#FFFFFF" stroke="#FFFFFF" stroke-width="2" x1="-87.001" y1="342.98" x2="1174.598" y2="33.993"/>
	<path opacity="0.3" fill="#FFFFFF" stroke="#FFFFFF" stroke-width="2" d="M-87.001,342.98"/>
	<path opacity="0.3" fill="#FFFFFF" stroke="#FFFFFF" stroke-width="2" d="M-87.001,342.98"/>
	<path opacity="0.3" fill="#FFFFFF" stroke="#FFFFFF" stroke-width="2" d="M-87.001,342.98"/>
	<path opacity="0.3" fill="#FFFFFF" stroke="#FFFFFF" stroke-width="2" d="M-87.001,342.98"/>
	<path opacity="0.3" fill="#FFFFFF" stroke="#FFFFFF" stroke-width="2" d="M-87.001,342.98"/>
	<path opacity="0.3" fill="#FFFFFF" stroke="#FFFFFF" stroke-width="2" d="M-87.001,342.98"/>
	<path opacity="0.3" fill="#FFFFFF" stroke="#FFFFFF" stroke-width="2" d="M-87.001,342.98"/>
	<path opacity="0.3" fill="#FFFFFF" stroke="#FFFFFF" stroke-width="2" d="M-87.001,342.98"/>
	<path opacity="0.3" fill="#FFFFFF" stroke="#FFFFFF" stroke-width="2" d="M-87.001,342.98"/>
	<path opacity="0.3" fill="#FFFFFF" stroke="#FFFFFF" stroke-width="2" d="M-87.001,342.98"/>
	<path opacity="0.3" fill="#FFFFFF" stroke="#FFFFFF" stroke-width="2" d="M-87.001,342.98"/>
	<path opacity="0.3" fill="#FFFFFF" stroke="#FFFFFF" stroke-width="2" d="M-87.001,342.98"/>
	<path opacity="0.3" fill="#FFFFFF" stroke="#FFFFFF" stroke-width="2" d="M-87.001,342.98"/>
	<path opacity="0.3" fill="#FFFFFF" stroke="#FFFFFF" stroke-width="2" d="M-87.001,342.98"/>
	<path opacity="0.9" fill="#FFFFFF" stroke="#FFFFFF" d="M1193.073,165.973c-8.737,0-15.824,7.083-15.824,15.827
		c0,8.742,7.087,15.827,15.824,15.827"/>
	<line opacity="0.3" fill="#FFFFFF" stroke="#FFFFFF" stroke-width="2" x1="-87.001" y1="342.98" x2="1193.073" y2="181.8"/>
	<path opacity="0.3" fill="#FFFFFF" stroke="#FFFFFF" stroke-width="2" d="M-87.001,342.98"/>
	<path opacity="0.3" fill="#FFFFFF" stroke="#FFFFFF" stroke-width="2" d="M-87.001,342.98"/>
	<path opacity="0.3" fill="#FFFFFF" stroke="#FFFFFF" stroke-width="2" d="M-87.001,342.98"/>
	<path opacity="0.3" fill="#FFFFFF" stroke="#FFFFFF" stroke-width="2" d="M-87.001,342.98"/>
	<path opacity="0.3" fill="#FFFFFF" stroke="#FFFFFF" stroke-width="2" d="M-87.001,342.98"/>
	<path opacity="0.3" fill="#FFFFFF" stroke="#FFFFFF" stroke-width="2" d="M-87.001,342.98"/>
	<path opacity="0.3" fill="#FFFFFF" stroke="#FFFFFF" stroke-width="2" d="M-87.001,342.98"/>
	<path opacity="0.3" fill="#FFFFFF" stroke="#FFFFFF" stroke-width="2" d="M-87.001,342.98"/>
	<path opacity="0.3" fill="#FFFFFF" stroke="#FFFFFF" stroke-width="2" d="M-87.001,342.98"/>
	<path opacity="0.3" fill="#FFFFFF" stroke="#FFFFFF" stroke-width="2" d="M-87.001,342.98"/>
	<path opacity="0.3" fill="#FFFFFF" stroke="#FFFFFF" stroke-width="2" d="M-87.001,342.98"/>
	<path opacity="0.3" fill="#FFFFFF" stroke="#FFFFFF" stroke-width="2" d="M-87.001,342.98"/>
	<path opacity="0.3" fill="#FFFFFF" stroke="#FFFFFF" stroke-width="2" d="M-87.001,342.98"/>
	<path opacity="0.3" fill="#FFFFFF" stroke="#FFFFFF" stroke-width="2" d="M-87.001,342.98"/>
	<path opacity="0.3" fill="#FFFFFF" stroke="#FFFFFF" stroke-width="2" d="M-87.001,342.98"/>
	<path opacity="0.3" fill="#FFFFFF" stroke="#FFFFFF" stroke-width="2" d="M-87.001,342.98"/>
	<path opacity="0.3" fill="#FFFFFF" stroke="#FFFFFF" stroke-width="2" d="M-87.001,342.98"/>
	<path opacity="0.9" fill="#FFFFFF" stroke="#FFFFFF" d="M1109.503,680.653c0,8.737,7.087,15.826,15.827,15.826
		c8.741,0,15.828-7.089,15.828-15.826c0-8.744-7.087-15.829-15.828-15.829C1116.59,664.824,1109.503,671.909,1109.503,680.653z"/>
	<line opacity="0.3" fill="#FFFFFF" stroke="#FFFFFF" stroke-width="2" x1="-87.001" y1="342.98" x2="1125.33" y2="680.653"/>
	<circle opacity="0.9" fill="#FFFFFF" stroke="#FFFFFF" cx="1016.286" cy="698.717" r="15.827"/>
	<line opacity="0.3" fill="#FFFFFF" stroke="#FFFFFF" stroke-width="2" x1="-87.001" y1="342.98" x2="1016.286" y2="698.717"/>
	<circle opacity="0.9" fill="#FFFFFF" stroke="#FFFFFF" cx="1016.286" cy="593.198" r="15.827"/>
	<line opacity="0.3" fill="#FFFFFF" stroke="#FFFFFF" stroke-width="2" x1="-87.001" y1="342.98" x2="1016.286" y2="593.198"/>
	<path opacity="0.9" fill="#FFFFFF" stroke="#FFFFFF" d="M1121.82,625.227c0,8.733,7.087,15.824,15.828,15.824
		c8.739,0,15.828-7.091,15.828-15.824c0-8.748-7.089-15.829-15.828-15.829C1128.906,609.397,1121.82,616.479,1121.82,625.227z"/>
	<line opacity="0.3" fill="#FFFFFF" stroke="#FFFFFF" stroke-width="2" x1="-87.001" y1="342.98" x2="1137.648" y2="625.227"/>
	<path opacity="0.9" fill="#FFFFFF" stroke="#FFFFFF" d="M1093.563,487.681c0,8.739,7.087,15.826,15.826,15.826
		c8.744,0,15.829-7.087,15.829-15.826c0-8.741-7.085-15.828-15.829-15.828C1100.65,471.853,1093.563,478.939,1093.563,487.681z"/>
	<line opacity="0.3" fill="#FFFFFF" stroke="#FFFFFF" stroke-width="2" x1="-87.001" y1="342.98" x2="1109.389" y2="487.681"/>
	<circle opacity="0.9" fill="#FFFFFF" stroke="#FFFFFF" cx="1106.855" cy="385.035" r="15.827"/>
	<line opacity="0.3" fill="#FFFFFF" stroke="#FFFFFF" stroke-width="2" x1="-87.001" y1="342.98" x2="1106.854" y2="385.035"/>
	<circle opacity="0.9" fill="#FFFFFF" stroke="#FFFFFF" cx="1008.316" cy="391.194" r="15.828"/>
	<line opacity="0.3" fill="#FFFFFF" stroke="#FFFFFF" stroke-width="2" x1="-87.001" y1="342.98" x2="1008.317" y2="391.194"/>
	<circle opacity="0.9" fill="#FFFFFF" stroke="#FFFFFF" cx="1047.321" cy="518.714" r="15.827"/>
	<line opacity="0.3" fill="#FFFFFF" stroke="#FFFFFF" stroke-width="2" x1="-87.001" y1="342.98" x2="1047.321" y2="518.714"/>
	<circle opacity="0.9" fill="#FFFFFF" stroke="#FFFFFF" cx="923.183" cy="487.681" r="15.828"/>
	<line opacity="0.3" fill="#FFFFFF" stroke="#FFFFFF" stroke-width="2" x1="-87.001" y1="342.98" x2="923.182" y2="487.681"/>
	<path opacity="0.9" fill="#FFFFFF" stroke="#FFFFFF" d="M893.951,397.354c0,8.739,7.082,15.826,15.827,15.826
		c8.739,0,15.828-7.087,15.828-15.826c0-8.741-7.089-15.828-15.828-15.828C901.033,381.525,893.951,388.612,893.951,397.354z"/>
	<line opacity="0.3" fill="#FFFFFF" stroke="#FFFFFF" stroke-width="2" x1="-87.001" y1="342.98" x2="909.779" y2="397.354"/>
	<circle opacity="0.9" fill="#FFFFFF" stroke="#FFFFFF" cx="811.239" cy="403.511" r="15.828"/>
	<line opacity="0.3" fill="#FFFFFF" stroke="#FFFFFF" stroke-width="2" x1="-87.001" y1="342.98" x2="811.24" y2="403.511"/>
	<circle opacity="0.9" fill="#FFFFFF" stroke="#FFFFFF" cx="836.285" cy="518.714" r="15.828"/>
	<line opacity="0.3" fill="#FFFFFF" stroke="#FFFFFF" stroke-width="2" x1="-87.001" y1="342.98" x2="836.283" y2="518.714"/>
	<path opacity="0.9" fill="#FFFFFF" stroke="#FFFFFF" d="M826.202,606.749c0,8.738,7.087,15.827,15.828,15.827
		c8.744,0,15.828-7.089,15.828-15.827c0-8.742-7.084-15.829-15.828-15.829C833.289,590.92,826.202,598.007,826.202,606.749z"/>
	<line opacity="0.3" fill="#FFFFFF" stroke="#FFFFFF" stroke-width="2" x1="-87.001" y1="342.98" x2="842.031" y2="606.749"/>
	<path opacity="0.9" fill="#FFFFFF" stroke="#FFFFFF" d="M925.975,611.816c0,8.746,7.087,15.83,15.827,15.83
		s15.827-7.084,15.827-15.83c0-8.739-7.087-15.824-15.827-15.824S925.975,603.077,925.975,611.816z"/>
	<line opacity="0.3" fill="#FFFFFF" stroke="#FFFFFF" stroke-width="2" x1="-87.001" y1="342.98" x2="941.802" y2="611.816"/>
	<path opacity="0.9" fill="#FFFFFF" stroke="#FFFFFF" d="M925.975,704.925c0,8.741,7.087,15.827,15.827,15.827
		s15.827-7.086,15.827-15.827c0-8.744-7.087-15.829-15.827-15.829S925.975,696.181,925.975,704.925z"/>
	<line opacity="0.3" fill="#FFFFFF" stroke="#FFFFFF" stroke-width="2" x1="-87.001" y1="342.98" x2="941.802" y2="704.925"/>
	<path opacity="0.9" fill="#FFFFFF" stroke="#FFFFFF" d="M813.887,699.129c0,8.737,7.088,15.826,15.828,15.826
		c8.741,0,15.827-7.089,15.827-15.826c0-8.742-7.086-15.829-15.827-15.829C820.975,683.3,813.887,690.387,813.887,699.129z"/>
	<line opacity="0.3" fill="#FFFFFF" stroke="#FFFFFF" stroke-width="2" x1="-87.001" y1="342.98" x2="829.715" y2="699.129"/>
</g>
</svg>
