<?xml version="1.0" encoding="iso-8859-1"?>
<!-- Generator: Adobe Illustrator 12.0.0, SVG Export Plug-In . SVG Version: 6.00 Build 51448)  -->
<!DOCTYPE svg PUBLIC "-//W3C//DTD SVG 1.0//EN" "http://www.w3.org/TR/2001/REC-SVG-20010904/DTD/svg10.dtd" [
	<!ENTITY ns_svg "http://www.w3.org/2000/svg">
	<!ENTITY ns_xlink "http://www.w3.org/1999/xlink">
]>
<svg  version="1.0" id="Ebene_1" xmlns="&ns_svg;" xmlns:xlink="&ns_xlink;" width="1047.473" height="721.596"
	 viewBox="0 0 1047.473 721.596" overflow="visible" enable-background="new 0 0 1047.473 721.596" xml:space="preserve">
<path fill="#FAD72D" d="M3.998,561.355l-3.991,5.07l4.021-5.07h0.034l-4.056,5.07l4.088-5.07H4.13l-4.123,5.07l4.145-5.063
	l0.024-0.011l-4.171,5.072l4.174-5.072h0.034l-4.208,5.072l4.224-5.063l0.021-0.011l-4.245,5.072l4.251-5.072h0.031l-4.284,5.072
	l4.324-5.072h0.038l-4.362,5.072l4.372-5.063l0.04-0.011l-4.413,5.072l4.413-5.063l0.038-0.011l-4.451,5.072l4.447-5.063
	l0.055-0.011l-4.502,5.072l4.518-5.063l0.043-0.011l-4.561,5.072l4.583-5.072h0.04L0,566.427l4.651-5.063l0.043-0.011L0,566.427
	l4.694-5.063l0.042-0.011L0,566.427l4.753-5.063l0.053-0.011L0,566.427l4.814-5.063l0.043-0.011L0,566.427l4.88-5.072h0.044
	L0,566.427l4.992-5.072h0.041L0,566.427l5.09-5.063l0.059-0.011L0,566.427l5.207-5.072h0.046L0,566.427l5.314-5.072h0.048L0,566.427
	l5.705-5.072h0.057L0,566.427l5.782-5.063l0.069-0.011L0,566.427l5.951-5.072h0.069L0,566.427l6.177-5.072H6.24l-6.239,5.072
	l7.158-5.072h0.084l-7.242,5.072l8.395-5.072h0.11l-8.505,5.072l8.68-5.072h0.104l-8.783,5.072l8.926-5.072h0.087l-9.013,5.072
	l9.338-5.072h0.119l-9.455,5.072l3.943-5.072C3.966,561.355,3.985,561.355,3.998,561.355 M479.464,561.355l128.61,128.615
	c6.021-4.036,10.648-1.899,13.892,6.425c-0.146,4.625-3.792,8.332-8.35,8.332c-4.778-0.148-8.531-3.896-8.457-8.436
	c0-1.917,0.63-3.66,1.698-5.047L476.99,561.354C477.812,561.355,478.636,561.355,479.464,561.355 M635.851,561.355
	c0.211,0.759,0.321,1.589,0.31,2.434c-2.421,11.559-16.274,11.485-17.406-0.22c-0.079-0.766,0.09-1.515,0.275-2.223L635.851,561.355
	L635.851,561.355 M686.467,561.355l2.491,2.496c1.063-0.814,2.35-1.282,3.721-1.282c3.441,0,6.095,2.439,6.483,5.478h85.654
	c0.391-3.1,3.027-5.478,6.085-5.478c1.654,0,2.983,0.468,4.046,1.27l2.476-2.481h2.344l-3.632,3.639
	c5.547,7.036-9.602,16.427-11.272,4.748h-85.717c-4.533,7.605-11.814,6.56-12.712-0.943c-0.168-1.41,0.55-2.726,1.354-3.764
	l-3.68-3.678C684.892,561.355,685.682,561.355,686.467,561.355 M888.489,561.355l153.09,153.091c2.646-1.47,4.605-0.347,5.895,3.371
	c0,7.366-10.229,2.497-7.02-2.247L886.048,561.367h2.441L888.489,561.355 M130.189,401.11L3.998,561.355H3.956l125.071-160.238
	C129.41,401.114,129.798,401.114,130.189,401.11 M132.474,401.11L4.063,561.355H4.028l127.256-160.238
	C131.682,401.114,132.079,401.114,132.474,401.11 M134.786,401.11L4.15,561.355H4.1l129.474-160.238
	C133.977,401.114,134.383,401.114,134.786,401.11 M136.187,401.11L4.181,561.355H4.152l131.268-160.238
	C135.678,401.114,135.927,401.114,136.187,401.11 M137.477,401.11L4.216,561.364l-0.035-0.011l132.063-160.236
	C136.655,401.114,137.067,401.114,137.477,401.11 M138.605,401.11L4.253,561.364l-0.021-0.011L137.9,401.117
	C138.134,401.114,138.37,401.114,138.605,401.11 M140.001,401.11L4.294,561.355H4.26l134.49-160.238
	C139.164,401.114,139.586,401.114,140.001,401.11 M142.305,401.11L4.369,561.355H4.331l136.704-160.238
	C141.457,401.114,141.883,401.114,142.305,401.11 M144.112,401.11L4.42,561.355H4.38l138.441-160.238
	C143.252,401.114,143.687,401.114,144.112,401.11 M145.487,401.11L4.465,561.355H4.422l139.756-160.238
	C144.609,401.114,145.052,401.114,145.487,401.11 M146.954,401.11L4.509,561.355H4.463L145.63,401.117
	C146.072,401.114,146.511,401.114,146.954,401.11 M148.971,401.11L4.576,561.355H4.525l143.107-160.238
	C148.079,401.114,148.525,401.114,148.971,401.11 M151.021,401.11L4.631,561.355h-0.04L149.673,401.11
	C150.122,401.11,150.571,401.11,151.021,401.11 M153.215,401.11L4.705,561.355H4.659l147.175-160.238
	C152.293,401.114,152.758,401.114,153.215,401.11 M154.746,401.11L4.748,561.355H4.704l148.642-160.238
	C153.815,401.114,154.28,401.114,154.746,401.11 M156.584,401.11L4.791,561.355h-0.04l150.43-160.245
	C155.649,401.11,156.12,401.11,156.584,401.11 M158.596,401.11L4.87,561.355H4.822l152.338-160.238
	C157.641,401.114,158.118,401.114,158.596,401.11 M160.837,401.11L4.934,561.355H4.889l154.509-160.238
	C159.879,401.114,160.354,401.114,160.837,401.11 M164.328,401.11L5.045,561.355H4.999l157.843-160.238
	C163.34,401.114,163.835,401.114,164.328,401.11 M167.953,401.11L5.152,561.364l-0.06-0.011l161.256-160.236
	C166.889,401.114,167.422,401.114,167.953,401.11 M171.437,401.11L5.267,561.355H5.215l164.68-160.238
	C170.411,401.114,170.923,401.114,171.437,401.11 M175.159,401.11L5.374,561.355H5.322l168.172-160.238
	C174.047,401.114,174.609,401.114,175.159,401.11 M188.042,401.11L5.765,561.355H5.712l180.462-160.238
	C186.797,401.114,187.421,401.114,188.042,401.11 M190.994,401.11L5.861,561.355H5.798l183.341-160.238
	C189.757,401.114,190.37,401.114,190.994,401.11 M196.547,401.11L6.031,561.355H5.964l188.564-160.238
	C195.203,401.114,195.874,401.114,196.547,401.11 M203.684,401.11L6.246,561.355H6.183l195.379-160.238
	C202.266,401.114,202.979,401.114,203.684,401.11 M236.382,401.11L7.25,561.355H7.165L233.596,401.11
	C234.527,401.11,235.453,401.11,236.382,401.11 M305.147,401.11l4.171,3.998h225.381c1.809-2.271,4.559-3.757,7.6-3.757
	c2.601,0.01,4.783,0.876,6.471,2.312l2.558-2.56h2.431c-1.33,1.351-2.678,2.684-4.037,4.001h24.186c1.761-2.503,3.524-2.503,5.285,0
	h9.93c0.12-1.441,0.556-2.81,1.24-3.997h17.154c0.845,1.453,1.326,3.185,1.326,5.009c-0.01,1.553-0.381,2.996-1.029,4.282h85.991
	l-7.921-7.917c-1.223,0.976-2.745,1.573-4.387,1.573c-2.548,0-4.7-1.195-5.99-2.98l11.714,0.036c-0.048,0.05-0.086,0.1-0.124,0.158
	l9.127,9.132h9.451c0.367-4.044,3.752-7.091,7.861-7.091c21.76,0.519-6.052,29.727-7.865,8.727h-7.841l9.819,9.836
	c0.479-0.288,1.041-0.46,1.632-0.46c1.471,0.082,2.752,1.061,3.157,2.415H843.15l12.296,12.054h6.129
	c0.5-4.962,4.685-8.833,9.828-8.833c5.377,0.103,9.809,4.507,9.663,9.91c-0.099,5.315-4.365,9.665-9.718,9.665l26.293,0.649
	c-0.004-2.301,0.608-3.786,1.589-4.938l-41.185-41.205h1.659l40.373,40.366c1.161-0.973,2.633-1.543,4.196-1.543
	c3.761,0.142,6.638,3.138,6.573,6.777l57.893,0.541c0.536-1.433,1.869-2.494,3.44-2.494c2.329,0.007,4.094,1.741,4.094,3.863
	c-2.555,4.959-5.145,5.047-7.778,0.256h-58.029c-0.91,2.583-3.408,4.422-6.284,4.422c-2.818-0.105-5.246-1.917-6.161-4.422h-26.89
	c-0.244,2.231-2.093,3.992-4.521,3.992c-2.391-0.133-4.434-2.199-4.375-4.609c0-0.915,0.268-1.755,0.737-2.465l-8.188-8.238H839.62
	c-3.947,9.066-9.304,11.313-16.078,6.744l-14.565,14.603c1.157,1.407,1.847,3.223,1.847,5.193
	c-5.039,10.286-10.395,10.609-16.066,0.979h-112.73c-0.117,0.524-0.332,0.999-0.634,1.408l16.606,16.619
	c0.596-0.351,1.281-0.548,2.004-0.548c1.732,0.033,3.127,1.183,3.58,2.769h58.169c2.517-9.309,13.25,4.695,3.63,4.695
	c-1.812-0.089-3.295-1.347-3.662-3.06h-58.033c-0.074,0.477-0.242,0.919-0.479,1.332l30.582,30.584
	c2.279-1.247,4.182-0.498,5.69,2.229h8.098c2.479-3.986,4.949-3.986,7.43,0h4.698c2.862-4.079,5.396-3.722,7.608,1.093
	c-0.06,0.54-0.211,1.069-0.435,1.548h68.164l31.594-31.57c-0.85-1.086-1.361-2.434-1.361-3.92c0.107-3.528,2.922-6.346,6.488-6.346
	c3.219,0.077,5.808,2.472,6.189,5.597h40.828c2.854-4.408,5.383-4.108,7.568,0.869c-2.288,4.913-4.811,5.13-7.563,0.684h-40.815
	c-2.533,5.49-5.923,6.92-10.164,4.269l-30.438,30.421h9.292c2.846-4.372,5.411-4.063,7.69,0.938
	c0.012,0.735-0.194,1.416-0.559,2.004l34.673,34.68h-2.43l-33.505-33.467c-0.557,0.337-1.214,0.538-1.915,0.538
	c-2.012-0.01-3.61-1.354-3.996-3.072h-10.871l-35.995,35.989h-2.344l36.017-35.989h-67.945c-0.538,0.346-1.132,0.549-1.794,0.549
	c-0.942-0.007-1.619-0.21-2.202-0.549h-5.191l15.531,15.508c1.33-1,2.979-1.595,4.772-1.595c4.698,0.004,8.378,3.604,8.245,8.111
	c-5.407,10.666-10.801,10.619-16.188-0.142c0.02-2.041,0.759-3.879,1.999-5.276l-16.632-16.606
	c-0.862-0.077-1.716,0.009-2.554,0.253c-4.496-0.055-9.101-0.4-13.625-0.253c-0.547,0.346-1.185,0.549-1.874,0.549
	c-0.942-0.007-1.6-0.21-2.159-0.549h-9.867c-4.578,7.221-8.763,6.784-12.558-1.304c0.05-1.264,0.446-2.444,1.117-3.437
	l-54.733-54.857h-20.254l13.24,13.245c4.286-2.33,7.493-0.532,9.618,5.397c-4.245,8.5-8.474,8.462-12.692-0.102
	c0.052-1.597,0.717-3.082,1.753-4.193l-14.315-14.335h-17.943l-0.396-0.852v-0.808h16.673l-41.17-41.211h-77.424l51.849,51.79
	c1.727-1.448,3.944-2.325,6.374-2.325c5.215,0.079,9.401,4.077,9.808,9.052h2.327c1.831-2.635,3.639-2.635,5.438,0h4.356
	c2.508-5.991,6.075-8.136,10.688-6.421l10.607-10.557l0.473,1.338c0.358,0,0.39,0-9.604,10.009c2.073,1.415,3.421,3.816,3.363,6.5
	c0,0.959-0.17,1.886-0.474,2.731l76.401,76.356h-2.378l-65.35-65.348h-3.257c1.199,1.65,1.884,3.695,1.859,5.88
	c-2.308,13.151-16.995,13.073-19.795-0.254c-0.479-2.311,0.939-4.522,2.387-6.214l-6.188-6.189l1.196-1.198l6.201,6.197
	c1.742-1.454,3.967-2.34,6.361-2.34c2.525,0.031,4.791,0.972,6.512,2.487h3.117l-7.828-7.822c-4.314,4.59-8.634,4.607-12.961,0.07
	l-11.85,11.861c1.229,1.452,1.955,3.309,1.955,5.336c-0.142,4.631-3.756,8.331-8.285,8.331c-4.53-0.01-8.076-3.243-8.438-7.474
	h-14.608l33.969,33.998c0.343-0.188,0.729-0.297,1.143-0.297c1.55,0.018,2.6,0.853,2.946,1.996h1.887
	c0.32-5.119,4.693-9.196,10.033-9.196c5.409,0.149,9.882,4.589,9.736,10.023c-0.045,2.423-0.945,4.625-2.396,6.331l9.438,9.447
	c1.566-1.279,3.573-2.047,5.755-2.047c3.977,0.086,7.246,2.76,8.24,6.39l-16.818,0.016c0.327-1.211,0.918-2.305,1.715-3.252
	l-9.448-9.426c-5.896,4.12-11.114,2.737-15.66-4.143h-97.854l-34.271-33.881c-1.333,0.945-2.957,1.51-4.738,1.51
	c-4.527-0.008-8.046-3.242-8.501-7.471h-15.555l-64.175-63.817H363.4c-0.164,1.158-0.615,2.217-1.283,3.093l117.371,117.391h-2.489
	L360.869,445.249c-1.084,0.813-2.42,1.291-3.911,1.291c-3.226-0.031-5.808-2.496-6.186-5.616h-1.345
	c-0.343,3.198-3.071,5.616-6.268,5.616c-3.542-0.041-6.487-2.92-6.39-6.425c0-1.454,0.484-2.793,1.298-3.855l-13.344-13.34h-56.582
	L9.467,561.355H9.349l258.047-140.021c18.592,0,37.186,0,55.78,0l-4.796-4.787h-50.238v-0.761L9.019,561.362l-0.086-0.009
	L267.391,414.85c16.426,0,32.857,0,49.29,0l-2.813-2.812h-45.727L8.802,561.355H8.689l258.702-150.948c14.949,0,29.897,0,44.846,0
	l-3.678-3.68h-40.414L8.514,561.354h-0.11l258.987-156.245c13.189,0,26.372,0,39.56,0l-4-3.998
	C303.682,401.11,304.415,401.11,305.147,401.11 M861.593,437.566h-4.424l7.013,7.026c0.211-0.151,0.44-0.275,0.684-0.393
	C862.997,442.559,861.761,440.194,861.593,437.566L861.593,437.566 M464.641,416.551H320.755l4.803,4.789h143.877L464.641,416.551
	L464.641,416.551 M503.865,416.551h-36.837l4.784,4.789h39.162l-3.09-3.092c-0.345,0.183-0.729,0.281-1.106,0.281
	C505.333,418.529,504.205,417.678,503.865,416.551L503.865,416.551 M581.461,412.043h-29.193c-0.355,5.115-4.679,9.114-9.997,9.114
	c-5.048-0.103-9.271-4.14-9.73-9.114H316.244l2.817,2.81h184.851c1.425-4.236,6.667-0.556,5.16,2.23l4.257,4.26h77.429
	L581.461,412.043L581.461,412.043 M533.645,406.738H310.943l3.681,3.68h217.913C532.676,409.105,533.059,407.865,533.645,406.738
	L533.645,406.738 M573.827,406.738h-22.616c0.575,1.127,0.939,2.367,1.056,3.68h27.583l-1.912-1.91
	c-0.4,0.228-0.864,0.36-1.366,0.36C575.243,408.868,574.133,407.974,573.827,406.738L573.827,406.738 M589.133,406.738h-9.916
	l3.001,3.68h7.908C589.57,409.293,589.222,408.044,589.133,406.738L589.133,406.738 M794.807,465.076h7.753H794.807L794.807,465.076
	 M747.646,522.908h-8.115c-0.059,0.28-0.15,0.565-0.258,0.828h8.739C747.85,523.477,747.725,523.204,747.646,522.908
	L747.646,522.908 M759.676,522.908h-4.714c-0.086,0.28-0.153,0.581-0.289,0.828h5.302
	C759.844,523.47,759.741,523.195,759.676,522.908L759.676,522.908 M593.757,486.88l1.765-1.768c-0.253-0.656-0.42-1.354-0.505-2.089
	h-4.383L593.757,486.88L593.757,486.88 M592.742,542.881h2.431l-0.112-0.866h-1.896
	C593.083,542.335,592.935,542.626,592.742,542.881L592.742,542.881 M498.173,542.881h90.063c-0.668-0.977-0.763-1.985-0.278-3.021
	l-35.166-35.161h-85.8c-0.22,1.854-1.006,3.513-2.176,4.796L498.173,542.881L498.173,542.881 M639.154,424.195l36.941,36.953
	c0.652-0.499,1.468-0.788,2.354-0.788c1.758,0.086,3.261,1.355,3.628,3.026h112.668c3.169-7.299,7.521-9.191,13.06-5.674
	l14.658-14.543c-1.446-1.738-2.315-3.983-2.315-6.426c0.111-5.365,4.472-9.694,9.928-9.694c5.012,0.09,9.125,3.924,9.587,8.833
	h13.495l-10.283-10.353H712.429c-1.844,5.188-7.739,0.809-5.924-2.449l-11.047-11.032h-88.645c-5.239,5.143-10.46,5.143-15.669,0
	h-7.308l9.301,9.29h39.199c2.762-4.477,5.284-4.268,7.569,0.649C639.905,422.813,639.622,423.567,639.154,424.195L639.154,424.195
	 M658.762,464.427l54.993,54.843c1.096-0.917,2.522-1.487,4.073-1.487c3.31,0.142,6.1,2.646,6.239,5.947h8.311
	c-0.576-1.27-0.49-2.513,0.256-3.725l-30.526-30.561c-3.118,2.087-7.373-2.153-5.257-5.261l-16.643-16.662
	c-0.499,0.256-1.08,0.403-1.684,0.403c-2.331-0.007-3.951-1.627-3.951-3.765c0.022-0.638,0.195-1.251,0.486-1.779l-37.102-37.14
	c-2.211,1.107-4.051,0.322-5.509-2.363h-37.76l41.192,41.213h22.2L658.762,464.427L658.762,464.427 M473.365,422.893l80.035,80.116
	h16.299c0.382-4.318,3.97-7.582,8.404-7.582c1.932,0.037,3.728,0.734,5.151,1.877l9.295-9.241l-3.354-3.349
	c-0.384,0.186-0.789,0.298-1.248,0.298c-1.386-0.009-2.434-0.821-2.774-1.988h-2.272c-6.805,12.354-13.367,12.066-19.687-0.869
	c0-2.4,0.863-4.59,2.297-6.272l-52.999-52.995L473.365,422.893L473.365,422.893 M435.046,503.01h15.218
	c0.419-4.318,4.082-7.582,8.501-7.582c4.264,0.079,7.833,3.388,8.263,7.582h84.076l-80.116-80.116H327.113l12.155,12.146
	c4.157-2.557,7.538-1.127,10.146,4.287h1.342c4.092-7.357,8.302-7.357,12.626,0h7.617L435.046,503.01L435.046,503.01
	 M180.711,336.959l-50.514,64.165l-1.167-0.007l50.071-64.155C179.639,336.959,180.171,336.959,180.711,336.959 M183.882,336.959
	l-51.409,64.158h-1.188l50.946-64.148C182.783,336.962,183.333,336.959,183.882,336.959 M187.091,336.959l-52.313,64.158h-1.209
	l51.832-64.148C185.973,336.962,186.529,336.959,187.091,336.959 M189.037,336.959l-52.843,64.165l-0.764-0.007l52.555-64.155
	C188.331,336.959,188.684,336.959,189.037,336.959 M190.836,336.959l-53.354,64.158h-1.23l52.873-64.148
	C189.693,336.962,190.266,336.959,190.836,336.959 M192.389,336.959l-53.785,64.158h-0.709l53.52-64.148
	C191.739,336.962,192.064,336.959,192.389,336.959 M194.333,336.959l-54.337,64.158h-1.25l53.833-64.155
	C193.167,336.959,193.749,336.959,194.333,336.959 M197.53,336.959l-55.222,64.158h-1.266l54.731-64.155
	C196.357,336.959,196.943,336.959,197.53,336.959 M200.038,336.959l-55.92,64.158h-1.296l55.425-64.155
	C198.844,336.959,199.444,336.959,200.038,336.959 M201.947,336.959l-56.465,64.158h-1.311l55.967-64.155
	C200.743,336.959,201.344,336.959,201.947,336.959 M203.986,336.959l-57.028,64.158h-1.321l56.519-64.155
	C202.765,336.959,203.374,336.959,203.986,336.959 M206.782,336.959l-57.819,64.158h-1.333l57.29-64.148
	C205.539,336.962,206.166,336.959,206.782,336.959 M209.634,336.959l-58.613,64.158h-1.35l58.08-64.155
	C208.378,336.959,209.007,336.959,209.634,336.959 M212.673,336.959l-59.458,64.158h-1.381l58.929-64.155
	C211.398,336.959,212.036,336.959,212.673,336.959 M214.801,336.959l-60.052,64.158h-1.395l59.517-64.155
	C213.52,336.959,214.161,336.959,214.801,336.959 M217.355,336.959l-60.768,64.158h-1.412l60.236-64.155
	C216.057,336.959,216.71,336.959,217.355,336.959 M220.142,336.959L158.6,401.117h-1.424l61.002-64.155
	C218.835,336.959,219.487,336.959,220.142,336.959 M223.26,336.959l-62.419,64.158h-1.431l61.855-64.155
	C221.93,336.959,222.595,336.959,223.26,336.959 M228.096,336.959l-63.766,64.158h-1.478l63.201-64.155
	C226.733,336.959,227.414,336.959,228.096,336.959 M233.134,336.959l-65.176,64.158h-1.592l64.565-64.155
	C231.667,336.959,232.399,336.959,233.134,336.959 M237.958,336.959l-66.515,64.158h-1.538l65.931-64.155
	C236.542,336.959,237.25,336.959,237.958,336.959 M243.135,336.959l-67.977,64.158H173.5l67.341-64.148
	C241.601,336.962,242.371,336.959,243.135,336.959 M261.018,336.959l-72.976,64.158h-1.865l72.25-64.155
	C259.286,336.959,260.152,336.959,261.018,336.959 M265.12,336.959L191,401.117h-1.867l73.388-64.155
	C263.39,336.959,264.256,336.959,265.12,336.959 M312.4,336.959c-0.643,0.975-1.534,1.75-2.577,2.248h3.458
	c0.067-0.797,0.278-1.546,0.622-2.231l11.183-0.017c0.46,0.844,0.729,1.831,0.716,2.862c-3.896,7.94-8.051,8.295-12.468,1.078
	H268.14l-71.598,60.215h-2.014l72.86-61.915c12.358,0,24.718,0,37.076,0c-1.065-0.501-1.935-1.273-2.566-2.249
	C305.4,336.95,308.897,336.953,312.4,336.959 M503.912,336.959l10.188,10.18h8.557l-10.18-10.18h2.237l10.224,10.18h7.518
	l-10.169-10.18h2.256l10.189,10.18h99.887c2.219-9.303,13.864-1.499,10.016,4.335l1.115,1.11c1.886-1.299,3.81-1.467,5.794-0.505
	l8.432-8.429c-0.186-0.364-0.275-0.772-0.275-1.202c1.639-3.448,3.466-3.723,5.481-0.828h133.453l-4.66-4.664h1.616l4.664,4.664
	h57.6c0.281-1.932,1.333-3.594,2.825-4.646l7.428-0.017c0.119,0.085,0.255,0.169,0.371,0.26l0.251-0.26h2.258l-1.399,1.379
	c0.902,1.129,1.424,2.555,1.424,4.112c-0.082,3.542-2.904,6.566-6.446,6.566c-3.543-0.003-6.26-2.521-6.717-5.702h-55.902
	l57.808,57.802h-1.657l-46.989-47.024c3.628,7.22-10.783,15.447-12.406,3.9H654.521c-2.59,4.947-5.74,5.917-9.442,2.913
	l-12.563,12.588h140.643c6.188-11.152,12.155-10.85,17.922,0.909c-5.781,11.597-11.752,11.827-17.912,0.688H630.926l-20.829,20.875
	h64.138c5.081-8.894,9.91-8.591,14.484,0.907c-0.06,1.566-0.595,3.047-1.486,4.257l-11.714,0.011
	c-0.742-1.034-1.191-2.232-1.306-3.507h-65.765l-1.96,1.965c0.404,0.471,0.756,0.971,1.05,1.508l-17.149,0.034
	c0.797-1.427,1.954-2.631,3.354-3.507h-34.118c-1.07,1.762-2.375,2.29-3.912,1.579l-1.944,1.928h-2.429l3.156-3.164
	c-1.464-2.808,3.795-6.594,5.146-2.003h48.036l20.873-20.875h-64.12c-0.367,1.684-1.891,2.96-3.73,2.96
	c-2.071-0.07-3.763-1.762-3.644-3.897c0-0.667,0.195-1.29,0.536-1.839l-6.107-6.125c-0.098,0.867,0.174,1.868,0.174,2.918
	c-0.083,3.23-2.543,5.815-5.735,5.815c-3.506-0.012-6.127-2.577-6.127-5.956c0.037-0.995,0.304-1.939,0.766-2.774h-2.793
	c-0.477,3.261-3.257,5.741-6.593,5.741c-3.683-0.104-6.675-3.092-6.675-6.755c0.041-1.479,0.544-2.838,1.354-3.938l-12.41-12.426
	H268.144l-64.46,52.32h-2.113l65.826-53.98c81.463,0,162.928,0,244.396,0l-10.172-10.18h2.298v-0.02 M554.424,336.959
	c-1.331,0.648-2.652,0.646-3.963-0.02C551.781,336.943,553.101,336.95,554.424,336.959 M643.565,336.959
	c-0.46,0.076-0.914,0.068-1.371-0.02C642.651,336.943,643.105,336.95,643.565,336.959 M233.604,401.11l33.797-23.901
	c4.542,0,9.084,0,13.626,0v0.767l24.13,23.129h-2.203l-22.212-22.215h-12.595l-31.763,22.215L233.604,401.11L233.604,401.11
	 M606.014,397.613h-1.754c0.356,0.229,0.693,0.478,1.019,0.752L606.014,397.613L606.014,397.613 M524.315,348.796h-8.557
	l11.233,11.228c1.174-0.979,2.668-1.56,4.283-1.56c3.533,0.102,6.283,2.695,6.545,6.133h2.279L524.315,348.796L524.315,348.796
	 M534.104,348.796h-7.514l15.567,15.504c0.991-0.779,2.229-1.254,3.584-1.254c1.513,0.056,2.866,0.618,3.907,1.558L534.104,348.796
	L534.104,348.796 M634.479,348.796H536.4l15.813,15.792h53.437c0.354-1.394,1.647-2.488,3.18-2.488
	c8.271,0.653,1.047,11.393-3.176,4.077h-51.845l4.939,4.944c0.601-0.396,1.316-0.619,2.092-0.619
	c1.737,0.124,3.233,1.398,3.585,2.989h65.707l13.959-13.969c-0.376-0.753-0.584-1.593-0.559-2.474c0-1.219,0.398-2.346,1.061-3.269
	l-1.084-1.081C639.673,355.283,636.66,353.981,634.479,348.796L634.479,348.796 M808.11,351.092l-7.774-7.772H665.221
	c-1.138,1.887-2.518,2.405-4.143,1.546l-8.179,8.198c0.855,0.854,1.438,1.986,1.623,3.235h144.137
	c0.407-3.316,3.161-5.875,6.56-5.875C806.258,350.421,807.237,350.661,808.11,351.092L808.11,351.092 M179.094,336.959
	l88.295-113.128c90.724,0.021,181.446,0.05,272.172,0.072c7.073-7.059,14.138-14.116,21.21-21.177
	c-0.531-0.75-0.835-1.653-0.835-2.625c2.87-5.708,5.905-5.995,9.099-0.866h26.747l4.691-4.698
	c-4.174-6.126,8.489-13.564,9.822-3.919h64.402c0.411-2.646,2.672-4.65,5.379-4.65c7.419,3.546,6.108,8.527,0.113,10.924
	c-2.687,1.073-5.147-2.042-5.501-4.683h-64.396c-0.412,2.604-2.607,4.557-5.34,4.683c-1.258,0-2.431-0.44-3.359-1.178l-5.216,5.212
	l-9.91,9.918h81.179c0.338-2.577,2.589-4.516,5.227-4.616c3.063,0,5.43,2.417,5.588,5.409c0,1.824-0.912,3.434-2.29,4.411
	c3.209,2.278,3.918,4.895,2.121,7.848h14.439c2.161-4.324,4.938-5.462,8.349-3.413l4.537-4.591c-0.711-0.91-1.153-2.044-1.198-3.246
	c0-2.992,2.415-5.334,5.432-5.334c2.939-0.003,5.056,2.021,5.427,4.686h52.182L979.43,0l0.795,0.758L769.016,212.005h33.601
	c4.31-7.732,11.519,3.78,3.037,3.78c-1.45,0.007-2.584-0.925-2.951-2.199H767.43l-3.822,3.822h62.56
	c1.285-7.875,13.159-7.69,13.159,0.869c0,9.448-10.372,8.887-13.203,0.757h-64.137l-22.604,22.594
	c1.033,1.21,1.646,2.78,1.646,4.515c-4.439,8.678-8.931,8.8-13.48,0.36h-18.961l42.341,42.382c2.587-1.514,4.714-0.688,6.392,2.473
	h71.12v1.658h-71.164c-0.35,1.381-1.308,2.516-2.622,3.001l40.95,40.94h-1.618c-30.128-30.149-60.26-60.299-90.391-90.447H573.94
	l6.489,6.486h24.016c2.008-1.194,4.014-1.194,6.019,0h25.065c1.274-6.2,8.9-1.292,6.719,2.627l24.123,24.029
	c2.202-1.239,4.015-0.497,5.432,2.229h19.525c5.182-10.246,14.323,4.766,4.093,4.766c-2.111-0.004-3.653-1.304-4.063-3.073h-19.53
	c-0.399,1.628-1.904,2.883-3.613,2.883c-1.948-0.071-3.643-1.767-3.643-3.751c0.034-0.677,0.256-1.32,0.613-1.877l-23.996-24.028
	c-0.563,0.4-1.24,0.634-1.961,0.634c-1.968-0.006-3.368-1.279-3.708-2.89h-23.507c0.587,0.881,0.929,1.936,0.929,3.064
	c-0.053,1.309-0.494,2.476-1.229,3.392l25.684,25.688c0.609-0.49,1.391-0.776,2.226-0.776c1.695,0.12,3.079,1.231,3.477,2.812
	h39.173c0.418-1.811,1.993-3.102,3.964-3.102c10.597,0.73-2.353,14.605-4.034,4.873h-39.081c-1.377,5.887-8.685,1.24-6.745-2.598
	l-25.863-25.778c-3.521,2.088-6.39,0.921-8.599-3.5h-9.198c0.822,0.981,1.32,2.259,1.294,3.676c0,2.965-2.417,5.413-5.394,5.413
	c-5.418-1.969-6.955-4.885-4.607-8.75l-10.754-0.339c-0.225,1.781-1.813,3.173-3.616,3.173c-1.881-0.063-3.327-1.447-3.587-3.173
	h-27.303l-19.188,19.219c0.223,0.417,0.333,0.888,0.333,1.366c-0.07,1.506-1.287,2.671-2.777,2.671
	c-1.356-0.003-2.331-0.788-2.684-1.877h-6.725c0.246,0.797,0.361,1.644,0.325,2.521c0,0.94-0.16,1.834-0.435,2.672h30.451
	c0.763-0.44,1.644-0.693,2.59-0.693c1.226,0.007,2.12,0.251,2.919,0.693h20.449c0.297-1.541,1.582-2.675,3.207-2.675
	c3.479,1.108,4.583,2.894,3.316,5.341l5.729,5.729c0.483-0.293,1.052-0.466,1.667-0.466c1.778,0.003,3.113,1.083,3.536,2.568h68.735
	c1.335-6.138,9.041-1.146,6.684,2.727l7.814,7.837h22.739c4.013-6.645,11.03-5.292,11.03,0.938c0,2.42-1.688,4.463-3.92,5.153
	h33.651c0.563-4.181,4.092-7.501,8.475-7.501c4.685,0.144,8.435,3.897,8.363,8.548c-0.942,9.618-12.977,11.102-16.871,0.648h-29.267
	c1.901,0.879,3.231,2.828,3.231,5.119c-3.492,6.902-7.177,7.155-11.049,0.756h-57.721l3.829,3.838
	c0.604-0.42,1.331-0.668,2.103-0.668c1.683,0.091,3.172,1.314,3.549,2.92h33.178c3.268-3.897,6.547-3.897,9.833,0h23.727
	c0.355-2.691,2.692-4.799,5.574-4.799c14.719,4.037-2.233,19.202-5.559,6.493h-23.151c0.059,0.329,0.09,0.665,0.09,1.011
	c-3.483,6.958-7.174,7.198-11.075,0.726h-33.647c-0.662,0.626-1.565,1.01-2.509,1.01c-1.025-0.018-1.92-0.392-2.582-1.01h-78.479
	c-0.212,1.101-0.903,2.08-1.851,2.688l82.997,0.304c1.901-7.919,12.539,2.867,4.175,4.509l-1.382,0.026
	c-1.381-0.299-2.471-1.422-2.793-2.836h-82.877c-0.236,1.249-1.006,2.263-2.091,2.829l-3.954,0.013
	c-2.234-1.778-2.713-3.752-1.437-5.923c-5.922-5.889-11.834-11.784-17.742-17.678h-20.499l12.351,12.357
	c1.79-0.719,3.112,0.139,3.96,2.565c0,1.627-1.221,2.813-2.762,2.813c-2.596-0.99-3.393-2.428-2.406-4.318l-9.823-9.856
	c0.304,0.786,0.473,1.641,0.473,2.533c-0.038,0.955-0.261,1.876-0.648,2.711c0.419,0.938,0.72,1.95,0.842,3.017l11.791,11.782
	h-2.257l-9.534-9.536c-0.256,2.006-1.087,3.824-2.317,5.268l4.275,4.271h-2.236l-3.164-3.163c-1.687,1.422-6.291,2.273-6.291,2.273
	l0.898,0.888h-2.3c-3.265-3.265-6.522-6.529-9.788-9.794H354.315c1.838,3.853,0.117,6.704-5.172,8.546
	c-2.896-0.135-5.219-2.306-5.59-5.013h-6.024c-1.139,1.071-2.676,1.732-4.343,1.732c-1.41-0.027-2.673-0.485-3.702-1.229
	l-4.906,4.898c0.196,0.264,0.371,0.542,0.527,0.834l-11.18,0.028c1.044-2.03,3.176-3.448,5.683-3.448
	c1.439,0.03,2.774,0.557,3.831,1.41l4.264-4.223h-14.855c0.431,0.866,0.661,1.849,0.63,2.885c-0.012,1.25-0.414,2.418-1.075,3.401
	l-10.493-0.02c-0.48-0.768-0.813-1.655-0.946-2.621h-32.81l-3.022,2.621h-2.585l4.86-4.247c11.181,0,22.36,0,33.538,0
	c0.081-0.714,0.28-1.396,0.594-2.021h-33.384l-7.114,6.267l-2.595-0.005l8.963-7.954c11.796,0,23.591,0,35.391,0
	c1.167-1.133,2.752-1.838,4.438-1.838c1.437,0.045,2.759,0.542,3.815,1.359l3.489-3.53c-0.825-1.085-1.314-2.442-1.282-3.889
	c3.963-8.044,8.127-8.312,12.492-0.797c2.455,0.307,4.867,0.175,7.241-0.401c6.938,0.028,14.076,0.643,21.078,0.401
	c-0.073-0.353-0.098-0.715-0.098-1.083c3.554-7.256,7.383-7.495,11.491-0.727h119.02c0.622-0.563,1.432-0.909,2.319-0.909
	c1.177,0.01,2.008,0.346,2.637,0.909h7.344c0.836-0.668,1.792-1.213,2.828-1.591c0.595-1.541,1.769-2.828,3.255-3.563H268.144
	l-25.01,23.605h-2.293l26.556-25.299c79.814,0,159.63,0,239.447,0l-3.736-3.758h-16.972c-2.434,1.682-4.87,1.682-7.312,0
	c0,0,0-0.06-210.667-0.06l-30.191,29.107h-2.122l31.56-30.708c69.981,0,139.962,0,209.943,0c-0.565-0.915-0.903-2.004-0.903-3.135
	l0.051-0.612H268.144l-35.01,34.46h-2.202l36.47-36.223c69.855,0.021,139.711,0.05,209.567,0.072
	c0.182-0.417,0.419-0.812,0.677-1.173l-3.085-3.08H268.262l-40.166,40.396h-2.039l41.333-41.954c68.533,0,137.067,0,205.601,0
	l-4.189-4.181H268.155l-44.896,46.137h-2l46.134-47.833c66.569,0,133.142,0,199.717,0l-2.382-2.377H268.317l-48.175,50.21h-1.969
	l49.216-51.766c65.262,0,130.528,0,195.79,0l-1.953-1.945H268.234l-50.879,53.708h-1.942l51.977-55.372
	c68.554,0,137.104,0,205.664,0c0.083-0.562,0.251-1.089,0.493-1.587c0,0,0-0.032-205.399-0.032L214.8,336.961h-1.924l54.512-58.757
	c69.158,0,138.313,0,207.479,0c0.543-0.505,1.181-0.908,1.889-1.188H268.241l-55.565,59.943h-1.912l56.634-61.646
	c56.371,0.02,112.741,0.052,169.115,0.076c-0.843-0.634-1.441-1.578-1.643-2.667H268.326l-58.688,64.24l-1.886-0.003l59.641-65.859
	c55.818,0,111.639,0,167.461,0c0.057-0.375,0.172-0.734,0.328-1.069c-1.189-0.16-2.271-0.638-3.154-1.35H268.307l-61.528,68.283
	h-1.863l62.471-69.934c54.414,0.034,108.833,0.072,163.252,0.105c-0.477-0.752-0.792-1.604-0.919-2.519H268.298l-64.315,72.347
	l-1.828-0.003l65.234-74.045c54.114,0,108.225,0,162.34,0c0.081-0.505,0.198-0.989,0.39-1.441H268.374l-66.428,75.487h-1.809
	l67.255-77.107c54.563,0,109.124,0,163.682,0c0.404-0.472,0.85-0.884,1.362-1.226H268.329l-68.291,78.333l-1.793-0.003
	l69.152-80.028c58.083,0,116.17,0,174.253,0l2.376-2.382H268.48l-70.947,82.412l-1.758-0.004l71.624-83.96
	c59.387,0,118.779,0,178.173,0l3.489-3.497H268.403l-74.068,87.461l-1.749-0.004l74.805-89.114c61.104,0,122.214,0,183.322,0
	l1.333-1.333H268.235l-75.844,90.451l-0.976-0.004l76.306-91.458h0.716l-0.198,1.012l0.623-0.755l184.193-0.256l1.804-1.801H268.396
	l-77.56,93.267h-1.709l78.268-94.955c63.048,0,126.104,0,189.159,0l1.293-1.299H268.333l-79.297,96.254h-1.063l79.738-97.334
	c63.729,0,127.463,0,191.201,0l2.489-2.489H268.485l-81.395,99.823l-1.675-0.003l81.973-101.446c65.142,0,130.282,0,195.426,0
	c-0.233-0.489-0.355-1.039-0.335-1.624c0-0.983,0.392-1.852,0.993-2.491H268.479l-84.593,105.561h-1.651l85.162-107.22
	c74.152,0,148.302,0,222.455,0l4.143-4.143H268.415l-87.704,111.365L179.094,336.959L179.094,336.959 M860.688,336.959
	c1.068-0.735,2.369-1.178,3.769-1.178c1.368,0.041,2.608,0.47,3.654,1.178H860.688L860.688,336.959 M868.74,336.959l11.916-11.776
	l25.491-0.361c5.825-8.945,13.184-4.833,13.184,0.968c0,3.65-3.125,6.563-6.802,6.563c-3.299-0.098-6.063-2.554-6.398-5.842h-24.587
	l-10.561,10.443L868.74,336.959L868.74,336.959 M670.607,216.584c-1.582-0.732-2.719-2.255-2.946-4.108h-82.805l-7.666,7.679h91.296
	C668.688,218.686,669.478,217.417,670.607,216.584L670.607,216.584 M562.479,210.85h21.701l9.921-9.919h-25.022
	c-0.352,2.111-2.146,3.759-4.326,3.759c-1.136-0.003-1.999-0.282-2.724-0.754l-3.327,3.329
	C560.593,207.643,562.105,209.061,562.479,210.85L562.479,210.85 M542.529,226.068h-2.637l0.795,1.838L542.529,226.068
	L542.529,226.068 M490.465,320.168c0.317,1.039,0.208,2.048-0.325,3.035l2.195,2.195h0.786c0.153-1.963,0.876-3.761,2.016-5.229
	h-4.672V320.168 M691.194,312.344c-1.983-0.616-3.433-2.313-3.764-4.436h-21.083l2.192,2.201c2.235-1.235,4.082-0.489,5.544,2.234
	C679.788,312.344,685.489,312.344,691.194,312.344 M667.376,311.285l-3.356-3.371h-42.63l10.285,10.313h59.367
	c0.233-1.834,1.4-3.409,3.039-4.184h-20.029c-2.724,4.012-5.151,3.733-7.285-0.833C666.805,312.494,667.024,311.839,667.376,311.285
	L667.376,311.285 M662.368,306.251l-6.626-6.649c-0.564,0.376-1.239,0.593-1.941,0.593c-1.799-0.065-3.195-1.18-3.584-2.813H615.27
	c3.087,1.866,3.874,4.119,2.354,6.754l2.102,2.113C633.942,306.251,648.155,306.251,662.368,306.251 M542.648,315.714l9.417,9.418
	c2.501-1.326,4.56-0.441,6.177,2.65h77.515c-0.252-0.96-0.135-1.898,0.33-2.812l-5.06-5.049h-67.14
	c-4.056,6.476-7.768,6.14-11.132-1.01c0.069-1.177,0.478-2.273,1.144-3.184l-4.148-4.188c-2.003,1.312-4.049,1.405-6.136,0.295
	c0.036,0.249,0.046,0.505,0.031,0.767C543.641,313.758,543.273,314.833,542.648,315.714L542.648,315.714 M550.819,326.352
	l-9.372-9.428c-0.888,0.648-2.039,1.038-3.24,1.047c11.887,11.945,11.939,11.945,11.939,11.945c0.009-0.484-0.074-0.909-0.074-1.346
	C550.131,327.756,550.394,326.992,550.819,326.352L550.819,326.352 M563.902,318.226h65.432l-10.327-10.313h-14.883
	c-1.969,1.106-3.932,1.106-5.896,0h-34.779c-0.353,2.741-2.678,4.76-5.506,4.76c-3.063-0.071-5.586-2.56-5.586-5.589
	c0.052-1.12,0.398-2.162,0.962-3.026h-2.175c0.584,0.901,0.917,1.981,0.917,3.138c-0.043,1.17-0.453,2.259-1.114,3.152l4.128,4.178
	c0.932-0.707,2.085-1.128,3.298-1.128C561.206,313.394,563.558,315.519,563.902,318.226L563.902,318.226 M562.647,304.054
	c0.417,0.647,0.714,1.394,0.809,2.198h33.109c-0.423-0.65-0.725-1.4-0.829-2.198H562.647L562.647,304.054 M365.448,320.168
	l117.954,0.146L365.448,320.168L365.448,320.168 M356.239,324.003l-1.407,1.398H490.06l-1.044-1.038
	c-2.313,1.286-4.2,0.514-5.662-2.319H364.865C362.272,325.417,359.4,326.07,356.239,324.003L356.239,324.003 M478.903,240.705
	h-18.653l-1.305,1.298h18.657L478.903,240.705L478.903,240.705 M517.038,240.705H481.28l-1.299,1.298h36.657
	C516.708,241.545,516.85,241.112,517.038,240.705L517.038,240.705 M527.862,240.705h-1.306c0.145,0.305,0.26,0.623,0.342,0.957
	L527.862,240.705L527.862,240.705 M572.92,245.5h129.547l-4.654-4.795h-38.194c-2.805,4.52-5.624,4.52-8.458,0h-60.726
	c-2.453,3.558-4.88,3.558-7.289,0h-15.019L572.92,245.5L572.92,245.5 M558.256,245.5h12.319l-4.796-4.795h-9.104l-1.597,1.598
	L558.256,245.5L558.256,245.5 M551.88,245.5h3.989l-2-1.994L551.88,245.5L551.88,245.5 M540.996,245.5h8.566l3.149-3.151
	l-1.647-1.644h-5.279L540.996,245.5L540.996,245.5 M526.26,245.5h12.396l4.813-4.795h-13.177l-3.432,3.435
	C526.72,244.624,526.521,245.079,526.26,245.5L526.26,245.5 M475.909,243.697h-18.658l-1.803,1.801h18.655L475.909,243.697
	L475.909,243.697 M516.631,243.697h-38.348l-1.798,1.801h40.549C516.912,244.817,516.723,244.27,516.631,243.697L516.631,243.697
	 M312.86,329.002h14.691c-1.158-2.399-0.889-4.721,0.809-6.959h-2.628c-2.589,5.367-5.938,6.737-10.046,4.113L312.86,329.002
	L312.86,329.002 M344.142,327.167h-4.758c-0.103,0.653-0.311,1.271-0.606,1.838h4.762
	C343.634,328.344,343.848,327.729,344.142,327.167L344.142,327.167 M354.628,322.045H337.88c0.809,0.923,1.354,2.078,1.528,3.354
	h6.17c1.02-0.856,2.319-1.37,3.693-1.37c1.283,0.061,2.468,0.509,3.423,1.245l2.426-2.424
	C354.94,322.593,354.772,322.325,354.628,322.045L354.628,322.045 M525.805,307.91h-20.478l3.76,3.75h20.48L525.805,307.91
	L525.805,307.91 M534.865,307.91h-6.607l3.745,3.75C532.816,310.125,533.664,308.789,534.865,307.91L534.865,307.91
	 M526.604,306.251h14.342c0.112-0.797,0.411-1.545,0.83-2.198h-17.371L526.604,306.251L526.604,306.251 M503.67,306.251h20.468
	l-2.211-2.198c-6.821,0.044-13.631,0.044-20.461,0L503.67,306.251L503.67,306.251 M487.602,306.251h13.839l-2.195-2.198h-10.841
	C488.283,304.847,487.998,305.591,487.602,306.251L487.602,306.251 M609.483,302.503h-2.805l0.022,0.792
	c0,1.099-0.32,2.11-0.872,2.956h11.514l-0.916-0.917c-0.754,0.513-1.666,0.807-2.655,0.807
	C611.694,306.052,609.867,304.538,609.483,302.503L609.483,302.503 M491.761,296.553h-14.796l1.858,1.857
	c3.438-2.245,6.486-1.45,9.146,2.396h8.029L491.761,296.553L491.761,296.553 M506.662,296.553h-12.679l4.262,4.253h9.98
	C507.321,299.594,506.757,298.127,506.662,296.553L506.662,296.553 M486.042,290.821h-14.82l4.189,4.182h14.805L486.042,290.821
	L486.042,290.821 M508.287,290.821h-20.031l4.178,4.182h14.253C506.84,293.427,507.409,291.999,508.287,290.821L508.287,290.821
	 M535.404,290.821h-13.999c1.085,1.417,1.729,3.197,1.729,5.125c-0.027,1.811-0.634,3.498-1.64,4.862h29.2l-6.442-6.39
	c-0.938,0.752-2.111,1.201-3.376,1.201C538.012,295.521,535.784,293.448,535.404,290.821L535.404,290.821 M474.657,286.746h-7.515
	l2.395,2.38h14.814l-1.797-1.813c-1,0.751-2.255,1.196-3.626,1.196C477.228,288.514,475.73,287.837,474.657,286.746L474.657,286.746
	 M492.789,286.746h-8.609l2.39,2.38h8.422C494.104,288.489,493.362,287.68,492.789,286.746L492.789,286.746 M536.372,286.746
	h-29.495c-0.57,0.938-1.33,1.747-2.219,2.38h5.351c3.204-2.02,6.428-2.02,9.655,0h15.759
	C535.555,288.248,535.887,287.436,536.372,286.746L536.372,286.746 M564.031,286.746h-18.673c0.69,0.916,1.084,2.054,1.084,3.281
	c-0.037,1.173-0.419,2.26-1.057,3.157l7.621,7.621h43.202c0.898-1.874,2.788-3.138,4.992-3.138c2.205,0.104,4.1,1.33,4.976,3.138
	h3.271c0.273-1.622,1.421-2.927,2.898-3.421h-30.823c-0.344,1.613-1.867,2.812-3.58,2.812c-3.121-1.279-4.083-3.077-2.896-5.4
	l-5.754-5.704C567.131,290.28,565.372,289.502,564.031,286.746L564.031,286.746 M473.01,283.249h-9.374l1.953,1.946h7.98
	C473.277,284.595,473.084,283.939,473.01,283.249L473.01,283.249 M487.279,283.249h-2.35c-0.104,0.693-0.305,1.347-0.61,1.946h7.741
	l-0.227-0.693C490.027,284.515,488.532,284.046,487.279,283.249L487.279,283.249 M484.888,281.591
	c0.173-0.395-0.121-0.821-0.383-1.271C484.68,280.725,484.809,281.154,484.888,281.591L484.888,281.591 M483.472,277.012h-2.324
	c0.701,0.278,1.34,0.684,1.877,1.188C483.579,277.814,483.512,277.417,483.472,277.012L483.472,277.012 M458.148,261.472h-16.271
	c0.294,0.74,0.44,1.541,0.416,2.377c0,1.211-0.346,2.333-0.937,3.278h8.01c1.438-2.793,3.278-3.582,5.512-2.373L458.148,261.472
	L458.148,261.472 M439.94,258.624L439.94,258.624L439.94,258.624z M460.995,258.624H442.33l-1.236,1.225h18.669L460.995,258.624
	L460.995,258.624 M519.945,258.624h-56.566l-1.237,1.225h57.438C519.659,259.421,519.777,259.007,519.945,258.624L519.945,258.624
	 M536.449,258.624h-7.007c0.252,0.625,0.385,1.312,0.353,2.019c0,2.883-2.308,5.192-5.191,5.192
	c-2.479-0.067-4.593-1.889-5.007-4.361H460.53l-4.522,4.525c1.221,2.48,0.18,4.338-3.114,5.569c-1.759-0.091-3.149-1.245-3.51-2.885
	h-7.266c0.878,0.817,1.412,1.96,1.412,3.21c-0.045,1.418-0.739,2.694-1.795,3.497h41.745c0.428-4.221,4.082-7.466,8.354-7.466
	c10.876,0,13.032,4.146,15.108,10.274h7.495c1.104-1.866,2.45-2.39,4.035-1.573L536.449,258.624L536.449,258.624 M465.069,254.55
	H446.4l-2.377,2.383h18.665L465.069,254.55L465.069,254.55 M529.562,254.55h-62.119l-2.374,2.383h56.046
	c2.133-1.74,4.322-1.907,6.568-0.513L529.562,254.55L529.562,254.55 M540.523,254.55h-8.567l-2.39,2.383h8.579L540.523,254.55
	L540.523,254.55 M564.943,254.55h-22.1l-2.376,2.383h25.751c0.082-0.267,0.207-0.52,0.354-0.755L564.943,254.55L564.943,254.55
	 M568.687,254.55h-1.401C567.756,254.55,568.222,254.55,568.687,254.55 M579.626,254.55h-8.929c1.158,0.337,2.041,1.231,2.417,2.383
	h8.89L579.626,254.55L579.626,254.55 M602.845,254.55h-20.879l2.377,2.383c5.838-0.106,11.677-0.106,17.562,0
	C602.03,256.061,602.363,255.25,602.845,254.55L602.845,254.55 M470.112,249.501h-18.662l-3.5,3.497h18.669L470.112,249.501
	L470.112,249.501 M516.073,249.501h-43.587l-3.494,3.497h49.451C517.21,252.221,516.338,250.957,516.073,249.501L516.073,249.501
	 M473.1,246.51h-18.661l-1.333,1.334h18.661L473.1,246.51L473.1,246.51 M516.45,246.51h-40.979l-1.333,1.334h41.906
	C516.124,247.378,516.264,246.932,516.45,246.51L516.45,246.51 M537.636,246.51h-11.733c0.29,0.655,0.455,1.387,0.455,2.161
	c-0.041,1.816-1.021,3.425-2.46,4.326h7.224L537.636,246.51L537.636,246.51 M548.556,246.51h-8.568l-6.482,6.487h8.565
	L548.556,246.51L548.556,246.51 M556.884,246.51h-6.014l-6.48,6.487h18.998L556.884,246.51L556.884,246.51 M571.587,246.51h-12.32
	l6.484,6.487h12.326L571.587,246.51L571.587,246.51 M706.208,246.51h-1.089l44.356,44.346c0.083-0.253,0.189-0.496,0.319-0.727
	L706.208,246.51L706.208,246.51 M762.059,217.413l3.821-3.822h-16.76c1.407,0.786,2.407,2.171,2.67,3.822
	C755.211,217.413,758.636,217.413,762.059,217.413 M698.232,239.86l5.771,5.64h1.186l-5.927-5.939
	c-0.256,0.152-0.551,0.231-0.835,0.315L698.232,239.86L698.232,239.86 M546.868,239.622h3.114l-1.574-1.553L546.868,239.622
	L546.868,239.622 M482.465,237.136h-14.749c-1.11,0.531-2.219,0.531-3.317,0l-3.078,2.485h18.648L482.465,237.136L482.465,237.136
	 M526.31,237.136h-41.472l-2.489,2.485h35.357c2.206-2.117,4.57-2.441,7.082-0.969L526.31,237.136L526.31,237.136 M531.442,237.136
	h-2.614l-2.488,2.485h2.61L531.442,237.136L531.442,237.136 M547.044,237.136H533.85l-2.484,2.485h13.181L547.044,237.136
	L547.044,237.136 M557.921,237.136H549.9l2.487,2.485h3.047L557.921,237.136L557.921,237.136 M562.212,237.136h-1.983l-2.484,2.485
	h6.956L562.212,237.136L562.212,237.136 M585.298,237.136c-0.807,0-1.616,0-2.418,0c-0.881,0.388-1.562,0.621-2.285,0.621
	c-1.008-0.007-1.713-0.236-2.3-0.621h-13.729l2.488,2.485h15.936c0-0.671,0.172-1.345,0.476-1.907L585.298,237.136L585.298,237.136
	 M651.923,237.136h-62.178c0.415,0.501,0.713,1.105,0.812,1.768h60.576C651.262,238.246,651.543,237.644,651.923,237.136
	L651.923,237.136 M693.863,237.136h-35.102c0.563,0.687,0.912,1.551,0.929,2.485h35.953
	C694.729,239.118,694.053,238.205,693.863,237.136L693.863,237.136 M562.933,235.513h13.974c-0.134-0.293-0.227-0.608-0.285-0.938
	h-13.833L562.933,235.513L562.933,235.513 M550.976,235.513h8.569l0.098-0.938h-7.74L550.976,235.513L550.976,235.513
	 M548.277,235.513l1.329-0.938h-2.252L548.277,235.513L548.277,235.513 M535.469,235.513h10.395l-0.938-0.938h-8.521
	L535.469,235.513L535.469,235.513 M530.444,235.513h2.609l0.938-0.938h-2.622L530.444,235.513L530.444,235.513 M486.468,235.513
	h41.478l0.926-0.938h-41.463L486.468,235.513L486.468,235.513 M469.396,235.513h14.691l0.928-0.938h-15.301
	C469.648,234.909,469.547,235.22,469.396,235.513L469.396,235.513 M488.189,231.402h-19.47c0.397,0.417,0.699,0.917,0.879,1.476
	h17.118L488.189,231.402L488.189,231.402 M532.053,231.402h-41.479l-1.479,1.476h41.474L532.053,231.402L532.053,231.402
	 M537.186,231.402h-2.629l-1.479,1.476h2.625L537.186,231.402L537.186,231.402 M541.743,231.402h-2.176l-1.475,1.476h5.133
	L541.743,231.402L541.743,231.402 M552.792,231.402h-8.608l1.474,1.476h5.664L552.792,231.402L552.792,231.402 M556.473,231.402
	h-1.399l-1.476,1.476h4.351L556.473,231.402L556.473,231.402 M563.648,231.402h-4.82l1.468,1.476h1.887L563.648,231.402
	L563.648,231.402 M577.489,231.402h-11.542l-1.476,1.476h12.229C576.849,232.324,577.12,231.823,577.489,231.402L577.489,231.402
	 M728.633,231.402H583.295c1.002,1.313,1.21,2.683,0.622,4.109c36.683,0,73.361,0,110.048,0c2.598-3.628,4.922-3.292,6.959,1.01
	c0.023,0.677-0.151,1.31-0.468,1.842l7.131,7.135h20c0.25-3.518,3.128-6.308,6.686-6.308c1.67,0.049,3.185,0.665,4.357,1.667
	l21.802-21.822h-8.599c-2.124,4.591-4.958,5.811-8.509,3.649l-4.881,4.813c0.599,0.854,0.979,1.877,0.979,2.968
	C736.113,237.49,732.513,237.804,728.633,231.402L728.633,231.402 M700.492,229.746h28.134c2.229-4.576,5.105-5.722,8.646-3.443
	l4.8-4.852c-0.609-0.856-1-1.902-1.045-3.028c0-2.071,1.115-3.884,2.787-4.832h-28.587c-0.466,2.504-2.634,4.361-5.279,4.361
	c-1.283,0.003-2.252-0.313-3.063-0.855l-4.59,4.598c0.677,0.896,1.086,2,1.086,3.181
	C703.453,227.012,702.229,228.824,700.492,229.746L700.492,229.746 M536.217,229.746c9.692,0,19.386,0,29.081,0l4.144-4.143h-8.569
	l-4.446,4.521l-1.973-0.378l-3.311-3.672h-6.255l-3.736,3.805l-2.312-0.13l-0.699-1.932L536.217,229.746L536.217,229.746
	 M492.231,229.746h41.478l3.187-3.177l-40.98-0.5L492.231,229.746L492.231,229.746 M558.616,225.598h-5.59l2.796,2.797
	L558.616,225.598L558.616,225.598 M692.695,225.598h-16.279c-0.77,0.439-1.657,0.707-2.588,0.752c-0.988,0-1.92-0.279-2.729-0.752
	h-99.366l-4.142,4.143h127.864C693.954,228.931,692.898,227.416,692.695,225.598L692.695,225.598 M573.44,223.903h95.901
	c-0.427-0.646-0.735-1.382-0.847-2.164H575.6L573.44,223.903L573.44,223.903 M566.923,223.903h4.219l2.161-2.164h-5.181
	C567.954,222.594,567.531,223.349,566.923,223.903L566.923,223.903 M547.053,223.903h13.274l0.803-0.809
	c-1.427-2.619-0.35-4.595,3.252-5.935c1.835,0.092,3.309,1.302,3.713,2.994h6.801l7.672-7.679h-20.07
	c-1.811,3.74-4.178,4.759-7.096,3.062L547.053,223.903L547.053,223.903 M542.057,223.903h2.645l9.557-9.539
	c-0.379-0.56-0.644-1.208-0.747-1.91L542.057,223.903L542.057,223.903"/>
</svg>
