<?xml version="1.0" encoding="iso-8859-1"?>
<!-- Generator: Adobe Illustrator 12.0.0, SVG Export Plug-In . SVG Version: 6.00 Build 51448)  -->
<!DOCTYPE svg PUBLIC "-//W3C//DTD SVG 1.1 Basic//EN" "http://www.w3.org/Graphics/SVG/1.1/DTD/svg11-basic.dtd" [
	<!ENTITY ns_svg "http://www.w3.org/2000/svg">
	<!ENTITY ns_xlink "http://www.w3.org/1999/xlink">
]>
<svg  version="1.1" baseProfile="basic" id="Ebene_1" xmlns="&ns_svg;" xmlns:xlink="&ns_xlink;" width="1047.473" height="721.596"
	 viewBox="0 0 1047.473 721.596" overflow="visible" enable-background="new 0 0 1047.473 721.596" xml:space="preserve">
<g opacity="0.25">
	<circle opacity="0.3" fill="#FFFFFF" stroke="#FFFFFF" cx="3.01" cy="-41.324" r="6.888"/>
	<line opacity="0.3" fill="#FFFFFF" stroke="#FFFFFF" stroke-width="2" x1="-76.429" y1="343.02" x2="3.01" y2="-41.324"/>
	<circle opacity="0.3" fill="#FFFFFF" stroke="#FFFFFF" cx="3.01" cy="52.133" r="8.054"/>
	<line opacity="0.3" fill="#FFFFFF" stroke="#FFFFFF" stroke-width="2" x1="-76.429" y1="343.02" x2="3.01" y2="52.133"/>
	<circle opacity="0.3" fill="#FFFFFF" stroke="#FFFFFF" cx="95.74" cy="63.772" r="7.887"/>
	<line opacity="0.3" fill="#FFFFFF" stroke="#FFFFFF" stroke-width="2" x1="-76.429" y1="343.02" x2="95.74" y2="63.772"/>
	<circle opacity="0.3" fill="#FFFFFF" stroke="#FFFFFF" cx="194.655" cy="69.952" r="8.554"/>
	<line opacity="0.3" fill="#FFFFFF" stroke="#FFFFFF" stroke-width="2" x1="-76.429" y1="343.02" x2="194.653" y2="69.952"/>
	<circle opacity="0.3" fill="#FFFFFF" stroke="#FFFFFF" cx="189.929" cy="-41.324" r="9.222"/>
	<line opacity="0.3" fill="#FFFFFF" stroke="#FFFFFF" stroke-width="2" x1="-76.429" y1="343.02" x2="189.928" y2="-41.324"/>
	<circle opacity="0.3" fill="#FFFFFF" stroke="#FFFFFF" cx="299.748" cy="-22.778" r="10.556"/>
	<line opacity="0.3" fill="#FFFFFF" stroke="#FFFFFF" stroke-width="2" x1="-76.429" y1="343.02" x2="299.747" y2="-22.778"/>
	<circle opacity="0.3" fill="#FFFFFF" stroke="#FFFFFF" cx="320.765" cy="52.133" r="9.888"/>
	<line opacity="0.3" fill="#FFFFFF" stroke="#FFFFFF" stroke-width="2" x1="-76.429" y1="343.02" x2="320.766" y2="52.133"/>
	<circle opacity="0.3" fill="#FFFFFF" stroke="#FFFFFF" cx="320.765" cy="145.59" r="12.555"/>
	<line opacity="0.3" fill="#FFFFFF" stroke="#FFFFFF" stroke-width="2" x1="-76.429" y1="343.02" x2="320.766" y2="145.59"/>
	<circle opacity="0.3" fill="#FFFFFF" stroke="#FFFFFF" cx="213.199" cy="144.136" r="8.554"/>
	<line opacity="0.3" fill="#FFFFFF" stroke="#FFFFFF" stroke-width="2" x1="-76.429" y1="343.02" x2="213.2" y2="144.136"/>
	<circle opacity="0.3" fill="#FFFFFF" stroke="#FFFFFF" cx="287.385" cy="175.046" r="11.221"/>
	<line opacity="0.3" fill="#FFFFFF" stroke="#FFFFFF" stroke-width="2" x1="-76.429" y1="343.02" x2="287.384" y2="175.046"/>
	<path opacity="0.3" fill="#FFFFFF" stroke="#FFFFFF" d="M307.543,239.05c0,7.299,5.922,13.22,13.223,13.22
		c7.303,0,13.22-5.921,13.22-13.22c0-7.304-5.917-13.223-13.22-13.223C313.465,225.828,307.543,231.746,307.543,239.05z"/>
	<line opacity="0.3" fill="#FFFFFF" stroke="#FFFFFF" stroke-width="2" x1="-76.429" y1="343.02" x2="320.766" y2="239.051"/>
	<path opacity="0.3" fill="#FFFFFF" stroke="#FFFFFF" d="M307.543,332.504c0,7.303,5.922,13.222,13.223,13.222
		c7.303,0,13.22-5.918,13.22-13.222c0-7.299-5.917-13.221-13.22-13.221C313.465,319.283,307.543,325.205,307.543,332.504z"/>
	<line opacity="0.3" fill="#FFFFFF" stroke="#FFFFFF" stroke-width="2" x1="-76.429" y1="343.02" x2="320.766" y2="332.504"/>
	<circle opacity="0.3" fill="#FFFFFF" stroke="#FFFFFF" cx="225.563" cy="341.96" r="9.22"/>
	<line opacity="0.3" fill="#FFFFFF" stroke="#FFFFFF" stroke-width="2" x1="-76.429" y1="343.02" x2="225.563" y2="341.96"/>
	<circle opacity="0.3" fill="#FFFFFF" stroke="#FFFFFF" cx="189.929" cy="276.431" r="9.222"/>
	<line opacity="0.3" fill="#FFFFFF" stroke="#FFFFFF" stroke-width="2" x1="-76.429" y1="343.02" x2="189.928" y2="276.431"/>
	<circle opacity="0.3" fill="#FFFFFF" stroke="#FFFFFF" cx="120.47" cy="249.23" r="8.555"/>
	<line opacity="0.3" fill="#FFFFFF" stroke="#FFFFFF" stroke-width="2" x1="-76.429" y1="343.02" x2="120.469" y2="249.229"/>
	<circle opacity="0.3" fill="#FFFFFF" stroke="#FFFFFF" cx="21.556" cy="255.413" r="7.22"/>
	<line opacity="0.3" fill="#FFFFFF" stroke="#FFFFFF" stroke-width="2" x1="-76.429" y1="343.02" x2="21.556" y2="255.412"/>
	<path opacity="0.3" fill="#FFFFFF" stroke="#FFFFFF" d="M-10.878,332.504c0,7.672,6.218,13.889,13.888,13.889
		c7.671,0,13.889-6.217,13.889-13.889c0-7.667-6.218-13.888-13.889-13.888C-4.66,318.616-10.878,324.836-10.878,332.504z"/>
	<line opacity="0.3" fill="#FFFFFF" stroke="#FFFFFF" stroke-width="2" x1="-76.429" y1="343.02" x2="3.01" y2="332.504"/>
	<circle opacity="0.3" fill="#FFFFFF" stroke="#FFFFFF" cx="77.194" cy="360.506" r="8.554"/>
	<line opacity="0.3" fill="#FFFFFF" stroke="#FFFFFF" stroke-width="2" x1="-76.429" y1="343.02" x2="77.196" y2="360.506"/>
	<circle opacity="0.3" fill="#FFFFFF" stroke="#FFFFFF" cx="108.929" cy="425.963" r="9.22"/>
	<line opacity="0.3" fill="#FFFFFF" stroke="#FFFFFF" stroke-width="2" x1="-76.429" y1="343.02" x2="108.927" y2="425.963"/>
	<circle opacity="0.3" fill="#FFFFFF" stroke="#FFFFFF" cx="108.929" cy="519.421" r="9.888"/>
	<line opacity="0.3" fill="#FFFFFF" stroke="#FFFFFF" stroke-width="2" x1="-76.429" y1="343.02" x2="108.927" y2="519.421"/>
	<path opacity="0.3" fill="#FFFFFF" stroke="#FFFFFF" d="M31.547,552.151c0,4.723,3.83,8.553,8.556,8.553
		c4.725,0,8.555-3.83,8.555-8.553c0-4.729-3.83-8.556-8.555-8.556C35.377,543.596,31.547,547.423,31.547,552.151z"/>
	<line opacity="0.3" fill="#FFFFFF" stroke="#FFFFFF" stroke-width="2" x1="-76.429" y1="343.02" x2="40.103" y2="552.151"/>
	<circle opacity="0.3" fill="#FFFFFF" stroke="#FFFFFF" cx="3.01" cy="612.878" r="7.888"/>
	<line opacity="0.3" fill="#FFFFFF" stroke="#FFFFFF" stroke-width="2" x1="-76.429" y1="343.02" x2="3.01" y2="612.876"/>
	<circle opacity="0.3" fill="#FFFFFF" stroke="#FFFFFF" cx="58.648" cy="657.243" r="8.553"/>
	<line opacity="0.3" fill="#FFFFFF" stroke="#FFFFFF" stroke-width="2" x1="-76.429" y1="343.02" x2="58.651" y2="657.243"/>
	<path opacity="0.3" fill="#FFFFFF" stroke="#FFFFFF" d="M145.676,663.427c0,6.563,5.321,11.889,11.885,11.889
		s11.889-5.326,11.889-11.889c0-6.566-5.324-11.889-11.889-11.889S145.676,656.86,145.676,663.427z"/>
	<line opacity="0.3" fill="#FFFFFF" stroke="#FFFFFF" stroke-width="2" x1="-76.429" y1="343.02" x2="157.561" y2="663.427"/>
	<circle opacity="0.3" fill="#FFFFFF" stroke="#FFFFFF" cx="189.929" cy="594.188" r="9.222"/>
	<line opacity="0.3" fill="#FFFFFF" stroke="#FFFFFF" stroke-width="2" x1="-76.429" y1="343.02" x2="189.928" y2="594.188"/>
	<circle opacity="0.3" fill="#FFFFFF" stroke="#FFFFFF" cx="214.847" cy="612.877" r="11.221"/>
	<line opacity="0.3" fill="#FFFFFF" stroke="#FFFFFF" stroke-width="2" x1="-76.429" y1="343.02" x2="214.847" y2="612.876"/>
	<path opacity="0.3" fill="#FFFFFF" stroke="#FFFFFF" d="M244.587,669.606c0,6.57,5.321,11.89,11.889,11.89
		c6.564,0,11.887-5.319,11.887-11.89c0-6.564-5.323-11.886-11.887-11.886C249.907,657.721,244.587,663.042,244.587,669.606z"/>
	<line opacity="0.3" fill="#FFFFFF" stroke="#FFFFFF" stroke-width="2" x1="-76.429" y1="343.02" x2="256.476" y2="669.606"/>
	<path opacity="0.3" fill="#FFFFFF" stroke="#FFFFFF" d="M339.497,675.785c0,8.781,7.115,15.889,15.889,15.889
		c8.773,0,15.887-7.107,15.887-15.889c0-8.768-7.113-15.885-15.887-15.885C346.613,659.9,339.497,667.018,339.497,675.785z"/>
	<line opacity="0.3" fill="#FFFFFF" stroke="#FFFFFF" stroke-width="2" x1="-76.429" y1="343.02" x2="355.386" y2="675.785"/>
	<circle opacity="0.3" fill="#FFFFFF" stroke="#FFFFFF" cx="376.841" cy="594.188" r="13.22"/>
	<line opacity="0.3" fill="#FFFFFF" stroke="#FFFFFF" stroke-width="2" x1="-76.429" y1="343.02" x2="376.841" y2="594.188"/>
	<path opacity="0.3" fill="#FFFFFF" stroke="#FFFFFF" d="M322.952,533.606c0,7.667,6.217,13.887,13.887,13.887
		c7.671,0,13.889-6.22,13.889-13.887c0-7.673-6.218-13.891-13.889-13.891C329.17,519.716,322.952,525.934,322.952,533.606z"/>
	<line opacity="0.3" fill="#FFFFFF" stroke="#FFFFFF" stroke-width="2" x1="-76.429" y1="343.02" x2="336.84" y2="533.606"/>
	<circle opacity="0.3" fill="#FFFFFF" stroke="#FFFFFF" cx="283.384" cy="488.269" r="12.554"/>
	<line opacity="0.3" fill="#FFFFFF" stroke="#FFFFFF" stroke-width="2" x1="-76.429" y1="343.02" x2="283.385" y2="488.269"/>
	<path opacity="0.3" fill="#FFFFFF" stroke="#FFFFFF" d="M270.83,382.352c0,6.931,5.62,12.552,12.554,12.552
		s12.553-5.621,12.553-12.552c0-6.938-5.619-12.556-12.553-12.556S270.83,375.413,270.83,382.352z"/>
	<line opacity="0.3" fill="#FFFFFF" stroke="#FFFFFF" stroke-width="2" x1="-76.429" y1="343.02" x2="283.385" y2="382.352"/>
	<path opacity="0.3" fill="#FFFFFF" stroke="#FFFFFF" d="M360.044,379.054c0,7.666,6.218,13.887,13.889,13.887
		c7.669,0,13.887-6.221,13.887-13.887c0-7.671-6.218-13.89-13.887-13.89C366.262,365.164,360.044,371.383,360.044,379.054z"/>
	<line opacity="0.3" fill="#FFFFFF" stroke="#FFFFFF" stroke-width="2" x1="-76.429" y1="343.02" x2="373.933" y2="379.054"/>
	<circle opacity="0.3" fill="#FFFFFF" stroke="#FFFFFF" cx="472.844" cy="385.234" r="12.552"/>
	<line opacity="0.3" fill="#FFFFFF" stroke="#FFFFFF" stroke-width="2" x1="-76.429" y1="343.02" x2="472.846" y2="385.234"/>
	<circle opacity="0.5" fill="#FFFFFF" stroke="#FFFFFF" cx="532.604" cy="425.963" r="15.888"/>
	<line opacity="0.3" fill="#FFFFFF" stroke="#FFFFFF" stroke-width="2" x1="-76.429" y1="343.02" x2="532.603" y2="425.963"/>
	<circle opacity="0.5" fill="#FFFFFF" stroke="#FFFFFF" cx="532.604" cy="519.421" r="15.888"/>
	<line opacity="0.3" fill="#FFFFFF" stroke="#FFFFFF" stroke-width="2" x1="-76.429" y1="343.02" x2="532.603" y2="519.421"/>
	<circle opacity="0.3" fill="#FFFFFF" stroke="#FFFFFF" cx="435.754" cy="527.422" r="13.889"/>
	<line opacity="0.3" fill="#FFFFFF" stroke="#FFFFFF" stroke-width="2" x1="-76.429" y1="343.02" x2="435.754" y2="527.422"/>
	<circle opacity="0.3" fill="#FFFFFF" stroke="#FFFFFF" cx="426.686" cy="612.877" r="12.555"/>
	<line opacity="0.3" fill="#FFFFFF" stroke="#FFFFFF" stroke-width="2" x1="-76.429" y1="343.02" x2="426.684" y2="612.876"/>
	<circle opacity="0.3" fill="#FFFFFF" stroke="#FFFFFF" cx="454.299" cy="681.974" r="15.887"/>
	<line opacity="0.3" fill="#FFFFFF" stroke="#FFFFFF" stroke-width="2" x1="-76.429" y1="343.02" x2="454.299" y2="681.974"/>
	<circle opacity="0.5" fill="#FFFFFF" stroke="#FFFFFF" cx="553.21" cy="688.153" r="15.888"/>
	<line opacity="0.3" fill="#FFFFFF" stroke="#FFFFFF" stroke-width="2" x1="-76.429" y1="343.02" x2="553.209" y2="688.153"/>
	<circle opacity="0.5" fill="#FFFFFF" stroke="#FFFFFF" cx="563.755" cy="594.188" r="15.888"/>
	<line opacity="0.3" fill="#FFFFFF" stroke="#FFFFFF" stroke-width="2" x1="-76.429" y1="343.02" x2="563.754" y2="594.188"/>
	<path opacity="0.5" fill="#FFFFFF" stroke="#FFFFFF" d="M622.632,612.876c0,8.779,7.117,15.891,15.891,15.891
		c8.772,0,15.886-7.111,15.886-15.891c0-8.772-7.113-15.884-15.886-15.884C629.749,596.992,622.632,604.104,622.632,612.876z"/>
	<line opacity="0.3" fill="#FFFFFF" stroke="#FFFFFF" stroke-width="2" x1="-76.429" y1="343.02" x2="638.523" y2="612.876"/>
	<path opacity="0.5" fill="#FFFFFF" stroke="#FFFFFF" d="M636.236,694.333c0,8.776,7.114,15.889,15.889,15.889
		c8.773,0,15.888-7.112,15.888-15.889c0-8.771-7.114-15.885-15.888-15.885C643.35,678.448,636.236,685.562,636.236,694.333z"/>
	<line opacity="0.3" fill="#FFFFFF" stroke="#FFFFFF" stroke-width="2" x1="-76.429" y1="343.02" x2="652.124" y2="694.333"/>
	<path opacity="0.5" fill="#FFFFFF" stroke="#FFFFFF" d="M735.147,700.52c0,8.771,7.114,15.887,15.889,15.887
		c8.773,0,15.887-7.116,15.887-15.887c0-8.774-7.113-15.889-15.887-15.889C742.261,684.631,735.147,691.745,735.147,700.52z"/>
	<line opacity="0.3" fill="#FFFFFF" stroke="#FFFFFF" stroke-width="2" x1="-76.429" y1="343.02" x2="751.035" y2="700.52"/>
	<circle opacity="0.5" fill="#FFFFFF" stroke="#FFFFFF" cx="750.671" cy="594.188" r="15.889"/>
	<line opacity="0.3" fill="#FFFFFF" stroke="#FFFFFF" stroke-width="2" x1="-76.429" y1="343.02" x2="750.673" y2="594.188"/>
	<circle opacity="0.5" fill="#FFFFFF" stroke="#FFFFFF" cx="732.487" cy="508.875" r="15.888"/>
	<line opacity="0.3" fill="#FFFFFF" stroke="#FFFFFF" stroke-width="2" x1="-76.429" y1="343.02" x2="732.488" y2="508.875"/>
	<circle opacity="0.5" fill="#FFFFFF" stroke="#FFFFFF" cx="657.213" cy="488.269" r="15.888"/>
	<line opacity="0.3" fill="#FFFFFF" stroke="#FFFFFF" stroke-width="2" x1="-76.429" y1="343.02" x2="657.212" y2="488.269"/>
	<circle opacity="0.5" fill="#FFFFFF" stroke="#FFFFFF" cx="657.213" cy="382.352" r="15.888"/>
	<line opacity="0.3" fill="#FFFFFF" stroke="#FFFFFF" stroke-width="2" x1="-76.429" y1="343.02" x2="657.212" y2="382.352"/>
	<circle opacity="0.5" fill="#FFFFFF" stroke="#FFFFFF" cx="769.581" cy="403.78" r="15.889"/>
	<line opacity="0.3" fill="#FFFFFF" stroke="#FFFFFF" stroke-width="2" x1="-76.429" y1="343.02" x2="769.579" y2="403.78"/>
	<circle opacity="0.5" fill="#FFFFFF" stroke="#FFFFFF" cx="750.671" cy="276.431" r="15.889"/>
	<line opacity="0.3" fill="#FFFFFF" stroke="#FFFFFF" stroke-width="2" x1="-76.429" y1="343.02" x2="750.673" y2="276.431"/>
	<path opacity="0.5" fill="#FFFFFF" stroke="#FFFFFF" d="M698.056,212.138c0,8.773,7.112,15.889,15.884,15.889
		c8.776,0,15.891-7.115,15.891-15.889s-7.114-15.888-15.891-15.888C705.168,196.25,698.056,203.364,698.056,212.138z"/>
	<line opacity="0.3" fill="#FFFFFF" stroke="#FFFFFF" stroke-width="2" x1="-76.429" y1="343.02" x2="713.94" y2="212.138"/>
	<circle opacity="0.5" fill="#FFFFFF" stroke="#FFFFFF" cx="615.031" cy="218.321" r="15.888"/>
	<line opacity="0.3" fill="#FFFFFF" stroke="#FFFFFF" stroke-width="2" x1="-76.429" y1="343.02" x2="615.031" y2="218.321"/>
	<path opacity="0.5" fill="#FFFFFF" stroke="#FFFFFF" d="M622.632,332.504c0,8.777,7.117,15.889,15.891,15.889
		c8.772,0,15.886-7.112,15.886-15.889c0-8.772-7.113-15.888-15.886-15.888C629.749,316.616,622.632,323.732,622.632,332.504z"/>
	<line opacity="0.3" fill="#FFFFFF" stroke="#FFFFFF" stroke-width="2" x1="-76.429" y1="343.02" x2="638.523" y2="332.504"/>
	<circle opacity="0.5" fill="#FFFFFF" stroke="#FFFFFF" cx="522.302" cy="323.415" r="13.221"/>
	<line opacity="0.3" fill="#FFFFFF" stroke="#FFFFFF" stroke-width="2" x1="-76.429" y1="343.02" x2="522.301" y2="323.415"/>
	<circle opacity="0.3" fill="#FFFFFF" stroke="#FFFFFF" cx="470.298" cy="276.431" r="13.22"/>
	<line opacity="0.3" fill="#FFFFFF" stroke="#FFFFFF" stroke-width="2" x1="-76.429" y1="343.02" x2="470.299" y2="276.431"/>
	<circle opacity="0.3" fill="#FFFFFF" stroke="#FFFFFF" cx="470.298" cy="170.512" r="11.887"/>
	<line opacity="0.3" fill="#FFFFFF" stroke="#FFFFFF" stroke-width="2" x1="-76.429" y1="343.02" x2="470.299" y2="170.511"/>
	<circle opacity="0.5" fill="#FFFFFF" stroke="#FFFFFF" cx="584.12" cy="193.592" r="12.555"/>
	<line opacity="0.3" fill="#FFFFFF" stroke="#FFFFFF" stroke-width="2" x1="-76.429" y1="343.02" x2="584.117" y2="193.592"/>
	<path opacity="0.5" fill="#FFFFFF" stroke="#FFFFFF" d="M498.714,125.59c0,6.196,5.025,11.221,11.219,11.221
		c6.201,0,11.221-5.025,11.221-11.221c0-6.199-5.02-11.22-11.221-11.22C503.74,114.37,498.714,119.392,498.714,125.59z"/>
	<line opacity="0.3" fill="#FFFFFF" stroke="#FFFFFF" stroke-width="2" x1="-76.429" y1="343.02" x2="509.933" y2="125.59"/>
	<circle opacity="0.3" fill="#FFFFFF" stroke="#FFFFFF" cx="470.298" cy="64.594" r="13.22"/>
	<line opacity="0.3" fill="#FFFFFF" stroke="#FFFFFF" stroke-width="2" x1="-76.429" y1="343.02" x2="470.299" y2="64.594"/>
	<circle opacity="0.3" fill="#FFFFFF" stroke="#FFFFFF" cx="470.298" cy="-41.324" r="13.887"/>
	<line opacity="0.3" fill="#FFFFFF" stroke="#FFFFFF" stroke-width="2" x1="-76.429" y1="343.02" x2="470.299" y2="-41.324"/>
	<path opacity="0.5" fill="#FFFFFF" stroke="#FFFFFF" d="M580.598-4.232c0,8.774,7.11,15.888,15.888,15.888
		c8.773,0,15.887-7.113,15.887-15.888c0-8.777-7.113-15.887-15.887-15.887C587.708-20.12,580.598-13.009,580.598-4.232z"/>
	<line opacity="0.3" fill="#FFFFFF" stroke="#FFFFFF" stroke-width="2" x1="-76.429" y1="343.02" x2="596.486" y2="-4.232"/>
	<circle opacity="0.5" fill="#FFFFFF" stroke="#FFFFFF" cx="638.52" cy="52.133" r="15.888"/>
	<line opacity="0.3" fill="#FFFFFF" stroke="#FFFFFF" stroke-width="2" x1="-76.429" y1="343.02" x2="638.523" y2="52.133"/>
	<path opacity="0.5" fill="#FFFFFF" stroke="#FFFFFF" d="M673.327,100.86c0,8.775,7.111,15.889,15.889,15.889
		c8.774,0,15.888-7.113,15.888-15.889c0-8.772-7.113-15.888-15.888-15.888C680.439,84.973,673.327,92.088,673.327,100.86z"/>
	<line opacity="0.3" fill="#FFFFFF" stroke="#FFFFFF" stroke-width="2" x1="-76.429" y1="343.02" x2="689.216" y2="100.86"/>
	<path opacity="0.5" fill="#FFFFFF" stroke="#FFFFFF" d="M772.238,107.045c0,8.773,7.117,15.888,15.89,15.888
		s15.886-7.115,15.886-15.888c0-8.777-7.113-15.889-15.886-15.889S772.238,98.268,772.238,107.045z"/>
	<line opacity="0.3" fill="#FFFFFF" stroke="#FFFFFF" stroke-width="2" x1="-76.429" y1="343.02" x2="788.127" y2="107.045"/>
	<circle opacity="0.5" fill="#FFFFFF" stroke="#FFFFFF" cx="750.671" cy="-41.324" r="15.889"/>
	<line opacity="0.3" fill="#FFFFFF" stroke="#FFFFFF" stroke-width="2" x1="-76.429" y1="343.02" x2="750.673" y2="-41.324"/>
	<circle opacity="0.9" fill="#FFFFFF" stroke="#FFFFFF" cx="893.22" cy="14.314" r="15.888"/>
	<line opacity="0.3" fill="#FFFFFF" stroke="#FFFFFF" stroke-width="2" x1="-76.429" y1="343.02" x2="893.221" y2="14.314"/>
	<circle opacity="0.9" fill="#FFFFFF" stroke="#FFFFFF" cx="956.277" cy="52.133" r="15.887"/>
	<line opacity="0.3" fill="#FFFFFF" stroke="#FFFFFF" stroke-width="2" x1="-76.429" y1="343.02" x2="956.278" y2="52.133"/>
	<circle opacity="0.9" fill="#FFFFFF" stroke="#FFFFFF" cx="956.277" cy="145.59" r="15.887"/>
	<line opacity="0.3" fill="#FFFFFF" stroke="#FFFFFF" stroke-width="2" x1="-76.429" y1="343.02" x2="956.278" y2="145.59"/>
	<path opacity="0.5" fill="#FFFFFF" stroke="#FFFFFF" d="M790.785,107.045c0,8.773,7.113,15.888,15.888,15.888
		c8.773,0,15.888-7.115,15.888-15.888c0-8.777-7.114-15.889-15.888-15.889C797.899,91.156,790.785,98.268,790.785,107.045z"/>
	<line opacity="0.3" fill="#FFFFFF" stroke="#FFFFFF" stroke-width="2" x1="-76.429" y1="343.02" x2="806.673" y2="107.045"/>
	<path opacity="0.9" fill="#FFFFFF" stroke="#FFFFFF" d="M834.472,239.051c0,8.771,7.111,15.887,15.886,15.887
		s15.889-7.115,15.889-15.887c0-8.778-7.114-15.89-15.889-15.89S834.472,230.273,834.472,239.051z"/>
	<line opacity="0.3" fill="#FFFFFF" stroke="#FFFFFF" stroke-width="2" x1="-76.429" y1="343.02" x2="850.358" y2="239.051"/>
	<path opacity="0.9" fill="#FFFFFF" stroke="#FFFFFF" d="M858.787,311.052c0,8.774,7.113,15.887,15.887,15.887
		c8.777,0,15.888-7.112,15.888-15.887c0-8.777-7.11-15.889-15.888-15.889C865.901,295.163,858.787,302.274,858.787,311.052z"/>
	<line opacity="0.3" fill="#FFFFFF" stroke="#FFFFFF" stroke-width="2" x1="-76.429" y1="343.02" x2="874.674" y2="311.052"/>
	<circle opacity="0.9" fill="#FFFFFF" stroke="#FFFFFF" cx="973.587" cy="317.232" r="15.888"/>
	<line opacity="0.3" fill="#FFFFFF" stroke="#FFFFFF" stroke-width="2" x1="-76.429" y1="343.02" x2="973.586" y2="317.232"/>
	<circle opacity="0.9" fill="#FFFFFF" stroke="#FFFFFF" cx="937.588" cy="170.511" r="15.888"/>
	<line opacity="0.3" fill="#FFFFFF" stroke="#FFFFFF" stroke-width="2" x1="-76.429" y1="343.02" x2="937.586" y2="170.511"/>
	<path opacity="0.9" fill="#FFFFFF" stroke="#FFFFFF" d="M1046.309,239.051c0,8.771,7.114,15.887,15.888,15.887
		c8.772,0,15.887-7.115,15.887-15.887c0-8.778-7.114-15.89-15.887-15.89C1053.423,223.161,1046.309,230.273,1046.309,239.051z"/>
	<line opacity="0.3" fill="#FFFFFF" stroke="#FFFFFF" stroke-width="2" x1="-76.429" y1="343.02" x2="1062.197" y2="239.051"/>
	<path opacity="0.9" fill="#FFFFFF" stroke="#FFFFFF" d="M1056.614,323.415c0,8.775,7.11,15.887,15.888,15.887
		c8.773,0,15.888-7.112,15.888-15.887s-7.114-15.889-15.888-15.889C1063.724,307.526,1056.614,314.64,1056.614,323.415z"/>
	<line opacity="0.3" fill="#FFFFFF" stroke="#FFFFFF" stroke-width="2" x1="-76.429" y1="343.02" x2="1072.501" y2="323.415"/>
	<path opacity="0.9" fill="#FFFFFF" stroke="#FFFFFF" d="M1155.524,329.597c0,8.775,7.112,15.887,15.889,15.887
		c8.771,0,15.888-7.112,15.888-15.887c0-8.775-7.117-15.887-15.888-15.887C1162.636,313.71,1155.524,320.822,1155.524,329.597z"/>
	<line opacity="0.3" fill="#FFFFFF" stroke="#FFFFFF" stroke-width="2" x1="-76.429" y1="343.02" x2="1171.412" y2="329.597"/>
	<path opacity="0.9" fill="#FFFFFF" stroke="#FFFFFF" d="M1108.614,170.511c0,8.775,7.113,15.889,15.886,15.889
		c8.778,0,15.89-7.113,15.89-15.889c0-8.776-7.111-15.886-15.89-15.886C1115.727,154.625,1108.614,161.735,1108.614,170.511z"/>
	<line opacity="0.3" fill="#FFFFFF" stroke="#FFFFFF" stroke-width="2" x1="-76.429" y1="343.02" x2="1124.499" y2="170.511"/>
	<circle opacity="0.9" fill="#FFFFFF" stroke="#FFFFFF" cx="1103.41" cy="88.497" r="15.889"/>
	<line opacity="0.3" fill="#FFFFFF" stroke="#FFFFFF" stroke-width="2" x1="-76.429" y1="343.02" x2="1103.41" y2="88.497"/>
	<circle opacity="0.9" fill="#FFFFFF" stroke="#FFFFFF" cx="1031.045" cy="64.594" r="15.887"/>
	<line opacity="0.3" fill="#FFFFFF" stroke="#FFFFFF" stroke-width="2" x1="-76.429" y1="343.02" x2="1031.044" y2="64.594"/>
	<circle opacity="0.9" fill="#FFFFFF" stroke="#FFFFFF" cx="1031.045" cy="-41.324" r="15.887"/>
	<line opacity="0.3" fill="#FFFFFF" stroke="#FFFFFF" stroke-width="2" x1="-76.429" y1="343.02" x2="1031.044" y2="-41.324"/>
	<circle opacity="0.9" fill="#FFFFFF" stroke="#FFFFFF" cx="1189.957" cy="32.86" r="15.887"/>
	<line opacity="0.3" fill="#FFFFFF" stroke="#FFFFFF" stroke-width="2" x1="-76.429" y1="343.02" x2="1189.956" y2="32.86"/>
	<path opacity="0.3" fill="#FFFFFF" stroke="#FFFFFF" stroke-width="2" d="M-76.429,343.02"/>
	<path opacity="0.3" fill="#FFFFFF" stroke="#FFFFFF" stroke-width="2" d="M-76.429,343.02"/>
	<path opacity="0.3" fill="#FFFFFF" stroke="#FFFFFF" stroke-width="2" d="M-76.429,343.02"/>
	<path opacity="0.3" fill="#FFFFFF" stroke="#FFFFFF" stroke-width="2" d="M-76.429,343.02"/>
	<path opacity="0.3" fill="#FFFFFF" stroke="#FFFFFF" stroke-width="2" d="M-76.429,343.02"/>
	<path opacity="0.3" fill="#FFFFFF" stroke="#FFFFFF" stroke-width="2" d="M-76.429,343.02"/>
	<path opacity="0.3" fill="#FFFFFF" stroke="#FFFFFF" stroke-width="2" d="M-76.429,343.02"/>
	<path opacity="0.3" fill="#FFFFFF" stroke="#FFFFFF" stroke-width="2" d="M-76.429,343.02"/>
	<path opacity="0.3" fill="#FFFFFF" stroke="#FFFFFF" stroke-width="2" d="M-76.429,343.02"/>
	<path opacity="0.3" fill="#FFFFFF" stroke="#FFFFFF" stroke-width="2" d="M-76.429,343.02"/>
	<path opacity="0.3" fill="#FFFFFF" stroke="#FFFFFF" stroke-width="2" d="M-76.429,343.02"/>
	<path opacity="0.3" fill="#FFFFFF" stroke="#FFFFFF" stroke-width="2" d="M-76.429,343.02"/>
	<path opacity="0.3" fill="#FFFFFF" stroke="#FFFFFF" stroke-width="2" d="M-76.429,343.02"/>
	<path opacity="0.3" fill="#FFFFFF" stroke="#FFFFFF" stroke-width="2" d="M-76.429,343.02"/>
	<path opacity="0.9" fill="#FFFFFF" stroke="#FFFFFF" d="M1208.502,165.341c-8.771,0-15.885,7.11-15.885,15.887
		c0,8.775,7.114,15.887,15.885,15.887"/>
	<line opacity="0.3" fill="#FFFFFF" stroke="#FFFFFF" stroke-width="2" x1="-76.429" y1="343.02" x2="1208.502" y2="181.229"/>
	<path opacity="0.3" fill="#FFFFFF" stroke="#FFFFFF" stroke-width="2" d="M-76.429,343.02"/>
	<path opacity="0.3" fill="#FFFFFF" stroke="#FFFFFF" stroke-width="2" d="M-76.429,343.02"/>
	<path opacity="0.3" fill="#FFFFFF" stroke="#FFFFFF" stroke-width="2" d="M-76.429,343.02"/>
	<path opacity="0.3" fill="#FFFFFF" stroke="#FFFFFF" stroke-width="2" d="M-76.429,343.02"/>
	<path opacity="0.3" fill="#FFFFFF" stroke="#FFFFFF" stroke-width="2" d="M-76.429,343.02"/>
	<path opacity="0.3" fill="#FFFFFF" stroke="#FFFFFF" stroke-width="2" d="M-76.429,343.02"/>
	<path opacity="0.3" fill="#FFFFFF" stroke="#FFFFFF" stroke-width="2" d="M-76.429,343.02"/>
	<path opacity="0.3" fill="#FFFFFF" stroke="#FFFFFF" stroke-width="2" d="M-76.429,343.02"/>
	<path opacity="0.3" fill="#FFFFFF" stroke="#FFFFFF" stroke-width="2" d="M-76.429,343.02"/>
	<path opacity="0.3" fill="#FFFFFF" stroke="#FFFFFF" stroke-width="2" d="M-76.429,343.02"/>
	<path opacity="0.3" fill="#FFFFFF" stroke="#FFFFFF" stroke-width="2" d="M-76.429,343.02"/>
	<path opacity="0.3" fill="#FFFFFF" stroke="#FFFFFF" stroke-width="2" d="M-76.429,343.02"/>
	<path opacity="0.3" fill="#FFFFFF" stroke="#FFFFFF" stroke-width="2" d="M-76.429,343.02"/>
	<path opacity="0.3" fill="#FFFFFF" stroke="#FFFFFF" stroke-width="2" d="M-76.429,343.02"/>
	<path opacity="0.3" fill="#FFFFFF" stroke="#FFFFFF" stroke-width="2" d="M-76.429,343.02"/>
	<path opacity="0.3" fill="#FFFFFF" stroke="#FFFFFF" stroke-width="2" d="M-76.429,343.02"/>
	<path opacity="0.3" fill="#FFFFFF" stroke="#FFFFFF" stroke-width="2" d="M-76.429,343.02"/>
	<circle opacity="0.9" fill="#FFFFFF" stroke="#FFFFFF" cx="1140.502" cy="681.974" r="15.888"/>
	<line opacity="0.3" fill="#FFFFFF" stroke="#FFFFFF" stroke-width="2" x1="-76.429" y1="343.02" x2="1140.502" y2="681.974"/>
	<circle opacity="0.9" fill="#FFFFFF" stroke="#FFFFFF" cx="1031.045" cy="700.106" r="15.887"/>
	<line opacity="0.3" fill="#FFFFFF" stroke="#FFFFFF" stroke-width="2" x1="-76.429" y1="343.02" x2="1031.044" y2="700.106"/>
	<circle opacity="0.9" fill="#FFFFFF" stroke="#FFFFFF" cx="1031.045" cy="594.188" r="15.887"/>
	<line opacity="0.3" fill="#FFFFFF" stroke="#FFFFFF" stroke-width="2" x1="-76.429" y1="343.02" x2="1031.044" y2="594.188"/>
	<path opacity="0.9" fill="#FFFFFF" stroke="#FFFFFF" d="M1136.978,626.337c0,8.767,7.114,15.885,15.888,15.885
		c8.772,0,15.889-7.118,15.889-15.885c0-8.78-7.116-15.89-15.889-15.89C1144.092,610.447,1136.978,617.557,1136.978,626.337z"/>
	<line opacity="0.3" fill="#FFFFFF" stroke="#FFFFFF" stroke-width="2" x1="-76.429" y1="343.02" x2="1152.865" y2="626.337"/>
	<path opacity="0.9" fill="#FFFFFF" stroke="#FFFFFF" d="M1108.614,488.269c0,8.772,7.113,15.887,15.886,15.887
		c8.778,0,15.89-7.114,15.89-15.887c0-8.773-7.111-15.887-15.89-15.887C1115.727,472.382,1108.614,479.495,1108.614,488.269z"/>
	<line opacity="0.3" fill="#FFFFFF" stroke="#FFFFFF" stroke-width="2" x1="-76.429" y1="343.02" x2="1124.499" y2="488.269"/>
	<circle opacity="0.9" fill="#FFFFFF" stroke="#FFFFFF" cx="1121.956" cy="385.234" r="15.887"/>
	<line opacity="0.3" fill="#FFFFFF" stroke="#FFFFFF" stroke-width="2" x1="-76.429" y1="343.02" x2="1121.955" y2="385.234"/>
	<circle opacity="0.9" fill="#FFFFFF" stroke="#FFFFFF" cx="1023.043" cy="391.417" r="15.888"/>
	<line opacity="0.3" fill="#FFFFFF" stroke="#FFFFFF" stroke-width="2" x1="-76.429" y1="343.02" x2="1023.044" y2="391.417"/>
	<circle opacity="0.9" fill="#FFFFFF" stroke="#FFFFFF" cx="1062.196" cy="519.421" r="15.887"/>
	<line opacity="0.3" fill="#FFFFFF" stroke="#FFFFFF" stroke-width="2" x1="-76.429" y1="343.02" x2="1062.197" y2="519.421"/>
	<circle opacity="0.9" fill="#FFFFFF" stroke="#FFFFFF" cx="937.588" cy="488.269" r="15.888"/>
	<line opacity="0.3" fill="#FFFFFF" stroke="#FFFFFF" stroke-width="2" x1="-76.429" y1="343.02" x2="937.586" y2="488.269"/>
	<path opacity="0.9" fill="#FFFFFF" stroke="#FFFFFF" d="M908.244,397.6c0,8.772,7.109,15.886,15.888,15.886
		c8.772,0,15.888-7.113,15.888-15.886c0-8.774-7.115-15.889-15.888-15.889C915.354,381.711,908.244,388.825,908.244,397.6z"/>
	<line opacity="0.3" fill="#FFFFFF" stroke="#FFFFFF" stroke-width="2" x1="-76.429" y1="343.02" x2="924.132" y2="397.6"/>
	<circle opacity="0.9" fill="#FFFFFF" stroke="#FFFFFF" cx="825.219" cy="403.78" r="15.888"/>
	<line opacity="0.3" fill="#FFFFFF" stroke="#FFFFFF" stroke-width="2" x1="-76.429" y1="343.02" x2="825.219" y2="403.78"/>
	<circle opacity="0.9" fill="#FFFFFF" stroke="#FFFFFF" cx="850.359" cy="519.421" r="15.887"/>
	<line opacity="0.3" fill="#FFFFFF" stroke="#FFFFFF" stroke-width="2" x1="-76.429" y1="343.02" x2="850.358" y2="519.421"/>
	<path opacity="0.9" fill="#FFFFFF" stroke="#FFFFFF" d="M840.239,607.789c0,8.771,7.114,15.888,15.889,15.888
		c8.776,0,15.888-7.116,15.888-15.888c0-8.775-7.111-15.889-15.888-15.889C847.353,591.9,840.239,599.014,840.239,607.789z"/>
	<line opacity="0.3" fill="#FFFFFF" stroke="#FFFFFF" stroke-width="2" x1="-76.429" y1="343.02" x2="856.127" y2="607.789"/>
	<path opacity="0.9" fill="#FFFFFF" stroke="#FFFFFF" d="M940.39,612.876c0,8.779,7.114,15.891,15.888,15.891
		s15.887-7.111,15.887-15.891c0-8.772-7.113-15.884-15.887-15.884S940.39,604.104,940.39,612.876z"/>
	<line opacity="0.3" fill="#FFFFFF" stroke="#FFFFFF" stroke-width="2" x1="-76.429" y1="343.02" x2="956.278" y2="612.876"/>
	<path opacity="0.9" fill="#FFFFFF" stroke="#FFFFFF" d="M940.39,706.338c0,8.774,7.114,15.888,15.888,15.888
		s15.887-7.113,15.887-15.888c0-8.777-7.113-15.889-15.887-15.889S940.39,697.561,940.39,706.338z"/>
	<line opacity="0.3" fill="#FFFFFF" stroke="#FFFFFF" stroke-width="2" x1="-76.429" y1="343.02" x2="956.278" y2="706.338"/>
	<path opacity="0.9" fill="#FFFFFF" stroke="#FFFFFF" d="M827.877,700.52c0,8.771,7.114,15.887,15.888,15.887
		c8.774,0,15.888-7.116,15.888-15.887c0-8.774-7.113-15.889-15.888-15.889C834.991,684.631,827.877,691.745,827.877,700.52z"/>
	<line opacity="0.3" fill="#FFFFFF" stroke="#FFFFFF" stroke-width="2" x1="-76.429" y1="343.02" x2="843.765" y2="700.52"/>
</g>
</svg>
