<?xml version="1.0" encoding="iso-8859-1"?>
<!-- Generator: Adobe Illustrator 12.0.0, SVG Export Plug-In . SVG Version: 6.00 Build 51448)  -->
<!DOCTYPE svg PUBLIC "-//W3C//DTD SVG 1.1 Basic//EN" "http://www.w3.org/Graphics/SVG/1.1/DTD/svg11-basic.dtd" [
	<!ENTITY ns_svg "http://www.w3.org/2000/svg">
	<!ENTITY ns_xlink "http://www.w3.org/1999/xlink">
]>
<svg  version="1.1" baseProfile="basic" id="Ebene_1" xmlns="&ns_svg;" xmlns:xlink="&ns_xlink;" width="1109.949" height="642.834"
	 viewBox="0 0 1109.949 642.834" overflow="visible" enable-background="new 0 0 1109.949 642.834" xml:space="preserve">
<g opacity="0.25">
	<polygon opacity="0.5" fill="none" stroke="#FFFFFF" points="552.201,136.889 460.677,102.408 330.926,114.442 269.613,165.635 
		358.305,210.845 513.169,193.407 	"/>
	<polygon opacity="0.6" fill="#FFFFFF" stroke="#FFFFFF" points="551.155,136.903 459.635,102.422 329.877,114.46 268.563,165.653 
		357.246,210.861 512.131,193.429 	"/>
	<polygon opacity="0.5" fill="none" stroke="#FFFFFF" points="818.99,35.127 730.311,13.179 632.274,20.915 610.16,52.943 
		701.084,80.101 812.651,69.745 	"/>
	<polygon opacity="0.5" fill="none" stroke="#FFFFFF" points="921.787,99.291 812.651,69.745 701.084,80.101 682.046,123.674 
		795.834,161.595 925.145,147.033 	"/>
	<polygon opacity="0.5" fill="none" stroke="#FFFFFF" points="1065.387,188.931 925.145,147.033 795.834,161.595 784.341,224.334 
		934.6,280.94 1088.098,258.982 	"/>
	<polygon opacity="0.5" fill="none" stroke="#FFFFFF" points="632.274,20.915 556.88,0.505 458.76,7.712 423.179,37.419 
		498.377,62.477 610.16,52.943 	"/>
	<polygon opacity="0.5" fill="none" stroke="#FFFFFF" points="934.6,280.94 784.341,224.334 629.569,243.838 590.949,329.957 
		749.229,410.646 941.518,378.996 	"/>
	<polygon opacity="0.4" fill="#FFFFFF" stroke="#FFFFFF" points="358.305,210.845 269.613,165.635 115.488,181.314 16.842,249.283 
		95.328,311.151 286.325,287.085 	"/>
	<polygon opacity="0.4" fill="#FFFFFF" stroke="#FFFFFF" points="629.569,243.838 513.169,193.407 358.305,210.845 286.325,287.085 
		399.939,357.431 591.949,329.957 	"/>
	<polygon opacity="0.4" fill="#FFFFFF" stroke="#FFFFFF" points="330.926,114.442 258.238,82.958 129.054,93.984 49.652,140.549 
		115.488,181.314 269.613,165.635 	"/>
	<polygon opacity="0.4" fill="#FFFFFF" stroke="#FFFFFF" points="701.084,80.101 610.16,52.943 498.377,62.477 460.677,102.408 
		552.201,136.889 682.046,123.674 	"/>
	<polygon opacity="0.4" fill="#FFFFFF" stroke="#FFFFFF" points="795.755,161.595 681.975,123.68 552.13,136.889 513.084,193.413 
		629.475,243.844 784.255,224.338 	"/>
	<polygon opacity="0.4" fill="#FFFFFF" stroke="#FFFFFF" points="498.377,62.477 423.179,37.419 311.552,46.229 258.238,82.958 
		330.926,114.442 460.677,102.408 	"/>
</g>
<g opacity="0.35">
	<polygon opacity="0.5" fill="none" stroke="#FFFFFF" points="602.201,95.889 510.677,61.408 380.926,73.442 319.613,124.635 
		408.305,169.845 563.169,152.407 	"/>
	<polygon opacity="0.6" fill="#FFFFFF" stroke="#FFFFFF" points="601.155,95.903 509.635,61.422 379.877,73.46 318.563,124.653 
		407.246,169.861 562.13,152.429 	"/>
	<polygon opacity="0.5" fill="none" stroke="#FFFFFF" points="868.99,-5.873 780.311,-27.821 682.274,-20.085 660.16,11.943 
		751.084,39.101 862.651,28.745 	"/>
	<polygon opacity="0.5" fill="none" stroke="#FFFFFF" points="971.787,58.291 862.651,28.745 751.084,39.101 732.046,82.674 
		845.834,120.595 975.145,106.033 	"/>
	<polygon opacity="0.5" fill="none" stroke="#FFFFFF" points="1115.387,147.931 975.145,106.033 845.834,120.595 834.341,183.334 
		984.6,239.94 1138.098,217.982 	"/>
	<polygon opacity="0.5" fill="none" stroke="#FFFFFF" points="682.274,-20.085 606.88,-40.495 508.76,-33.288 473.179,-3.581 
		548.377,21.477 660.16,11.943 	"/>
	<polygon opacity="0.5" fill="none" stroke="#FFFFFF" points="984.6,239.94 834.341,183.334 679.569,202.838 640.949,288.957 
		799.229,369.646 991.518,337.996 	"/>
	<polygon opacity="0.4" fill="#FFFFFF" stroke="#FFFFFF" points="408.305,169.845 319.613,124.635 165.488,140.314 66.842,208.283 
		145.328,270.151 336.324,246.085 	"/>
	<polygon opacity="0.4" fill="#FFFFFF" stroke="#FFFFFF" points="679.569,202.838 563.169,152.407 408.305,169.845 336.324,246.085 
		449.939,316.43 641.949,288.957 	"/>
	<polygon opacity="0.4" fill="#FFFFFF" stroke="#FFFFFF" points="380.926,73.442 308.238,41.958 179.054,52.984 99.652,99.549 
		165.488,140.314 319.613,124.635 	"/>
	<polygon opacity="0.4" fill="#FFFFFF" stroke="#FFFFFF" points="751.084,39.101 660.16,11.943 548.377,21.477 510.677,61.408 
		602.201,95.889 732.046,82.674 	"/>
	<polygon opacity="0.4" fill="#FFFFFF" stroke="#FFFFFF" points="845.755,120.595 731.975,82.68 602.13,95.889 563.084,152.413 
		679.475,202.844 834.255,183.338 	"/>
	<polygon opacity="0.4" fill="#FFFFFF" stroke="#FFFFFF" points="548.377,21.477 473.179,-3.581 361.552,5.229 308.238,41.958 
		380.926,73.442 510.677,61.408 	"/>
</g>
<g opacity="0.25">
	<polygon opacity="0.5" fill="none" stroke="#FFFFFF" points="692.201,142.889 600.677,108.408 470.926,120.442 409.613,171.635 
		498.305,216.845 653.169,199.407 	"/>
	<polygon opacity="0.6" fill="#FFFFFF" stroke="#FFFFFF" points="691.155,142.903 599.634,108.422 469.877,120.46 408.563,171.653 
		497.246,216.861 652.13,199.429 	"/>
	<polygon opacity="0.5" fill="none" stroke="#FFFFFF" points="958.99,41.127 870.311,19.179 772.274,26.915 750.16,58.943 
		841.084,86.101 952.651,75.745 	"/>
	<polygon opacity="0.5" fill="none" stroke="#FFFFFF" points="1061.787,105.291 952.651,75.745 841.084,86.101 822.046,129.674 
		935.834,167.595 1065.145,153.033 	"/>
	<polygon opacity="0.5" fill="none" stroke="#FFFFFF" points="1205.387,194.931 1065.145,153.033 935.834,167.595 924.341,230.334 
		1074.6,286.94 1228.098,264.982 	"/>
	<polygon opacity="0.5" fill="none" stroke="#FFFFFF" points="772.274,26.915 696.88,6.505 598.759,13.712 563.178,43.419 
		638.375,68.477 750.16,58.943 	"/>
	<polygon opacity="0.5" fill="none" stroke="#FFFFFF" points="1074.6,286.94 924.341,230.334 769.569,249.838 730.949,335.957 
		889.229,416.646 1081.518,384.996 	"/>
	<polygon opacity="0.4" fill="#FFFFFF" stroke="#FFFFFF" points="498.305,216.845 409.613,171.635 255.488,187.314 156.842,255.283 
		235.328,317.151 426.324,293.085 	"/>
	<polygon opacity="0.4" fill="#FFFFFF" stroke="#FFFFFF" points="769.569,249.838 653.169,199.407 498.305,216.845 426.324,293.085 
		539.939,363.431 731.949,335.957 	"/>
	<polygon opacity="0.4" fill="#FFFFFF" stroke="#FFFFFF" points="470.926,120.442 398.238,88.958 269.054,99.984 189.652,146.549 
		255.488,187.314 409.613,171.635 	"/>
	<polygon opacity="0.4" fill="#FFFFFF" stroke="#FFFFFF" points="841.084,86.101 750.16,58.943 638.375,68.477 600.677,108.408 
		692.201,142.889 822.046,129.674 	"/>
	<polygon opacity="0.4" fill="#FFFFFF" stroke="#FFFFFF" points="935.755,167.595 821.975,129.68 692.13,142.889 653.084,199.413 
		769.475,249.844 924.255,230.338 	"/>
	<polygon opacity="0.4" fill="#FFFFFF" stroke="#FFFFFF" points="638.375,68.477 563.178,43.419 451.552,52.229 398.238,88.958 
		470.926,120.442 600.677,108.408 	"/>
</g>
</svg>
