<?xml version="1.0" encoding="utf-8"?>
<!-- Generator: Adobe Illustrator 12.0.0, SVG Export Plug-In . SVG Version: 6.00 Build 51448)  -->
<!DOCTYPE svg PUBLIC "-//W3C//DTD SVG 1.1//EN" "http://www.w3.org/Graphics/SVG/1.1/DTD/svg11.dtd" [
	<!ENTITY ns_svg "http://www.w3.org/2000/svg">
	<!ENTITY ns_xlink "http://www.w3.org/1999/xlink">
]>
<svg  version="1.1" id="Ebene_1" xmlns="&ns_svg;" xmlns:xlink="&ns_xlink;" width="1047.5" height="721.6"
	 viewBox="0 0 1047.5 721.6" overflow="visible" enable-background="new 0 0 1047.5 721.6" xml:space="preserve">
<g>
	<path opacity="0.3" fill="#FFFFFF" d="M351,304.9c1.6,5,3.4,10,5.3,15c-0.2-0.6-0.5-1.2-0.8-1.8C353.9,313.7,352.4,309.3,351,304.9
		z M743.6,423.1c-109.5,43.1-222.7,37-300.8-7.8c-0.1,0-0.2,0.1-0.3,0.1c78.2,44.9,191.6,51,301.2,7.9c28.4-11.2,54.8-25,78.7-40.7
		c-0.1-0.1-0.1-0.1-0.2-0.2C798.4,398.2,772,411.9,743.6,423.1z M356.6,319.8c0.3,0.9,0.6,1.7,1,2.6c0.7,1.9,1.5,3.8,2.3,5.7
		c17.1,36.8,45.9,66.3,82.4,87.3c0.1,0,0.2-0.1,0.3-0.1C403.4,392.7,373.1,360.4,356.6,319.8z M557.7-19H557
		C407.6,44.4,319.1,180.2,348.7,296.4c0.8,2.8,1.7,5.6,2.6,8.4C315.1,186.8,404.4,45.8,557.7-19z M348.7,296.4
		c-5.9-19.9-9.8-39.9-11.8-59.9c0,1.3,0.1,2.7,0.1,4c2.4,21.5,7.1,43.1,14.1,64.4C350.2,302.1,349.4,299.3,348.7,296.4z
		 M336.3,233.8c0-1.3,0-2.6-0.1-4C328.9,134.8,365,42.4,433-19h-0.4C363.8,43.3,327.6,137.4,336.3,233.8z M856.3,421.4
		c0.1,0.1,0.1,0.1,0.2,0.2c3.1-3.7,6.2-7.4,9.1-11.3c-0.3,0.2-0.6,0.5-0.9,0.7C862,414.6,859.2,418,856.3,421.4z M356.4,319.9
		c0.3,0.9,0.6,1.7,1,2.6c1.6,4,3.3,8,5,11.9c0.5,1,1.1,2,1.6,3c-1.4-3.1-2.7-6.2-4-9.4C358.7,325.4,357.5,322.7,356.4,319.9z
		 M824.5-12.7c-2.4-2.1-4.7-4.3-7.2-6.3h-0.4c2.5,2.1,5,4.3,7.4,6.6C824.4-12.6,824.4-12.6,824.5-12.7z M879.4,390.3
		c-4.4,6.8-9.1,13.4-14,19.8c0.3-0.2,0.6-0.5,0.9-0.7c4.8-6.3,9.4-12.8,13.7-19.5C879.8,390.1,879.6,390.2,879.4,390.3z
		 M363.7,337.5c5.6,12.5,12,24.5,19,36c0.8,1.1,1.5,2.2,2.3,3.2c-7.2-11.5-13.8-23.6-19.6-36.1C364.9,339.6,364.3,338.6,363.7,337.5
		z M744.6,501.2c-70.9,27.9-149.3,26.2-220.7-4.9c-39.3-17.1-74-41.8-102.7-72.7c-0.1,0-0.2,0.1-0.3,0.1
		c28.7,30.9,63.5,55.7,102.9,72.8c71.5,31.1,149.9,32.8,220.9,4.9c44.5-17.5,82.2-45.2,111.6-79.6c-0.1-0.1-0.1-0.1-0.2-0.2
		C826.7,456,789,483.7,744.6,501.2z M355.9,318c0.2,0.6,0.5,1.2,0.8,1.8c-1.9-5-3.7-10-5.3-15C352.7,309.3,354.2,313.6,355.9,318z
		 M387,379.7c-0.7-0.9-1.4-1.8-2.1-2.8c10.5,16.7,22.5,32.3,35.8,46.6c0.1,0,0.2-0.1,0.3-0.1C408.4,410,397.1,395.3,387,379.7z
		 M356.6,319.8c-0.2-0.6-0.5-1.2-0.8-1.8c-1.7-4.3-3.2-8.7-4.6-13.1c-0.9-2.8-1.8-5.6-2.6-8.4c0.7,2.9,1.5,5.7,2.4,8.5
		c1.6,5,3.4,10,5.3,15c1.1,2.7,2.3,5.5,3.5,8.1c-0.8-1.9-1.6-3.8-2.3-5.7C357.3,321.5,357,320.7,356.6,319.8z M336.8,236.5
		c-0.9-36,6.7-73.2,22.8-110.1C383.8,70.6,425.1,20.5,478.2-19h-0.5c-52.9,39.6-94.1,89.6-118.4,145.3
		C344.7,160,337,193.9,336.5,227c0,2.3,0,4.5,0.1,6.8C336.7,234.7,336.7,235.6,336.8,236.5z M352.1,312.2
		c-9.1-23-14.1-47.1-15.2-71.7c-0.1-0.9-0.2-1.8-0.3-2.7c0.5,12.2,1.8,24.4,4,36.4c0.5,2.5,1,4.9,1.6,7.4c1.1,4.5,2.3,8.9,3.6,13.3
		c0,0.2,0.1,0.3,0.1,0.5c0.1,0.2,0.1,0.4,0.2,0.6c1.7,5.5,3.6,10.9,5.7,16.3c3.4,8.7,7.4,17.1,11.8,25.3c-0.5-1-0.9-2.1-1.4-3.2
		C358.6,327.2,355.1,319.8,352.1,312.2z M846.2,411c0.1,0.1,0.1,0.1,0.2,0.2c11.5-6.6,22.5-13.5,33-20.9c0.1-0.2,0.2-0.4,0.4-0.6
		C869.1,397.2,857.9,404.3,846.2,411z M484.3,443.1c-16.9-7.3-32.5-15.9-46.7-25.6c-0.1,0-0.2,0.1-0.3,0.1
		c14.3,9.8,30,18.4,46.9,25.8c88.6,38.6,198.9,37.3,302.4-3.4c20.9-8.2,40.8-17.8,59.6-28.5c-0.1-0.1-0.1-0.1-0.2-0.2
		c-18.7,10.7-38.6,20.3-59.5,28.5C683,480.4,572.9,481.6,484.3,443.1z M364,337.4c0.5,1.1,1,2.2,1.5,3.2
		c17.1,30.2,41.3,56,71.5,76.7c0.1,0,0.2-0.1,0.3-0.1C406,395.9,381.2,368.9,364,337.4z M879.4,390.3c0.2-0.1,0.4-0.3,0.6-0.4
		c0.1-0.2,0.2-0.4,0.4-0.6c-0.2,0.1-0.4,0.3-0.6,0.4C879.7,389.9,879.6,390.1,879.4,390.3z M362.3,334.4c0.5,1.1,0.9,2.1,1.4,3.2
		c0.6,1,1.2,2.1,1.7,3.1c-0.5-1.1-1-2.1-1.5-3.2C363.4,336.4,362.9,335.4,362.3,334.4z M336.6,233.8c0,1.3,0.1,2.7,0.1,4
		c0.1,0.9,0.2,1.8,0.3,2.7c-0.1-1.3-0.1-2.7-0.1-4C336.7,235.6,336.7,234.7,336.6,233.8z M336.6,236.5c-0.1-0.9-0.2-1.8-0.3-2.7
		c0.3,12.8,1.5,25.5,3.7,38c0.5,2.1,1,4.3,1.5,6.4c-0.3-1.3-0.5-2.7-0.8-4C338.3,261.8,336.9,249.2,336.6,236.5z M426.6,421.4
		c0.1,0,0.2-0.1,0.3-0.1c-15.6-13.2-29.6-28-41.8-44.5c0.6,1,1.2,2,1.9,2.9C398.6,395,411.9,408.9,426.6,421.4z M854,419.2
		c3.6-2.6,7.2-5.3,10.7-8.1c0.2-0.3,0.5-0.6,0.7-0.9c-3.8,3-7.7,5.9-11.6,8.8C853.9,419,853.9,419.1,854,419.2z M355.9,325.3
		c0.7,1.8,1.4,3.7,2.1,5.5c7.4,16.5,16.4,31.9,26.9,46.2c-0.7-1.1-1.4-2.3-2.1-3.4C372.2,358.7,363.2,342.5,355.9,325.3z
		 M343.4,287.1c-0.8-2.9-1.5-5.9-2.2-8.8c2.9,14.3,7,28.4,12.4,42c0.7,1.7,1.4,3.4,2.1,5c-1-2.6-1.9-5.2-2.8-7.9
		C349,307.5,345.9,297.4,343.4,287.1z M769,465.4c-124.3,48.9-256.6,27.8-341.9-44c-0.1,0-0.2,0.1-0.3,0.1
		c85.4,71.9,217.9,93.1,342.3,44.1c30.5-12,59-27.7,84.7-46.3c-0.1-0.1-0.1-0.1-0.2-0.2C827.9,437.8,799.5,453.4,769,465.4z
		 M336.5,227c0.1-37,8.1-74.6,23.8-110.7C383.2,63.6,421.1,17,469.1-19h-0.5C420.8,17,383,63.6,360.1,116.2
		c-16.2,37.1-24.1,75.8-23.8,113.7c0.1,1,0.1,2,0.2,3C336.5,230.9,336.5,229,336.5,227z M385.1,376.8c-0.8-1.1-1.6-2.2-2.3-3.2
		c0.7,1.1,1.4,2.3,2.1,3.4c0.7,0.9,1.4,1.9,2.1,2.8C386.3,378.7,385.7,377.7,385.1,376.8z M865.4,410.2c-0.2,0.3-0.5,0.6-0.7,0.9
		c0.3-0.2,0.6-0.5,0.9-0.7c0.2-0.3,0.5-0.6,0.7-0.9C866,409.7,865.7,409.9,865.4,410.2z M336.5,232.9c-0.1-1-0.2-2-0.2-3
		c0,1.3,0,2.6,0.1,4c0.1,0.9,0.2,1.8,0.3,2.7C336.5,235.3,336.5,234.1,336.5,232.9z M336.6,236.5c0.3,12.7,1.7,25.3,4.2,37.7
		c-2.2-12-3.6-24.1-4-36.4C336.6,237.4,336.6,236.9,336.6,236.5z M336.5,227c0,2,0,3.9,0,5.9c0,0.3,0.1,0.6,0.1,0.9
		C336.5,231.5,336.5,229.3,336.5,227z M336.6,233.8c0-0.3-0.1-0.6-0.1-0.9c0,1.2,0,2.4,0.1,3.6c0,0.4,0.1,0.9,0.1,1.3
		C336.6,236.5,336.6,235.1,336.6,233.8z M359.9,39.8C369,18.7,380.2-1,393-19h-0.3c-12.8,18.1-23.9,37.7-33,58.8
		c-31.8,73.1-37.9,157.6-18.4,238.6c-0.4-2.2-0.8-4.3-1.2-6.5C322.3,192.8,328.9,110.9,359.9,39.8z M358,330.7
		c-0.8-1.8-1.6-3.6-2.3-5.4c0.8,2.1,1.6,4.2,2.4,6.3c13.6,34.6,31.6,66.6,53.1,95.3c0.1,0,0.2-0.1,0.3-0.1
		c-21.6-28.6-39.5-60.6-53.1-95.3C358.2,331.3,358.1,331,358,330.7z M346,295.4c0-0.2-0.1-0.3-0.1-0.5c-1.3-4.4-2.5-8.9-3.6-13.3
		c-0.3-1.1-0.6-2.2-0.8-3.3c0.6,3,1.3,5.9,2,8.8c2.7,10.2,5.8,20.4,9.4,30.4c0.3,0.9,0.7,1.8,1,2.7c0.7,1.7,1.4,3.4,2.1,5
		c-3.6-9.7-6.9-19.4-9.7-29.3C346.1,295.8,346.1,295.6,346,295.4z M346.2,296c-0.1-0.2-0.1-0.4-0.2-0.6
		C346.1,295.6,346.1,295.8,346.2,296z M345.9,294.9c-1.3-4.4-2.4-8.9-3.6-13.3C343.4,286,344.5,290.5,345.9,294.9z M341.5,278.2
		c-0.5-2.1-1-4.3-1.5-6.4c0.4,2.2,0.8,4.3,1.2,6.5c0.7,2.9,1.4,5.9,2.2,8.8C342.7,284.1,342.1,281.2,341.5,278.2z M353.9,320.2
		c-0.4-0.9-0.7-1.8-1-2.7c0.9,2.6,1.9,5.2,2.8,7.9c0.8,1.8,1.5,3.6,2.3,5.4c-0.7-1.8-1.4-3.6-2.1-5.5
		C355.2,323.6,354.5,321.9,353.9,320.2z M420.7,423.5c-3.1,1.1-6.2,2.2-9.2,3.3c0.1,0.1,0.1,0.1,0.2,0.2c3.1-1.1,6.2-2.2,9.3-3.3
		C420.8,423.7,420.7,423.6,420.7,423.5z M426.6,421.4c-1.9,0.7-3.7,1.4-5.6,2.1c0.1,0.1,0.1,0.1,0.2,0.2c1.9-0.7,3.8-1.4,5.6-2.1
		C426.7,421.5,426.6,421.4,426.6,421.4z M437.3,417.6c-0.1-0.1-0.2-0.1-0.3-0.2c-3.4,1.3-6.8,2.6-10.1,3.9c0.1,0.1,0.2,0.1,0.2,0.2
		C430.5,420.2,433.9,418.9,437.3,417.6z M772.6,85.9c0.3-0.9,0.5-1.7,0.8-2.6c7.3-35.5,6.9-70-1.3-102.4h-0.3
		C780.2,14.1,780.4,49.6,772.6,85.9z M442.6,415.5c-0.1-0.1-0.2-0.1-0.3-0.2c-1.1,0.5-2.2,0.9-3.4,1.4c-0.5,0.2-1.1,0.4-1.6,0.6
		c0.1,0.1,0.2,0.1,0.3,0.2c0.5-0.2,0.9-0.4,1.4-0.5C440.2,416.4,441.4,415.9,442.6,415.5z M442.6,415.2c0.1,0.1,0.2,0.1,0.3,0.2
		C589.2,356.8,705.5,255,754.4,142.4c3.8-8.8,7.2-17.7,10.1-26.4c0.2-0.8,0.4-1.7,0.5-2.5c-3.1,9.6-6.7,19.2-10.9,28.8
		C705.2,254.9,588.9,356.7,442.6,415.2z M766.1,110.4c-0.3,1.1-0.5,2.1-0.7,3.2c3-9.2,5.5-18.4,7.4-27.6c-0.3,1-0.6,2-0.9,2.9
		C770.3,96.1,768.4,103.2,766.1,110.4z M442.6,415.2c-0.1,0-0.2,0.1-0.3,0.1c0.1,0.1,0.2,0.1,0.3,0.2c0.1,0,0.2-0.1,0.3-0.1
		C442.8,415.3,442.7,415.2,442.6,415.2z M421,423.4c-0.1,0-0.2,0.1-0.3,0.1c0.1,0.1,0.1,0.1,0.2,0.2c0.1,0,0.2-0.1,0.3-0.1
		C421.1,423.6,421,423.5,421,423.4z M437.6,417.5c-0.1-0.1-0.2-0.1-0.3-0.2c-0.1,0-0.2,0.1-0.3,0.1c0.1,0.1,0.2,0.1,0.3,0.2
		C437.4,417.5,437.5,417.5,437.6,417.5z M426.9,421.3c-0.1,0-0.2,0.1-0.3,0.1c0.1,0.1,0.2,0.1,0.2,0.2c0.1,0,0.2-0.1,0.3-0.1
		C427,421.4,426.9,421.3,426.9,421.3z M411.5,426.8c-0.1,0-0.2,0.1-0.3,0.1c0.1,0.1,0.1,0.2,0.2,0.2c0.1,0,0.2-0.1,0.3-0.1
		C411.6,427,411.5,426.9,411.5,426.8z M854,419.2c-0.1,0.1-0.1,0.1-0.2,0.2c0.8,0.8,1.5,1.5,2.3,2.3c0.1-0.1,0.1-0.1,0.2-0.2
		C855.5,420.7,854.7,419.9,854,419.2z M766.1,110.4c1.7-7.2,3.6-14.3,5.8-21.4c0.2-1,0.5-2,0.7-3c-2.9,9-5.4,18.2-7.4,27.5
		C765.5,112.4,765.8,111.4,766.1,110.4z M780.6,306.8c10.8,27.6,24.9,52.8,41.6,75.6c0.1,0,0.2-0.1,0.2-0.2
		c-16.7-22.7-30.8-48-41.6-75.5c-25.3-64.2-29.3-131.3-15.5-193.2c-0.3,0.8-0.5,1.6-0.8,2.4C751.4,177.2,755.7,243.5,780.6,306.8z
		 M822.4,382.6c7.4,10,15.2,19.6,23.6,28.6c0.1,0,0.2-0.1,0.2-0.1c-8.3-9-16.2-18.5-23.6-28.6C822.5,382.5,822.5,382.6,822.4,382.6z
		 M853.6,419.1c0.1-0.1,0.2-0.1,0.2-0.2c-2.5-2.5-5-5.1-7.4-7.8c-0.1,0-0.2,0.1-0.2,0.1C848.6,414,851.1,416.6,853.6,419.1z
		 M824.5-12.7c0.1,0.1,0.1,0.1,0.2,0.2c1.7-2.2,3.5-4.4,5.3-6.5h-0.4C827.9-17,826.2-14.8,824.5-12.7z M773.4,83.3
		c-0.2,0.9-0.4,1.8-0.6,2.7c11.4-35.7,28.8-69,51.7-98.3c-0.1-0.1-0.1-0.1-0.2-0.2C802,16.1,784.8,48.6,773.4,83.3z M822.4,382.6
		c0.1,0,0.1-0.1,0.2-0.1c-0.1-0.1-0.1-0.1-0.2-0.2c-0.1,0-0.2,0.1-0.2,0.2C822.3,382.5,822.3,382.5,822.4,382.6z M824.3-12.5
		c0.1,0.1,0.1,0.1,0.2,0.2c0.1-0.1,0.1-0.1,0.2-0.2c-0.1-0.1-0.1-0.1-0.2-0.2C824.4-12.6,824.4-12.6,824.3-12.5z M856.1,421.6
		c0.1,0.1,0.1,0.1,0.2,0.2c0.1-0.1,0.1-0.1,0.2-0.2c-0.1-0.1-0.1-0.1-0.2-0.2C856.2,421.5,856.1,421.6,856.1,421.6z M846,411.2
		c0.1,0.1,0.1,0.1,0.2,0.2c0.1,0,0.2-0.1,0.2-0.1c-0.1-0.1-0.1-0.1-0.2-0.2C846.1,411.1,846,411.1,846,411.2z M853.8,419.3
		c0.1-0.1,0.1-0.1,0.2-0.2c-0.1-0.1-0.1-0.1-0.2-0.2c-0.1,0.1-0.1,0.1-0.2,0.2C853.6,419.2,853.7,419.3,853.8,419.3z M772.6,85.9
		c-0.2,1-0.4,2-0.7,3c0.3-1,0.6-2,0.9-2.9c0.2-0.9,0.4-1.8,0.6-2.7C773.1,84.2,772.8,85.1,772.6,85.9z M765.1,113.5
		c-0.2,0.8-0.4,1.7-0.5,2.5c0.3-0.8,0.5-1.6,0.8-2.4c0.2-1.1,0.5-2.1,0.7-3.2C765.8,111.4,765.5,112.4,765.1,113.5z M409.6,427.7
		c11.8,19,22.1,39.4,30.7,61.2c20.5,52,28.9,107.2,25.3,160.5c0.1-0.7,0.3-1.4,0.4-2c3.3-52.7-5.2-107.2-25.4-158.6
		c-8.5-21.5-18.7-41.8-30.3-60.6c-0.1-0.2-0.3-0.3-0.4-0.5C409.7,427.7,409.7,427.7,409.6,427.7z M461.8,681.7c0,0.5,0,1.1,0,1.6
		c1.9-11.2,3.2-22.5,4-33.8c-0.1,0.7-0.3,1.3-0.4,2C464.7,661.6,463.5,671.7,461.8,681.7z M433.1,474.3c9,23,14.3,47,15.9,71.5
		c0.1,0.6,0.3,1.2,0.4,1.7c-1.5-25.1-6.8-49.8-16.1-73.4c-6.5-16.5-14.7-32-24.4-46.2c-0.1,0-0.2,0.1-0.3,0.1
		C418.4,442.3,426.6,457.7,433.1,474.3z M449.7,552.6c0-1.1-0.1-2.1-0.1-3.2c-0.1-0.6-0.2-1.2-0.4-1.7c0.1,1,0.1,1.9,0.2,2.9
		C449.4,551.2,449.5,551.9,449.7,552.6z M449.4,570.1c0.1,0.4,0.2,0.7,0.2,1.1c0.2-5.5,0.2-11,0.1-16.5c-0.1-0.7-0.2-1.4-0.3-2.1
		C449.6,558.4,449.6,564.2,449.4,570.1z M461.3,668.6c0.2,4.9,0.2,9.8,0.3,14.6c0.1-0.5,0.2-1,0.3-1.6c0-4.6-0.1-9.3-0.3-13.9
		C461.5,668,461.4,668.3,461.3,668.6z M453.8,594.5c1.6,9.6,3,19,4.1,28.4c0-0.9,0-1.7-0.1-2.6c-1.1-9.2-2.5-18.4-4.1-27.8
		C453.7,593.2,453.7,593.8,453.8,594.5z M69,709.2c20.2,34.7,42.7,65.8,66.4,92.5c0.2,0.1,0.3,0.1,0.5,0.2
		C112,775.1,89.3,743.7,69,708.7V709.2z M449.6,572.3c1.4,6.8,2.7,13.5,3.8,20.2c0-0.7-0.1-1.4-0.1-2.2c-1.1-6.4-2.3-12.8-3.7-19.2
		C449.6,571.5,449.6,571.9,449.6,572.3z M461.3,667.7c0.1-0.3,0.2-0.6,0.2-0.9c-0.5-14.3-1.6-28.9-3.4-43.9c0,1,0,1.9,0.1,2.9
		C459.8,640,460.8,654,461.3,667.7z M416.3,461.3c14.6,37,25.5,74,33,109.9c0-0.4,0-0.7,0-1.1c-7.5-35.6-18.4-72.2-32.8-108.9
		c-4.2-10.7-8.6-21.1-13.2-31.3c-0.1,0-0.2,0.1-0.3,0.1C407.7,440.1,412.1,450.6,416.3,461.3z M461.8,681.7c-0.1,0.5-0.2,1-0.3,1.6
		c0,0.6,0,1.1,0,1.7c0.1-0.5,0.2-1.1,0.3-1.6C461.8,682.8,461.8,682.2,461.8,681.7z M449.4,571.2c0.1,0.4,0.1,0.7,0.2,1.1
		c0-0.4,0-0.8,0-1.1c-0.1-0.4-0.2-0.7-0.2-1.1C449.4,570.5,449.4,570.8,449.4,571.2z M458.2,625.8c-0.1-1-0.2-1.9-0.3-2.9
		c0,2,0.1,4,0.1,6c0.2,21.9-1.4,43.4-4.9,64c0.2-0.4,0.3-0.8,0.5-1.2c3.3-20.3,4.9-41.4,4.7-62.8
		C458.2,627.8,458.2,626.8,458.2,625.8z M457.8,620.3c0.1,0.9,0.2,1.8,0.3,2.6c-0.6-25.1-3.5-50.3-8.7-75.4c0,0.6,0.1,1.2,0.1,1.8
		C454.3,572.9,457.1,596.6,457.8,620.3z M446.6,536.2c0.9,3.8,1.7,7.6,2.5,11.4c0-0.6-0.1-1.2-0.1-1.8c-1.7-8.2-3.7-16.4-5.9-24.5
		C444.4,526.3,445.6,531.2,446.6,536.2z M429.3,479.4c-0.4-1-0.8-1.9-1.2-2.9c5.7,14.9,10.7,29.8,14.7,44.8
		C439.3,507.3,434.8,493.3,429.3,479.4z M423.3,464.4c1.8,4,3.5,8,5.1,12c-0.4-1.1-0.8-2.1-1.2-3.2c-6.1-15.4-12.8-30.2-20.3-44.5
		c-0.1,0-0.2,0.1-0.3,0.1C412.6,440.3,418.2,452.1,423.3,464.4z M449.1,547.6c0.1,0.6,0.3,1.2,0.4,1.7c0-0.6-0.1-1.2-0.1-1.8
		c-0.1-0.6-0.2-1.2-0.4-1.7C449.1,546.4,449.1,547,449.1,547.6z M457.9,622.9c0.1,1,0.2,1.9,0.3,2.9c0-1,0-1.9-0.1-2.9
		c-0.1-0.9-0.2-1.7-0.3-2.6C457.8,621.2,457.8,622,457.9,622.9z M453.6,691.7c-0.1,0.4-0.1,0.9-0.2,1.3c3-8,5.7-16.1,8-24.4
		c0-0.3,0-0.6,0-0.9C459.1,675.8,456.5,683.8,453.6,691.7z M406.8,771.3c19.7-22.8,35.2-49,46.1-77c0.1-0.5,0.2-0.9,0.2-1.4
		c-10.6,27.9-25.9,53.9-45.2,76.7C407.5,770.1,407.2,770.7,406.8,771.3z M461.6,667.7c1.5-5.4,2.7-10.8,3.9-16.3
		c0-0.7,0.1-1.3,0.1-2c-1.1,5.8-2.5,11.7-4,17.4C461.6,667.1,461.6,667.4,461.6,667.7z M410.2,428.2c17.2,21.2,31.2,45.2,41.6,71.4
		C471,548.4,475,599.5,466,647.4c0,0.7-0.1,1.4-0.1,2.1c9.5-48.5,5.7-100.4-13.8-149.9c-10.4-26.4-24.6-50.6-42-72
		c-0.1,0-0.1,0-0.2,0.1C410,427.8,410.1,428,410.2,428.2z M410.2,428.2c-0.1-0.2-0.2-0.4-0.3-0.5c0,0,0,0-0.1,0
		C409.9,427.8,410.1,428,410.2,428.2z M465.6,649.4c0,0.7-0.1,1.3-0.1,2c0.1-0.7,0.3-1.3,0.4-2c0-0.7,0.1-1.4,0.1-2.1
		C465.8,648,465.7,648.7,465.6,649.4z M461.5,666.8c-0.1,0.3-0.2,0.6-0.2,0.9c0,0.3,0,0.6,0,0.9c0.1-0.3,0.2-0.6,0.2-0.9
		C461.6,667.4,461.6,667.1,461.5,666.8z M453.1,692.9c-0.1,0.5-0.2,0.9-0.2,1.4c0.2-0.4,0.3-0.9,0.5-1.3c0.1-0.4,0.1-0.9,0.2-1.3
		C453.4,692.1,453.3,692.5,453.1,692.9z M69,766.9v0.3c21.3,14.9,43.8,26.7,66.8,34.9c-0.1-0.1-0.2-0.3-0.4-0.4
		C112.6,793.5,90.2,781.8,69,766.9z M135.9,801.9c-0.2-0.1-0.3-0.1-0.5-0.2c0.1,0.1,0.2,0.3,0.4,0.4c0.2,0.1,0.3,0.1,0.5,0.2
		C136.1,802.1,136,802,135.9,801.9z M449.4,552.6c0-0.7,0-1.4-0.1-2.1c-0.8-4.7-1.7-9.5-2.7-14.2c-1.2-5-2.4-9.9-3.8-14.9
		C445.5,531.7,447.7,542.2,449.4,552.6z M429.6,479.3c-0.4-1-0.8-1.9-1.2-2.9c5.7,14.9,10.7,29.8,14.8,44.9
		C439.5,507.2,435,493.2,429.6,479.3z M406.6,771.1c0.5-0.5,0.9-1.1,1.3-1.6c31.8-49.4,48.1-110.8,45.9-175.1
		c-0.1-0.7-0.2-1.3-0.3-2C456.1,658.2,439.4,720.9,406.6,771.1z M453.3,590.4c0.1,0.7,0.2,1.4,0.4,2.2c-0.5-13.2-1.9-26.6-4-40
		c0,0.7,0,1.4,0.1,2.1C451.6,566.6,452.8,578.5,453.3,590.4z M404.9,429.3c8.8,15,16.6,30.8,23.3,47.2c-0.4-1.1-0.8-2.1-1.2-3.2
		c-1.2-3-2.4-6-3.6-8.9c-5.4-12.1-11.5-23.8-18.1-35.1C405,429.3,404.9,429.3,404.9,429.3z M449.7,554.7c0-0.7,0-1.4-0.1-2.1
		c-0.1-0.7-0.2-1.4-0.4-2.1c0,0.7,0.1,1.4,0.1,2.1C449.5,553.3,449.6,554,449.7,554.7z M453.3,590.4c0,0.7,0.1,1.4,0.1,2.2
		c0.1,0.7,0.2,1.3,0.3,2c0-0.7,0-1.3-0.1-2C453.6,591.8,453.5,591.1,453.3,590.4z M426.9,473.3c0.4,1.1,0.8,2.1,1.2,3.2
		c0.4,1,0.8,1.9,1.2,2.9c5.5,13.9,10,27.9,13.6,41.9c1.4,5,2.6,9.9,3.8,14.9c-1-5-2.2-10-3.5-15c-4.1-15-9-30-14.8-44.9
		c-1.6-4-3.3-8.1-5.1-12C424.5,467.3,425.7,470.3,426.9,473.3z M405.5,772.8c0.4-0.5,0.9-1,1.3-1.5c0.4-0.6,0.8-1.2,1.1-1.8
		c-0.4,0.5-0.9,1.1-1.3,1.6C406.2,771.7,405.9,772.2,405.5,772.8z M385.2,393.1c-0.2-0.4-0.4-0.8-0.6-1.2c-0.4-0.5-0.7-0.9-1.1-1.4
		c0.2,0.4,0.3,0.7,0.5,1.1C384.4,392,384.8,392.5,385.2,393.1z M407.6,424.6c0.4,0.5,0.9,1,1.3,1.6c-6.3-10-13-19.6-20-28.8
		c0.5,0.8,1.1,1.7,1.6,2.5C396.5,407.9,402.2,416.1,407.6,424.6z M69,276.2v0.3c112.6-30.9,235,16.2,314.2,114.1
		c-0.2-0.4-0.3-0.7-0.5-1.1C303.4,292.2,181.3,245.5,69,276.2z M386,394.1c0.9,1.1,1.8,2.3,2.7,3.4c-0.5-0.8-1.1-1.7-1.6-2.5
		c-0.6-0.7-1.1-1.4-1.7-2.1C385.6,393.3,385.8,393.7,386,394.1z M409.6,427.4c-0.3-0.4-0.6-0.7-0.9-1.1c0.2,0.4,0.5,0.8,0.7,1.2
		C409.5,427.5,409.6,427.5,409.6,427.4z M389.1,403c0.9,1,1.8,2.1,2.8,3.1c-0.2-0.3-0.3-0.7-0.5-1c-0.8-1-1.7-1.9-2.6-2.9
		C388.9,402.5,389,402.7,389.1,403z M401.3,417.3c-0.7-0.9-1.4-1.8-2.1-2.7c0.2,0.4,0.4,0.7,0.6,1.1
		C400.3,416.2,400.8,416.8,401.3,417.3z M399,414.8c-0.3-0.5-0.6-1-0.9-1.5c-2-2.5-4-4.9-6.1-7.3c0.2,0.3,0.3,0.7,0.5,1
		C394.8,409.5,396.9,412.1,399,414.8z M69,330.3v0.3c117.1-39.1,239.6-10.9,313.3,65c-0.4-0.5-0.8-1-1.2-1.6
		C307.2,319.2,185.4,291.5,69,330.3z M388.5,402.3c-0.1-0.3-0.2-0.5-0.3-0.8c-1.9-2.1-3.8-4.1-5.7-6.1c0.5,0.6,1,1.3,1.5,1.9
		C385.5,399,387,400.7,388.5,402.3z M408.5,427.8c0.1,0,0.2-0.1,0.3-0.1c-1.8-2.6-3.6-5.2-5.5-7.8c-0.7-0.8-1.5-1.6-2.2-2.5
		C403.6,420.9,406.1,424.3,408.5,427.8z M385.4,392.9c-0.4-0.8-0.9-1.7-1.3-2.5c-0.5-0.8-1.1-1.6-1.6-2.4c0.7,1.3,1.4,2.5,2,3.8
		C384.8,392.2,385.1,392.5,385.4,392.9z M397.1,416.3c-1-2.1-2-4.2-3-6.3c-0.2-0.2-0.4-0.4-0.6-0.6c0.8,1.7,1.6,3.3,2.4,5
		C396.3,415.1,396.7,415.7,397.1,416.3z M372.9,370.1c-10-17.3-20.5-33.7-31.5-49.2c-1.9-2.5-3.7-5-5.7-7.4
		c14.6,19.8,28.4,41.4,41.3,64.4C375.7,375.4,374.3,372.7,372.9,370.1z M403.3,429.6c-1.7-3.9-3.5-7.7-5.3-11.5
		c-0.4-0.6-0.7-1.1-1.1-1.7c2.1,4.4,4.1,8.8,6.1,13.2C403.1,429.6,403.2,429.6,403.3,429.6z M393.7,409.3c-0.4-0.8-0.8-1.5-1.1-2.3
		c-0.2-0.3-0.5-0.6-0.7-0.9c0.4,0.9,0.9,1.7,1.3,2.6C393.3,408.9,393.5,409.1,393.7,409.3z M79.4,180.7c76.2-30,173.8,23.7,252,127
		c1.5,1.8,3,3.7,4.5,5.5C256.9,206.1,157,149.8,79.3,180.4c-3.5,1.4-7,2.9-10.3,4.7v0.3C72.4,183.7,75.8,182.1,79.4,180.7z
		 M381.1,385.5c0.5,0.8,1.1,1.6,1.6,2.4c-1.8-3.3-3.6-6.6-5.4-9.9c1,2,2,3.9,3,5.9C380.6,384.4,380.8,384.9,381.1,385.5z
		 M391.3,405.1c0.2,0.3,0.5,0.6,0.7,0.9c-2-4-4-7.9-6-11.8c-0.3-0.4-0.6-0.7-0.9-1.1C387.3,397,389.3,401,391.3,405.1z M386,394.1
		c-0.2-0.4-0.4-0.8-0.6-1.2c-0.3-0.4-0.6-0.7-0.9-1.1c0.2,0.4,0.4,0.8,0.6,1.2C385.5,393.4,385.7,393.8,386,394.1z M391.8,406.1
		c0.3,0.3,0.5,0.6,0.7,0.9c-0.2-0.3-0.3-0.7-0.5-1c-0.2-0.3-0.5-0.6-0.7-0.9C391.5,405.4,391.7,405.7,391.8,406.1z M381.7,386.9
		c0.3,0.4,0.5,0.8,0.8,1.2c-0.5-0.9-0.9-1.7-1.4-2.6c-0.1-0.1-0.2-0.2-0.2-0.4C381.2,385.7,381.4,386.3,381.7,386.9z M399.1,414.9
		c0-0.1-0.1-0.1-0.1-0.2C399,414.8,399,414.8,399.1,414.9C399.1,414.9,399.1,414.9,399.1,414.9z M406.5,428.5c0.1,0,0.2-0.1,0.3-0.1
		c-2-3.9-4.1-7.8-6.3-11.6c-0.3-0.3-0.6-0.6-0.8-0.9C402,420,404.2,424.2,406.5,428.5z M399.2,414.6c-2.8-5-5.7-9.9-8.7-14.7
		c-0.6-0.8-1.2-1.6-1.8-2.4c3.2,5.2,6.4,10.4,9.4,15.7C398.5,413.7,398.9,414.2,399.2,414.6z M387.1,395c0.6,0.8,1.2,1.6,1.8,2.4
		c-2-3.2-4.1-6.4-6.2-9.6c0.5,0.9,0.9,1.7,1.4,2.6C385.1,392,386.1,393.5,387.1,395z M230.4,255.3c40.5,17.6,79.7,46.3,113.2,83
		c13.4,14.6,25.7,30.3,37,46.9c-0.3-0.6-0.6-1.2-0.9-1.8c-11-16-23-31.2-35.9-45.3c-33.5-36.7-72.7-65.4-113.3-83
		C175,230.9,119.3,227.7,69,245.6v0.3C119.3,228,174.9,231.2,230.4,255.3z M388.7,397.6c0.6,0.8,1.2,1.6,1.8,2.4
		c-0.5-0.8-1.1-1.7-1.6-2.5c-0.6-0.8-1.2-1.6-1.8-2.4C387.6,395.9,388.2,396.7,388.7,397.6z M399.1,414.9c0.2,0.3,0.5,0.5,0.7,0.8
		c-0.2-0.4-0.4-0.7-0.6-1.1c-0.4-0.5-0.7-0.9-1.1-1.4c0.3,0.5,0.6,1,0.9,1.5C399,414.8,399.1,414.9,399.1,414.9z M382.5,388
		c0.5,0.8,1.1,1.6,1.6,2.4c-0.5-0.9-0.9-1.7-1.4-2.6c-0.5-0.8-1.1-1.6-1.6-2.4C381.6,386.3,382,387.2,382.5,388z M401.1,417.5
		c-0.3-0.4-0.6-0.8-0.9-1.2c0.1,0.2,0.2,0.3,0.3,0.5C400.7,417,400.9,417.3,401.1,417.5z M389.9,405.6c0-0.1-0.1-0.2-0.1-0.3
		c-0.1-0.1-0.2-0.2-0.2-0.2C389.7,405.3,389.8,405.5,389.9,405.6z M399.6,415.9c-0.2-0.3-0.4-0.7-0.6-1c-1.7-1.9-3.5-3.7-5.3-5.6
		c0.1,0.3,0.2,0.5,0.4,0.8C395.9,411.9,397.8,413.9,399.6,415.9z M393.5,409.4c-0.1-0.3-0.2-0.5-0.4-0.8c-0.9-0.9-1.9-1.9-2.8-2.8
		c0.1,0.2,0.2,0.4,0.3,0.6C391.6,407.5,392.5,408.5,393.5,409.4z M409.9,427.3c-0.3-0.4-0.6-0.8-0.9-1.2c0.3,0.4,0.5,0.8,0.8,1.2
		C409.8,427.4,409.8,427.4,409.9,427.3z M403.3,419.9c1.9,2.1,3.7,4.2,5.5,6.4c-0.4-0.6-0.7-1.2-1.1-1.7c-2.1-2.5-4.2-4.9-6.3-7.3
		C401.9,418.2,402.6,419.1,403.3,419.9z M111.9,348.1c64-25.2,134.3-23.8,197.9,3.9c30,13,56.8,31.2,79.6,53.4
		c-0.3-0.4-0.6-0.8-0.9-1.2c-22.6-21.8-49.1-39.6-78.6-52.4c-63.7-27.7-134-29.1-198.1-3.9c-15.2,6-29.4,13.2-42.8,21.6v0.3
		C82.3,361.4,96.7,354.1,111.9,348.1z M408.7,426.3c0.3,0.4,0.6,0.7,0.9,1.1c0,0,0.1,0,0.1,0c-0.3-0.4-0.5-0.8-0.8-1.2
		c-0.4-0.5-0.9-1-1.3-1.6C408,425.2,408.4,425.8,408.7,426.3z M400.2,416.3c0.3,0.4,0.6,0.8,0.9,1.2c0.7,0.8,1.5,1.6,2.2,2.5
		c-0.7-0.9-1.3-1.8-2-2.6c-0.5-0.5-1-1.1-1.5-1.6C399.9,415.9,400,416.1,400.2,416.3z M394.1,410c-0.1-0.3-0.2-0.5-0.4-0.8
		c-0.2-0.2-0.4-0.4-0.6-0.6c0.1,0.3,0.2,0.5,0.4,0.8C393.7,409.6,393.9,409.8,394.1,410z M399.6,415.9c0.3,0.3,0.6,0.6,0.8,0.9
		c-0.1-0.2-0.2-0.3-0.3-0.5c-0.3-0.4-0.7-0.9-1-1.3c0,0-0.1-0.1-0.1-0.1C399.2,415.2,399.4,415.5,399.6,415.9z M399.8,415.7
		c-0.2-0.3-0.5-0.5-0.7-0.8c0.3,0.4,0.7,0.9,1,1.3C400,416.1,399.9,415.9,399.8,415.7z M380.9,385.1c-0.2-0.4-0.4-0.8-0.6-1.2
		c-1.1-2-2.2-3.9-3.3-5.9c0.9,1.8,1.8,3.6,2.7,5.4C380.1,384,380.5,384.5,380.9,385.1z M399.6,430.8c0.1,0,0.2-0.1,0.3-0.1
		c-1.8-5.1-3.6-10.2-5.6-15.2c-1-2.5-2-5-3-7.5c-0.3-0.4-0.5-0.8-0.8-1.2c1.2,2.9,2.4,5.8,3.6,8.8
		C396,420.6,397.9,425.7,399.6,430.8z M69,201.8v0.3c91.8-24.9,195.3,21,266.7,111.6c-1.4-2-2.9-3.9-4.4-5.9
		C260,220.9,159,177.4,69,201.8z M372.9,370.1c1.5,2.6,3,5.2,4.5,7.9c-12-23.5-26-45.2-41.5-64.7c1.9,2.5,3.7,5.1,5.6,7.7
		C352.8,336.2,363.4,352.6,372.9,370.1z M382.7,389.6c0.2,0.3,0.5,0.6,0.7,0.9c-0.6-1.2-1.1-2.4-1.7-3.6c-0.4-0.5-0.7-1.1-1.1-1.6
		C381.3,386.7,382,388.1,382.7,389.6z M389.8,405.4c0.2,0.2,0.3,0.3,0.5,0.5c-0.4-1-0.8-1.9-1.2-2.9c-0.2-0.2-0.4-0.4-0.6-0.6
		C389,403.4,389.4,404.4,389.8,405.4z M390.6,406.5c0,0-0.1-0.1-0.1-0.1c0.1,0.1,0.1,0.2,0.2,0.3
		C390.6,406.6,390.6,406.6,390.6,406.5z M388.7,402.2c-1.6-3.6-3.2-7.1-4.8-10.7c-0.2-0.3-0.5-0.6-0.7-0.9c1.7,3.6,3.4,7.3,5,10.9
		C388.4,401.8,388.6,402,388.7,402.2z M383.2,390.6c0.2,0.3,0.5,0.6,0.7,0.9c-0.2-0.4-0.3-0.7-0.5-1.1c-0.2-0.3-0.5-0.6-0.7-0.9
		C382.9,389.9,383,390.3,383.2,390.6z M389.1,403c-0.1-0.3-0.2-0.5-0.3-0.8c-0.2-0.2-0.4-0.4-0.6-0.6c0.1,0.3,0.2,0.5,0.3,0.8
		C388.7,402.6,388.9,402.8,389.1,403z M335.7,313.6c1.9,2.4,3.8,4.9,5.7,7.4c-1.8-2.6-3.7-5.2-5.6-7.7c-1.5-1.9-3-3.7-4.5-5.5
		C332.8,309.7,334.3,311.6,335.7,313.6z M377,378c1.1,2,2.2,3.9,3.3,5.9c-1-2-2-4-3-5.9c-1.5-2.6-3-5.3-4.5-7.9
		C374.3,372.7,375.7,375.4,377,378z M381.7,386.9c-0.3-0.6-0.6-1.2-0.9-1.8c-0.4-0.6-0.8-1.1-1.1-1.7c0.3,0.6,0.6,1.2,0.9,1.8
		C381,385.8,381.4,386.3,381.7,386.9z M389.9,405.6c0.2,0.2,0.4,0.5,0.5,0.7c0,0,0.1,0.1,0.1,0.1c-0.1-0.2-0.2-0.4-0.3-0.6
		c-0.2-0.2-0.3-0.3-0.5-0.5C389.9,405.5,389.9,405.6,389.9,405.6z M404.7,429.1c0.1,0,0.2-0.1,0.3-0.1c-2.5-4.3-5.2-8.5-7.9-12.7
		c0.3,0.6,0.6,1.2,0.8,1.8C400.3,421.7,402.5,425.4,404.7,429.1z M395.9,414.4c-1.7-2.6-3.5-5.2-5.2-7.8c0.2,0.4,0.4,0.9,0.5,1.3
		c1.9,2.8,3.8,5.6,5.7,8.5C396.6,415.8,396.2,415.1,395.9,414.4z M390.1,406c-0.2-0.2-0.5-0.5-0.7-0.7c0.3,0.5,0.7,1,1,1.5
		C390.3,406.5,390.2,406.3,390.1,406z M389.6,405.2c-1.9-2.6-3.8-5.2-5.7-7.8c-0.6-0.6-1.1-1.2-1.7-1.8c2.1,2.8,4.2,5.6,6.3,8.5
		C388.9,404.5,389.2,404.8,389.6,405.2z M257.9,296.3C305.6,317,348,351,381.1,394c0.5,0.5,0.9,0.9,1.4,1.4
		c-33.2-43.8-76.1-78.4-124.5-99.4c-62.4-27.2-129.4-29.6-189-6.9v0.3C128.5,266.7,195.5,269.1,257.9,296.3z M382.2,395.6
		c0.6,0.6,1.1,1.2,1.7,1.8c-0.5-0.6-1-1.3-1.5-1.9c-0.5-0.5-0.9-0.9-1.4-1.4C381.5,394.6,381.9,395.1,382.2,395.6z M396.9,416.4
		c0.4,0.6,0.7,1.1,1.1,1.7c-0.3-0.6-0.6-1.2-0.8-1.8c-0.4-0.6-0.8-1.2-1.2-1.9C396.2,415.1,396.6,415.8,396.9,416.4z M388.5,404.1
		c0.3,0.4,0.6,0.8,0.9,1.2c0.2,0.2,0.5,0.5,0.7,0.7c-0.1-0.1-0.1-0.3-0.2-0.4c-0.1-0.2-0.2-0.3-0.3-0.5
		C389.2,404.8,388.9,404.5,388.5,404.1z M390.4,406.8c0.3,0.4,0.5,0.8,0.8,1.2c-0.2-0.4-0.4-0.9-0.5-1.3c-0.1-0.1-0.1-0.2-0.2-0.3
		c-0.1-0.1-0.2-0.2-0.4-0.4C390.2,406.3,390.3,406.5,390.4,406.8z M390.5,406.4c-0.2-0.3-0.4-0.5-0.5-0.7c0.1,0.1,0.1,0.3,0.2,0.4
		C390.2,406.1,390.3,406.3,390.5,406.4z M400,431c1-0.3,2.1-0.7,3.1-1c0-0.1-0.1-0.2-0.1-0.2c-1,0.3-2.1,0.7-3.1,1
		C399.9,430.8,400,430.9,400,431z M403.3,429.6c0,0.1,0.1,0.2,0.1,0.2c0.5-0.2,1-0.3,1.5-0.5c0-0.1-0.1-0.2-0.1-0.2
		C404.2,429.2,403.7,429.4,403.3,429.6z M69,447.7v0.3c96.5,27,214.7,21.1,330.7-17c0-0.1-0.1-0.2-0.1-0.3
		C283.6,468.9,165.5,474.8,69,447.7z M408.8,427.7c0.1,0.1,0.1,0.2,0.2,0.2c0.2-0.1,0.4-0.1,0.7-0.2c0-0.1-0.1-0.2-0.1-0.2
		C409.2,427.6,409,427.6,408.8,427.7z M406.9,428.6c0.6-0.2,1.2-0.4,1.8-0.6c-0.1-0.1-0.1-0.2-0.2-0.2c-0.6,0.2-1.2,0.4-1.8,0.6
		C406.8,428.5,406.8,428.6,406.9,428.6z M410.1,427.6c0.4-0.1,0.9-0.3,1.3-0.4c-0.1-0.1-0.1-0.1-0.2-0.2c-0.4,0.2-0.9,0.3-1.3,0.4
		C409.9,427.4,410,427.5,410.1,427.6z M405.1,429.2c0.5-0.2,1-0.3,1.5-0.5c0-0.1-0.1-0.2-0.1-0.2c-0.5,0.2-1,0.3-1.5,0.5
		C405,429.1,405.1,429.2,405.1,429.2z M409.6,427.7c0.1,0,0.1,0,0.2-0.1c-0.1-0.1-0.1-0.1-0.2-0.2c-0.1,0-0.1,0-0.2,0.1
		C409.5,427.6,409.6,427.6,409.6,427.7z M408.5,427.8c0.1,0.1,0.1,0.2,0.2,0.2c0.1,0,0.2-0.1,0.3-0.1c-0.1-0.1-0.1-0.2-0.2-0.2
		C408.7,427.7,408.6,427.8,408.5,427.8z M403,429.7c0,0.1,0.1,0.2,0.1,0.2c0.1,0,0.2-0.1,0.3-0.1c0-0.1-0.1-0.2-0.1-0.2
		C403.2,429.6,403.1,429.6,403,429.7z M406.6,428.7c0.1,0,0.2-0.1,0.3-0.1c0-0.1-0.1-0.2-0.1-0.2c-0.1,0-0.2,0.1-0.3,0.1
		C406.5,428.6,406.6,428.7,406.6,428.7z M409.7,427.4c0,0.1,0.1,0.2,0.1,0.2c0.1,0,0.1,0,0.2-0.1c-0.1-0.1-0.1-0.1-0.2-0.2
		C409.8,427.4,409.8,427.4,409.7,427.4z M409.8,427.7C409.8,427.6,409.8,427.6,409.8,427.7c0-0.1,0-0.2-0.1-0.3c0,0-0.1,0-0.1,0
		C409.7,427.5,409.7,427.6,409.8,427.7z M399.6,430.8c0,0.1,0.1,0.2,0.1,0.3c0.1,0,0.2-0.1,0.3-0.1c0-0.1-0.1-0.2-0.1-0.3
		C399.8,430.7,399.7,430.8,399.6,430.8z M404.9,429.3c0.1,0,0.2-0.1,0.3-0.1c0-0.1-0.1-0.2-0.1-0.2c-0.1,0-0.2,0.1-0.3,0.1
		C404.8,429.2,404.8,429.2,404.9,429.3z M891,325v-0.4c-19.7,21-42.6,40.5-68.5,57.6c0.1,0.1,0.1,0.1,0.2,0.2
		C848.4,365.4,871.4,346,891,325z M891-1.3c-8.8-6.5-18.2-12.4-28.1-17.8h-0.6C872.4-13.6,882-7.6,891-0.9V-1.3z M891,370.8
		c-3.5,6.4-7.2,12.7-11.2,18.9c0.2-0.1,0.4-0.3,0.6-0.4c3.7-5.8,7.3-11.8,10.6-17.9V370.8z M891,74.1v-0.6
		c-17.2-32.7-39.7-61.7-66.3-86c-0.1,0.1-0.1,0.1-0.2,0.2C851.3,12.1,873.7,41.2,891,74.1z M891,381.6c-3.5,2.6-7,5.2-10.6,7.7
		c-0.1,0.2-0.2,0.4-0.4,0.6c3.7-2.6,7.4-5.3,11-8V381.6z M891,388c-7.9,7.5-16.1,14.7-24.7,21.5c-0.2,0.3-0.5,0.6-0.7,0.9
		c8.8-7,17.3-14.3,25.4-22V388z M792.4,550.7C712,582.3,622.5,577,540.5,535.6c-50.4-25.5-94.3-62.7-128.9-108.5
		c-0.1,0-0.2,0.1-0.3,0.1c34.6,45.9,78.5,83.2,129,108.7c82.1,41.4,171.6,46.8,252.1,15.1c37.2-14.6,70.4-36.4,98.5-64.1v-0.4
		C862.9,514.2,829.6,536,792.4,550.7z M891,451.3c-12.1-9-23.7-18.9-34.5-29.6c-0.1,0.1-0.1,0.1-0.2,0.2
		c10.9,10.8,22.5,20.7,34.7,29.8V451.3z M417.6,800.3h0.3c8.1-12.8,15.3-26.4,21.5-40.7c10.3-23.7,17.7-48.8,22.2-74.6
		c0-0.6,0-1.1,0-1.7c-4.4,26.4-11.9,52-22.4,76.2C432.9,773.8,425.7,787.4,417.6,800.3z M313.5,800.3h0.5
		c50.5-34,90.3-80.5,113.6-134c13.3-30.7,20.7-62.5,22-94c-0.1-0.4-0.1-0.7-0.2-1.1c-1.2,31.9-8.6,64-22.1,95
		C404,719.7,364.1,766.3,313.5,800.3z M444,800.3c11.8-33.4,17.9-73.2,17.8-117c-0.1,0.5-0.2,1.1-0.3,1.6
		c-0.1,43.1-6.1,82.3-17.8,115.3H444z M414.2,800.3h0.3c6.4-10.4,12.3-21.6,17.4-33.4c9.9-22.7,17.1-47.6,21.4-73.9
		c-0.2,0.4-0.3,0.9-0.5,1.3c-4.4,25.7-11.4,50.1-21.1,72.4C426.6,778.6,420.7,789.8,414.2,800.3z M377,800.3h0.4
		c10.1-8.5,19.5-17.7,28.1-27.5c0.4-0.5,0.7-1.1,1.1-1.6C397.6,781.6,387.7,791.3,377,800.3z M397.4,686.1
		c-23.6,54.2-61.6,93.6-110.1,114.2h0.7c48.3-20.7,86.2-60,109.7-114.1c32.5-74.7,33.2-166.9,2.3-255.2c-0.1,0-0.2,0.1-0.3,0.1
		C430.6,519.3,429.9,611.4,397.4,686.1z M384.8,800.3c8-9.1,15.3-18.8,22-28.9c-0.4,0.5-0.8,1-1.3,1.5c-6.4,9.7-13.4,18.8-21,27.5
		H384.8z M136.2,802.3c-0.1-0.1-0.2-0.3-0.4-0.4c-0.5-0.5-0.9-1.1-1.4-1.6h-3.7c1.7,0.6,3.3,1.3,5,1.8
		C135.9,802.2,136.1,802.2,136.2,802.3z M446,808.3l0.3,0.1L793.8-12.2l-0.3-0.1L446,808.3z M52.7,274.2l0.1,0.3L960,54.1l-0.1-0.3
		L52.7,274.2z M63.5,422.9l0.1,0.3L926.2,24.4l-0.1-0.3L63.5,422.9z M63.4,77.1l617.9,742.2l0.3-0.2L63.7,76.8L63.4,77.1z
		 M83.7,812.4l0.3,0.1l147.4-366.4l-0.3-0.1L83.7,812.4z M75.7,478.3l0,0.3l369.1-47.3l0-0.3L75.7,478.3z M29.8,185.3l941,4.1l0-0.3
		l-941-4.1L29.8,185.3z M-10.9,598.7l0.2,0.3L926.2,8.1L926,7.9L-10.9,598.7z M390.6,802.9l0.3,0.2L904.6-2.7l-0.3-0.2L390.6,802.9z
		 M67.5,705.5l0.2,0.3l853.1-703l-0.2-0.3L67.5,705.5z M228.4,446.1L336.5,799l0.3-0.1L228.7,446L228.4,446.1z M55.4,361L964,527.3
		l0.1-0.3L55.5,360.7L55.4,361z M44.5,609.5l0.2,0.3l320.4-236.6l-0.2-0.3L44.5,609.5z M4,740.6l0.2,0.2l370.4-342.1l-0.2-0.2
		L4,740.6z M114.8,805.6l0.3,0.1l119-342l-0.3-0.1L114.8,805.6z M59.5,305.3l0.1,0.3L964,27.1l-0.1-0.3L59.5,305.3z M59.5,290.4
		l0.1,0.3l997.8-243.4l-0.1-0.3L59.5,290.4z M35.1,312l0.1,0.3L977.6,66.3l-0.1-0.3L35.1,312z M26.9,363.5l0.3,0.2L290.8-17.6
		l-0.3-0.2L26.9,363.5z M213.5-21.6l228.5,242l0.2-0.2l-228.5-242L213.5-21.6z M67.6,31.1l401.5,194.7l0.1-0.3L67.7,30.8L67.6,31.1z
		 M64.9,110.9l432.6,79.8l0.1-0.3L65,110.6L64.9,110.9z M243.2-12.2l250.1,804.8l0.3-0.1L243.5-12.3L243.2-12.2z M317.6,264.8
		l0.3,0.2L515.3-18.9l-0.3-0.2L317.6,264.8z M48.7,158.2l232.5,37.9l0.1-0.3L48.7,157.9L48.7,158.2z M679.9,433.8l0.3,0.1
		L801.9-17.6l-0.3-0.1L679.9,433.8z M694.8,248.8l248.8,267.7l0.2-0.2L695.1,248.5L694.8,248.8z M421.8,581.1l0.1,0.3l536.7-127.1
		l-0.1-0.3L421.8,581.1z M635.3-16.3L903,666.5l0.3-0.1L635.6-16.4L635.3-16.3z"/>
	<path opacity="0.15" fill="#FFFFFF" d="M233.1,449.7c0,2.4-2,4.4-4.4,4.4c-2.4,0-4.4-2-4.4-4.4c0-2.4,2-4.4,4.4-4.4
		C231.2,445.4,233.1,447.3,233.1,449.7z M558.1,538.9c-4,0-7.2,3.2-7.2,7.2c0,4,3.2,7.2,7.2,7.2c4,0,7.2-3.2,7.2-7.2
		C565.3,542.2,562.1,538.9,558.1,538.9z M610.2,455.2c-4,0-7.2,3.2-7.2,7.2c0,4,3.2,7.2,7.2,7.2s7.2-3.2,7.2-7.2
		C617.4,458.4,614.2,455.2,610.2,455.2z M512.1,609.2c-4,0-7.2,3.2-7.2,7.2c0,4,3.2,7.2,7.2,7.2c4,0,7.2-3.2,7.2-7.2
		C519.3,612.5,516.1,609.2,512.1,609.2z M680.8,423.7c-4,0-7.2,3.2-7.2,7.2s3.2,7.2,7.2,7.2c4,0,7.2-3.2,7.2-7.2
		S684.8,423.7,680.8,423.7z M682.5,248.3c-4,0-7.2,3.2-7.2,7.2s3.2,7.2,7.2,7.2s7.2-3.2,7.2-7.2S686.4,248.3,682.5,248.3z M487.8,13
		c-4,0-7.2,3.2-7.2,7.2c0,4,3.2,7.2,7.2,7.2s7.2-3.2,7.2-7.2C495,16.2,491.8,13,487.8,13z M445.4,212.8c0-4-3.2-7.2-7.2-7.2
		c-4,0-7.2,3.2-7.2,7.2c0,4,3.2,7.2,7.2,7.2C442.2,220.1,445.4,216.8,445.4,212.8z M696.8,243.3c-4,0-7.2,3.2-7.2,7.2
		s3.2,7.2,7.2,7.2s7.2-3.2,7.2-7.2S700.8,243.3,696.8,243.3z M419.7,575.9c-4,0-7.2,3.2-7.2,7.2s3.2,7.2,7.2,7.2s7.2-3.2,7.2-7.2
		S423.6,575.9,419.7,575.9z M471.6,563.3c-4,0-7.2,3.2-7.2,7.2s3.2,7.2,7.2,7.2s7.2-3.2,7.2-7.2S475.5,563.3,471.6,563.3z
		 M444.5,407.8c-4,0-7.2,3.2-7.2,7.2c0,4,3.2,7.2,7.2,7.2c4,0,7.2-3.2,7.2-7.2C451.7,411,448.5,407.8,444.5,407.8z M412.1,759.3
		c-4,0-7.2,3.2-7.2,7.2s3.2,7.2,7.2,7.2c4,0,7.2-3.2,7.2-7.2S416,759.3,412.1,759.3z M460.7,684.9c-4,0-7.2,3.2-7.2,7.2
		c0,4,3.2,7.2,7.2,7.2s7.2-3.2,7.2-7.2C467.9,688.2,464.7,684.9,460.7,684.9z M821.7,376.7c-4,0-7.2,3.2-7.2,7.2
		c0,4,3.2,7.2,7.2,7.2s7.2-3.2,7.2-7.2C828.9,379.9,825.7,376.7,821.7,376.7z M840.6,94.1c-4,0-7.2,3.2-7.2,7.2c0,4,3.2,7.2,7.2,7.2
		s7.2-3.2,7.2-7.2C847.9,97.4,844.6,94.1,840.6,94.1z M875.8,36c-4,0-7.2,3.2-7.2,7.2s3.2,7.2,7.2,7.2c4,0,7.2-3.2,7.2-7.2
		S879.8,36,875.8,36z M855.5,414.5c-4,0-7.2,3.2-7.2,7.2c0,4,3.2,7.2,7.2,7.2c4,0,7.2-3.2,7.2-7.2
		C862.7,417.8,859.5,414.5,855.5,414.5z M821.7,449.7c-4,0-7.2,3.2-7.2,7.2c0,4,3.2,7.2,7.2,7.2s7.2-3.2,7.2-7.2
		C828.9,452.9,825.7,449.7,821.7,449.7z M740.3,233.3c0-4-3.2-7.2-7.2-7.2s-7.2,3.2-7.2,7.2s3.2,7.2,7.2,7.2
		S740.3,237.3,740.3,233.3z M779.8,17.1c-4,0-7.2,3.2-7.2,7.2s3.2,7.2,7.2,7.2c4,0,7.2-3.2,7.2-7.2S783.8,17.1,779.8,17.1z
		 M716.3,475.4c-4,0-7.2,3.2-7.2,7.2c0,4,3.2,7.2,7.2,7.2c4,0,7.2-3.2,7.2-7.2C723.5,478.6,720.2,475.4,716.3,475.4z M709.5,506.5
		c-4,0-7.2,3.2-7.2,7.2c0,4,3.2,7.2,7.2,7.2s7.2-3.2,7.2-7.2C716.7,509.7,713.5,506.5,709.5,506.5z M741.4,247.4
		c-4,0-7.2,3.2-7.2,7.2c0,4,3.2,7.2,7.2,7.2s7.2-3.2,7.2-7.2C748.6,250.6,745.4,247.4,741.4,247.4z M767.8,98.5
		c-4,0-7.2,3.2-7.2,7.2c0,4,3.2,7.2,7.2,7.2s7.2-3.2,7.2-7.2C775,101.7,771.8,98.5,767.8,98.5z M412.5,425.8c0-4-3.2-7.2-7.2-7.2
		c-4,0-7.2,3.2-7.2,7.2c0,4,3.2,7.2,7.2,7.2C409.3,433,412.5,429.8,412.5,425.8z M159.5,187c0-4-3.2-7.2-7.2-7.2
		c-4,0-7.2,3.2-7.2,7.2c0,4,3.2,7.2,7.2,7.2C156.2,194.2,159.5,191,159.5,187z M159.6,372c-4,0-7.2,3.2-7.2,7.2c0,4,3.2,7.2,7.2,7.2
		s7.2-3.2,7.2-7.2C166.8,375.2,163.6,372,159.6,372z M183.6,606.5c-4,0-7.2,3.2-7.2,7.2s3.2,7.2,7.2,7.2c4,0,7.2-3.2,7.2-7.2
		S187.6,606.5,183.6,606.5z M102.5,753.9c-4,0-7.2,3.2-7.2,7.2c0,4,3.2,7.2,7.2,7.2c4,0,7.2-3.2,7.2-7.2
		C109.7,757.1,106.4,753.9,102.5,753.9z M202.5,237.4c-4,0-7.2,3.2-7.2,7.2s3.2,7.2,7.2,7.2c4,0,7.2-3.2,7.2-7.2
		S206.5,237.4,202.5,237.4z M711.5,185.3c4,0,7.2-3.2,7.2-7.2c0-4-3.2-7.2-7.2-7.2s-7.2,3.2-7.2,7.2
		C704.3,182.1,707.5,185.3,711.5,185.3z M466.3,230.5c4,0,7.2-3.2,7.2-7.2s-3.2-7.2-7.2-7.2c-4,0-7.2,3.2-7.2,7.2
		S462.4,230.5,466.3,230.5z M211.5,93.5c-4,0-7.2,3.2-7.2,7.2s3.2,7.2,7.2,7.2c4,0,7.2-3.2,7.2-7.2S215.5,93.5,211.5,93.5z
		 M344.5,172.1c4,0,7.2-3.2,7.2-7.2c0-4-3.2-7.2-7.2-7.2s-7.2,3.2-7.2,7.2C337.3,168.9,340.5,172.1,344.5,172.1z M714.5,205.4
		c0,4,3.2,7.2,7.2,7.2c4,0,7.2-3.2,7.2-7.2s-3.2-7.2-7.2-7.2C717.7,198.2,714.5,201.5,714.5,205.4z M408.9,501.5
		c0,4,3.2,7.2,7.2,7.2s7.2-3.2,7.2-7.2c0-4-3.2-7.2-7.2-7.2S408.9,497.5,408.9,501.5z M253.9,26.1c4,0,7.2-3.2,7.2-7.2
		c0-4-3.2-7.2-7.2-7.2c-4,0-7.2,3.2-7.2,7.2C246.7,22.8,249.9,26.1,253.9,26.1z M345.9,286.1c-4,0-7.2,3.2-7.2,7.2
		c0,4,3.2,7.2,7.2,7.2c4,0,7.2-3.2,7.2-7.2C353.1,289.4,349.9,286.1,345.9,286.1z M365.9,432.9c-4,0-7.2,3.2-7.2,7.2
		c0,4,3.2,7.2,7.2,7.2s7.2-3.2,7.2-7.2C373.2,436.1,369.9,432.9,365.9,432.9z M371.5,394.3c-4,0-7.2,3.2-7.2,7.2s3.2,7.2,7.2,7.2
		s7.2-3.2,7.2-7.2S375.5,394.3,371.5,394.3z M330.9,393.6c-4,0-7.2,3.2-7.2,7.2c0,4,3.2,7.2,7.2,7.2s7.2-3.2,7.2-7.2
		C338.1,396.8,334.9,393.6,330.9,393.6z M371.5,134.7c-4,0-7.2,3.2-7.2,7.2c0,4,3.2,7.2,7.2,7.2s7.2-3.2,7.2-7.2
		C378.7,137.9,375.5,134.7,371.5,134.7z M265.1,240.6c0-4-3.2-7.2-7.2-7.2c-4,0-7.2,3.2-7.2,7.2c0,4,3.2,7.2,7.2,7.2
		C261.9,247.8,265.1,244.6,265.1,240.6z M249.6,509c-4,0-7.2,3.2-7.2,7.2c0,4,3.2,7.2,7.2,7.2s7.2-3.2,7.2-7.2
		C256.8,512.2,253.6,509,249.6,509z M236,449.7c0,4-3.2,7.2-7.2,7.2c-4,0-7.2-3.2-7.2-7.2c0-4,3.2-7.2,7.2-7.2
		C232.7,442.5,236,445.8,236,449.7z M233.1,449.7c0-2.4-2-4.4-4.4-4.4c-2.4,0-4.4,2-4.4,4.4c0,2.4,2,4.4,4.4,4.4
		C231.2,454.1,233.1,452.2,233.1,449.7z M279,189.2c-4,0-7.2,3.2-7.2,7.2s3.2,7.2,7.2,7.2s7.2-3.2,7.2-7.2S283,189.2,279,189.2z
		 M328,263.4c0-4-3.2-7.2-7.2-7.2s-7.2,3.2-7.2,7.2c0,4,3.2,7.2,7.2,7.2S328,267.3,328,263.4z M269.6,321.3c-4,0-7.2,3.2-7.2,7.2
		c0,4,3.2,7.2,7.2,7.2c4,0,7.2-3.2,7.2-7.2C276.8,324.5,273.6,321.3,269.6,321.3z"/>
</g>
</svg>
