<?xml version="1.0" encoding="iso-8859-1"?>
<!-- Generator: Adobe Illustrator 12.0.0, SVG Export Plug-In . SVG Version: 6.00 Build 51448)  -->
<!DOCTYPE svg PUBLIC "-//W3C//DTD SVG 1.1 Basic//EN" "http://www.w3.org/Graphics/SVG/1.1/DTD/svg11-basic.dtd" [
	<!ENTITY ns_svg "http://www.w3.org/2000/svg">
	<!ENTITY ns_xlink "http://www.w3.org/1999/xlink">
]>
<svg  version="1.1" baseProfile="basic" id="Ebene_1" xmlns="&ns_svg;" xmlns:xlink="&ns_xlink;" width="1047.473" height="721.596"
	 viewBox="0 0 1047.473 721.596" overflow="visible" enable-background="new 0 0 1047.473 721.596" xml:space="preserve">
<g opacity="0.5">
	<path opacity="0.1126" fill="#FFFFFF" stroke="#FDFFFF" d="M445.22,287.848c0,29.093,22.616,52.653,50.572,52.653
		c27.967,0,50.585-23.561,50.585-52.653c0-29.098-22.618-52.688-50.585-52.688C467.836,235.159,445.22,258.75,445.22,287.848z"/>
	<path opacity="0.1126" fill="#FFFFFF" stroke="#FDFFFF" d="M554.22,404.846c0,26.217,20.381,47.448,45.573,47.448
		c25.202,0,45.584-21.231,45.584-47.448c0-26.222-20.382-47.479-45.584-47.479C574.601,357.366,554.22,378.624,554.22,404.846z"/>
	<path opacity="0.1126" fill="#FFFFFF" stroke="#FDFFFF" d="M568.219,543.844c0,21.039,16.356,38.078,36.573,38.078
		c20.227,0,36.586-17.039,36.586-38.078c0-21.044-16.359-38.105-36.586-38.105C584.575,505.738,568.219,522.8,568.219,543.844z"/>
	<path opacity="0.1126" fill="#FFFFFF" stroke="#FDFFFF" d="M781.22,217.848c0,29.093,22.616,52.653,50.572,52.653
		c27.967,0,50.585-23.561,50.585-52.653c0-29.098-22.618-52.688-50.585-52.688C803.836,165.159,781.22,188.75,781.22,217.848z"/>
	<path opacity="0.1126" fill="#FFFFFF" stroke="#FDFFFF" d="M799.22,435.841c0,16.438,12.778,29.75,28.575,29.75
		c15.803,0,28.582-13.313,28.582-29.75c0-16.442-12.779-29.771-28.582-29.771C811.998,406.069,799.22,419.398,799.22,435.841z"/>
	<path opacity="0.1126" fill="#FFFFFF" stroke="#FDFFFF" d="M622.512,214.546c0,29.093,22.615,52.653,50.572,52.653
		c27.967,0,50.585-23.561,50.585-52.653c0-29.098-22.618-52.688-50.585-52.688C645.127,161.857,622.512,185.448,622.512,214.546z"/>
	<path opacity="0.1126" fill="#FFFFFF" stroke="#FDFFFF" d="M300.22,440.848c0,29.093,22.616,52.653,50.572,52.653
		c27.967,0,50.585-23.561,50.585-52.653c0-29.099-22.618-52.688-50.585-52.688C322.836,388.159,300.22,411.749,300.22,440.848z"/>
	<path opacity="0.1126" fill="#FFFFFF" d="M686.22,313.848c0,29.093,22.616,52.653,50.572,52.653
		c27.967,0,50.585-23.561,50.585-52.653c0-29.098-22.618-52.688-50.585-52.688C708.836,261.159,686.22,284.75,686.22,313.848z"/>
	<path opacity="0.1126" fill="#FFFFFF" d="M740.22,567.848c0,29.093,22.616,52.653,50.572,52.653
		c27.967,0,50.585-23.561,50.585-52.653c0-29.099-22.618-52.688-50.585-52.688C762.836,515.159,740.22,538.749,740.22,567.848z"/>
</g>
<path opacity="0.1" fill="#FFFFFF" d="M3.998,561.354l-3.991,5.07l4.021-5.07h0.034l-4.056,5.07l4.088-5.07H4.13l-4.123,5.07
	l4.145-5.063l0.024-0.012l-4.171,5.072l4.174-5.072h0.034l-4.208,5.072l4.224-5.063l0.021-0.012l-4.245,5.072l4.251-5.072h0.031
	l-4.284,5.072l4.324-5.072h0.037l-4.361,5.072l4.372-5.063l0.04-0.012l-4.413,5.072l4.413-5.063l0.038-0.012l-4.451,5.072
	l4.447-5.063l0.055-0.012l-4.502,5.072l4.518-5.063l0.043-0.012l-4.561,5.072l4.583-5.072h0.04L0,566.427l4.65-5.063l0.043-0.012
	L0,566.427l4.693-5.063l0.042-0.012L0,566.427l4.753-5.063l0.053-0.012L0,566.427l4.813-5.063l0.043-0.012L0,566.427l4.88-5.072
	h0.044L0,566.427l4.992-5.072h0.041L0,566.427l5.09-5.063l0.059-0.012L0,566.427l5.207-5.072h0.046L0,566.427l5.313-5.072h0.048
	L0,566.427l5.705-5.072h0.057L0,566.427l5.782-5.063l0.068-0.012L0,566.427l5.951-5.072H6.02L0,566.427l6.177-5.072H6.24
	l-6.238,5.072l7.158-5.072h0.084l-7.242,5.072l8.395-5.072h0.11l-8.505,5.072l8.68-5.072h0.104l-8.783,5.072l8.926-5.072h0.087
	l-9.013,5.072l9.338-5.072h0.119l-9.455,5.072l3.942-5.072C3.966,561.354,3.985,561.354,3.998,561.354 M479.464,561.354
	L608.073,689.97c6.021-4.036,10.647-1.898,13.893,6.425c-0.146,4.625-3.792,8.332-8.351,8.332c-4.777-0.147-8.53-3.896-8.457-8.437
	c0-1.917,0.63-3.659,1.698-5.047L476.99,561.354C477.812,561.354,478.636,561.354,479.464,561.354 M635.851,561.354
	c0.211,0.76,0.321,1.59,0.311,2.435c-2.421,11.56-16.273,11.485-17.405-0.22c-0.079-0.767,0.09-1.516,0.274-2.224L635.851,561.354
	L635.851,561.354 M686.467,561.354l2.491,2.496c1.063-0.813,2.35-1.281,3.721-1.281c3.44,0,6.096,2.438,6.482,5.479h85.654
	c0.391-3.101,3.026-5.479,6.085-5.479c1.653,0,2.982,0.468,4.046,1.271l2.477-2.48h2.344l-3.632,3.639
	c5.547,7.036-9.603,16.428-11.271,4.748h-85.717c-4.533,7.604-11.813,6.561-12.712-0.942c-0.169-1.41,0.55-2.727,1.354-3.765
	l-3.68-3.678C684.892,561.354,685.682,561.354,686.467,561.354 M888.489,561.354l153.09,153.092
	c2.646-1.471,4.604-0.348,5.896,3.371c0,7.365-10.229,2.496-7.021-2.247L886.048,561.366h2.44V561.354 M130.189,401.11
	L3.998,561.354H3.956l125.07-160.236C129.41,401.114,129.798,401.114,130.189,401.11 M132.474,401.11L4.063,561.354H4.028
	l127.257-160.236C131.682,401.114,132.079,401.114,132.474,401.11 M134.786,401.11L4.15,561.354H4.1l129.475-160.236
	C133.977,401.114,134.383,401.114,134.786,401.11 M136.187,401.11L4.181,561.354H4.152L135.42,401.117
	C135.678,401.114,135.927,401.114,136.187,401.11 M137.477,401.11L4.216,561.364l-0.035-0.012l132.063-160.234
	C136.655,401.114,137.067,401.114,137.477,401.11 M138.605,401.11L4.253,561.364l-0.021-0.012L137.9,401.117
	C138.134,401.114,138.37,401.114,138.605,401.11 M140.001,401.11L4.294,561.354H4.26l134.49-160.236
	C139.164,401.114,139.586,401.114,140.001,401.11 M142.305,401.11L4.369,561.354H4.331l136.704-160.236
	C141.457,401.114,141.883,401.114,142.305,401.11 M144.112,401.11L4.42,561.354H4.38l138.44-160.236
	C143.252,401.114,143.687,401.114,144.112,401.11 M145.487,401.11L4.465,561.354H4.422l139.756-160.236
	C144.609,401.114,145.052,401.114,145.487,401.11 M146.954,401.11L4.509,561.354H4.463L145.63,401.117
	C146.072,401.114,146.511,401.114,146.954,401.11 M148.971,401.11L4.576,561.354H4.525l143.107-160.236
	C148.079,401.114,148.525,401.114,148.971,401.11 M151.021,401.11L4.631,561.354h-0.04L149.673,401.11
	C150.122,401.11,150.571,401.11,151.021,401.11 M153.215,401.11L4.705,561.354H4.659l147.175-160.236
	C152.293,401.114,152.758,401.114,153.215,401.11 M154.746,401.11L4.748,561.354H4.704l148.642-160.236
	C153.815,401.114,154.28,401.114,154.746,401.11 M156.584,401.11L4.791,561.354h-0.04l150.43-160.244
	C155.649,401.11,156.12,401.11,156.584,401.11 M158.596,401.11L4.87,561.354H4.822L157.16,401.117
	C157.641,401.114,158.118,401.114,158.596,401.11 M160.837,401.11L4.934,561.354H4.889l154.509-160.236
	C159.879,401.114,160.354,401.114,160.837,401.11 M164.328,401.11L5.045,561.354H4.999l157.843-160.236
	C163.34,401.114,163.835,401.114,164.328,401.11 M167.953,401.11L5.152,561.364l-0.06-0.012l161.256-160.234
	C166.889,401.114,167.422,401.114,167.953,401.11 M171.437,401.11L5.267,561.354H5.215l164.68-160.236
	C170.411,401.114,170.923,401.114,171.437,401.11 M175.159,401.11L5.374,561.354H5.322l168.173-160.236
	C174.047,401.114,174.609,401.114,175.159,401.11 M188.042,401.11L5.765,561.354H5.712l180.462-160.236
	C186.797,401.114,187.421,401.114,188.042,401.11 M190.994,401.11L5.861,561.354H5.798l183.341-160.236
	C189.757,401.114,190.37,401.114,190.994,401.11 M196.547,401.11L6.031,561.354H5.964l188.563-160.236
	C195.203,401.114,195.874,401.114,196.547,401.11 M203.684,401.11L6.246,561.354H6.183l195.379-160.236
	C202.266,401.114,202.979,401.114,203.684,401.11 M236.382,401.11L7.25,561.354H7.165L233.596,401.11
	C234.527,401.11,235.453,401.11,236.382,401.11 M305.147,401.11l4.171,3.998h225.381c1.81-2.271,4.56-3.758,7.601-3.758
	c2.602,0.01,4.782,0.877,6.471,2.313l2.559-2.562h2.432c-1.33,1.353-2.679,2.686-4.037,4.002h24.187
	c1.762-2.504,3.523-2.504,5.285,0h9.93c0.12-1.44,0.557-2.811,1.24-3.998h17.153c0.846,1.453,1.326,3.187,1.326,5.011
	c-0.011,1.553-0.381,2.995-1.029,4.28h85.991l-7.921-7.916c-1.224,0.977-2.745,1.572-4.388,1.572c-2.548,0-4.699-1.195-5.989-2.979
	l11.714,0.035c-0.048,0.051-0.086,0.101-0.124,0.158l9.127,9.131h9.451c0.366-4.043,3.752-7.09,7.86-7.09
	c19.7,0,2.367,29.988-7.864,8.728h-7.842l9.819,9.836c0.479-0.288,1.041-0.46,1.632-0.46c1.472,0.082,2.752,1.061,3.156,2.414
	H843.15l12.296,12.055h6.129c0.5-4.962,4.686-8.833,9.828-8.833c5.377,0.104,9.81,4.507,9.663,9.909
	c-0.1,5.314-4.365,9.665-9.719,9.665l26.294,0.648c-0.005-2.301,0.607-3.785,1.589-4.938l-41.186-41.204h1.658l40.373,40.365
	c1.161-0.974,2.634-1.543,4.196-1.543c3.761,0.143,6.638,3.139,6.572,6.776l57.894,0.541c0.536-1.433,1.869-2.493,3.439-2.493
	c2.329,0.007,4.095,1.74,4.095,3.862c-2.556,4.959-5.146,5.047-7.778,0.256h-58.028c-0.91,2.583-3.408,4.423-6.284,4.423
	c-2.817-0.104-5.245-1.917-6.16-4.423H871.13c-0.244,2.231-2.094,3.992-4.521,3.992c-2.392-0.133-4.435-2.199-4.375-4.608
	c0-0.915,0.269-1.756,0.736-2.466l-8.188-8.237h-15.162c-3.946,9.065-9.304,11.313-16.077,6.744l-14.565,14.604
	c1.157,1.406,1.848,3.223,1.848,5.192c-5.039,10.286-10.396,10.608-16.065,0.979H682.028c-0.117,0.523-0.332,0.999-0.635,1.407
	l16.606,16.619c0.597-0.352,1.281-0.548,2.005-0.548c1.731,0.032,3.127,1.184,3.58,2.77h58.169c2.518-9.31,13.25,4.694,3.63,4.694
	c-1.813-0.089-3.295-1.347-3.662-3.061h-58.032c-0.074,0.478-0.242,0.919-0.479,1.332l30.582,30.584
	c2.278-1.247,4.183-0.498,5.689,2.229h8.099c2.479-3.985,4.948-3.985,7.43,0h4.698c2.861-4.079,5.396-3.722,7.607,1.094
	c-0.061,0.54-0.211,1.068-0.436,1.548h68.164l31.594-31.569c-0.85-1.087-1.36-2.435-1.36-3.921c0.106-3.527,2.922-6.346,6.487-6.346
	c3.22,0.076,5.809,2.472,6.189,5.598h40.827c2.854-4.408,5.384-4.108,7.568,0.868c-2.288,4.913-4.812,5.13-7.563,0.685h-40.815
	c-2.532,5.49-5.923,6.92-10.164,4.27l-30.438,30.421h9.292c2.846-4.372,5.41-4.063,7.689,0.938c0.012,0.734-0.194,1.416-0.56,2.004
	l34.673,34.681h-2.431l-33.505-33.467c-0.558,0.337-1.214,0.538-1.915,0.538c-2.012-0.011-3.609-1.354-3.995-3.072h-10.871
	l-35.995,35.988h-2.344l36.017-35.988h-67.944c-0.538,0.347-1.132,0.549-1.794,0.549c-0.941-0.007-1.619-0.21-2.202-0.549h-5.19
	l15.531,15.508c1.33-1,2.979-1.595,4.771-1.595c4.698,0.004,8.378,3.604,8.245,8.11c-5.406,10.666-10.801,10.619-16.188-0.143
	c0.021-2.041,0.76-3.879,2-5.275l-16.633-16.605c-0.861-0.077-1.717,0.009-2.555,0.253c-4.496-0.056-9.101-0.399-13.625-0.253
	c-0.547,0.347-1.185,0.549-1.874,0.549c-0.941-0.007-1.6-0.21-2.159-0.549h-9.866c-4.577,7.222-8.764,6.784-12.559-1.305
	c0.05-1.264,0.446-2.443,1.117-3.438l-54.733-54.856h-20.254l13.24,13.245c4.286-2.33,7.493-0.532,9.618,5.396
	c-4.245,8.5-8.475,8.462-12.692-0.103c0.053-1.597,0.717-3.082,1.753-4.192l-14.314-14.335h-17.942l-0.396-0.853v-0.809h16.673
	l-41.17-41.211h-77.424l51.85,51.79c1.727-1.448,3.943-2.325,6.374-2.325c5.215,0.079,9.4,4.077,9.808,9.053h2.327
	c1.831-2.636,3.64-2.636,5.438,0h4.355c2.508-5.991,6.075-8.137,10.688-6.421l10.606-10.558l0.474,1.338
	c0.357,0,0.391,0-9.604,10.01c2.072,1.414,3.421,3.815,3.362,6.5c0,0.959-0.17,1.886-0.475,2.73l76.401,76.355h-2.378
	l-65.351-65.349h-3.258c1.199,1.649,1.885,3.694,1.859,5.88c-2.309,13.151-16.995,13.073-19.795-0.254
	c-0.479-2.312,0.938-4.521,2.387-6.214l-6.188-6.188l1.196-1.198l6.2,6.197c1.742-1.454,3.968-2.341,6.361-2.341
	c2.524,0.031,4.791,0.973,6.512,2.487h3.117l-7.828-7.822c-4.313,4.591-8.634,4.607-12.961,0.07l-11.851,11.86
	c1.229,1.452,1.955,3.31,1.955,5.336c-0.143,4.632-3.756,8.331-8.284,8.331c-4.53-0.011-8.076-3.243-8.438-7.475h-14.607
	l33.969,33.998c0.343-0.188,0.729-0.297,1.144-0.297c1.55,0.019,2.601,0.854,2.945,1.996h1.888
	c0.319-5.119,4.692-9.196,10.032-9.196c5.409,0.148,9.883,4.589,9.736,10.023c-0.045,2.423-0.945,4.625-2.396,6.33l9.438,9.447
	c1.565-1.279,3.572-2.048,5.755-2.048c3.978,0.087,7.246,2.761,8.239,6.391l-16.817,0.017c0.327-1.211,0.918-2.305,1.716-3.252
	l-9.448-9.426c-5.896,4.119-11.113,2.736-15.659-4.145h-97.854l-34.271-33.881c-1.334,0.945-2.957,1.511-4.738,1.511
	c-4.526-0.009-8.046-3.242-8.501-7.472h-15.556l-64.175-63.816H363.4c-0.164,1.157-0.615,2.217-1.283,3.093L479.488,561.39h-2.489
	l-116.13-116.144c-1.084,0.813-2.42,1.291-3.911,1.291c-3.226-0.03-5.808-2.495-6.186-5.615h-1.346
	c-0.344,3.197-3.07,5.615-6.269,5.615c-3.542-0.041-6.486-2.92-6.391-6.425c0-1.454,0.484-2.793,1.299-3.854l-13.345-13.34h-56.582
	L9.467,561.354H9.349l258.047-140.021c18.592,0,37.186,0,55.78,0l-4.796-4.787h-50.238v-0.761L9.019,561.362l-0.086-0.01
	l258.458-146.502c16.426,0,32.856,0,49.29,0l-2.813-2.813h-45.727L8.802,561.354H8.689l258.702-150.947c14.949,0,29.897,0,44.846,0
	l-3.679-3.68h-40.414L8.514,561.354h-0.11l258.987-156.246c13.189,0,26.372,0,39.56,0l-4-3.998
	C303.682,401.11,304.414,401.11,305.147,401.11 M861.593,437.566h-4.424l7.013,7.025c0.211-0.15,0.439-0.274,0.685-0.394
	C862.996,442.559,861.761,440.194,861.593,437.566L861.593,437.566 M464.641,416.551H320.755l4.803,4.789h143.877L464.641,416.551
	L464.641,416.551 M503.865,416.551h-36.837l4.783,4.789h39.162l-3.09-3.092c-0.346,0.183-0.729,0.28-1.105,0.28
	C505.333,418.528,504.204,417.679,503.865,416.551L503.865,416.551 M581.461,412.043h-29.193c-0.354,5.115-4.679,9.114-9.997,9.114
	c-5.048-0.104-9.271-4.141-9.729-9.114H316.243l2.816,2.81h184.852c1.426-4.234,6.667-0.556,5.16,2.23l4.257,4.26h77.43
	L581.461,412.043L581.461,412.043 M533.646,406.737H310.943l3.681,3.682h217.913C532.676,409.104,533.059,407.865,533.646,406.737
	L533.646,406.737 M573.826,406.737h-22.615c0.574,1.129,0.938,2.367,1.056,3.682h27.583l-1.911-1.91
	c-0.4,0.229-0.864,0.36-1.366,0.36C575.242,408.868,574.133,407.974,573.826,406.737L573.826,406.737 M589.133,406.737h-9.916
	l3.001,3.682h7.908C589.57,409.293,589.222,408.044,589.133,406.737L589.133,406.737 M794.807,465.075h7.753H794.807
	L794.807,465.075 M747.646,522.907h-8.114c-0.06,0.279-0.149,0.564-0.258,0.828h8.738
	C747.85,523.477,747.725,523.203,747.646,522.907L747.646,522.907 M759.676,522.907h-4.714c-0.086,0.279-0.153,0.581-0.289,0.828
	h5.302C759.844,523.47,759.74,523.195,759.676,522.907L759.676,522.907 M593.757,486.88l1.766-1.769
	c-0.254-0.656-0.42-1.354-0.506-2.089h-4.383L593.757,486.88L593.757,486.88 M592.741,542.881h2.432l-0.111-0.866h-1.896
	C593.083,542.335,592.935,542.626,592.741,542.881L592.741,542.881 M498.173,542.881h90.063c-0.668-0.978-0.764-1.985-0.277-3.021
	l-35.166-35.161h-85.801c-0.22,1.854-1.006,3.514-2.176,4.796L498.173,542.881L498.173,542.881 M639.154,424.195l36.94,36.953
	c0.651-0.499,1.469-0.788,2.354-0.788c1.758,0.086,3.261,1.354,3.628,3.025h112.668c3.169-7.299,7.521-9.19,13.061-5.674
	l14.658-14.543c-1.446-1.738-2.314-3.983-2.314-6.427c0.11-5.364,4.472-9.693,9.928-9.693c5.013,0.09,9.125,3.924,9.587,8.833
	h13.495l-10.283-10.354H712.429c-1.844,5.188-7.738,0.81-5.924-2.449l-11.047-11.031h-88.646c-5.239,5.143-10.461,5.143-15.67,0
	h-7.308l9.301,9.29h39.199c2.762-4.478,5.283-4.269,7.568,0.648C639.905,422.813,639.621,423.567,639.154,424.195L639.154,424.195
	 M658.762,464.427l54.993,54.844c1.096-0.918,2.521-1.487,4.072-1.487c3.311,0.143,6.101,2.646,6.239,5.947h8.312
	c-0.576-1.271-0.49-2.514,0.256-3.726l-30.525-30.562c-3.118,2.087-7.373-2.152-5.258-5.262l-16.644-16.661
	c-0.499,0.256-1.079,0.402-1.684,0.402c-2.331-0.007-3.951-1.627-3.951-3.766c0.021-0.638,0.194-1.251,0.485-1.778l-37.103-37.141
	c-2.211,1.106-4.051,0.322-5.509-2.362h-37.76l41.191,41.213h22.199L658.762,464.427L658.762,464.427 M473.365,422.893
	l80.035,80.116h16.299c0.383-4.317,3.971-7.582,8.403-7.582c1.933,0.037,3.729,0.733,5.151,1.877l9.295-9.24l-3.354-3.35
	c-0.384,0.187-0.789,0.298-1.248,0.298c-1.386-0.009-2.435-0.82-2.773-1.987h-2.271c-6.806,12.354-13.367,12.065-19.688-0.869
	c0-2.399,0.862-4.59,2.297-6.271l-52.999-52.995L473.365,422.893L473.365,422.893 M435.046,503.01h15.218
	c0.419-4.317,4.082-7.582,8.501-7.582c4.265,0.079,7.833,3.389,8.264,7.582h84.076l-80.116-80.116H327.113l12.154,12.146
	c4.157-2.557,7.538-1.127,10.146,4.287h1.343c4.092-7.356,8.302-7.356,12.626,0h7.616L435.046,503.01L435.046,503.01
	 M180.711,336.959l-50.515,64.165l-1.167-0.007l50.071-64.155C179.639,336.959,180.171,336.959,180.711,336.959 M183.882,336.959
	l-51.409,64.158h-1.188l50.945-64.148C182.783,336.962,183.333,336.959,183.882,336.959 M187.091,336.959l-52.313,64.158h-1.209
	l51.832-64.148C185.973,336.962,186.529,336.959,187.091,336.959 M189.037,336.959l-52.844,64.165l-0.764-0.007l52.555-64.155
	C188.331,336.959,188.684,336.959,189.037,336.959 M190.836,336.959l-53.354,64.158h-1.229l52.873-64.148
	C189.693,336.962,190.266,336.959,190.836,336.959 M192.389,336.959l-53.785,64.158h-0.709l53.521-64.148
	C191.739,336.962,192.064,336.959,192.389,336.959 M194.333,336.959l-54.337,64.158h-1.25l53.833-64.155
	C193.167,336.959,193.749,336.959,194.333,336.959 M197.53,336.959l-55.222,64.158h-1.266l54.73-64.155
	C196.357,336.959,196.943,336.959,197.53,336.959 M200.038,336.959l-55.92,64.158h-1.297l55.426-64.155
	C198.844,336.959,199.444,336.959,200.038,336.959 M201.947,336.959l-56.465,64.158h-1.311l55.967-64.155
	C200.743,336.959,201.344,336.959,201.947,336.959 M203.986,336.959l-57.027,64.158h-1.321l56.519-64.155
	C202.765,336.959,203.374,336.959,203.986,336.959 M206.782,336.959l-57.819,64.158h-1.333l57.29-64.148
	C205.539,336.962,206.166,336.959,206.782,336.959 M209.634,336.959l-58.613,64.158h-1.35l58.08-64.155
	C208.378,336.959,209.007,336.959,209.634,336.959 M212.673,336.959l-59.458,64.158h-1.381l58.929-64.155
	C211.398,336.959,212.036,336.959,212.673,336.959 M214.801,336.959l-60.052,64.158h-1.396l59.518-64.155
	C213.52,336.959,214.161,336.959,214.801,336.959 M217.355,336.959l-60.768,64.158h-1.412l60.236-64.155
	C216.057,336.959,216.71,336.959,217.355,336.959 M220.142,336.959L158.6,401.117h-1.424l61.002-64.155
	C218.835,336.959,219.487,336.959,220.142,336.959 M223.26,336.959l-62.419,64.158h-1.431l61.854-64.155
	C221.93,336.959,222.595,336.959,223.26,336.959 M228.096,336.959l-63.766,64.158h-1.479l63.201-64.155
	C226.733,336.959,227.414,336.959,228.096,336.959 M233.134,336.959l-65.176,64.158h-1.592l64.564-64.155
	C231.667,336.959,232.399,336.959,233.134,336.959 M237.958,336.959l-66.516,64.158h-1.538l65.932-64.155
	C236.542,336.959,237.25,336.959,237.958,336.959 M243.135,336.959l-67.977,64.158H173.5l67.341-64.148
	C241.601,336.962,242.371,336.959,243.135,336.959 M261.018,336.959l-72.976,64.158h-1.865l72.25-64.155
	C259.286,336.959,260.152,336.959,261.018,336.959 M265.12,336.959L191,401.117h-1.867l73.388-64.155
	C263.39,336.959,264.256,336.959,265.12,336.959 M312.4,336.959c-0.644,0.975-1.534,1.75-2.577,2.248h3.458
	c0.066-0.797,0.277-1.546,0.622-2.231l11.184-0.017c0.46,0.844,0.729,1.831,0.716,2.861c-3.896,7.94-8.051,8.296-12.468,1.078
	H268.14l-71.598,60.214h-2.015l72.86-61.913c12.358,0,24.718,0,37.076,0c-1.064-0.502-1.936-1.273-2.565-2.249
	C305.4,336.95,308.897,336.953,312.4,336.959 M503.911,336.959l10.188,10.18h8.558l-10.181-10.18h2.237l10.225,10.18h7.518
	l-10.169-10.18h2.256l10.189,10.18h99.887c2.22-9.303,13.864-1.499,10.017,4.335l1.114,1.11c1.887-1.299,3.811-1.467,5.794-0.505
	l8.433-8.43c-0.187-0.363-0.274-0.771-0.274-1.202c1.64-3.447,3.467-3.723,5.48-0.827h133.453l-4.66-4.664h1.616l4.664,4.664h57.601
	c0.28-1.933,1.333-3.595,2.824-4.646l7.429-0.017c0.119,0.085,0.255,0.169,0.371,0.26l0.25-0.26h2.259l-1.398,1.379
	c0.901,1.129,1.424,2.555,1.424,4.111c-0.082,3.542-2.903,6.566-6.445,6.566c-3.543-0.003-6.261-2.521-6.718-5.702H801.95
	l57.809,57.801h-1.657L811.11,354.09c3.628,7.22-10.783,15.447-12.406,3.9H654.521c-2.59,4.946-5.739,5.917-9.441,2.912
	l-12.563,12.589H773.16c6.188-11.152,12.155-10.852,17.923,0.908c-5.781,11.598-11.753,11.826-17.912,0.688H630.926l-20.829,20.875
	h64.139c5.081-8.895,9.91-8.591,14.483,0.907c-0.061,1.565-0.595,3.047-1.485,4.257l-11.715,0.011
	c-0.741-1.034-1.19-2.231-1.306-3.507h-65.766l-1.96,1.965c0.403,0.471,0.756,0.971,1.05,1.508l-17.148,0.034
	c0.797-1.427,1.954-2.631,3.354-3.507h-34.118c-1.069,1.762-2.375,2.29-3.911,1.579l-1.944,1.928h-2.429l3.155-3.163
	c-1.464-2.809,3.795-6.595,5.146-2.004h48.036l20.873-20.875h-64.12c-0.366,1.684-1.892,2.961-3.729,2.961
	c-2.07-0.07-3.763-1.763-3.645-3.896c0-0.667,0.194-1.29,0.536-1.84l-6.106-6.125c-0.099,0.867,0.174,1.867,0.174,2.918
	c-0.083,3.229-2.543,5.814-5.734,5.814c-3.506-0.012-6.127-2.576-6.127-5.955c0.036-0.996,0.305-1.938,0.767-2.773h-2.793
	c-0.479,3.261-3.258,5.74-6.594,5.74c-3.684-0.104-6.675-3.093-6.675-6.756c0.041-1.479,0.544-2.838,1.354-3.938l-12.41-12.427
	H268.144l-64.46,52.32h-2.113l65.826-53.979c81.463,0,162.928,0,244.396,0l-10.173-10.181h2.299v-0.02 M554.424,336.959
	c-1.331,0.647-2.651,0.646-3.963-0.021C551.781,336.943,553.101,336.95,554.424,336.959 M643.565,336.959
	c-0.461,0.076-0.914,0.067-1.371-0.021C642.651,336.943,643.104,336.95,643.565,336.959 M233.604,401.11l33.797-23.9
	c4.542,0,9.084,0,13.626,0v0.768l24.13,23.129h-2.203l-22.211-22.215h-12.596l-31.763,22.215L233.604,401.11L233.604,401.11
	 M606.014,397.612h-1.754c0.355,0.229,0.692,0.479,1.02,0.754L606.014,397.612L606.014,397.612 M524.315,348.796h-8.558
	l11.232,11.228c1.174-0.979,2.668-1.56,4.283-1.56c3.532,0.102,6.282,2.695,6.545,6.133h2.278L524.315,348.796L524.315,348.796
	 M534.104,348.796h-7.515l15.566,15.504c0.991-0.779,2.229-1.254,3.584-1.254c1.514,0.057,2.866,0.618,3.907,1.559L534.104,348.796
	L534.104,348.796 M634.479,348.796H536.4l15.813,15.792h53.438c0.354-1.396,1.646-2.487,3.18-2.487
	c8.271,0.652,1.048,11.394-3.176,4.076h-51.846l4.938,4.944c0.602-0.396,1.315-0.619,2.093-0.619
	c1.736,0.124,3.232,1.397,3.585,2.989h65.707l13.959-13.97c-0.376-0.753-0.584-1.593-0.56-2.474c0-1.219,0.397-2.346,1.062-3.27
	l-1.084-1.081C639.673,355.283,636.659,353.981,634.479,348.796L634.479,348.796 M808.11,351.092l-7.773-7.772H665.221
	c-1.138,1.888-2.519,2.405-4.144,1.547l-8.179,8.197c0.854,0.854,1.438,1.986,1.623,3.235h144.137
	c0.406-3.316,3.161-5.875,6.561-5.875C806.258,350.421,807.237,350.661,808.11,351.092L808.11,351.092 M179.094,336.959
	l88.295-113.128c90.724,0.021,181.446,0.05,272.171,0.071c7.073-7.059,14.139-14.115,21.21-21.177
	c-0.53-0.75-0.835-1.653-0.835-2.625c2.87-5.708,5.905-5.995,9.1-0.866h26.747l4.69-4.697c-4.174-6.126,8.488-13.564,9.822-3.919
	h64.401c0.411-2.646,2.672-4.65,5.379-4.65c7.419,3.546,6.107,8.527,0.112,10.924c-2.688,1.073-5.146-2.042-5.5-4.683H610.29
	c-0.411,2.604-2.606,4.557-5.34,4.683c-1.258,0-2.432-0.439-3.358-1.178l-5.217,5.212l-9.909,9.918h81.179
	c0.339-2.577,2.59-4.516,5.228-4.616c3.063,0,5.431,2.417,5.589,5.409c0,1.824-0.912,3.434-2.29,4.411
	c3.209,2.278,3.918,4.895,2.121,7.848h14.438c2.16-4.324,4.938-5.462,8.349-3.413l4.537-4.591c-0.711-0.91-1.152-2.044-1.197-3.246
	c0-2.992,2.414-5.334,5.432-5.334c2.939-0.003,5.057,2.021,5.428,4.687h52.183L979.43,0l0.795,0.758L769.016,212.005h33.602
	c4.311-7.732,11.52,3.78,3.037,3.78c-1.45,0.007-2.584-0.926-2.951-2.199H767.43l-3.821,3.822h62.561
	c1.284-7.875,13.158-7.69,13.158,0.868c0,9.448-10.372,8.888-13.203,0.758h-64.137l-22.604,22.594
	c1.033,1.21,1.646,2.78,1.646,4.515c-4.438,8.678-8.932,8.8-13.479,0.36h-18.961l42.341,42.382c2.587-1.514,4.714-0.688,6.393,2.473
	h71.12v1.658h-71.164c-0.351,1.381-1.309,2.516-2.622,3.001l40.949,40.94h-1.617c-30.128-30.149-60.261-60.3-90.392-90.447H573.94
	l6.488,6.486h24.017c2.008-1.194,4.014-1.194,6.02,0h25.064c1.273-6.2,8.899-1.292,6.719,2.627l24.123,24.028
	c2.202-1.238,4.016-0.497,5.433,2.229h19.524c5.183-10.246,14.323,4.766,4.094,4.766c-2.111-0.004-3.653-1.304-4.063-3.073h-19.53
	c-0.398,1.629-1.903,2.884-3.612,2.884c-1.948-0.071-3.644-1.768-3.644-3.751c0.034-0.678,0.256-1.32,0.612-1.877l-23.995-24.028
	c-0.563,0.399-1.24,0.634-1.962,0.634c-1.968-0.006-3.367-1.279-3.707-2.89h-23.508c0.587,0.881,0.93,1.936,0.93,3.063
	c-0.054,1.31-0.494,2.477-1.229,3.393l25.685,25.688c0.608-0.49,1.391-0.775,2.227-0.775c1.694,0.119,3.078,1.23,3.477,2.812h39.174
	c0.418-1.811,1.992-3.102,3.964-3.102c10.598,0.729-2.354,14.604-4.034,4.873h-39.08c-1.377,5.887-8.687,1.239-6.745-2.599
	l-25.863-25.777c-3.521,2.088-6.39,0.921-8.599-3.5h-9.198c0.822,0.98,1.32,2.259,1.294,3.676c0,2.965-2.417,5.413-5.395,5.413
	c-5.418-1.97-6.954-4.886-4.606-8.75l-10.754-0.339c-0.226,1.78-1.813,3.173-3.616,3.173c-1.881-0.063-3.326-1.447-3.587-3.173
	h-27.306l-19.188,19.219c0.223,0.417,0.333,0.888,0.333,1.366c-0.07,1.506-1.287,2.671-2.777,2.671
	c-1.355-0.003-2.331-0.788-2.684-1.877h-6.726c0.245,0.797,0.36,1.644,0.324,2.521c0,0.94-0.16,1.834-0.436,2.672h30.451
	c0.764-0.439,1.645-0.692,2.59-0.692c1.227,0.007,2.12,0.251,2.92,0.692h20.448c0.297-1.541,1.582-2.675,3.207-2.675
	c3.479,1.108,4.583,2.895,3.315,5.341l5.729,5.729c0.482-0.293,1.053-0.466,1.667-0.466c1.777,0.003,3.112,1.083,3.536,2.567h68.734
	c1.335-6.138,9.041-1.146,6.685,2.728l7.813,7.837h22.739c4.013-6.646,11.029-5.292,11.029,0.938c0,2.42-1.688,4.463-3.92,5.153
	h33.65c0.563-4.181,4.092-7.501,8.476-7.501c4.686,0.144,8.436,3.896,8.362,8.548c-0.941,9.618-12.977,11.102-16.871,0.648h-29.267
	c1.9,0.879,3.229,2.827,3.229,5.118c-3.491,6.902-7.177,7.155-11.049,0.757h-57.721l3.829,3.838c0.604-0.42,1.33-0.668,2.103-0.668
	c1.684,0.091,3.172,1.313,3.549,2.92h33.18c3.268-3.897,6.547-3.897,9.832,0h23.728c0.354-2.691,2.692-4.799,5.574-4.799
	c14.719,4.036-2.233,19.201-5.56,6.492h-23.15c0.059,0.329,0.09,0.665,0.09,1.012c-3.482,6.958-7.174,7.197-11.075,0.726h-33.646
	c-0.661,0.626-1.564,1.01-2.509,1.01c-1.024-0.018-1.92-0.392-2.582-1.01h-78.479c-0.212,1.102-0.903,2.08-1.852,2.688l82.997,0.304
	c1.9-7.919,12.539,2.867,4.176,4.509l-1.383,0.026c-1.381-0.299-2.472-1.422-2.793-2.836h-82.877
	c-0.235,1.249-1.006,2.263-2.092,2.829l-3.953,0.013c-2.233-1.778-2.714-3.752-1.438-5.923c-5.922-5.89-11.834-11.784-17.742-17.679
	H510.78l12.352,12.357c1.79-0.719,3.111,0.139,3.96,2.565c0,1.627-1.222,2.813-2.763,2.813c-2.596-0.99-3.393-2.428-2.405-4.318
	l-9.822-9.855c0.304,0.786,0.473,1.641,0.473,2.533c-0.038,0.955-0.261,1.876-0.647,2.711c0.419,0.938,0.721,1.95,0.843,3.017
	l11.791,11.782h-2.258l-9.533-9.536c-0.257,2.006-1.088,3.824-2.317,5.269l4.275,4.271h-2.236l-3.164-3.163
	c-1.688,1.422-6.291,2.273-6.291,2.273l0.898,0.888h-2.301c-3.266-3.265-6.521-6.529-9.788-9.794h-137.53
	c1.838,3.853,0.116,6.704-5.173,8.546c-2.896-0.135-5.219-2.306-5.59-5.013h-6.023c-1.14,1.07-2.677,1.731-4.343,1.731
	c-1.41-0.026-2.674-0.484-3.702-1.229l-4.906,4.897c0.196,0.265,0.371,0.542,0.527,0.834l-11.181,0.028
	c1.044-2.03,3.176-3.448,5.684-3.448c1.438,0.03,2.773,0.558,3.831,1.41l4.264-4.223h-14.854c0.432,0.866,0.661,1.849,0.631,2.885
	c-0.013,1.25-0.414,2.418-1.075,3.401l-10.493-0.021c-0.479-0.768-0.813-1.654-0.945-2.621h-32.811l-3.021,2.621h-2.585l4.859-4.247
	c11.182,0,22.36,0,33.538,0c0.081-0.714,0.279-1.396,0.594-2.021h-33.384l-7.113,6.267l-2.596-0.005l8.964-7.954
	c11.796,0,23.591,0,35.391,0c1.167-1.133,2.752-1.838,4.438-1.838c1.438,0.045,2.759,0.542,3.814,1.359l3.488-3.53
	c-0.824-1.085-1.313-2.442-1.281-3.889c3.963-8.044,8.127-8.313,12.491-0.798c2.455,0.308,4.867,0.176,7.241-0.4
	c6.938,0.028,14.076,0.643,21.078,0.4c-0.073-0.353-0.099-0.715-0.099-1.083c3.555-7.256,7.384-7.494,11.491-0.727h119.021
	c0.622-0.563,1.432-0.909,2.318-0.909c1.177,0.01,2.008,0.347,2.638,0.909h7.344c0.836-0.668,1.792-1.213,2.828-1.591
	c0.595-1.541,1.77-2.828,3.255-3.563H268.144l-25.01,23.605h-2.293l26.556-25.299c79.814,0,159.63,0,239.447,0l-3.735-3.759h-16.973
	c-2.435,1.683-4.87,1.683-7.313,0c0,0,0-0.06-210.666-0.06l-30.191,29.107h-2.122l31.56-30.708c69.98,0,139.962,0,209.942,0
	c-0.564-0.915-0.902-2.004-0.902-3.136l0.051-0.611H268.144l-35.01,34.46h-2.202l36.47-36.224
	c69.855,0.021,139.711,0.051,209.567,0.072c0.183-0.417,0.419-0.812,0.678-1.173l-3.085-3.08h-206.3l-40.166,40.396h-2.039
	l41.333-41.954c68.533,0,137.066,0,205.601,0l-4.188-4.182H268.155l-44.896,46.138h-2l46.134-47.833c66.569,0,133.142,0,199.717,0
	l-2.383-2.378h-196.41l-48.175,50.211h-1.969l49.216-51.767c65.262,0,130.528,0,195.79,0l-1.953-1.945H268.234l-50.879,53.708
	h-1.941l51.977-55.371c68.554,0,137.104,0,205.664,0c0.083-0.563,0.251-1.09,0.493-1.588c0,0,0-0.031-205.399-0.031L214.8,336.961
	h-1.924l54.512-58.757c69.158,0,138.313,0,207.479,0c0.543-0.506,1.182-0.908,1.89-1.188H268.241l-55.565,59.943h-1.912
	l56.634-61.646c56.371,0.021,112.741,0.052,169.115,0.076c-0.843-0.634-1.44-1.578-1.644-2.667H268.326l-58.688,64.24l-1.886-0.003
	l59.641-65.859c55.818,0,111.639,0,167.46,0c0.058-0.375,0.173-0.734,0.328-1.069c-1.188-0.159-2.271-0.638-3.153-1.35H268.307
	l-61.528,68.283h-1.862l62.471-69.935c54.414,0.034,108.833,0.072,163.251,0.105c-0.478-0.752-0.792-1.604-0.919-2.52H268.298
	l-64.315,72.348l-1.828-0.003l65.234-74.045c54.114,0,108.225,0,162.34,0c0.08-0.505,0.197-0.989,0.39-1.441H268.374l-66.429,75.487
	h-1.809l67.255-77.107c54.563,0,109.124,0,163.682,0c0.403-0.472,0.851-0.884,1.361-1.226H268.329l-68.291,78.333l-1.793-0.003
	l69.151-80.028c58.083,0,116.17,0,174.253,0l2.376-2.382H268.48l-70.946,82.412l-1.759-0.004l71.624-83.96
	c59.387,0,118.779,0,178.173,0l3.489-3.497H268.403l-74.067,87.461l-1.749-0.004l74.805-89.114c61.104,0,122.214,0,183.322,0
	l1.333-1.333H268.235l-75.844,90.451l-0.976-0.004l76.306-91.458h0.716l-0.198,1.012l0.623-0.755l184.193-0.256l1.805-1.801H268.396
	l-77.56,93.267h-1.709l78.268-94.955c63.048,0,126.104,0,189.159,0l1.293-1.299H268.333l-79.297,96.254h-1.063l79.738-97.334
	c63.729,0,127.463,0,191.2,0l2.489-2.489H268.485l-81.395,99.823l-1.675-0.003l81.973-101.446c65.142,0,130.282,0,195.426,0
	c-0.233-0.489-0.355-1.039-0.335-1.624c0-0.982,0.392-1.852,0.992-2.491H268.479l-84.593,105.562h-1.651l85.162-107.22
	c74.152,0,148.302,0,222.455,0l4.144-4.144H268.416l-87.704,111.365L179.094,336.959L179.094,336.959 M860.688,336.959
	c1.067-0.735,2.368-1.179,3.769-1.179c1.368,0.041,2.608,0.471,3.654,1.179H860.688L860.688,336.959 M868.74,336.959l11.916-11.776
	l25.491-0.361c5.824-8.944,13.185-4.833,13.185,0.969c0,3.649-3.125,6.563-6.803,6.563c-3.299-0.098-6.063-2.554-6.397-5.842
	h-24.587l-10.562,10.443L868.74,336.959L868.74,336.959 M670.607,216.584c-1.582-0.732-2.72-2.255-2.946-4.108h-82.805l-7.666,7.679
	h91.296C668.688,218.686,669.478,217.417,670.607,216.584L670.607,216.584 M562.479,210.85h21.7l9.921-9.919h-25.021
	c-0.352,2.111-2.146,3.759-4.325,3.759c-1.137-0.003-1.999-0.281-2.725-0.754l-3.327,3.329
	C560.593,207.643,562.104,209.061,562.479,210.85L562.479,210.85 M542.529,226.068h-2.638l0.795,1.838L542.529,226.068
	L542.529,226.068 M490.465,320.168c0.316,1.039,0.208,2.048-0.325,3.035l2.195,2.194h0.785c0.153-1.963,0.876-3.761,2.017-5.229
	H490.465L490.465,320.168 M691.194,312.344c-1.982-0.616-3.434-2.313-3.765-4.437h-21.083l2.191,2.201
	c2.235-1.234,4.082-0.488,5.544,2.234C679.787,312.344,685.489,312.344,691.194,312.344 M667.376,311.285l-3.356-3.371h-42.63
	l10.285,10.313h59.366c0.232-1.834,1.4-3.409,3.039-4.184h-20.028c-2.725,4.012-5.15,3.732-7.285-0.833
	C666.805,312.494,667.024,311.839,667.376,311.285L667.376,311.285 M662.367,306.251l-6.626-6.649
	c-0.563,0.376-1.238,0.593-1.94,0.593c-1.799-0.064-3.194-1.18-3.584-2.813h-34.946c3.087,1.866,3.873,4.119,2.354,6.754
	l2.102,2.113C633.942,306.251,648.155,306.251,662.367,306.251 M542.648,315.714l9.417,9.418c2.501-1.326,4.56-0.441,6.177,2.649
	h77.516c-0.252-0.96-0.136-1.897,0.33-2.812l-5.061-5.049h-67.141c-4.057,6.476-7.769,6.14-11.132-1.01
	c0.068-1.178,0.479-2.273,1.145-3.185l-4.147-4.188c-2.004,1.312-4.05,1.404-6.137,0.295c0.036,0.249,0.046,0.505,0.03,0.767
	C543.641,313.758,543.273,314.833,542.648,315.714L542.648,315.714 M550.819,326.352l-9.372-9.428
	c-0.889,0.647-2.039,1.038-3.24,1.047c11.888,11.945,11.938,11.945,11.938,11.945c0.01-0.484-0.073-0.909-0.073-1.347
	C550.131,327.756,550.394,326.992,550.819,326.352L550.819,326.352 M563.902,318.226h65.432l-10.326-10.313h-14.884
	c-1.969,1.105-3.932,1.105-5.896,0h-34.778c-0.354,2.74-2.679,4.76-5.506,4.76c-3.063-0.071-5.586-2.561-5.586-5.589
	c0.052-1.12,0.397-2.162,0.962-3.026h-2.176c0.584,0.901,0.917,1.981,0.917,3.138c-0.043,1.171-0.452,2.26-1.113,3.152l4.128,4.178
	c0.933-0.707,2.085-1.128,3.298-1.128C561.205,313.394,563.558,315.519,563.902,318.226L563.902,318.226 M562.647,304.054
	c0.416,0.647,0.714,1.394,0.809,2.198h33.109c-0.424-0.65-0.726-1.4-0.829-2.198H562.647L562.647,304.054 M365.448,320.168
	l117.954,0.146L365.448,320.168L365.448,320.168 M356.239,324.003l-1.407,1.397H490.06l-1.044-1.038
	c-2.313,1.286-4.199,0.515-5.661-2.318h-118.49C362.272,325.417,359.4,326.07,356.239,324.003L356.239,324.003 M478.903,240.705
	h-18.653l-1.305,1.298h18.656L478.903,240.705L478.903,240.705 M517.037,240.705H481.28l-1.299,1.298h36.656
	C516.708,241.545,516.85,241.112,517.037,240.705L517.037,240.705 M527.862,240.705h-1.307c0.146,0.305,0.261,0.623,0.342,0.957
	L527.862,240.705L527.862,240.705 M572.92,245.5h129.547l-4.653-4.795h-38.194c-2.805,4.52-5.624,4.52-8.458,0h-60.727
	c-2.452,3.558-4.88,3.558-7.289,0h-15.019L572.92,245.5L572.92,245.5 M558.256,245.5h12.318l-4.796-4.795h-9.104l-1.598,1.598
	L558.256,245.5L558.256,245.5 M551.88,245.5h3.988l-2-1.994L551.88,245.5L551.88,245.5 M540.995,245.5h8.565l3.149-3.151
	l-1.647-1.644h-5.278L540.995,245.5L540.995,245.5 M526.26,245.5h12.396l4.813-4.795h-13.177l-3.433,3.435
	C526.72,244.624,526.521,245.079,526.26,245.5L526.26,245.5 M475.908,243.697h-18.657l-1.804,1.802h18.654L475.908,243.697
	L475.908,243.697 M516.631,243.697h-38.349l-1.798,1.802h40.549C516.911,244.817,516.723,244.27,516.631,243.697L516.631,243.697
	 M312.86,329.002h14.69c-1.158-2.399-0.89-4.722,0.81-6.959h-2.628c-2.59,5.367-5.938,6.736-10.047,4.112L312.86,329.002
	L312.86,329.002 M344.142,327.167h-4.758c-0.104,0.652-0.312,1.271-0.605,1.838h4.762
	C343.634,328.344,343.848,327.729,344.142,327.167L344.142,327.167 M354.628,322.045H337.88c0.81,0.923,1.354,2.078,1.527,3.354
	h6.17c1.021-0.855,2.319-1.37,3.693-1.37c1.282,0.062,2.468,0.51,3.423,1.245l2.426-2.424
	C354.94,322.593,354.772,322.325,354.628,322.045L354.628,322.045 M525.805,307.91h-20.479l3.761,3.75h20.479L525.805,307.91
	L525.805,307.91 M534.865,307.91h-6.606l3.745,3.75C532.816,310.125,533.663,308.789,534.865,307.91L534.865,307.91
	 M526.604,306.251h14.342c0.111-0.797,0.411-1.545,0.83-2.198h-17.371L526.604,306.251L526.604,306.251 M503.67,306.251h20.468
	l-2.211-2.198c-6.82,0.044-13.631,0.044-20.461,0L503.67,306.251L503.67,306.251 M487.602,306.251h13.84l-2.195-2.198h-10.841
	C488.282,304.847,487.997,305.591,487.602,306.251L487.602,306.251 M609.483,302.503h-2.806l0.021,0.792
	c0,1.099-0.32,2.109-0.872,2.956h11.515l-0.916-0.917c-0.755,0.513-1.666,0.807-2.655,0.807
	C611.694,306.052,609.866,304.538,609.483,302.503L609.483,302.503 M491.761,296.553h-14.796l1.857,1.857
	c3.438-2.245,6.485-1.45,9.146,2.396h8.028L491.761,296.553L491.761,296.553 M506.661,296.553h-12.679l4.262,4.253h9.979
	C507.321,299.594,506.757,298.127,506.661,296.553L506.661,296.553 M486.042,290.821h-14.82l4.188,4.183h14.806L486.042,290.821
	L486.042,290.821 M508.286,290.821h-20.03l4.178,4.183h14.253C506.84,293.427,507.408,291.999,508.286,290.821L508.286,290.821
	 M535.404,290.821h-13.999c1.085,1.417,1.729,3.197,1.729,5.125c-0.026,1.812-0.635,3.498-1.641,4.862h29.2l-6.442-6.39
	c-0.938,0.752-2.11,1.201-3.375,1.201C538.012,295.521,535.783,293.448,535.404,290.821L535.404,290.821 M474.656,286.746h-7.516
	l2.396,2.38h14.813l-1.797-1.813c-1,0.751-2.255,1.196-3.626,1.196C477.228,288.514,475.73,287.837,474.656,286.746L474.656,286.746
	 M492.788,286.746h-8.608l2.391,2.38h8.422C494.104,288.489,493.362,287.68,492.788,286.746L492.788,286.746 M536.371,286.746
	h-29.494c-0.57,0.938-1.33,1.747-2.22,2.38h5.352c3.204-2.021,6.428-2.021,9.654,0h15.76
	C535.555,288.248,535.887,287.436,536.371,286.746L536.371,286.746 M564.031,286.746h-18.673c0.689,0.916,1.084,2.054,1.084,3.28
	c-0.037,1.174-0.419,2.261-1.058,3.157l7.621,7.621h43.201c0.898-1.874,2.788-3.138,4.992-3.138c2.205,0.104,4.101,1.33,4.977,3.138
	h3.271c0.272-1.622,1.421-2.927,2.897-3.421h-30.822c-0.345,1.613-1.867,2.812-3.58,2.812c-3.121-1.278-4.083-3.076-2.896-5.399
	l-5.755-5.704C567.131,290.28,565.371,289.502,564.031,286.746L564.031,286.746 M473.01,283.249h-9.374l1.953,1.945h7.979
	C473.277,284.595,473.084,283.939,473.01,283.249L473.01,283.249 M487.279,283.249h-2.351c-0.104,0.692-0.306,1.347-0.609,1.945
	h7.74l-0.228-0.692C490.027,284.515,488.531,284.046,487.279,283.249L487.279,283.249 M484.888,281.591
	c0.173-0.396-0.121-0.821-0.383-1.271C484.68,280.725,484.809,281.154,484.888,281.591L484.888,281.591 M483.472,277.012h-2.323
	c0.7,0.278,1.34,0.684,1.877,1.188C483.578,277.814,483.512,277.417,483.472,277.012L483.472,277.012 M458.148,261.472h-16.271
	c0.294,0.74,0.439,1.541,0.416,2.377c0,1.211-0.347,2.333-0.938,3.278h8.01c1.438-2.793,3.277-3.582,5.513-2.373L458.148,261.472
	L458.148,261.472 M439.94,258.624L439.94,258.624L439.94,258.624z M460.994,258.624h-18.665l-1.235,1.225h18.669L460.994,258.624
	L460.994,258.624 M519.945,258.624h-56.565l-1.237,1.225h57.438C519.658,259.421,519.777,259.007,519.945,258.624L519.945,258.624
	 M536.448,258.624h-7.007c0.252,0.625,0.385,1.312,0.354,2.019c0,2.883-2.309,5.192-5.19,5.192c-2.479-0.067-4.594-1.89-5.008-4.361
	H460.53l-4.521,4.525c1.222,2.479,0.181,4.338-3.114,5.568c-1.759-0.091-3.148-1.245-3.51-2.885h-7.267
	c0.878,0.817,1.412,1.96,1.412,3.21c-0.045,1.418-0.739,2.694-1.795,3.497h41.744c0.429-4.221,4.082-7.466,8.354-7.466
	c10.876,0,13.032,4.146,15.108,10.273h7.494c1.104-1.865,2.45-2.39,4.035-1.572L536.448,258.624L536.448,258.624 M465.069,254.55
	H446.4l-2.377,2.383h18.665L465.069,254.55L465.069,254.55 M529.562,254.55h-62.118l-2.374,2.383h56.046
	c2.134-1.74,4.322-1.907,6.567-0.513L529.562,254.55L529.562,254.55 M540.523,254.55h-8.567l-2.39,2.383h8.578L540.523,254.55
	L540.523,254.55 M564.943,254.55h-22.101l-2.376,2.383h25.751c0.082-0.267,0.207-0.52,0.354-0.755L564.943,254.55L564.943,254.55
	 M568.687,254.55h-1.4C567.756,254.55,568.222,254.55,568.687,254.55 M579.626,254.55h-8.93c1.157,0.337,2.041,1.23,2.417,2.383
	h8.891L579.626,254.55L579.626,254.55 M602.845,254.55h-20.879l2.377,2.383c5.838-0.105,11.677-0.105,17.563,0
	C602.03,256.061,602.363,255.25,602.845,254.55L602.845,254.55 M470.112,249.501h-18.662l-3.5,3.497h18.669L470.112,249.501
	L470.112,249.501 M516.073,249.501h-43.587l-3.494,3.497h49.451C517.21,252.221,516.338,250.957,516.073,249.501L516.073,249.501
	 M473.1,246.51h-18.66l-1.333,1.334h18.66L473.1,246.51L473.1,246.51 M516.449,246.51h-40.979l-1.333,1.334h41.906
	C516.124,247.378,516.264,246.932,516.449,246.51L516.449,246.51 M537.636,246.51h-11.732c0.29,0.655,0.455,1.387,0.455,2.161
	c-0.041,1.815-1.021,3.425-2.46,4.326h7.224L537.636,246.51L537.636,246.51 M548.556,246.51h-8.567l-6.481,6.487h8.564
	L548.556,246.51L548.556,246.51 M556.884,246.51h-6.015l-6.479,6.487h18.998L556.884,246.51L556.884,246.51 M571.587,246.51h-12.32
	l6.484,6.487h12.325L571.587,246.51L571.587,246.51 M706.208,246.51h-1.09l44.355,44.346c0.083-0.253,0.188-0.496,0.318-0.727
	L706.208,246.51L706.208,246.51 M762.059,217.413l3.821-3.822h-16.761c1.407,0.786,2.407,2.171,2.67,3.822
	C755.211,217.413,758.636,217.413,762.059,217.413 M698.232,239.86l5.771,5.641h1.186l-5.927-5.939
	c-0.256,0.152-0.552,0.231-0.835,0.315L698.232,239.86L698.232,239.86 M546.867,239.622h3.114l-1.574-1.554L546.867,239.622
	L546.867,239.622 M482.465,237.136h-14.749c-1.109,0.531-2.22,0.531-3.316,0l-3.078,2.485h18.647L482.465,237.136L482.465,237.136
	 M526.31,237.136h-41.472l-2.489,2.485h35.356c2.206-2.117,4.57-2.441,7.082-0.97L526.31,237.136L526.31,237.136 M531.442,237.136
	h-2.614l-2.487,2.485h2.609L531.442,237.136L531.442,237.136 M547.044,237.136H533.85l-2.483,2.485h13.182L547.044,237.136
	L547.044,237.136 M557.921,237.136H549.9l2.486,2.485h3.047L557.921,237.136L557.921,237.136 M562.212,237.136h-1.982l-2.484,2.485
	h6.956L562.212,237.136L562.212,237.136 M585.298,237.136c-0.808,0-1.616,0-2.418,0c-0.882,0.388-1.563,0.621-2.285,0.621
	c-1.008-0.007-1.713-0.236-2.3-0.621h-13.729l2.487,2.485h15.937c0-0.671,0.172-1.346,0.477-1.907L585.298,237.136L585.298,237.136
	 M651.923,237.136h-62.179c0.415,0.501,0.714,1.104,0.813,1.768h60.576C651.262,238.246,651.543,237.644,651.923,237.136
	L651.923,237.136 M693.863,237.136H658.76c0.563,0.687,0.912,1.551,0.93,2.485h35.952
	C694.729,239.118,694.053,238.205,693.863,237.136L693.863,237.136 M562.933,235.513h13.975c-0.134-0.293-0.228-0.608-0.285-0.938
	h-13.833L562.933,235.513L562.933,235.513 M550.976,235.513h8.569l0.099-0.938h-7.74L550.976,235.513L550.976,235.513
	 M548.277,235.513l1.329-0.938h-2.253L548.277,235.513L548.277,235.513 M535.469,235.513h10.396l-0.938-0.938h-8.521
	L535.469,235.513L535.469,235.513 M530.444,235.513h2.608l0.938-0.938h-2.622L530.444,235.513L530.444,235.513 M486.468,235.513
	h41.479l0.926-0.938h-41.463L486.468,235.513L486.468,235.513 M469.396,235.513h14.691l0.928-0.938h-15.301
	C469.648,234.909,469.547,235.22,469.396,235.513L469.396,235.513 M488.189,231.402h-19.471c0.396,0.417,0.699,0.917,0.879,1.477
	h17.118L488.189,231.402L488.189,231.402 M532.053,231.402h-41.479l-1.479,1.477h41.475L532.053,231.402L532.053,231.402
	 M537.186,231.402h-2.629l-1.479,1.477h2.625L537.186,231.402L537.186,231.402 M541.742,231.402h-2.176l-1.476,1.477h5.133
	L541.742,231.402L541.742,231.402 M552.792,231.402h-8.608l1.475,1.477h5.664L552.792,231.402L552.792,231.402 M556.473,231.402
	h-1.398l-1.477,1.477h4.352L556.473,231.402L556.473,231.402 M563.648,231.402h-4.82l1.469,1.477h1.887L563.648,231.402
	L563.648,231.402 M577.489,231.402h-11.542l-1.477,1.477h12.229C576.849,232.323,577.119,231.823,577.489,231.402L577.489,231.402
	 M728.633,231.402H583.295c1.002,1.313,1.21,2.684,0.622,4.109c36.683,0,73.36,0,110.048,0c2.599-3.628,4.922-3.292,6.959,1.01
	c0.022,0.677-0.151,1.311-0.469,1.842l7.132,7.136h20c0.25-3.519,3.128-6.309,6.686-6.309c1.67,0.049,3.186,0.665,4.357,1.667
	l21.802-21.821h-8.6c-2.124,4.591-4.958,5.811-8.509,3.648l-4.881,4.813c0.599,0.854,0.979,1.877,0.979,2.968
	C736.113,237.49,732.513,237.804,728.633,231.402L728.633,231.402 M700.491,229.746h28.135c2.229-4.576,5.104-5.723,8.646-3.443
	l4.8-4.852c-0.608-0.856-1-1.902-1.045-3.028c0-2.071,1.114-3.884,2.786-4.832h-28.587c-0.466,2.504-2.634,4.361-5.278,4.361
	c-1.283,0.003-2.252-0.313-3.063-0.855l-4.59,4.598c0.677,0.896,1.086,2,1.086,3.182
	C703.452,227.012,702.229,228.823,700.491,229.746L700.491,229.746 M536.217,229.746c9.691,0,19.386,0,29.081,0l4.145-4.144h-8.568
	l-4.446,4.521l-1.974-0.378l-3.312-3.673h-6.255l-3.735,3.806l-2.313-0.13l-0.699-1.933L536.217,229.746L536.217,229.746
	 M492.231,229.746h41.478l3.188-3.178l-40.979-0.5L492.231,229.746L492.231,229.746 M558.615,225.598h-5.59l2.796,2.797
	L558.615,225.598L558.615,225.598 M692.695,225.598h-16.279c-0.771,0.439-1.656,0.707-2.588,0.752c-0.987,0-1.92-0.279-2.729-0.752
	h-99.365l-4.143,4.144h127.863C693.953,228.931,692.898,227.416,692.695,225.598L692.695,225.598 M573.44,223.903h95.9
	c-0.428-0.646-0.734-1.382-0.848-2.164H575.6L573.44,223.903L573.44,223.903 M566.923,223.903h4.219l2.161-2.164h-5.182
	C567.953,222.594,567.531,223.349,566.923,223.903L566.923,223.903 M547.053,223.903h13.273l0.804-0.809
	c-1.428-2.619-0.351-4.595,3.252-5.935c1.835,0.092,3.31,1.302,3.713,2.993h6.801l7.673-7.679h-20.07
	c-1.812,3.74-4.178,4.759-7.096,3.063L547.053,223.903L547.053,223.903 M542.057,223.903h2.646l9.558-9.539
	c-0.379-0.56-0.645-1.208-0.747-1.909L542.057,223.903L542.057,223.903"/>
<path opacity="0.1126" fill="#FFFFFF" stroke="#FDFFFF" d="M884.22,325.841c0,16.438,12.778,29.75,28.575,29.75
	c15.803,0,28.582-13.313,28.582-29.75c0-16.442-12.779-29.771-28.582-29.771C896.998,296.069,884.22,309.398,884.22,325.841z"/>
<path opacity="0.1126" fill="#FFFFFF" stroke="#FDFFFF" d="M685.22,410.841c0,16.438,12.778,29.75,28.575,29.75
	c15.803,0,28.582-13.313,28.582-29.75c0-16.442-12.779-29.771-28.582-29.771C697.998,381.069,685.22,394.398,685.22,410.841z"/>
</svg>
