<?xml version="1.0" encoding="utf-8"?>
<!-- Generator: Adobe Illustrator 12.0.0, SVG Export Plug-In . SVG Version: 6.00 Build 51448)  -->
<!DOCTYPE svg PUBLIC "-//W3C//DTD SVG 1.1//EN" "http://www.w3.org/Graphics/SVG/1.1/DTD/svg11.dtd" [
	<!ENTITY ns_svg "http://www.w3.org/2000/svg">
	<!ENTITY ns_xlink "http://www.w3.org/1999/xlink">
]>
<svg  version="1.1" id="Ebene_1" xmlns="&ns_svg;" xmlns:xlink="&ns_xlink;" width="1109.949" height="642.834"
	 viewBox="0 0 1109.949 642.834" overflow="visible" enable-background="new 0 0 1109.949 642.834" xml:space="preserve">
<g opacity="0.15">
	<polygon opacity="0.5" fill="none" stroke="#FFFFFF" enable-background="new    " points="552.201,136.889 460.676,102.408 
		330.925,114.442 269.613,165.635 358.305,210.845 513.168,193.407 	"/>
	<polygon opacity="0.6" fill="#FFFFFF" stroke="#FFFFFF" enable-background="new    " points="551.155,136.903 459.634,102.422 
		329.876,114.46 268.563,165.653 357.246,210.861 512.13,193.429 	"/>
	<polygon opacity="0.5" fill="none" stroke="#FFFFFF" enable-background="new    " points="818.99,35.127 730.311,13.179 
		632.274,20.915 610.16,52.943 701.083,80.101 812.651,69.745 	"/>
	<polygon opacity="0.5" fill="none" stroke="#FFFFFF" enable-background="new    " points="921.787,99.291 812.651,69.745 
		701.083,80.101 682.045,123.674 795.833,161.595 925.146,147.033 	"/>
	<polygon opacity="0.5" fill="none" stroke="#FFFFFF" enable-background="new    " points="632.274,20.915 556.879,0.505 
		458.759,7.712 423.179,37.419 498.376,62.477 610.16,52.943 	"/>
	<polygon opacity="0.4" fill="#FFFFFF" stroke="#FFFFFF" enable-background="new    " points="358.305,210.845 269.613,165.635 
		115.488,181.314 16.842,249.283 95.328,311.151 286.325,287.085 	"/>
	<polygon opacity="0.4" fill="#FFFFFF" stroke="#FFFFFF" enable-background="new    " points="629.569,243.838 513.168,193.407 
		358.305,210.845 286.325,287.085 399.939,357.431 591.949,329.957 	"/>
	<polygon opacity="0.4" fill="#FFFFFF" stroke="#FFFFFF" enable-background="new    " points="330.925,114.442 258.238,82.958 
		129.054,93.984 49.652,140.549 115.488,181.314 269.613,165.635 	"/>
	<polygon opacity="0.4" fill="#FFFFFF" stroke="#FFFFFF" enable-background="new    " points="701.083,80.101 610.16,52.943 
		498.376,62.477 460.676,102.408 552.201,136.889 682.045,123.674 	"/>
	<polygon opacity="0.4" fill="#FFFFFF" stroke="#FFFFFF" enable-background="new    " points="795.754,161.595 681.975,123.68 
		552.129,136.889 513.083,193.413 629.475,243.844 784.254,224.338 	"/>
	<polygon opacity="0.4" fill="#FFFFFF" stroke="#FFFFFF" enable-background="new    " points="498.376,62.477 423.179,37.419 
		311.552,46.229 258.238,82.958 330.925,114.442 460.676,102.408 	"/>
</g>
<g opacity="0.15">
	<polygon opacity="0.5" fill="none" stroke="#FFFFFF" enable-background="new    " points="602.201,95.889 510.676,61.408 
		380.925,73.442 319.613,124.635 408.305,169.845 563.168,152.407 	"/>
	<polygon opacity="0.6" fill="#FFFFFF" stroke="#FFFFFF" enable-background="new    " points="601.155,95.903 509.634,61.422 
		379.876,73.46 318.563,124.653 407.246,169.861 562.129,152.429 	"/>
	<polygon opacity="0.5" fill="none" stroke="#FFFFFF" enable-background="new    " points="868.99,-5.873 780.311,-27.821 
		682.274,-20.085 660.16,11.943 751.083,39.101 862.651,28.745 	"/>
	<polygon opacity="0.5" fill="none" stroke="#FFFFFF" enable-background="new    " points="971.787,58.291 862.651,28.745 
		751.083,39.101 732.045,82.674 845.833,120.595 975.146,106.033 	"/>
	<polygon opacity="0.5" fill="none" stroke="#FFFFFF" enable-background="new    " points="682.274,-20.085 606.879,-40.495 
		508.759,-33.288 473.179,-3.581 548.376,21.477 660.16,11.943 	"/>
	<polygon opacity="0.4" fill="#FFFFFF" stroke="#FFFFFF" enable-background="new    " points="408.305,169.845 319.613,124.635 
		165.488,140.314 66.842,208.283 145.328,270.151 336.324,246.085 	"/>
	<polygon opacity="0.4" fill="#FFFFFF" stroke="#FFFFFF" enable-background="new    " points="679.569,202.838 563.168,152.407 
		408.305,169.845 336.324,246.085 449.939,316.43 641.949,288.957 	"/>
	<polygon opacity="0.4" fill="#FFFFFF" stroke="#FFFFFF" enable-background="new    " points="380.925,73.442 308.238,41.958 
		179.054,52.984 99.652,99.549 165.488,140.314 319.613,124.635 	"/>
	<polygon opacity="0.4" fill="#FFFFFF" stroke="#FFFFFF" enable-background="new    " points="751.083,39.101 660.16,11.943 
		548.376,21.477 510.676,61.408 602.201,95.889 732.045,82.674 	"/>
	<polygon opacity="0.4" fill="#FFFFFF" stroke="#FFFFFF" enable-background="new    " points="845.754,120.595 731.975,82.68 
		602.129,95.889 563.083,152.413 679.475,202.844 834.254,183.338 	"/>
	<polygon opacity="0.4" fill="#FFFFFF" stroke="#FFFFFF" enable-background="new    " points="548.376,21.477 473.179,-3.581 
		361.552,5.229 308.238,41.958 380.925,73.442 510.676,61.408 	"/>
</g>
<g opacity="0.15">
	<polygon opacity="0.5" fill="none" stroke="#FFFFFF" enable-background="new    " points="637.022,147.353 545.185,112.755 
		414.993,124.829 353.472,176.196 442.466,221.561 597.856,204.063 	"/>
	<polygon opacity="0.6" fill="#FFFFFF" stroke="#FFFFFF" enable-background="new    " points="635.971,147.367 544.138,112.769 
		413.941,124.847 352.419,176.214 441.404,221.576 596.813,204.085 	"/>
	<polygon opacity="0.5" fill="none" stroke="#FFFFFF" enable-background="new    " points="904.718,45.245 815.737,23.222 
		717.365,30.984 695.178,63.122 786.41,90.372 898.357,79.98 	"/>
	<polygon opacity="0.5" fill="none" stroke="#FFFFFF" enable-background="new    " points="1007.865,109.627 898.357,79.98 
		786.41,90.372 767.307,134.094 881.483,172.143 1011.233,157.532 	"/>
	<polygon opacity="0.5" fill="none" stroke="#FFFFFF" enable-background="new    " points="717.365,30.984 641.716,10.505 
		543.261,17.736 507.56,47.544 583.012,72.688 695.178,63.122 	"/>
	<polygon opacity="0.4" fill="#FFFFFF" stroke="#FFFFFF" enable-background="new    " points="442.466,221.561 353.472,176.196 
		198.823,191.929 99.842,260.129 178.595,322.208 370.241,298.06 	"/>
	<polygon opacity="0.4" fill="#FFFFFF" stroke="#FFFFFF" enable-background="new    " points="714.652,254.665 597.856,204.063 
		442.466,221.561 370.241,298.06 484.241,368.645 676.906,341.077 	"/>
	<polygon opacity="0.4" fill="#FFFFFF" stroke="#FFFFFF" enable-background="new    " points="414.993,124.829 342.058,93.238 
		212.435,104.302 132.763,151.025 198.823,191.929 353.472,176.196 	"/>
	<polygon opacity="0.4" fill="#FFFFFF" stroke="#FFFFFF" enable-background="new    " points="786.41,90.372 695.178,63.122 
		583.012,72.688 545.185,112.755 637.022,147.353 767.307,134.094 	"/>
	<polygon opacity="0.4" fill="#FFFFFF" stroke="#FFFFFF" enable-background="new    " points="881.403,172.143 767.237,134.099 
		636.948,147.353 597.771,204.069 714.558,254.671 869.864,235.099 	"/>
	<polygon opacity="0.4" fill="#FFFFFF" stroke="#FFFFFF" enable-background="new    " points="583.012,72.688 507.56,47.544 
		395.554,56.384 342.058,93.238 414.993,124.829 545.185,112.755 	"/>
</g>
</svg>
