<?xml version="1.0" encoding="iso-8859-1"?>
<!-- Generator: Adobe Illustrator 12.0.0, SVG Export Plug-In . SVG Version: 6.00 Build 51448)  -->
<!DOCTYPE svg PUBLIC "-//W3C//DTD SVG 1.1//EN" "http://www.w3.org/Graphics/SVG/1.1/DTD/svg11.dtd" [
	<!ENTITY ns_svg "http://www.w3.org/2000/svg">
	<!ENTITY ns_xlink "http://www.w3.org/1999/xlink">
]>
<svg  version="1.1" id="Ebene_1" xmlns="&ns_svg;" xmlns:xlink="&ns_xlink;" width="1109.95" height="642.833"
	 viewBox="0 0 1109.95 642.833" style="overflow:visible;enable-background:new 0 0 1109.95 642.833;" xml:space="preserve">
<g style="opacity:0.2;">
	<polygon style="opacity:0.5;fill:none;stroke:#F9EC9C;enable-background:new    ;" points="771.422,445.772 613.142,365.083 
		421.132,392.558 334.47,518.072 492.072,642.298 744.504,592.774 	"/>
	<polygon style="opacity:0.5;fill:none;stroke:#F9EC9C;enable-background:new    ;" points="573.394,172.015 481.869,137.535 
		352.118,149.569 290.806,200.761 379.498,245.971 534.362,228.533 	"/>
	<polygon style="fill:none;stroke:#F9EC9C;" points="573.348,172.029 481.827,137.549 352.07,149.587 290.755,200.78 
		379.439,245.987 534.323,228.555 	"/>
	<polygon style="opacity:0.5;fill:none;stroke:#F9EC9C;enable-background:new    ;" points="840.184,70.253 751.503,48.306 
		653.467,56.042 631.353,88.069 722.275,115.227 833.843,104.872 	"/>
	<polygon style="opacity:0.5;fill:none;stroke:#F9EC9C;enable-background:new    ;" points="942.98,134.417 833.843,104.872 
		722.275,115.227 703.238,158.801 817.026,196.722 946.339,182.159 	"/>
	<polygon style="opacity:0.5;fill:none;stroke:#F9EC9C;enable-background:new    ;" points="1086.58,224.058 946.339,182.159 
		817.026,196.722 805.533,259.46 955.792,316.067 1109.291,294.109 	"/>
	<polygon style="opacity:0.5;fill:none;stroke:#F9EC9C;enable-background:new    ;" points="653.467,56.042 578.072,35.632 
		479.952,42.839 444.372,72.546 519.569,97.604 631.353,88.069 	"/>
	<polygon style="opacity:0.5;fill:none;stroke:#F9EC9C;enable-background:new    ;" points="955.792,316.067 805.533,259.46 
		650.767,278.965 613.142,365.083 771.422,445.772 962.711,414.123 	"/>
	<polygon style="fill:none;stroke:#F9EC9C;" points="379.498,245.971 290.806,200.761 136.681,216.44 38.035,284.409 
		116.521,346.278 307.518,322.211 	"/>
	<polygon style="fill:none;stroke:#F9EC9C;" points="650.767,278.965 534.362,228.533 379.498,245.971 307.518,322.211 
		421.132,392.558 613.142,365.083 	"/>
	<polygon style="fill:none;stroke:#F9EC9C;" points="352.118,149.569 279.431,118.085 150.247,129.11 70.845,175.676 
		136.681,216.44 290.806,200.761 	"/>
	<polygon style="fill:none;stroke:#F9EC9C;" points="722.275,115.227 631.353,88.069 519.569,97.604 481.869,137.535 
		573.394,172.015 703.238,158.801 	"/>
	<polygon style="fill:none;stroke:#F9EC9C;" points="816.946,196.722 703.168,158.807 573.321,172.015 534.276,228.539 
		650.672,278.969 805.449,259.465 	"/>
	<polygon style="fill:none;stroke:#F9EC9C;" points="519.569,97.604 444.372,72.546 332.745,81.356 279.431,118.085 
		352.118,149.569 481.869,137.535 	"/>
</g>
<g style="opacity:0.4;">
	<polygon style="opacity:0.5;fill:none;stroke:#F9EC9C;enable-background:new    ;" points="734.229,410.645 575.949,329.957 
		383.939,357.43 297.277,482.945 454.878,607.171 707.311,557.647 	"/>
	<polygon style="opacity:0.5;fill:none;stroke:#F9EC9C;enable-background:new    ;" points="536.202,136.889 444.676,102.408 
		314.925,114.442 253.613,165.635 342.305,210.845 497.168,193.407 	"/>
	<polygon style="fill:#F6E473;stroke:#F9EC9C;" points="536.155,136.903 444.634,102.422 314.876,114.46 253.563,165.653 
		342.247,210.861 497.13,193.429 	"/>
	<polygon style="opacity:0.5;fill:none;stroke:#F9EC9C;enable-background:new    ;" points="802.99,35.127 714.311,13.179 
		616.273,20.915 594.16,52.943 685.082,80.101 796.65,69.745 	"/>
	<polygon style="opacity:0.5;fill:none;stroke:#F9EC9C;enable-background:new    ;" points="905.787,99.291 796.65,69.745 
		685.082,80.101 666.046,123.674 779.834,161.595 909.145,147.033 	"/>
	<polygon style="opacity:0.5;fill:none;stroke:#F9EC9C;enable-background:new    ;" points="1049.388,188.931 909.145,147.033 
		779.834,161.595 768.34,224.334 918.6,280.94 1072.099,258.982 	"/>
	<polygon style="opacity:0.5;fill:none;stroke:#F9EC9C;enable-background:new    ;" points="616.273,20.915 540.879,0.505 
		442.759,7.712 407.179,37.419 482.376,62.477 594.16,52.943 	"/>
	<polygon style="opacity:0.5;fill:none;stroke:#F9EC9C;enable-background:new    ;" points="918.6,280.94 768.34,224.334 
		613.569,243.838 575.949,329.957 734.229,410.645 925.518,378.996 	"/>
	<polygon style="fill:#F9D736;stroke:#F9EC9C;" points="342.305,210.845 253.613,165.635 99.488,181.314 0.842,249.283 
		79.328,311.151 270.325,287.085 	"/>
	<polygon style="fill:#F9D736;stroke:#F9EC9C;" points="613.569,243.838 497.168,193.407 342.305,210.845 270.325,287.085 
		383.939,357.43 575.949,329.957 	"/>
	<polygon style="fill:#F9D736;stroke:#F9EC9C;" points="314.925,114.442 242.238,82.958 113.054,93.984 33.652,140.549 
		99.488,181.314 253.613,165.635 	"/>
	<polygon style="fill:#F9D736;stroke:#F9EC9C;" points="685.082,80.101 594.16,52.943 482.376,62.477 444.676,102.408 
		536.202,136.889 666.046,123.674 	"/>
	<polygon style="fill:#F9D736;stroke:#F9EC9C;" points="779.754,161.595 665.976,123.68 536.129,136.889 497.083,193.413 
		613.476,243.843 768.255,224.338 	"/>
	<polygon style="fill:#F9D736;stroke:#F9EC9C;" points="482.376,62.477 407.179,37.419 295.552,46.229 242.238,82.958 
		314.925,114.442 444.676,102.408 	"/>
</g>
</svg>
