<?xml version="1.0" encoding="iso-8859-1"?>
<!-- Generator: Adobe Illustrator 12.0.0, SVG Export Plug-In . SVG Version: 6.00 Build 51448)  -->
<!DOCTYPE svg PUBLIC "-//W3C//DTD SVG 1.1 Basic//EN" "http://www.w3.org/Graphics/SVG/1.1/DTD/svg11-basic.dtd" [
	<!ENTITY ns_svg "http://www.w3.org/2000/svg">
	<!ENTITY ns_xlink "http://www.w3.org/1999/xlink">
]>
<svg  version="1.1" baseProfile="basic" id="Ebene_1" xmlns="&ns_svg;" xmlns:xlink="&ns_xlink;" width="1109.949" height="642.834"
	 viewBox="0 0 1109.949 642.834" overflow="visible" enable-background="new 0 0 1109.949 642.834" xml:space="preserve">
<g opacity="0.15">
	<polygon opacity="0.5" fill="none" stroke="#FFFFFF" points="552.201,136.889 460.677,102.408 330.926,114.442 269.613,165.635 
		358.305,210.845 513.169,193.407 	"/>
	<polygon opacity="0.6" fill="#FFFFFF" stroke="#FFFFFF" points="551.155,136.903 459.635,102.422 329.877,114.46 268.563,165.653 
		357.246,210.861 512.131,193.429 	"/>
	<polygon opacity="0.5" fill="none" stroke="#FFFFFF" points="632.274,20.915 556.88,0.505 458.76,7.712 423.179,37.419 
		498.377,62.477 610.16,52.943 	"/>
	<polygon opacity="0.4" fill="#FFFFFF" stroke="#FFFFFF" points="358.305,210.845 269.613,165.635 115.488,181.314 16.842,249.283 
		95.328,311.151 286.325,287.085 	"/>
	<polygon opacity="0.4" fill="#FFFFFF" stroke="#FFFFFF" points="629.569,243.838 513.169,193.407 358.305,210.845 286.325,287.085 
		399.939,357.431 591.949,329.957 	"/>
	<polygon opacity="0.4" fill="#FFFFFF" stroke="#FFFFFF" points="330.926,114.442 258.238,82.958 129.054,93.984 49.652,140.549 
		115.488,181.314 269.613,165.635 	"/>
	<polygon opacity="0.4" fill="#FFFFFF" stroke="#FFFFFF" points="701.084,80.101 610.16,52.943 498.377,62.477 460.677,102.408 
		552.201,136.889 682.046,123.674 	"/>
	<polygon opacity="0.4" fill="#FFFFFF" stroke="#FFFFFF" points="795.755,161.595 681.975,123.68 552.13,136.889 513.084,193.413 
		629.475,243.844 784.255,224.338 	"/>
	<polygon opacity="0.4" fill="#FFFFFF" stroke="#FFFFFF" points="498.377,62.477 423.179,37.419 311.552,46.229 258.238,82.958 
		330.926,114.442 460.677,102.408 	"/>
</g>
<g opacity="0.15">
	<polygon opacity="0.5" fill="none" stroke="#FFFFFF" points="602.201,95.889 510.677,61.408 380.926,73.442 319.613,124.635 
		408.305,169.845 563.169,152.407 	"/>
	<polygon opacity="0.6" fill="#FFFFFF" stroke="#FFFFFF" points="601.155,95.903 509.635,61.422 379.877,73.46 318.563,124.653 
		407.246,169.861 562.13,152.429 	"/>
	<polygon opacity="0.5" fill="none" stroke="#FFFFFF" points="682.274,-20.085 606.88,-40.495 508.76,-33.288 473.179,-3.581 
		548.377,21.477 660.16,11.943 	"/>
	<polygon opacity="0.4" fill="#FFFFFF" stroke="#FFFFFF" points="408.305,169.845 319.613,124.635 165.488,140.314 66.842,208.283 
		145.328,270.151 336.324,246.085 	"/>
	<polygon opacity="0.4" fill="#FFFFFF" stroke="#FFFFFF" points="679.569,202.838 563.169,152.407 408.305,169.845 336.324,246.085 
		449.939,316.43 641.949,288.957 	"/>
	<polygon opacity="0.4" fill="#FFFFFF" stroke="#FFFFFF" points="380.926,73.442 308.238,41.958 179.054,52.984 99.652,99.549 
		165.488,140.314 319.613,124.635 	"/>
	<polygon opacity="0.4" fill="#FFFFFF" stroke="#FFFFFF" points="751.084,39.101 660.16,11.943 548.377,21.477 510.677,61.408 
		602.201,95.889 732.046,82.674 	"/>
	<polygon opacity="0.4" fill="#FFFFFF" stroke="#FFFFFF" points="845.755,120.595 731.975,82.68 602.13,95.889 563.084,152.413 
		679.475,202.844 834.255,183.338 	"/>
	<polygon opacity="0.4" fill="#FFFFFF" stroke="#FFFFFF" points="548.377,21.477 473.179,-3.581 361.552,5.229 308.238,41.958 
		380.926,73.442 510.677,61.408 	"/>
</g>
<g opacity="0.15">
	<polygon opacity="0.5" fill="none" stroke="#FFFFFF" points="637.022,147.353 545.185,112.755 414.993,124.829 353.472,176.196 
		442.467,221.561 597.856,204.063 	"/>
	<polygon opacity="0.6" fill="#FFFFFF" stroke="#FFFFFF" points="635.971,147.367 544.138,112.769 413.941,124.847 352.42,176.214 
		441.404,221.576 596.813,204.085 	"/>
	<polygon opacity="0.5" fill="none" stroke="#FFFFFF" points="717.365,30.984 641.717,10.505 543.261,17.736 507.56,47.544 
		583.012,72.688 695.178,63.122 	"/>
	<polygon opacity="0.4" fill="#FFFFFF" stroke="#FFFFFF" points="442.467,221.561 353.472,176.196 198.823,191.929 99.842,260.129 
		178.595,322.208 370.241,298.06 	"/>
	<polygon opacity="0.4" fill="#FFFFFF" stroke="#FFFFFF" points="714.652,254.665 597.856,204.063 442.467,221.561 370.241,298.06 
		484.241,368.646 676.906,341.077 	"/>
	<polygon opacity="0.4" fill="#FFFFFF" stroke="#FFFFFF" points="414.993,124.829 342.058,93.238 212.435,104.302 132.763,151.025 
		198.823,191.929 353.472,176.196 	"/>
	<polygon opacity="0.4" fill="#FFFFFF" stroke="#FFFFFF" points="786.41,90.372 695.178,63.122 583.012,72.688 545.185,112.755 
		637.022,147.353 767.307,134.094 	"/>
	<polygon opacity="0.4" fill="#FFFFFF" stroke="#FFFFFF" points="881.403,172.143 767.237,134.099 636.948,147.353 597.771,204.069 
		714.558,254.671 869.864,235.099 	"/>
	<polygon opacity="0.4" fill="#FFFFFF" stroke="#FFFFFF" points="583.012,72.688 507.56,47.544 395.554,56.384 342.058,93.238 
		414.993,124.829 545.185,112.755 	"/>
</g>
</svg>
