<?xml version="1.0" encoding="utf-8"?>
<!-- Generator: Adobe Illustrator 12.0.0, SVG Export Plug-In . SVG Version: 6.00 Build 51448)  -->
<!DOCTYPE svg PUBLIC "-//W3C//DTD SVG 1.1//EN" "http://www.w3.org/Graphics/SVG/1.1/DTD/svg11.dtd" [
	<!ENTITY ns_svg "http://www.w3.org/2000/svg">
	<!ENTITY ns_xlink "http://www.w3.org/1999/xlink">
]>
<svg  version="1.1" id="Ebene_1" xmlns="&ns_svg;" xmlns:xlink="&ns_xlink;" width="255.781" height="310.288"
	 viewBox="0 0 255.781 310.288" overflow="visible" enable-background="new 0 0 255.781 310.288" xml:space="preserve">
<g>
	<path fill="#616161" d="M164.148,173.494V99.93c1.018-3.893,2.995-7.357,6.011-10.368c3.507-3.422,7.49-5.573,11.911-6.471
		c0.154,1.139,0.24,2.305,0.258,3.495v2.685v84.231c-3.294,3.479-6.191,4.898-8.669,4.982
		C170.842,178.564,167.754,177.266,164.148,173.494z"/>
	<path fill="#616161" d="M68.543,177.446l0,104.603c-7.088,7.323-14.271,7.323-21.619,0V180.712h-3.331v100.416
		c-7.348,7.454-14.532,7.454-21.618,0V111.54h-2.939v63.514c-6.302,7.332-12.605,7.332-19.037,0v-68.911v-1.289v-0.269
		c0.147-6.417,2.317-11.936,6.825-16.45c4.735-4.613,10.417-6.94,16.833-6.94h0.767h42.771c-0.27,1.65-0.421,3.35-0.449,5.098v1.829
		v87.413C67.341,176.205,67.94,176.843,68.543,177.446z"/>
	<path fill="#616161" d="M73.163,173.662V111.54h-0.416V88.121l0-1.756c0.027-1.669,0.185-3.276,0.472-4.824
		c4.675,0.985,8.648,3.104,12.045,6.593c2.293,2.248,4.052,4.746,5.255,7.479v77.644C84.576,179.737,79.319,179.924,73.163,173.662z
		"/>
	<path fill="#616161" d="M64.298,52.908c0,5.265-1.927,9.893-5.78,13.764c-3.755,3.723-8.36,5.649-13.912,5.649
		c-5.257,0-9.895-1.926-13.617-5.649c-3.723-3.871-5.649-8.499-5.649-13.764c0-5.267,1.926-9.895,5.649-13.896
		c3.722-3.724,8.36-5.65,13.617-5.65c5.552,0,10.157,1.926,13.912,5.65C62.371,43.013,64.298,47.641,64.298,52.908z"/>
	<path fill="#616161" d="M255.781,106.013v0.254v2.073v68.379c-6.417,7.34-12.834,7.34-19.266,0v-63.767h-4.638v170.5
		c-7.085,7.332-14.27,7.332-21.602,0V182.14h-3.347v100.416c-7.315,7.454-14.531,7.454-21.585,0V178.923
		c1.052-0.995,2.042-2.056,2.984-3.122V89.271v-2.685c-0.019-1.351-0.111-2.678-0.276-3.979h43.174h0.652h2.71
		c5.502,0.767,10.157,2.956,14.009,6.955C253.235,94.061,255.667,99.572,255.781,106.013z"/>
	<path fill="#616161" d="M221.853,40.434c3.854,3.982,5.78,8.612,5.78,13.894c0,5.267-1.926,9.895-5.78,13.765
		c-3.722,3.705-8.36,5.648-13.879,5.648c-5.29,0-9.91-1.943-13.649-5.648c-3.722-3.871-5.65-8.499-5.65-13.765
		c0-5.282,1.928-9.911,5.65-13.894c3.74-3.732,8.359-5.649,13.649-5.649C213.493,34.784,218.131,36.702,221.853,40.434z"/>
</g>
<g>
	<path fill="#616161" d="M142.529,6.901c4.781,4.766,7.172,10.417,7.172,16.944c0,6.417-2.391,12.042-7.172,16.809
		c-4.639,4.654-10.297,6.926-16.927,6.926c-6.408,0-11.939-2.272-16.578-6.926c-4.653-4.766-6.917-10.392-6.917-16.809
		c0-6.527,2.264-12.178,6.917-16.944C113.662,2.248,119.193,0,125.602,0C132.231,0,137.89,2.248,142.529,6.901z"/>
	<path fill="#616161" d="M158.085,58.362v0.265c5.546,0.613,10.425,2.494,14.569,5.889c0.893,0.638,1.753,1.371,2.646,2.256
		c5.643,5.643,8.543,12.306,8.654,20.204v0.263v2.621v83.367c-3.76,4.255-7.539,6.527-11.3,6.654
		c-4.144,0.119-8.161-2.009-12.305-6.654V95.399h-5.515v208.11c-8.672,9.038-17.438,9.038-26.365,0V179.88h-4.144v122.633
		c-8.894,9.038-17.693,9.038-26.363,0V95.399h-3.635v77.562c-7.65,8.91-15.302,8.91-23.206,0V88.736v-1.498v-0.263
		c0.127-7.898,2.997-14.561,8.415-20.204c5.897-5.651,12.656-8.409,20.434-8.409h1.02h52.968h0.876H158.085z"/>
</g>
</svg>
