<?xml version="1.0" encoding="iso-8859-1"?>
<!-- Generator: Adobe Illustrator 12.0.0, SVG Export Plug-In . SVG Version: 6.00 Build 51448)  -->
<!DOCTYPE svg PUBLIC "-//W3C//DTD SVG 1.1//EN" "http://www.w3.org/Graphics/SVG/1.1/DTD/svg11.dtd" [
	<!ENTITY ns_svg "http://www.w3.org/2000/svg">
	<!ENTITY ns_xlink "http://www.w3.org/1999/xlink">
]>
<svg  version="1.1" id="Ebene_1" xmlns="&ns_svg;" xmlns:xlink="&ns_xlink;" width="465.145" height="331.223"
	 viewBox="0 0 465.145 331.223" style="overflow:visible;enable-background:new 0 0 465.145 331.223;" xml:space="preserve">
<rect x="0.205" y="0.039" style="display:none;fill:#FFCC00;" width="465.999" height="333"/>
<g>
	<ellipse style="opacity:0.2;fill:#000102;enable-background:new    ;" cx="243.354" cy="309.026" rx="191.724" ry="9.585"/>
	<path style="fill:#333333;" d="M426.606,1.113H60.103c-4.658,0-8.47,4.263-8.47,8.919v218.723h383.395V10.031
		C435.026,5.373,431.266,1.113,426.606,1.113z"/>
	
		<linearGradient id="XMLID_7_" gradientUnits="userSpaceOnUse" x1="243.3167" y1="112.3704" x2="243.3166" y2="313.9744" gradientTransform="matrix(1 0 0 -1 0.0376 330.2173)">
		<stop  offset="0.0056" style="stop-color:#C4C4C4"/>
		<stop  offset="0.0962" style="stop-color:#D8D8D8"/>
		<stop  offset="0.2113" style="stop-color:#EAEAEA"/>
		<stop  offset="0.3516" style="stop-color:#F6F6F6"/>
		<stop  offset="0.5416" style="stop-color:#FDFDFD"/>
		<stop  offset="1" style="stop-color:#FFFFFF"/>
	</linearGradient>
	<rect x="65.752" y="16.243" style="fill:url(#XMLID_7_);" width="355.204" height="201.604"/>
	<circle style="fill:#707070;" cx="243.354" cy="8.806" r="2.681"/>
	<path style="fill:#CCCCCC;" d="M308.056,305.523c-1.453-1.128-13.559-0.955-14.405-1.907c-0.598-0.672-11.541-40.659-11.541-40.659
		h-38.754H204.6c0,0-10.944,39.987-11.542,40.659c-0.847,0.952-12.954,0.777-14.406,1.907c-1.244,0.966-1.371,3.503-1.371,3.503
		h66.072h66.069C309.426,309.026,309.301,306.489,308.056,305.523z"/>
	<path style="opacity:0.8;fill:#9B9B9B;enable-background:new    ;" d="M284.596,271.99c-1.451-5.251-2.486-9.032-2.486-9.032
		h-38.754H204.6c0,0-1.036,3.781-2.483,9.032H284.596z"/>
	<path style="fill:#E6E6E6;" d="M51.607,228.753v26.538c0,4.661,3.813,8.471,8.472,8.471h366.501c4.66,0,8.473-3.813,8.473-8.471
		v-26.538H51.607L51.607,228.753z"/>
</g>
<g>
	<g>
		<path style="fill:#FFCC00;" d="M236.813,97.556c-5.467,4.621-17.66,12.077-24.888,12.077c-3.022,0-7.214-9.15-8.295-11.75h-0.387
			c-1.041,2.204-1.229,11.984-1.367,14.372c-0.585,10.193-1.184,20.438-1.546,30.615c-0.348,9.731,1.695,20.243,1.695,30.177
			c0,5.622,2.151,10.872,2.829,16.28c0.377,3.01-14.356,5.23-16.602,5.676c-10.94,2.161-22.716,2.373-33.796,2.315
			c-4.846-0.023-35.443-4.175-35.443-9.688c0-8.177,4.809-16.79,4.809-25.44c0-26.472,3.578-38.293-0.109-63.317
			c-5.613,1.392-4.975,11.043-10.002,11.043c-8.486,0-17.63-8.358-24.112-13.082c0.222-2.73,12.989-28.213,15.176-31.856
			c13.407-22.324,27.09-16.176,35.776-24.125c0.84-0.769,1.213-1.556,2.148-2.153c0.137-0.868,0.561-1.712,1.278-2.53
			c13.208-2.718,23.294-3.141,31.478-1.271c1.123,0.184,2.101,0.403,2.895,0.662c0.385,0.127,0.707,0.332,0.994,0.583l-0.232-0.07
			l0.292,0.316l0.02-0.177c0.828,0.759,1.375,1.885,2.342,2.52c10.068,6.599,23.901,6.912,32.632,15.517
			C219.643,59.416,233.028,89.308,236.813,97.556z"/>
		<g>
			<g>
				<path id="XMLID_39_" style="fill:#544A2A;" d="M179.234,38.085l-0.012,0.113c-13.144,15.024-22.718,15.231-34.284,0.621
					C158.351,37.139,169.993,36.477,179.234,38.085z"/>
			</g>
		</g>
	</g>
	<g>
		<g>
			<path style="fill:#543704;" d="M150.248,107.038l1.026-0.284l-0.568-2.679l0.686-0.188c-3.112-8.646-3.302-17.281-0.458-25.699
				l-1.938-0.398c3.35-12.711,14.009-17.042,24.378-15.436c-3.071-1.595-6.45-2.479-9.999-2.479
				c-14.121,0-25.567,13.977-25.567,31.216c0,12.253,5.785,22.851,14.199,27.961c-0.061-2.055,0.05-3.993,0.352-5.8
				C151.026,111.721,150.323,109.649,150.248,107.038z M151.731,78.247l-0.057,0.57c0.501,0.021,0.844,0.192,1.026,0.513
				c-3.165,6.928-3.683,14.852-0.913,24.402l0.399-0.043c-1.149-3.084-1.511-6.514-1.225-10.391
				c0.162,3.854,0.631,7.453,1.609,10.362c0.557-0.071,1.125-0.159,1.709-0.262c-1.243-3.806-1.685-7.54-1.152-10.472h0.371
				c-0.454,3.045,0.023,6.787,1.266,10.385c4.486-0.842,9.663-2.569,14.755-5.339c-2.01-4.384-1.383-8.165,1.88-11.346
				C167.51,82.358,160.897,79.701,151.731,78.247z M154.04,79.501c0.173-0.115,0.328-0.06,0.47,0.17
				c-0.719,1.645-1.611,4.188-2.679,7.626C152.604,83.573,153.34,80.975,154.04,79.501z M154.567,93.385
				c-0.013-0.358,0.054-0.618,0.199-0.784c0.249,0.026,0.479,0.124,0.692,0.292c0.378,0.186,0.75,0.262,1.12,0.236
				c0.193,0.029,0.389,0.089,0.584,0.178c0.241,0.106,0.407,0.242,0.499,0.406c-1.145-0.086-2.056-0.272-2.737-0.557
				c-0.05,0.058-0.063,0.135-0.035,0.235c0.014,0.061-0.012,0.117-0.078,0.171C154.673,93.53,154.592,93.47,154.567,93.385z
				 M157.74,94.475c-0.019,0.218-0.107,0.406-0.265,0.563c-0.192-0.024-0.296-0.108-0.313-0.25
				c-0.027-0.195,0.022-0.346,0.149-0.449C157.509,94.264,157.652,94.308,157.74,94.475z M156.764,95.073l-0.735,0.051l-0.74,0.021
				c-0.188-0.085-0.272-0.203-0.258-0.356c-0.12-0.337-0.129-0.597-0.021-0.776c0.549,0.184,1.167,0.252,1.854,0.207
				C157.003,94.471,156.971,94.756,156.764,95.073z M160.378,99.685l-0.301-0.344c0.634-0.555,1.203-1.137,1.714-1.742l-0.601-0.574
				c-0.198,0.113-0.43,0.182-0.671,0.192c-1.077,0.058-1.632-0.639-1.632-1.568c0-0.929,0.847-1.682,1.632-1.682
				c0.783,0,1.419,0.753,1.419,1.682c0,0.082-0.006,0.161-0.017,0.237c0.297,0.32,0.558,0.492,0.78,0.514
				c2.774-4.063,3.011-8.921,0.712-13.212c-0.991-0.7-3.543-1.547-3.543-1.547c-0.161-0.083-0.335-0.093-0.529-0.032l0.115,0.885
				c0.593-0.061,1.105,0.025,1.54,0.256l0.711,0.684c0.037,0.421,0.283,0.697,0.741,0.828c-0.844,0.791-1.491,1.249-1.938,1.369
				c-0.189-0.101-0.255-0.329-0.199-0.686c0.154-0.3-0.293-0.509-1.339-0.628l-1.767-0.884l-1.198,0.03l-0.313,0.312
				c0.204,0.604,0.48,1.052,0.826,1.342l0.855,0.456l-0.17,0.94c0.441,0.604,0.991,0.64,1.65,0.113
				c-0.184-0.342-0.938-0.071-0.71-0.57c0.339-0.15,0.833-0.188,1.481-0.115c0.764,0.563,1.428,0.647,1.996,0.259
				c0.715-0.004,1.456,0.108,2.224,0.342c0.097,0.429,0.049,0.8-0.143,1.11c-1.375,1.43-2.961,2.446-4.762,3.051l-0.97-0.114
				c-0.153,0.083-0.201,0.224-0.142,0.427c0.24,0.998,1.153,2.139,1.282,3.251c-0.805,1.262-0.777,2.195,0.085,2.792l-0.398,0.172
				c-0.363,1.112-1.408,2.194-3.136,3.249c-0.419-0.477-0.686-1.112-0.798-1.908c0.267-0.673,0.542-1.091,0.826-1.256l0.456,0.259
				c0.221-0.991,1.313-0.942,1.141-1.455c-0.863,0.137-1.519,0.365-1.969,0.685c-0.16-0.167-0.235-0.443-0.228-0.827
				c0.046-0.242,0.161-0.432,0.344-0.571l1.682,0.059l1.367-0.371c0.191-0.125,0.287-0.344,0.285-0.655l-0.169-0.941
				c-0.811-0.755-1.468-1.787-1.967-3.094l-0.628,0.385c-0.278,0.097-0.544,0.097-0.798,0l-1.398-0.599l-1.196,0.084
				c-0.266-0.498-0.266-1.049,0-1.652l3.249-3.733l-0.313-1.598c-0.004-0.397,0.395-1.311,1.196-2.737
				c0.896-0.056,1.987,0.333,3.236,0.764c0,0,2.644,0.739,3.782,1.563C166.996,88.856,165.366,95.312,160.378,99.685z
				 M159.948,93.098c-0.073-0.222-0.467-0.97-0.235-0.712c0.176,0.194,0.379,0.313,0.471,0.521c0.115,0.15,0.164,0.319,0.15,0.506
				c0.022,0.273-0.071,0.402-0.284,0.385C159.87,93.552,160.025,93.332,159.948,93.098z M158.909,85.438
				c-0.42-0.148-0.649-0.285-0.692-0.407l-0.706-0.397c-0.13-0.198-0.102-0.343,0.085-0.436c0.246,0.08,0.355,0.235,0.329,0.464
				c0.299,0.057,0.627,0.238,0.984,0.547C158.994,85.287,158.994,85.362,158.909,85.438z M180.67,68.108
				c-4.104,4.083-7.673,9.238-10.694,15.499l3.193,3.649c-4.163,3.458-4.791,8.04-1.083,12.43
				c-6.415,3.677-13.245,5.715-20.583,7.069l-0.285,0.513c0.282,2.103,0.682,3.508,1.198,4.219l2.223,1.141
				c-0.545,2.542-0.908,4.965-1.11,7.281c3.031,1.545,6.356,2.401,9.847,2.401c14.121,0,25.566-13.976,25.566-31.217
				C188.942,81.998,185.754,73.813,180.67,68.108z M171.687,94.268c-0.266-2.929,0.533-4.553,2.396-4.875l0.198,0.456
				C172.583,90.321,171.718,91.794,171.687,94.268z"/>
		</g>
	</g>
</g>
<g>
	<g style="opacity:0.3;">
		<line style="fill:none;stroke:#D8D8D8;stroke-width:0.5;" x1="261.082" y1="42.112" x2="261.082" y2="191.778"/>
		<line style="fill:none;stroke:#D8D8D8;stroke-width:0.5;" x1="270.437" y1="42.112" x2="270.437" y2="191.778"/>
		<line style="fill:none;stroke:#D8D8D8;stroke-width:0.5;" x1="279.791" y1="42.112" x2="279.791" y2="191.778"/>
		<line style="fill:none;stroke:#D8D8D8;stroke-width:0.5;" x1="289.145" y1="42.112" x2="289.145" y2="191.778"/>
		<line style="fill:none;stroke:#D8D8D8;stroke-width:0.5;" x1="298.499" y1="42.112" x2="298.499" y2="191.778"/>
		<line style="fill:none;stroke:#D8D8D8;stroke-width:0.5;" x1="307.853" y1="42.112" x2="307.853" y2="191.778"/>
		<line style="fill:none;stroke:#D8D8D8;stroke-width:0.5;" x1="317.206" y1="42.112" x2="317.206" y2="191.778"/>
		<line style="fill:none;stroke:#D8D8D8;stroke-width:0.5;" x1="326.562" y1="42.112" x2="326.562" y2="191.778"/>
		<line style="fill:none;stroke:#D8D8D8;stroke-width:0.5;" x1="335.914" y1="42.112" x2="335.914" y2="191.778"/>
		<line style="fill:none;stroke:#D8D8D8;stroke-width:0.5;" x1="345.27" y1="42.112" x2="345.27" y2="191.778"/>
		<line style="fill:none;stroke:#D8D8D8;stroke-width:0.5;" x1="354.623" y1="42.112" x2="354.623" y2="191.778"/>
		<line style="fill:none;stroke:#D8D8D8;stroke-width:0.5;" x1="363.978" y1="42.112" x2="363.978" y2="191.778"/>
		<line style="fill:none;stroke:#D8D8D8;stroke-width:0.5;" x1="373.331" y1="42.112" x2="373.331" y2="191.778"/>
		<line style="fill:none;stroke:#D8D8D8;stroke-width:0.5;" x1="382.686" y1="42.112" x2="382.686" y2="191.778"/>
		<line style="fill:none;stroke:#D8D8D8;stroke-width:0.5;" x1="392.039" y1="42.112" x2="392.039" y2="191.778"/>
		<line style="fill:none;stroke:#D8D8D8;stroke-width:0.5;" x1="401.395" y1="42.112" x2="401.395" y2="191.778"/>
		<line style="fill:none;stroke:#D8D8D8;stroke-width:0.5;" x1="256.405" y1="46.789" x2="406.071" y2="46.789"/>
		<line style="fill:none;stroke:#D8D8D8;stroke-width:0.5;" x1="256.405" y1="56.143" x2="406.071" y2="56.143"/>
		<line style="fill:none;stroke:#D8D8D8;stroke-width:0.5;" x1="256.405" y1="65.497" x2="406.071" y2="65.497"/>
		<line style="fill:none;stroke:#D8D8D8;stroke-width:0.5;" x1="256.405" y1="74.851" x2="406.071" y2="74.851"/>
		<line style="fill:none;stroke:#D8D8D8;stroke-width:0.5;" x1="256.405" y1="84.206" x2="406.071" y2="84.206"/>
		<line style="fill:none;stroke:#D8D8D8;stroke-width:0.5;" x1="256.405" y1="93.56" x2="406.071" y2="93.56"/>
		<line style="fill:none;stroke:#D8D8D8;stroke-width:0.5;" x1="256.405" y1="102.914" x2="406.071" y2="102.914"/>
		<line style="fill:none;stroke:#D8D8D8;stroke-width:0.5;" x1="256.405" y1="112.268" x2="406.071" y2="112.268"/>
		<line style="fill:none;stroke:#D8D8D8;stroke-width:0.5;" x1="256.405" y1="121.622" x2="406.071" y2="121.622"/>
		<line style="fill:none;stroke:#D8D8D8;stroke-width:0.5;" x1="256.405" y1="130.976" x2="406.071" y2="130.976"/>
		<line style="fill:none;stroke:#D8D8D8;stroke-width:0.5;" x1="256.405" y1="140.331" x2="406.071" y2="140.331"/>
		<line style="fill:none;stroke:#D8D8D8;stroke-width:0.5;" x1="256.405" y1="149.684" x2="406.071" y2="149.684"/>
		<line style="fill:none;stroke:#D8D8D8;stroke-width:0.5;" x1="256.405" y1="159.039" x2="406.071" y2="159.039"/>
		<line style="fill:none;stroke:#D8D8D8;stroke-width:0.5;" x1="256.405" y1="168.393" x2="406.071" y2="168.393"/>
		<line style="fill:none;stroke:#D8D8D8;stroke-width:0.5;" x1="256.405" y1="177.746" x2="406.071" y2="177.746"/>
		<line style="fill:none;stroke:#D8D8D8;stroke-width:0.5;" x1="256.405" y1="187.102" x2="406.071" y2="187.102"/>
	</g>
	<g>
		<line style="fill:none;stroke:#D8D8D8;stroke-width:0.5;" x1="265.76" y1="42.112" x2="265.76" y2="191.778"/>
		<line style="fill:none;stroke:#D8D8D8;stroke-width:0.5;" x1="275.113" y1="42.112" x2="275.113" y2="191.778"/>
		<line style="fill:none;stroke:#D8D8D8;stroke-width:0.5;" x1="284.468" y1="42.112" x2="284.468" y2="191.778"/>
		<line style="fill:none;stroke:#D8D8D8;stroke-width:0.5;" x1="293.822" y1="42.112" x2="293.822" y2="191.778"/>
		<line style="fill:none;stroke:#D8D8D8;stroke-width:0.5;" x1="303.176" y1="42.112" x2="303.176" y2="191.778"/>
		<line style="fill:none;stroke:#D8D8D8;stroke-width:0.5;" x1="312.53" y1="42.112" x2="312.53" y2="191.778"/>
		<line style="fill:none;stroke:#D8D8D8;stroke-width:0.5;" x1="321.884" y1="42.112" x2="321.884" y2="191.778"/>
		<line style="fill:none;stroke:#D8D8D8;stroke-width:0.5;" x1="331.238" y1="42.112" x2="331.238" y2="191.778"/>
		<line style="fill:none;stroke:#D8D8D8;stroke-width:0.5;" x1="340.593" y1="42.112" x2="340.593" y2="191.778"/>
		<line style="fill:none;stroke:#D8D8D8;stroke-width:0.5;" x1="349.946" y1="42.112" x2="349.946" y2="191.778"/>
		<line style="fill:none;stroke:#D8D8D8;stroke-width:0.5;" x1="359.301" y1="42.112" x2="359.301" y2="191.778"/>
		<line style="fill:none;stroke:#D8D8D8;stroke-width:0.5;" x1="368.654" y1="42.112" x2="368.654" y2="191.778"/>
		<line style="fill:none;stroke:#D8D8D8;stroke-width:0.5;" x1="378.009" y1="42.112" x2="378.009" y2="191.778"/>
		<line style="fill:none;stroke:#D8D8D8;stroke-width:0.5;" x1="387.363" y1="42.112" x2="387.363" y2="191.778"/>
		<line style="fill:none;stroke:#D8D8D8;stroke-width:0.5;" x1="396.717" y1="42.112" x2="396.717" y2="191.778"/>
		<line style="fill:none;stroke:#D8D8D8;stroke-width:0.5;" x1="256.405" y1="51.466" x2="406.071" y2="51.466"/>
		<line style="fill:none;stroke:#D8D8D8;stroke-width:0.5;" x1="256.405" y1="60.82" x2="406.071" y2="60.82"/>
		<line style="fill:none;stroke:#D8D8D8;stroke-width:0.5;" x1="256.405" y1="70.175" x2="406.071" y2="70.175"/>
		<line style="fill:none;stroke:#D8D8D8;stroke-width:0.5;" x1="256.405" y1="79.529" x2="406.071" y2="79.529"/>
		<line style="fill:none;stroke:#D8D8D8;stroke-width:0.5;" x1="256.405" y1="88.883" x2="406.071" y2="88.883"/>
		<line style="fill:none;stroke:#D8D8D8;stroke-width:0.5;" x1="256.405" y1="98.237" x2="406.071" y2="98.237"/>
		<line style="fill:none;stroke:#D8D8D8;stroke-width:0.5;" x1="256.405" y1="107.591" x2="406.071" y2="107.591"/>
		<line style="fill:none;stroke:#D8D8D8;stroke-width:0.5;" x1="256.405" y1="116.945" x2="406.071" y2="116.945"/>
		<line style="fill:none;stroke:#D8D8D8;stroke-width:0.5;" x1="256.405" y1="126.3" x2="406.071" y2="126.3"/>
		<line style="fill:none;stroke:#D8D8D8;stroke-width:0.5;" x1="256.405" y1="135.653" x2="406.071" y2="135.653"/>
		<line style="fill:none;stroke:#D8D8D8;stroke-width:0.5;" x1="256.405" y1="145.008" x2="406.071" y2="145.008"/>
		<line style="fill:none;stroke:#D8D8D8;stroke-width:0.5;" x1="256.405" y1="154.361" x2="406.071" y2="154.361"/>
		<line style="fill:none;stroke:#D8D8D8;stroke-width:0.5;" x1="256.405" y1="163.715" x2="406.071" y2="163.715"/>
		<line style="fill:none;stroke:#D8D8D8;stroke-width:0.5;" x1="256.405" y1="173.071" x2="406.071" y2="173.071"/>
		<line style="fill:none;stroke:#D8D8D8;stroke-width:0.5;" x1="256.405" y1="182.424" x2="406.071" y2="182.424"/>
		<rect x="256.405" y="42.112" style="fill:none;stroke:#D8D8D8;stroke-width:0.5;" width="149.666" height="149.666"/>
	</g>
</g>
<g style="display:none;">
	
		<rect x="255.947" y="52.474" style="display:inline;fill:#FFFFFF;stroke:#000000;stroke-width:0.5;stroke-miterlimit:2;" width="150" height="145.978"/>
</g>
<g>
	<path style="fill:#65A3CE;" d="M352.558,103.817l0.37,0.85c-3.16,0.877-4.771,3.617-4.825,8.222
		C347.606,107.438,349.094,104.415,352.558,103.817z"/>
	<g>
		<g>
			<path style="fill:#65A3CE;" d="M369.531,59.84c-23.128-12.943-55.379-9.018-63.653,22.385l3.605,0.743
				c-5.292,15.664-4.939,31.73,0.853,47.821l-1.274,0.347l1.059,4.984l-1.911,0.528c0.142,4.859,1.449,8.715,3.926,11.567
				c-1.597,9.585-0.467,21.046,3.399,34.374c-2.35-10.118-2.063-21.965,0.847-35.541l-4.139-2.123
				c-0.96-1.324-1.704-3.94-2.227-7.849l0.528-0.957c13.655-2.52,26.362-6.313,38.301-13.154
				c-6.898-8.168-5.729-16.693,2.016-23.128l-5.941-6.789C351.668,79.054,359.872,67.986,369.531,59.84z M347.571,98.671
				c-6.075,5.917-7.239,12.955-3.502,21.112c-9.476,5.151-19.105,8.365-27.457,9.935c-2.309-6.695-3.198-13.659-2.354-19.325h-0.689
				c-0.99,5.458-0.17,12.406,2.146,19.487c-1.084,0.189-2.146,0.353-3.178,0.487c-1.823-5.417-2.696-12.112-2.999-19.284
				c-0.532,7.215,0.14,13.597,2.279,19.336l-0.744,0.081c-5.152-17.773-4.189-32.519,1.7-45.409
				c-0.342-0.597-0.977-0.913-1.911-0.954l0.108-1.063C328.022,85.781,340.326,90.727,347.571,98.671z"/>
		</g>
	</g>
	<path style="fill:#65A3CE;" d="M317.07,112.41c1.02,0.343,2.17,0.47,3.447,0.384c0.261,0.47,0.201,1.002-0.186,1.591l-1.367,0.092
		l-1.379,0.041c-0.35-0.159-0.508-0.378-0.479-0.664C316.884,113.226,316.868,112.744,317.07,112.41z"/>
	<path style="fill:#65A3CE;" d="M321.351,113.019c0.368-0.142,0.635-0.057,0.798,0.254c-0.035,0.406-0.197,0.755-0.49,1.047
		c-0.358-0.045-0.553-0.202-0.584-0.466C321.024,113.49,321.115,113.212,321.351,113.019z"/>
	<path style="fill:#65A3CE;" d="M322.002,111.852c-2.128-0.16-3.822-0.505-5.096-1.033c-0.094,0.105-0.112,0.25-0.063,0.438
		c0.025,0.113-0.021,0.219-0.146,0.317c-0.257-0.061-0.406-0.17-0.451-0.329c-0.024-0.666,0.103-1.15,0.371-1.458
		c0.462,0.048,0.891,0.229,1.286,0.541c0.703,0.344,1.396,0.487,2.085,0.439c0.359,0.056,0.724,0.167,1.086,0.332
		C321.523,111.295,321.834,111.549,322.002,111.852z"/>
	<path style="fill:#65A3CE;" d="M325.821,109.385c0.325,0.361,0.702,0.581,0.874,0.97c0.214,0.279,0.303,0.594,0.278,0.939
		c0.042,0.511-0.134,0.75-0.529,0.717c-0.331-0.458-0.043-0.866-0.186-1.302C326.121,110.299,325.389,108.906,325.821,109.385z"/>
	<path style="fill:#65A3CE;" d="M321.882,94.149c0.457,0.149,0.66,0.438,0.612,0.861c0.555,0.106,1.164,0.445,1.828,1.019
		c0.158,0.146,0.158,0.286,0,0.428c-0.779-0.278-1.207-0.532-1.287-0.756l-1.313-0.742C321.48,94.589,321.533,94.319,321.882,94.149
		z"/>
	<path style="fill:#65A3CE;" d="M315.264,85.41c0.321-0.216,0.612-0.109,0.876,0.315c-1.338,3.061-2.999,7.792-4.986,14.19
		C312.592,92.987,313.962,88.15,315.264,85.41z"/>
	<path style="fill:#65A3CE;" d="M320.303,87.371c1.666-0.106,3.699,0.62,6.023,1.421c0,0,4.914,1.375,7.033,2.906
		c6.013,11.118,2.979,23.132-6.302,31.269l-0.562-0.639c1.179-1.033,2.239-2.116,3.189-3.241l-1.117-1.068
		c-0.37,0.21-0.801,0.336-1.249,0.358c-2.006,0.107-3.037-1.189-3.037-2.917c0-1.729,1.578-3.13,3.037-3.13
		c1.456,0,2.641,1.4,2.641,3.13c0,0.151-0.014,0.299-0.029,0.44c0.553,0.596,1.036,0.915,1.451,0.957
		c5.163-7.563,5.604-16.6,1.322-24.586c-1.841-1.301-6.593-2.879-6.593-2.879c-0.298-0.153-0.624-0.172-0.981-0.059l0.211,1.646
		c1.104-0.109,2.06,0.048,2.869,0.477l1.32,1.272c0.07,0.784,0.528,1.296,1.381,1.539c-1.569,1.476-2.774,2.326-3.607,2.548
		c-0.353-0.186-0.473-0.609-0.371-1.272c0.288-0.559-0.545-0.947-2.491-1.169l-3.288-1.645l-2.229,0.057l-0.583,0.581
		c0.379,1.12,0.893,1.953,1.539,2.493l1.59,0.852l-0.316,1.75c0.821,1.121,1.847,1.188,3.075,0.211
		c-0.344-0.637-1.75-0.134-1.326-1.062c0.632-0.277,1.553-0.349,2.758-0.214c1.423,1.047,2.656,1.205,3.715,0.479
		c1.332-0.006,2.711,0.203,4.139,0.637c0.179,0.799,0.092,1.491-0.266,2.069c-2.561,2.659-5.514,4.552-8.858,5.675l-1.805-0.211
		c-0.287,0.154-0.378,0.417-0.267,0.794c0.45,1.854,2.149,3.979,2.39,6.048c-1.498,2.348-1.446,4.084,0.153,5.196l-0.739,0.319
		c-0.674,2.069-2.618,4.083-5.835,6.046c-0.778-0.888-1.272-2.071-1.482-3.552c0.494-1.251,1.007-2.029,1.537-2.337l0.85,0.479
		c0.409-1.844,2.442-1.752,2.119-2.707c-1.604,0.254-2.823,0.681-3.66,1.273c-0.303-0.312-0.438-0.826-0.427-1.539
		c0.089-0.449,0.3-0.804,0.644-1.063l3.127,0.107l2.547-0.689c0.354-0.235,0.531-0.643,0.53-1.221l-0.317-1.751
		c-1.509-1.405-2.73-3.325-3.66-5.755l-1.168,0.714c-0.521,0.18-1.015,0.18-1.484,0l-2.601-1.111l-2.228,0.157
		c-0.494-0.929-0.494-1.953,0-3.077l6.045-6.946l-0.581-2.973C318.069,91.723,318.813,90.024,320.303,87.371z"/>
</g>
<g>
	<line style="fill:none;stroke:#1E58AD;stroke-miterlimit:10;" x1="347.993" y1="123.71" x2="331.525" y2="140.332"/>
	<circle style="fill:#D82E2E;" cx="331.525" cy="140.33" r="0.962"/>
	<line style="fill:none;stroke:#1E58AD;stroke-miterlimit:10;" x1="348.336" y1="123.368" x2="364.804" y2="106.747"/>
	<circle style="fill:#D82E2E;" cx="364.804" cy="106.746" r="0.963"/>
	
		<rect x="346.717" y="122.086" transform="matrix(0.704 -0.7102 0.7102 0.704 15.3531 283.8032)" style="fill:#D82E2E;" width="2.797" height="2.797"/>
</g>
<g>
	<line style="fill:none;stroke:#1E58AD;stroke-miterlimit:10;" x1="304.646" y1="80.406" x2="298.581" y2="103.006"/>
	<circle style="fill:#D82E2E;" cx="298.582" cy="103.005" r="0.963"/>
	<line style="fill:none;stroke:#1E58AD;stroke-miterlimit:10;" x1="304.771" y1="79.94" x2="310.834" y2="57.341"/>
	<circle style="fill:#D82E2E;" cx="310.834" cy="57.339" r="0.963"/>
	
		<rect x="303.235" y="79.012" transform="matrix(0.9659 0.2591 -0.2591 0.9659 31.2366 -76.1837)" style="fill:#D82E2E;" width="2.797" height="2.795"/>
</g>
<g>
	<line style="fill:none;stroke:#1E58AD;stroke-miterlimit:10;" x1="315.18" y1="181.605" x2="291.78" y2="181.605"/>
	<circle style="fill:#D82E2E;" cx="291.78" cy="181.605" r="0.963"/>
	<line style="fill:none;stroke:#1E58AD;stroke-miterlimit:10;" x1="315.66" y1="181.605" x2="339.061" y2="181.605"/>
	<circle style="fill:#D82E2E;" cx="339.061" cy="181.605" r="0.963"/>
	<rect x="313.781" y="180.205" style="fill:#D82E2E;" width="2.798" height="2.798"/>
</g>
<g id="layer1">
	<g id="g3928" transform="translate(103.27)">
		<path id="path3920" style="fill:#999999;" d="M246.589,124.955c-0.89,0.888-1.051,2.372-0.133,3.289
			c0,0.001,0.002,0.002,0.002,0.002l10.016,9.91l-3.052-1.361c-0.081-0.038-0.17-0.065-0.261-0.076
			c-0.771-0.109-1.513,0.023-2.045,0.407c-0.534,0.38-0.805,0.863-1.075,1.316c-0.413,0.687-0.263,1.467,0.049,2.029
			c0.299,0.536,0.764,0.97,1.359,1.245l-0.003,0.002l8.251,4.58c0.065,0.037,0.137,0.07,0.213,0.088l8.547,2.386l3.243,1.756
			c0.384,0.208,0.857,0.135,1.163-0.176l7.011-7.125c0.321-0.329,0.373-0.839,0.119-1.224l-7.31-11.157
			c-0.01-0.014-0.019-0.026-0.026-0.039c-0.511-0.7-1.562-1.684-2.631-2.708c-0.537-0.514-1.059-1.007-1.463-1.389
			c-0.403-0.384-0.771-0.757-0.701-0.678c-0.018-0.018-0.032-0.034-0.049-0.05l-3.094-3.095c-0.052-0.05-0.104-0.095-0.166-0.132
			c-0.46-0.294-0.931-0.531-1.511-0.573c-0.536-0.038-1.158,0.22-1.549,0.657l-0.004-0.007c-0.021,0.021-0.032,0.043-0.052,0.063
			c-0.011,0.016-0.025,0.025-0.037,0.039l0.005,0.004c-0.271,0.309-0.444,0.679-0.516,1.055l-0.2-0.203
			c-0.918-0.919-2.402-0.754-3.291,0.135l-0.006,0.004c-0.508,0.507-0.768,1.208-0.735,1.886l-0.929-0.928
			c-0.919-0.918-2.4-0.753-3.287,0.133c-0.442,0.441-0.705,1.029-0.745,1.622l-1.819-1.817
			C248.96,123.906,247.474,124.066,246.589,124.955L246.589,124.955z"/>
		<g id="g3922" transform="translate(-5.4769 16.431)">
			<path id="path3917" style="stroke:#000000;stroke-width:1.149;" d="M252.385,107.839c-0.866,0.868-1.026,2.321-0.126,3.217
				c0,0.002,0.003,0.004,0.003,0.005l9.801,9.699l-2.982-1.334c-0.083-0.037-0.17-0.062-0.257-0.073
				c-0.757-0.108-1.479,0.022-2.003,0.396c-0.521,0.374-0.782,0.846-1.05,1.289c-0.404,0.669-0.257,1.434,0.05,1.985
				c0.291,0.522,0.746,0.947,1.328,1.219l-0.002,0.002l8.07,4.485c0.066,0.036,0.137,0.065,0.209,0.085l8.363,2.34l3.174,1.718
				c0.375,0.204,0.84,0.134,1.139-0.17l6.852-6.965c0.316-0.322,0.365-0.821,0.118-1.197l-7.158-10.918
				c-0.007-0.014-0.02-0.027-0.024-0.04c-0.501-0.686-1.529-1.648-2.577-2.651c-0.524-0.504-1.037-0.985-1.433-1.359
				c-0.396-0.374-0.754-0.74-0.688-0.663c-0.016-0.019-0.03-0.033-0.047-0.049l-3.028-3.029c-0.05-0.048-0.105-0.093-0.165-0.129
				c-0.447-0.288-0.91-0.521-1.477-0.563c-0.527-0.036-1.134,0.216-1.516,0.644l-0.005-0.006c-0.021,0.019-0.031,0.041-0.05,0.06
				c-0.011,0.017-0.026,0.025-0.038,0.038l0.006,0.005c-0.267,0.302-0.435,0.662-0.505,1.03l-0.198-0.199
				c-0.897-0.898-2.352-0.74-3.221,0.128l-0.004,0.006c-0.496,0.496-0.75,1.181-0.719,1.845l-0.909-0.909
				c-0.896-0.898-2.351-0.739-3.217,0.128c-0.431,0.433-0.688,1.007-0.728,1.586l-1.778-1.778
				C254.706,106.817,253.254,106.972,252.385,107.839L252.385,107.839z"/>
			<path id="rect3906" style="fill:#FFFFFF;stroke:#000000;stroke-width:0.5346;" d="M253.063,108.516
				c-0.551,0.552-0.608,1.384-0.129,1.863l11.382,11.264c0.396,0.426-0.144,1.11-0.557,0.924l-5.068-2.269
				c-1.215-0.171-1.577,0.361-2.098,1.229c-0.354,0.588,0.188,1.521,1.021,1.875l8.069,4.486l8.469,2.368l3.27,1.771l6.852-6.964
				l-7.157-10.921c-0.664-0.912-4.358-4.283-4.645-4.61l-3.028-3.028c-0.756-0.482-1.395-0.603-1.808-0.057
				c-0.554,0.553-0.384,1.287,0.098,1.769l2.996,2.996c0.503,0.311-0.224,1.249-0.702,0.697l-4.527-4.526
				c-0.48-0.48-1.313-0.424-1.864,0.127l-0.003,0.004c-0.553,0.553-0.611,1.385-0.129,1.863l3.635,3.637
				c0.541,0.339-0.416,1.556-0.964,0.959l-5.524-5.525c-0.479-0.48-1.312-0.422-1.861,0.129c-0.554,0.553-0.611,1.383-0.132,1.865
				l5.812,5.808c0.444,0.359-0.313,1.319-0.84,0.835l-8.702-8.698C254.443,107.909,253.612,107.966,253.063,108.516L253.063,108.516
				L253.063,108.516L253.063,108.516L253.063,108.516L253.063,108.516z"/>
		</g>
	</g>
</g>
<ellipse style="fill:#AFAFAF;" cx="160.534" cy="206.948" rx="55.483" ry="1.781"/>
</svg>
