<?xml version="1.0" encoding="iso-8859-1"?>
<!-- Generator: Adobe Illustrator 12.0.0, SVG Export Plug-In . SVG Version: 6.00 Build 51448)  -->
<!DOCTYPE svg PUBLIC "-//W3C//DTD SVG 1.1//EN" "http://www.w3.org/Graphics/SVG/1.1/DTD/svg11.dtd" [
	<!ENTITY ns_svg "http://www.w3.org/2000/svg">
	<!ENTITY ns_xlink "http://www.w3.org/1999/xlink">
]>
<svg  version="1.1" id="Ebene_1" xmlns="&ns_svg;" xmlns:xlink="&ns_xlink;" width="465.145" height="331.223"
	 viewBox="0 0 465.145 331.223" style="overflow:visible;enable-background:new 0 0 465.145 331.223;" xml:space="preserve">
<rect x="-0.928" y="-0.888" style="display:none;fill:#FFCC00;" width="466" height="333"/>
<linearGradient id="XMLID_10_" gradientUnits="userSpaceOnUse" x1="83.4958" y1="821.2092" x2="388.8782" y2="515.8269" gradientTransform="matrix(1 0 0 1 0.0752 -511.5674)">
	<stop  offset="0.0056" style="stop-color:#D6CEBD"/>
	<stop  offset="0.2783" style="stop-color:#D8D0C0"/>
	<stop  offset="0.5092" style="stop-color:#DFD8CB"/>
	<stop  offset="0.7248" style="stop-color:#E9E5DC"/>
	<stop  offset="0.9299" style="stop-color:#F9F7F5"/>
	<stop  offset="1" style="stop-color:#FFFFFF"/>
</linearGradient>
<polygon style="fill:url(#XMLID_10_);" points="70.25,296.322 71.045,41.039 399.49,14.796 416.191,148.402 399.49,274.849 "/>
<path style="opacity:0.2;enable-background:new    ;" d="M402.694,167.452c-4.441,0-8.047-3.592-8.047-8.012
	c0-4.479,3.611-8.043,8.047-8.043c4.452,0.001,8.059,3.569,8.059,8.043C410.761,163.863,407.146,167.452,402.694,167.452
	 M101.623,273.108H73.928V45.446h308.11v227.662h0.021H255.325H101.623L101.623,273.108z M383.935,4.194L72.081,4.193
	c-21.71,0.001-39.396,17.68-39.396,39.378v231.396c0,21.715,17.688,39.37,39.396,39.37h311.854c21.71,0,39.375-17.655,39.377-39.37
	V43.572C423.312,21.871,405.645,4.194,383.935,4.194"/>
<g>
	<path style="opacity:0.8;fill:#049B04;enable-background:new    ;" d="M260.015,138.031c-3.759-3.765-7.435-7.445-11.074-11.091
		c17.796-17.791,35.671-35.66,53.524-53.509c6.917,6.93,13.896,13.922,20.75,20.787c9.479-9.473,18.782-18.77,28.188-28.166
		c-3.262-3.241-6.701-6.655-10.364-10.295c12.017-1.148,23.707-2.266,35.6-3.402c-1.135,11.862-2.255,23.567-3.378,35.317
		c-3.442-3.455-6.829-6.86-10.249-10.293c-13.232,13.229-26.255,26.254-39.374,39.372c-7.118-7.125-14.121-14.14-21.16-21.188
		C288.271,109.773,274.143,123.901,260.015,138.031z"/>
	<path style="opacity:0.8;fill:#FFFFFF;enable-background:new    ;" d="M363.094,88c-0.001,26.443-0.001,52.633-0.001,78.903
		c-5.213,0.001-10.406,0-15.733,0.001c0.001-0.459,0-0.874,0.001-1.283c-0.001-20.254,0.003-40.512-0.018-60.767
		c0-0.793,0.211-1.363,0.777-1.928C353.065,98.033,357.979,93.11,363.094,88z M319.651,166.918c-5.218,0-10.38,0-15.635,0
		c0-19.613,0-39.217,0-58.973c0.291,0.258,0.514,0.438,0.718,0.641c4.784,4.781,9.574,9.558,14.333,14.364
		c0.335,0.341,0.619,0.91,0.62,1.376c0.032,13.952,0.026,27.907,0.021,41.861C319.709,166.412,319.676,166.635,319.651,166.918z
		 M325.657,166.913c0-0.482,0-0.9,0-1.317c-0.003-12.987,0.01-25.974-0.019-38.962c-0.004-0.887,0.265-1.501,0.889-2.117
		c4.644-4.598,9.248-9.228,13.867-13.847c0.27-0.271,0.554-0.525,0.971-0.917c-0.002,19.142-0.002,38.109,0,57.16
		C336.192,166.913,331.033,166.913,325.657,166.913z M297.859,166.924c-5.229,0-10.39,0-15.688,0c0-0.479,0-0.89,0-1.304
		c0-12.603,0.009-25.203-0.017-37.807c-0.003-0.798,0.221-1.36,0.786-1.925c4.693-4.655,9.355-9.341,14.029-14.014
		c0.243-0.243,0.499-0.479,0.889-0.853C297.859,129.729,297.859,148.28,297.859,166.924z M276.2,166.924c-5.21,0-10.372,0-15.646,0
		c-0.023-0.386-0.073-0.754-0.074-1.125c-0.004-5.486-0.015-10.979,0.021-16.467c0.003-0.481,0.173-1.103,0.498-1.431
		c4.887-4.947,9.814-9.859,14.734-14.778c0.104-0.104,0.234-0.182,0.467-0.353C276.2,144.213,276.2,155.537,276.2,166.924z"/>
</g>
<path id="shopping-bag-5-icon" style="opacity:0.8;fill:#FF3939;enable-background:new    ;" d="M189.337,153.596h-9.963v-9.409
	c0-15.041,12.192-27.235,27.236-27.235c15.038,0,27.235,12.194,27.233,27.235v9.409h-9.963v-9.409
	c0-9.522-7.749-17.271-17.271-17.271c-9.523,0-17.271,7.748-17.272,17.271V153.596L189.337,153.596z M253.068,193.901
	c-1.106,1.287-2.146,1.745-2.903,1.097c-0.776-0.667-0.438-1.885,0.608-3.063c0.986-1.146,2.126-1.761,2.938-1.063
	C254.54,191.578,254.065,192.737,253.068,193.901z M246.003,183.137c0.758,0.651,1.797,0.194,2.898-1.095
	c1.006-1.163,1.457-2.337,0.634-3.049c-0.798-0.686-1.957-0.083-2.939,1.063C245.563,181.256,245.225,182.47,246.003,183.137z
	 M273.832,189.004l-21.998,21.997l-27.084-27.105v-21.995l21.979-0.001L273.832,189.004z M244.69,184.555
	c1.657,1.425,4.251,1.478,6.314-0.921c1.685-1.959,1.813-4.36-0.158-6.058c-1.96-1.687-4.547-1.207-6.306,0.841
	C242.692,180.569,242.945,183.055,244.69,184.555z M238.225,169.319c-1.607-1.611-4.225-1.611-5.836-0.001
	c-1.613,1.61-1.613,4.229,0,5.839c1.615,1.612,4.229,1.612,5.836,0C239.838,173.544,239.838,170.928,238.225,169.319z
	 M242.139,190.7l16.782-6.184l-1.444-1.243l-16.769,6.197L242.139,190.7z M255.007,189.432c-1.958-1.684-4.546-1.206-6.305,0.841
	c-1.831,2.166-1.58,4.655,0.147,6.138c1.657,1.428,4.253,1.479,6.313-0.917C256.851,193.531,256.979,191.131,255.007,189.432z
	 M241.653,212.555l-0.001,31.275h-70.086v-71.966h44.881V161.9h-54.844v91.896h90.012v-31.271L241.653,212.555z"/>
<g>
	<path style="fill:#FFFFFF;stroke:#C9C6B9;" d="M78.626,156.35l21.462,21.462c5.893,5.896,14.627-2.841,8.731-8.731l-8.592-8.596
		c-0.954-0.949,1.5-3.403,2.451-2.449l14.799,14.8c5.896,5.892,14.706-2.921,8.813-8.813l-14.8-14.801
		c-0.951-0.951,1.507-3.409,2.458-2.458l20.179,20.178c5.879,5.88,14.688-2.929,8.81-8.808l-20.18-20.18
		c-0.953-0.953,1.508-3.415,2.463-2.466l36.358,36.358c5.864,5.87,14.674-2.938,8.805-8.806l-47.617-47.617
		c-1.036-1.037,1.746-3.818,2.782-2.782l19.64,19.64c7.148,7.148,16.42-2.769,9.596-9.594l-21.248-21.249l-15.133-14.327
		c-9.385-4.167-33.488,1.098-33.488,1.098L72.489,75.781l-37.217,37.216l28.625,28.625L78.626,156.35z"/>
	<g>
		<path style="fill:#FFFFFF;stroke:#C9C6B9;" d="M170.657,154.437c-1.393,1.39-3.636,1.38-5.015,0.002
			c-1.381-1.383-1.39-3.628-0.001-5.017c1.377-1.376,3.634-1.377,5.017,0.003C172.036,150.803,172.031,153.062,170.657,154.437"/>
		<path style="fill:#FFFFFF;stroke:#C9C6B9;" d="M152.845,172.248c-1.391,1.39-3.637,1.385-5.016,0.007
			c-1.384-1.383-1.391-3.633,0.001-5.021c1.383-1.383,3.638-1.381,5.019-0.001C154.225,168.612,154.231,170.863,152.845,172.248"/>
		<path style="fill:#FFFFFF;stroke:#C9C6B9;" d="M178.812,179.623c-1.383,1.383-3.626,1.387-5.018-0.001
			c-1.378-1.385-1.381-3.633,0-5.015c1.39-1.39,3.64-1.389,5.02-0.009C180.204,175.99,180.203,178.232,178.812,179.623"/>
		<path style="fill:#FFFFFF;stroke:#C9C6B9;" d="M183.25,170.156c-1.389,1.393-3.626,1.388-5.013,0.004
			c-1.385-1.387-1.389-3.629-0.003-5.018c1.389-1.387,3.637-1.383,5.021,0.003C184.64,166.528,184.638,168.771,183.25,170.156"/>
		<path style="fill:#FFFFFF;stroke:#C9C6B9;" d="M169.038,184.377c-1.392,1.39-3.636,1.386-5.017,0.003
			c-1.389-1.392-1.396-3.642-0.01-5.028c1.387-1.382,3.634-1.373,5.024,0.017C170.42,180.746,170.421,182.994,169.038,184.377"/>
		<path style="fill:#FFFFFF;stroke:#C9C6B9;" d="M180.089,160.365c-1.381,1.384-3.635,1.384-5.021-0.003
			c-1.389-1.389-1.384-3.638-0.002-5.018c1.392-1.39,3.63-1.388,5.021,0.001C181.474,156.729,181.483,158.974,180.089,160.365"/>
		<path style="fill:#FFFFFF;stroke:#C9C6B9;" d="M158.942,181.503c-1.392,1.392-3.638,1.38-5.018,0.001
			c-1.39-1.383-1.396-3.631-0.005-5.021c1.384-1.383,3.639-1.387,5.024-0.001C160.324,177.864,160.324,180.122,158.942,181.503"/>
	</g>
</g>
<linearGradient id="XMLID_11_" gradientUnits="userSpaceOnUse" x1="66.8655" y1="832.2991" x2="394.1512" y2="505.0135" gradientTransform="matrix(1 0 0 1 0.0752 -511.5674)">
	<stop  offset="0.0056" style="stop-color:#F9F1D7"/>
	<stop  offset="0.1415" style="stop-color:#F9F2DC"/>
	<stop  offset="0.5775" style="stop-color:#F9F5E9"/>
	<stop  offset="1" style="stop-color:#F9F6ED"/>
</linearGradient>
<path style="fill:url(#XMLID_11_);" d="M405.273,165.271c-4.443,0-8.048-3.589-8.048-8.009c0-4.478,3.611-8.044,8.048-8.044
	c4.452,0.001,8.057,3.571,8.057,8.044C413.339,161.68,409.726,165.271,405.273,165.271 M104.202,270.928H76.506V43.264h308.111
	v227.661h0.021H257.903H104.203L104.202,270.928L104.202,270.928z M386.513,2.012L74.66,2.011
	C52.95,2.012,35.265,19.69,35.265,41.39v231.397c0,21.714,17.688,39.367,39.396,39.367h311.853c21.71,0,39.375-17.653,39.378-39.367
	V41.39C425.891,19.69,408.223,2.012,386.513,2.012"/>
</svg>
