<?xml version="1.0" encoding="utf-8"?>
<!-- Generator: Adobe Illustrator 12.0.0, SVG Export Plug-In . SVG Version: 6.00 Build 51448)  -->
<!DOCTYPE svg PUBLIC "-//W3C//DTD SVG 1.1//EN" "http://www.w3.org/Graphics/SVG/1.1/DTD/svg11.dtd" [
	<!ENTITY ns_svg "http://www.w3.org/2000/svg">
	<!ENTITY ns_xlink "http://www.w3.org/1999/xlink">
]>
<svg  version="1.1" id="Ebene_1" xmlns="&ns_svg;" xmlns:xlink="&ns_xlink;" width="465.145" height="331.223"
	 viewBox="0 0 465.145 331.223" overflow="visible" enable-background="new 0 0 465.145 331.223" xml:space="preserve">
<g id="Layer_2">
	
		<linearGradient id="XMLID_28_" gradientUnits="userSpaceOnUse" x1="321.1738" y1="797.3264" x2="156.3774" y2="511.8907" gradientTransform="matrix(1 0 0 1 -8.3247 -486.7275)">
		<stop  offset="0" style="stop-color:#EFE838"/>
		<stop  offset="0.1226" style="stop-color:#EEBD38"/>
		<stop  offset="0.2768" style="stop-color:#EE8D38"/>
		<stop  offset="0.4308" style="stop-color:#ED6639"/>
		<stop  offset="0.5819" style="stop-color:#ED4739"/>
		<stop  offset="0.7289" style="stop-color:#EC3239"/>
		<stop  offset="0.8704" style="stop-color:#EC2439"/>
		<stop  offset="1" style="stop-color:#EC2039"/>
	</linearGradient>
	<circle fill="url(#XMLID_28_)" cx="230.451" cy="167.881" r="164.769"/>
</g>
<defs>
	<filter id="Adobe_OpacityMaskFilter" filterUnits="userSpaceOnUse" x="0.205" y="-23.232" width="463.238" height="360.277">
		<feColorMatrix  type="matrix" values="1 0 0 0 0  0 1 0 0 0  0 0 1 0 0  0 0 0 1 0"/>
	</filter>
</defs>
<mask maskUnits="userSpaceOnUse" x="0.205" y="-23.232" width="463.238" height="360.277" id="Ebene_1_11_">
	<g filter="url(#Adobe_OpacityMaskFilter)">
		<g id="Layer_2_2_">
			<circle fill="#FFFFFF" cx="230.451" cy="167.875" r="164.769"/>
		</g>
	</g>
</mask>
<g id="Ebene_1_2_" mask="url(#Ebene_1_11_)">
	<g>
		<rect x="0.205" y="6.016" display="none" fill="#FFCC00" width="463.238" height="331.029"/>
		<g display="none">
			
				<rect x="254.434" y="58.14" display="inline" fill="#FFFFFF" stroke="#000000" stroke-width="0.5" stroke-miterlimit="2" width="149.111" height="145.114"/>
		</g>
		<g>
			<g>
				<path opacity="0.05" fill="#FDFFCF" enable-background="new    " d="M244.828,331.018c-4.738,0.41-9.531,0.632-14.377,0.632
					c-62.326,0-116.563-34.606-144.559-85.649c0.418,36.792,22.251,72.498,59.019,90.189"/>
				
					<linearGradient id="XMLID_29_" gradientUnits="userSpaceOnUse" x1="258.6426" y1="832.4299" x2="93.8453" y2="546.9926" gradientTransform="matrix(1 0 0 1 -8.3247 -486.7275)">
					<stop  offset="0" style="stop-color:#EFE838"/>
					<stop  offset="0.1226" style="stop-color:#EEBD38"/>
					<stop  offset="0.2768" style="stop-color:#EE8D38"/>
					<stop  offset="0.4308" style="stop-color:#ED6639"/>
					<stop  offset="0.5819" style="stop-color:#ED4739"/>
					<stop  offset="0.7289" style="stop-color:#EC3239"/>
					<stop  offset="0.8704" style="stop-color:#EC2439"/>
					<stop  offset="1" style="stop-color:#EC2039"/>
				</linearGradient>
				<path fill="url(#XMLID_29_)" d="M278.833,292.638c23.31-48.439,1.06-107.423-49.557-131.778
					c-50.827-24.458-110.802-5.04-134.11,43.4c-6.468,13.441-9.434,27.669-9.274,41.739c27.996,51.043,82.233,85.649,144.559,85.649
					c4.846,0,9.639-0.222,14.377-0.632C259.105,321.855,271.016,308.886,278.833,292.638z"/>
				<path opacity="0.1" fill="#FDFFCF" enable-background="new    " d="M278.833,292.638c23.31-48.439,1.06-107.423-49.557-131.778
					c-50.827-24.458-110.802-5.04-134.11,43.4c-6.468,13.441-9.434,27.669-9.274,41.739c27.996,51.043,82.233,85.649,144.559,85.649
					c4.846,0,9.639-0.222,14.377-0.632C259.105,321.855,271.016,308.886,278.833,292.638z"/>
			</g>
			<g>
				
					<linearGradient id="XMLID_30_" gradientUnits="userSpaceOnUse" x1="192.0801" y1="870.8508" x2="27.2863" y2="585.4198" gradientTransform="matrix(1 0 0 1 -8.3247 -486.7275)">
					<stop  offset="0" style="stop-color:#EFE838"/>
					<stop  offset="0.1226" style="stop-color:#EEBD38"/>
					<stop  offset="0.2768" style="stop-color:#EE8D38"/>
					<stop  offset="0.4308" style="stop-color:#ED6639"/>
					<stop  offset="0.5819" style="stop-color:#ED4739"/>
					<stop  offset="0.7289" style="stop-color:#EC3239"/>
					<stop  offset="0.8704" style="stop-color:#EC2439"/>
					<stop  offset="1" style="stop-color:#EC2039"/>
				</linearGradient>
				<path fill="url(#XMLID_30_)" d="M65.757,171.565c0.752,26.925,7.959,52.233,20.136,74.436
					c-0.16-14.07,2.806-28.298,9.274-41.739c0.43-0.896,0.877-1.775,1.332-2.649C84.356,193.365,73.923,183.184,65.757,171.565z"/>
				<path opacity="0.15" fill="#FDFFCF" enable-background="new    " d="M229.277,160.86
					c-49.889-24.006-108.587-5.738-132.778,40.751c21.12,14.343,47.405,22.828,75.921,22.828c36.351,0,69.124-13.907,92.123-36.203
					C255.225,177.081,243.35,167.631,229.277,160.86z"/>
				
					<linearGradient id="XMLID_31_" gradientUnits="userSpaceOnUse" x1="302.125" y1="807.3127" x2="137.3334" y2="521.8856" gradientTransform="matrix(1 0 0 1 -8.3247 -486.7275)">
					<stop  offset="0" style="stop-color:#EFE838"/>
					<stop  offset="0.1226" style="stop-color:#EEBD38"/>
					<stop  offset="0.2768" style="stop-color:#EE8D38"/>
					<stop  offset="0.4308" style="stop-color:#ED6639"/>
					<stop  offset="0.5819" style="stop-color:#ED4739"/>
					<stop  offset="0.7289" style="stop-color:#EC3239"/>
					<stop  offset="0.8704" style="stop-color:#EC2439"/>
					<stop  offset="1" style="stop-color:#EC2039"/>
				</linearGradient>
				<path fill="url(#XMLID_31_)" d="M298.355,110.496c0-49.793-35.328-92.066-84.495-107.558
					C130.652,11.26,65.682,81.481,65.682,166.881c0,1.566,0.031,3.127,0.075,4.684c8.167,11.619,18.599,21.801,30.742,30.046
					c24.191-46.489,82.889-64.757,132.778-40.751c14.073,6.771,25.948,16.223,35.266,27.376
					C285.511,167.906,298.355,140.607,298.355,110.496z"/>
				<path opacity="0.15" fill="#FDFFCF" enable-background="new    " d="M298.355,110.496c0-49.793-35.328-92.066-84.495-107.558
					C130.652,11.26,65.682,81.481,65.682,166.881c0,1.566,0.031,3.127,0.075,4.684c8.167,11.619,18.599,21.801,30.742,30.046
					c24.191-46.489,82.889-64.757,132.778-40.751c14.073,6.771,25.948,16.223,35.266,27.376
					C285.511,167.906,298.355,140.607,298.355,110.496z"/>
			</g>
			<g>
				
					<linearGradient id="XMLID_32_" gradientUnits="userSpaceOnUse" x1="301.8857" y1="807.4407" x2="137.1017" y2="522.0266" gradientTransform="matrix(1 0 0 1 -8.3247 -486.7275)">
					<stop  offset="0" style="stop-color:#EFE838"/>
					<stop  offset="0.1226" style="stop-color:#EEBD38"/>
					<stop  offset="0.2768" style="stop-color:#EE8D38"/>
					<stop  offset="0.4308" style="stop-color:#ED6639"/>
					<stop  offset="0.5819" style="stop-color:#ED4739"/>
					<stop  offset="0.7289" style="stop-color:#EC3239"/>
					<stop  offset="0.8704" style="stop-color:#EC2439"/>
					<stop  offset="1" style="stop-color:#EC2039"/>
				</linearGradient>
				<path fill="url(#XMLID_32_)" d="M266.698,311.626c-6.3,7.644-13.693,14.145-21.869,19.392
					c33.452-2.893,64.039-15.786,88.771-35.665C314.394,308.287,290.645,314.167,266.698,311.626z"/>
				<g>
					
						<linearGradient id="XMLID_33_" gradientUnits="userSpaceOnUse" x1="400.8545" y1="750.3108" x2="236.063" y2="464.8835" gradientTransform="matrix(1 0 0 1 -8.3247 -486.7275)">
						<stop  offset="0" style="stop-color:#EFE838"/>
						<stop  offset="0.1226" style="stop-color:#EEBD38"/>
						<stop  offset="0.2768" style="stop-color:#EE8D38"/>
						<stop  offset="0.4308" style="stop-color:#ED6639"/>
						<stop  offset="0.5819" style="stop-color:#ED4739"/>
						<stop  offset="0.7289" style="stop-color:#EC3239"/>
						<stop  offset="0.8704" style="stop-color:#EC2439"/>
						<stop  offset="1" style="stop-color:#EC2039"/>
					</linearGradient>
					<path fill="url(#XMLID_33_)" d="M230.451,2.112c-5.6,0-11.134,0.282-16.591,0.828c9.518,2.999,18.509,7.013,26.833,11.878
						c10.078-3.991,20.927-6.468,32.266-7.158C259.396,4.047,245.15,2.112,230.451,2.112z"/>
					
						<linearGradient id="XMLID_34_" gradientUnits="userSpaceOnUse" x1="417.8213" y1="740.5149" x2="253.0284" y2="455.0854" gradientTransform="matrix(1 0 0 1 -8.3247 -486.7275)">
						<stop  offset="0" style="stop-color:#EFE838"/>
						<stop  offset="0.1226" style="stop-color:#EEBD38"/>
						<stop  offset="0.2768" style="stop-color:#EE8D38"/>
						<stop  offset="0.4308" style="stop-color:#ED6639"/>
						<stop  offset="0.5819" style="stop-color:#ED4739"/>
						<stop  offset="0.7289" style="stop-color:#EC3239"/>
						<stop  offset="0.8704" style="stop-color:#EC2439"/>
						<stop  offset="1" style="stop-color:#EC2039"/>
					</linearGradient>
					<path fill="url(#XMLID_34_)" d="M359.359,269.498c22.441-28.151,35.86-63.814,35.86-102.617
						c0-21.05-3.954-41.175-11.148-59.682c0.075,1.625,0.118,3.259,0.118,4.901c0,22.916-7.325,44.061-19.743,61.261
						c13.149,26.104,14.68,57.153,1.388,84.776C363.914,262.126,361.744,265.912,359.359,269.498z"/>
					<path opacity="0.1" fill="#FDFFCF" enable-background="new    " d="M384.071,107.2C365.187,58.627,323.933,21.233,272.96,7.658
						c-11.339,0.69-22.188,3.167-32.267,7.158c34.68,20.271,57.662,55.524,57.662,95.68c0,3.035-0.137,6.042-0.394,9.018
						c6.183,1.688,12.313,3.958,18.314,6.846c21.752,10.468,38.259,27.331,48.169,47.002c12.418-17.2,19.743-38.345,19.743-61.261
						C384.189,110.458,384.146,108.823,384.071,107.2z"/>
					
						<linearGradient id="XMLID_35_" gradientUnits="userSpaceOnUse" x1="428.0957" y1="734.5823" x2="263.3041" y2="449.1551" gradientTransform="matrix(1 0 0 1 -8.3247 -486.7275)">
						<stop  offset="0" style="stop-color:#EFE838"/>
						<stop  offset="0.1226" style="stop-color:#EEBD38"/>
						<stop  offset="0.2768" style="stop-color:#EE8D38"/>
						<stop  offset="0.4308" style="stop-color:#ED6639"/>
						<stop  offset="0.5819" style="stop-color:#ED4739"/>
						<stop  offset="0.7289" style="stop-color:#EC3239"/>
						<stop  offset="0.8704" style="stop-color:#EC2439"/>
						<stop  offset="1" style="stop-color:#EC2039"/>
					</linearGradient>
					<path fill="url(#XMLID_35_)" d="M384.071,107.2C365.187,58.627,323.933,21.233,272.96,7.658
						c-11.339,0.69-22.188,3.167-32.267,7.158c34.68,20.271,57.662,55.524,57.662,95.68c0,3.035-0.137,6.042-0.394,9.018
						c6.183,1.688,12.313,3.958,18.314,6.846c21.752,10.468,38.259,27.331,48.169,47.002c12.418-17.2,19.743-38.345,19.743-61.261
						C384.189,110.458,384.146,108.823,384.071,107.2z"/>
				</g>
				<path opacity="0.1" fill="#FDFFCF" enable-background="new    " d="M264.542,188.236c18.854-18.277,31.134-42.194,33.42-68.722
					c-46.167-12.614-95.24,7.526-115.796,50.246c-23.381,48.59-1.083,107.472,49.745,131.93c11.301,5.438,23.065,8.692,34.786,9.938
					c4.699-5.705,8.795-12.044,12.136-18.988C295.662,257.665,288.74,217.2,264.542,188.236z"/>
				<path opacity="0.1" fill="#FDFFCF" enable-background="new    " d="M359.359,269.498c-7.605,9.539-16.25,18.212-25.76,25.854
					C343.635,288.595,352.428,279.913,359.359,269.498z"/>
				
					<linearGradient id="XMLID_36_" gradientUnits="userSpaceOnUse" x1="352.3428" y1="778.3196" x2="187.5504" y2="492.8906" gradientTransform="matrix(1 0 0 1 -8.3247 -486.7275)">
					<stop  offset="0" style="stop-color:#EFE838"/>
					<stop  offset="0.1226" style="stop-color:#EEBD38"/>
					<stop  offset="0.2768" style="stop-color:#EE8D38"/>
					<stop  offset="0.4308" style="stop-color:#ED6639"/>
					<stop  offset="0.5819" style="stop-color:#ED4739"/>
					<stop  offset="0.7289" style="stop-color:#EC3239"/>
					<stop  offset="0.8704" style="stop-color:#EC2439"/>
					<stop  offset="1" style="stop-color:#EC2039"/>
				</linearGradient>
				<path fill="url(#XMLID_36_)" d="M359.359,269.498c2.386-3.586,4.556-7.372,6.475-11.36
					c23.31-48.439,1.06-107.423-49.557-131.778c-6.002-2.888-12.133-5.156-18.314-6.846c-2.286,26.526-14.564,50.443-33.42,68.722
					c24.197,28.966,31.12,69.431,14.291,104.402c-3.341,6.944-7.436,13.283-12.136,18.988c23.946,2.541,47.695-3.339,66.901-16.273
					C343.109,287.71,351.753,279.037,359.359,269.498z"/>
				<path opacity="0.1" fill="#FDFFCF" enable-background="new    " d="M359.359,269.498c2.386-3.586,4.556-7.372,6.475-11.36
					c23.31-48.439,1.06-107.423-49.557-131.778c-6.002-2.888-12.133-5.156-18.314-6.846c-2.286,26.526-14.564,50.443-33.42,68.722
					c24.197,28.966,31.12,69.431,14.291,104.402c-3.341,6.944-7.436,13.283-12.136,18.988c23.946,2.541,47.695-3.339,66.901-16.273
					C343.109,287.71,351.753,279.037,359.359,269.498z"/>
			</g>
		</g>
		<g>
			<polygon fill="#414042" points="126.91,1.768 133.253,1.768 135.369,5.768 137.835,106.193 130.74,102.193 			"/>
			<path fill="#414042" d="M126.503,102.92c-2.628,1.538-7.427,19.478-6.586,22.007c0.979,2.936,5.744,4.353,8.719,5.226
				c-0.585-0.156-0.061-9.396,0.272-12.06c0.745-6.038,7.982-3.286,7.982-1.542v7.183l0.166,5.647l-0.008,4.465
				c0,0,3.039,3.364,8.196,4.601c0-1.373,0.783-23.271-1.04-28.734c-1.473-4.375-7.722-6.725-11.74-7.436
				C129.831,101.815,127.961,102.06,126.503,102.92z"/>
			<path fill="#414042" d="M165.34,148.082c7.116,3.923,8.63,15.046,6.047,22.021c-2.904,7.896-10.353,15.062-18.921,15.713
				c-4.139,0.313-11.121-0.161-14.3-3.311l-15.997-11.867c0,0-12.261-7.79-12.282-7.79c-6.748-4.31-15.565-7.407-16.855-16.437
				c-1.569-11.124,7.19-21.684,17.88-23.517c6.748-1.147,12.691,1.896,18.282,5.313c5.87,3.591,12.318,6.632,17.668,10.979
				c2.36,1.922,2.36,1.922,5.167,3.812c1.61,1.084,3.22,2.215,5.106,2.77C159.948,146.595,162.707,146.611,165.34,148.082
				L165.34,148.082z"/>
			
				<ellipse transform="matrix(-0.522 0.8529 -0.8529 -0.522 379.7473 122.115)" fill="#FFDE52" cx="155.657" cy="167.461" rx="15.224" ry="9.77"/>
			<g>
				<polygon fill="#414042" points="258.873,-23.232 261.895,-23.232 262.909,-23.232 264.07,70.781 260.701,70.781 				"/>
				<path fill="#414042" d="M263.393,80.981c-5.683,2.002-11.18,6.739-15.658,9.525c-0.815,0.496-1.623,1.021-2.428,1.541
					c-1.695,1.081-3.216,2.938-4.679,4.301c-2.233,2.064-4.497,4.094-6.71,6.173c-7.482,7.001,0.961,17.548,6.216,22.812
					c4.235,4.238,9.292,9.272,15.103,11.18c2.257,0.74,4.859,0.695,7.012-0.326c1.957-0.936,3.732-2.499,5.246-4.051
					c4.701-4.802,9.445-9.543,14.27-14.236l1.471-1.438c2.901-3.066,5.828-6.149,8.709-9.231c3.064-3.264,1.213-8.815-0.571-12.231
					c-1.961-3.729-5.22-6.566-8.675-8.897c-3.815-2.563-7.848-5.122-12.451-5.89C267.971,79.821,265.667,80.182,263.393,80.981z"/>
				<path fill="#414042" d="M243.629,96.229c0-5.947,0.087-11.896,0.102-17.851c0.021-6.255-1.758-13.339,3.519-18.067
					c2.76-2.477,6.688-2.346,10.153-2.261c3.496,0.082,6.93-0.092,10.41,0.42c2.823,0.408,6.351,1.078,8.041,3.647
					c1.582,2.403,1.361,5.693,1.383,8.45c0.037,4.779,0.259,9.759-0.166,14.521c-0.021,0.308-6.045,1.099-6.684,0.925l0.301-0.2
					c1.313-0.599,1.354-4.593,1.473-5.749c0.352-3.313,0.494-6.928,0.072-10.243c-0.217-1.672-1.045-3.344-2.588-4.168
					c-1.289-0.688-2.983-0.854-4.422-0.938c-3.979-0.24-7.766-0.68-11.675,0.188c-4.132,0.912-5.112,6.188-5.433,9.736
					c-0.512,5.441-0.303,10.83-0.303,16.266l0.42,2.813L243.629,96.229z"/>
				<path fill="#FFDE52" d="M253.113,113.955c-7.699-7.37-16.111-11.077-18.807-8.262c-2.688,2.806,1.385,11.056,9.071,18.418
					c7.688,7.362,16.106,11.06,18.796,8.271C264.861,129.567,260.802,121.322,253.113,113.955z"/>
				<path fill="none" stroke="#FFFFFF" stroke-width="0.212" stroke-miterlimit="10" d="M269.468,131.651
					c1.648-15.177-19.932-33.252-33.444-33.252"/>
			</g>
			<path fill="none" stroke="#FFFFFF" stroke-width="0.191" stroke-miterlimit="10" d="M159.748,146.242
				c-14.661,2.382-26.597,23.951-23.416,34.702"/>
			<g>
				<polygon fill="#414042" points="193.119,70.142 188.285,70.142 189.966,-17.462 191.393,-17.462 195.719,-17.462 				"/>
				<path fill="#414042" d="M206.373,63.538c-0.902-1.444-0.887-0.639-2.338-0.619c-10.669,0.095-21.771,0.387-32.464-0.461
					l0.217,4.416c-0.104,3.681-0.344,14.711-0.304,11.037c0.01-0.453-1.991,1.127-2.229,1.486c-0.67,1.032-0.872,2.156-0.556,3.337
					c0.147,0.552,1.316,3.545,2.192,3.187c-0.004,0-0.087,6.262-0.087,6.774c-0.019,3.784-0.845,8.147,0.979,11.667
					c2.018,3.892,6.625,5.893,10.634,7.12c5.504,1.683,11.743,0.804,17.096-0.977c3.146-1.041,6.641-2.844,8.692-5.525
					c1.788-2.327,1.572-5.678,1.478-8.444c-0.125-3.376-0.592-6.73-0.937-10.101c-0.148-1.477-0.818-3.782,0.67-4.81
					c0.993-2.204,1.385-7.021-2.276-7.553c-0.397-0.064-0.327-6.063-0.327-6.063C206.828,66.799,207.034,64.582,206.373,63.538z"/>
				<path fill="#414042" d="M205.514,53.203c-0.748-3.64-3.113-6.767-6.813-7.327c-5.446-0.829-14.183-0.627-19.512,0.901
					c-6.361,1.846-6.809,7.679-6.496,14.043c0.051,1.026-0.482,4.146-0.032,5.077c0.209,0.414,3.122,0.68,3.024,1.075
					c1.029-3.446,0.474-4.966,0.979-9.342c0.995-8.642,13.95-8.008,19.733-6.215c2.46,0.767,4.297,2.448,4.965,5.064
					c0.216,0.827,0.708,7.515-0.344,7.563l4.09,1.81C205.808,65.857,205.724,54.288,205.514,53.203z"/>
				<path fill="#FFDE52" d="M175.886,103.806c-0.027,3.016,6.226,5.554,14.003,5.642c7.766,0.091,14.088-2.298,14.122-5.326
					c0.035-3.022-6.234-5.551-14-5.639C182.237,98.394,175.915,100.777,175.886,103.806z"/>
				<path fill="none" stroke="#FFFFFF" stroke-width="0.191" stroke-miterlimit="10" d="M210.179,100.973
					c-7.349-8.463-31.942-10.01-41.851,1.072"/>
			</g>
		</g>
		<g>
			<path fill="none" d="M234.939,168.526c0.004,0.018,0.009,0.027,0.013,0.037c0.001,0.006,0.002,0.01,0.004,0.017
				c0.004,0.016,0.008,0.021,0.008,0.021S234.952,168.563,234.939,168.526z"/>
			<path fill="none" d="M187.627,256.15c4.681-7.321,17.372-26.517,18.856-28.771c0.495-0.752,1.407-1.629,1.1-2.584
				c-0.389-1.185,0.931-2.323,1.498-3.258c0.84-1.366,1.899-2.579,2.654-4.03c0.469-0.902,1.364-2.654,2.187-3.037
				c1.465-0.688,2.387-1.263,3.121-2.854c0.222-0.48,7.624-11.409,8.215-12.646c0.223-0.481,0.567-0.896,0.763-1.403
				c0.305-0.777-0.221-0.516-0.453-1.208c-0.316-0.945-2.209-1.252-2.101-2.425c0.041-0.462,0.567-0.742,0.726-1.13
				c0.066-0.176,0.232-0.206,0.45-0.153c0.296,0.071,0.69,0.298,1.067,0.521c0.376,0.218,0.729,0.431,0.966,0.489
				c0.05,0.012,0.096,0.017,0.135,0.015c1.29-0.658,0.577-0.533,0.917-1.774c0.173-0.646,0.62-1.573,1.046-2.052
				c0.898-1.007,1.789-2.569,2.388-3.797c0.138-0.266,1.356-1.685,1.149-2.07c-0.136-0.251-0.641-1.137-0.841-1.257
				c-0.872-0.557-2.029-0.91-2.953-1.297c-0.5-0.203-1.528-0.524-1.849-1.038c-0.426-0.702,0.348-1.713,0.361-2.408
				c0.009-0.669,0.791-1.378,0.554-2.09c-0.054-0.16-0.133-0.236-0.231-0.261c-0.305-0.073-0.771,0.356-0.997,0.345
				c-0.121-0.004-0.243-0.022-0.367-0.055c-0.188-0.046-0.378-0.114-0.565-0.184c-0.199-0.067-0.394-0.137-0.582-0.183
				c-0.139-0.032-0.272-0.055-0.4-0.055c-0.063,0.002-0.112-0.003-0.151-0.015c-0.19-0.046-0.135-0.213-0.078-0.379
				c0.05-0.172,0.102-0.344-0.116-0.396c-0.02-0.004-0.04-0.008-0.063-0.011c-0.125-0.012-0.268-0.037-0.421-0.074
				c-0.562-0.135-1.255-0.419-1.683-0.646c-0.224-0.125-1.396-0.819-1.558-0.859c-0.009-0.001-0.013-0.002-0.018-0.002
				c-0.458,0.142-0.39,0.343-0.72,0.264c-0.075-0.019-0.17-0.051-0.295-0.101c-0.476-0.188-5.018-2.308-5.229-2.412
				c-0.385-0.177-0.283-0.694-0.472-0.776c-0.004-0.001-0.008-0.002-0.012-0.004c-0.063-0.014-0.133,0.037-0.206,0.096
				c-0.077,0.051-0.157,0.103-0.229,0.085c-0.086-0.021-0.156-0.143-0.188-0.482c-0.142,0.176-0.229,0.227-0.295,0.21
				c-0.073-0.019-0.114-0.118-0.159-0.223c-0.048-0.104-0.103-0.215-0.193-0.235c-0.005-0.001-0.008-0.003-0.013-0.002
				c-0.065-0.019-0.199,0.305-0.348,0.27c-0.034-0.009-0.069-0.035-0.104-0.09c-0.052-0.148-0.102-0.306-0.171-0.45
				c-0.002-0.001-0.004-0.001-0.006-0.002c-0.047-0.011-0.107,0.063-0.17,0.144c-0.063,0.064-0.131,0.136-0.194,0.118
				c-0.028-0.007-0.056-0.027-0.081-0.076l-0.168-0.567c-0.093,0.149-0.205,0.259-0.354,0.341c-0.123-0.175-0.22-0.358-0.307-0.556
				c-0.001-0.001-0.004-0.001-0.006-0.002c-0.037-0.009-0.082,0.066-0.137,0.148c-0.053,0.073-0.116,0.146-0.192,0.126
				c-0.037-0.009-0.074-0.034-0.115-0.094c-0.045-0.146-0.104-0.297-0.165-0.438c-0.186-0.078-0.369-0.141-0.552-0.185
				c-3.657-0.887-6.71,4.899-8.082,7.964c-1.735,3.892-2.931,8.14-3.884,12.354c-1.584,6.977-3.704,13.669-4.629,20.851
				c-0.345,2.665-1.103,5.331-1.33,8.008c-0.181,2.234-1.115,4.378-1.371,6.604c-0.262,2.215-1.024,4.553-1.505,6.705
				c-0.641,2.875-1.173,5.806-1.774,8.7c-1.083,5.164-2.746,10.15-3.904,15.298c-0.559,2.479-0.837,5.161-1.708,7.525
				c-0.558,1.49-0.856,3.105-1.414,4.604c-0.301,0.798-0.773,1.937-0.889,2.743C179.797,269.172,186.16,258.444,187.627,256.15z
				 M178.914,269.192c-0.001-0.001,0.024,0.002,0.108,0.013C179.035,269.205,178.918,269.193,178.914,269.192z"/>
			<path fill="none" d="M234.95,168.563c0.001,0.006,0.002,0.01,0.004,0.017"/>
			<path fill="#681225" d="M229.168,169.522c0.013-0.004,0.027-0.01,0.044-0.016l0.166-0.178
				C229.308,169.391,229.236,169.454,229.168,169.522z"/>
			<path fill="#681225" d="M229.11,169.573c0.002,0,0.007,0.004,0.009,0.001c0.018-0.018,0.032-0.033,0.051-0.052
				C229.104,169.546,229.075,169.565,229.11,169.573z"/>
			<path fill="#681225" d="M179.023,269.202c-0.084-0.011-0.11-0.014-0.108-0.013C178.918,269.193,179.035,269.205,179.023,269.202z
				"/>
			<path fill="#681225" d="M152.283,321.39c0,0-0.02,0.031-0.076,0.119c-0.001,0.004-0.003,0.008-0.005,0.011
				c0.008-0.013,0.019-0.025,0.027-0.041C152.257,321.436,152.283,321.39,152.283,321.39z"/>
			<path fill="none" d="M152.202,321.52c-0.021,0.029-0.035,0.054-0.035,0.054"/>
			<path fill="#681225" d="M150.718,323.952c-0.031,0.033-0.063,0.064-0.063,0.064s0.03-0.024,0.112-0.106
				c0.014-0.018,0.021-0.021,0.021-0.021S150.753,323.923,150.718,323.952z"/>
			<path fill="#681225" d="M149.932,325.188c-0.004,0.037-0.012,0.075-0.01,0.075c0,0,0.007-0.028,0.024-0.108
				c0.004-0.022,0.004-0.031,0.004-0.031C149.947,325.119,149.939,325.154,149.932,325.188z"/>
			<path fill="#681225" d="M147.321,328.954c-0.014-0.003-0.007,0.019,0.054,0.087C147.393,329.014,147.338,328.958,147.321,328.954
				z"/>
			<path fill="#414042" d="M144.761,331.121c1.467-0.498,1.322-0.542,2.141-1.771c1.31-1.961,6.167-9.175,7.15-10.62l0.031,0.001
				c0.149,0.474-6.867,11.015-7.688,11.852c1.027-0.352,1.611,0.105,2.334-0.697c2.355-4.783,20.047-33.745,20.592-34.648
				c0.959-1.571,2.134-3.013,3.018-4.642c1.02-1.894,2.362-3.692,3.557-5.462c3.409-5.037,6.866-10.145,10.015-15.378
				c2.771-4.603,25.575-38.986,26.153-40.146c0.451-0.896,1.111-0.028,1.606-0.627c0.314-0.377,0.539-1.021,0.813-1.454
				c0.717-1.114,1.515-2.166,2.176-3.32c1.135-1.977,3.026-3.567,3.188-5.996c0.109-1.743,1.192-2.788,2.053-4.176
				c0.954-1.54,2.045-2.981,2.936-4.555c0.81-1.438,1.811-2.792,2.709-4.151c0.537-0.807,1.246-1.633,1.63-2.521
				c0.37-0.844,1.012-2.164,1.859-1.958c0.108,0.026,0.221,0.078,0.335,0.158c0.407,0.291,1.802,1.317,2.523,1.492
				c0.164,0.04,0.293,0.035,0.369-0.028c1.036-0.919,0.93-1.707-0.076-2.568c-1.498-1.278-0.146-1.271,0.483-2.286
				c0.694-1.104,1.414-2.182,2.089-3.308c0.686-1.159,6.283-10.784,6.727-10.677c0.004,0.001,0.006,0.002,0.007,0.004
				c0.543,0.303-0.103,3.759-0.308,4.036c-0.439,0.562,2.771,2.252,3.183,2.352c0.009,0.002,0.016,0.004,0.021,0.006
				c0.037,0.004,0.074,0.01,0.114,0.021c0.485,0.117,1.14,0.629,1.813,1.137c0.664,0.506,1.338,1.021,1.875,1.149
				c0.17,0.042,0.326,0.045,0.463-0.002c0.555-0.186,0.898-1.207,1.139-1.73c0.129-0.276,0.484-1.18,0.813-1.101
				c0.104,0.024,0.205,0.149,0.295,0.426c0.273,0.856,1.988,1.717,2.651,2.204c1.025,0.757,1.851,1.438,3.022,1.958
				c2.385,1.068,5.099,1.571,7.562,2.306c9.636,2.88,51.688,17.55,51.968,17.617c2.396,0.581,4.14-1.965,4.872-4.218
				c0.681-2.077,2.335-6.713,0.509-8.708c-1.782-1.947-52.873-22.955-54.866-23.729c-0.377-0.144-1.646-0.866-2.353-1.039
				c-0.154-0.036-0.285-0.049-0.371-0.021c-0.151,0.049-0.315,0.045-0.494,0.002c-0.377-0.092-0.797-0.355-1.227-0.628
				c-0.427-0.27-0.863-0.538-1.266-0.636c-0.195-0.047-0.383-0.055-0.559,0.003c-0.99,0.332-2.639-0.032-3.717,0.116
				c-0.156,0.021-0.281,0.019-0.378-0.008c-0.815-0.194,0.271-1.866,0.068-2.646c-0.208-0.795-2.812-1.599-3.513-1.959
				c-0.881-0.447-1.724-1.354-2.74-1.601c-0.092-0.021-0.184-0.036-0.273-0.05c-1.063-0.12-1.507-0.138-2.145,1.115
				c-0.803,1.593-2.351,2.181-4,2.143c-0.342-0.01-0.672-0.056-0.994-0.135c-1.133-0.271-2.141-0.946-2.969-1.896
				c-0.797-0.909-0.668-2.112-0.351-3.181c0.005-0.022,0.169-1.373-0.034-1.424c-0.019-0.004-0.039,0.003-0.063,0.021
				c1.528-1.139-0.111-1.635-1.125-2.406c-0.195-0.151-0.183-0.997-0.503-1.075c-0.07-0.017-0.159,0.004-0.271,0.08
				c-0.458,0.316-0.105,0.328-0.65,0.252c-1.217-0.613-2.393-1.326-3.606-1.938c-0.095-0.048-0.185-0.081-0.269-0.103
				c-1.012-0.246-1.43,1.306-1.833,2.188c-0.229,0.517-1.696,2.783-0.887,3.352c0.659,0.46,0.205,0.341,0.362,1.077
				c0.109,0.517,1.072,0.823,1.484,1.031c0.289,0.144,0.906,0.229,1.008,0.561c-0.004-0.01-0.008-0.021-0.012-0.037
				c0.014,0.037,0.021,0.075,0.021,0.075s-0.004-0.008-0.008-0.021c0.02,0.075,0.012,0.164-0.033,0.271
				c-0.128,0.287-0.49,0.813-0.824,0.732c-0.018-0.006-0.035-0.014-0.054-0.021c-0.731-0.313-1.938-1.858-2.097-2.194
				c-0.161-0.338-0.393-0.69-0.55-0.729c-0.088-0.021-0.15,0.055-0.171,0.283c-0.001-0.003-0.001-0.004-0.003-0.004
				c-0.003-0.001-0.029,0.037-0.065,0.099c-0.035,0.013-0.079,0.112-0.121,0.224c-0.179,0.341-0.838,2.029-0.808,2.106
				c-0.005-0.003-0.01-0.005-0.017-0.006c-0.105-0.026-0.421,0.024-0.69,0.09c-0.12,0.025-0.23,0.056-0.311,0.079l-0.103,0.11
				c-0.111-0.035-0.367-0.532-0.537-0.631c-0.551-0.306-3.682-1.235-4.594-1.604c-0.072-0.028-0.148-0.052-0.229-0.07
				c-0.253-0.062-0.532-0.081-0.801-0.097c-0.251-0.015-0.499-0.027-0.701-0.077c-0.073-0.019-0.143-0.04-0.203-0.07
				c-0.043-0.019-1.527-1.02-1.724-1.065c-0.016-0.004-0.022-0.001-0.02,0.01c-0.068-0.206-1.438-0.678-2.567-0.95
				c-0.648-0.159-1.22-0.25-1.41-0.188c-0.064,0.018-0.217,0.42-0.336,0.391c-0.011-0.002-0.02-0.007-0.028-0.016
				c-0.187-0.17-0.25-0.276-0.429-0.319c-0.066-0.018-0.152-0.024-0.269-0.021c0.008,0.002-0.113,0.07-0.25,0.139
				c-0.125,0.06-0.271,0.119-0.327,0.104c-0.017-0.005-0.025-0.017-0.021-0.034c0.035-0.18-0.001-0.255-0.068-0.271
				c-0.161-0.039-0.504,0.249-0.508,0.296c-0.106-0.169-0.225-0.322-0.356-0.472c-0.131,0.078-0.21,0.194-0.242,0.341
				c-0.015,0.011-0.029,0.014-0.048,0.01c-0.063-0.016-0.132-0.132-0.201-0.243c-0.069-0.12-0.147-0.238-0.224-0.259
				c-0.015-0.004-0.03-0.003-0.046,0.003c-0.007-0.001-0.222,0.46-0.331,0.436c-0.034-0.009-0.059-0.063-0.063-0.193
				c-0.007-0.18-0.05-0.255-0.11-0.271c-0.14-0.033-0.371,0.25-0.456,0.308c0.012-0.048-0.317-0.249-0.558-0.308
				c-0.174-0.042-0.301-0.011-0.218,0.208c-0.079-0.205-0.17-0.288-0.271-0.313c-0.102-0.023-0.215,0.01-0.341,0.037
				c-0.119,0.032-0.261,0.053-0.41,0.017c-0.028-0.008-0.059-0.016-0.087-0.025c-0.119-0.044-0.229-0.078-0.327-0.104
				c-0.671-0.163-0.92,0.136-1.111,0.941c-0.104,0.43-1.73,0.57-2.182,0.788c-2.934,1.401-5.073,4.206-6.571,7.218
				c-3.21,6.438-4.821,13.942-6.624,21.011c-1.555,6.132-2.287,12.442-3.542,18.646c-1.226,6.082-2.794,12.146-3.792,18.284
				c-0.961,5.854-2.617,11.518-4.082,17.206c-1.437,5.612-2.16,11.72-4.305,17.068c-1.379,3.47-2.759,6.929-4.216,10.368
				c-0.651,1.54-1.282,3.074-1.854,4.652c-0.463,1.273-1.317,2.166-1.892,3.343c-0.242,0.494-6.732,10.256-7.49,11.479
				c-2.34,3.765-4.858,7.371-7.218,11.094c-0.375,0.591-16.419,25.032-16.676,25.471c-0.302,0.498-1.076,1.2-1.187,1.765
				c0.036-0.164,2.027-0.615,2.189-0.678C141.095,332.365,142.928,331.748,144.761,331.121z M179.674,266.837
				c0.558-1.498,0.856-3.113,1.414-4.604c0.87-2.364,1.149-5.049,1.708-7.525c1.158-5.146,2.821-10.136,3.904-15.298
				c0.602-2.896,1.134-5.825,1.774-8.7c0.479-2.152,1.243-4.49,1.505-6.705c0.256-2.228,1.19-4.367,1.371-6.604
				c0.228-2.677,0.984-5.343,1.33-8.008c0.925-7.182,3.045-13.874,4.629-20.851c0.953-4.216,2.148-8.464,3.884-12.354
				c1.372-3.063,4.425-8.851,8.082-7.964c0.183,0.044,0.366,0.104,0.552,0.183c0.062,0.144,0.12,0.295,0.165,0.438
				c0.041,0.058,0.078,0.085,0.115,0.094c0.076,0.021,0.141-0.053,0.192-0.126c0.055-0.082,0.1-0.159,0.137-0.148
				c0.002,0.001,0.005,0.001,0.006,0.002c0.087,0.193,0.184,0.381,0.307,0.556c0.147-0.082,0.261-0.191,0.354-0.341l0.168,0.565
				c0.025,0.051,0.053,0.071,0.081,0.078c0.063,0.018,0.132-0.054,0.194-0.12c0.063-0.078,0.123-0.15,0.17-0.142
				c0.002,0.001,0.004,0.001,0.006,0.002c0.069,0.146,0.119,0.302,0.171,0.45c0.035,0.055,0.07,0.081,0.104,0.09
				c0.147,0.035,0.281-0.286,0.348-0.27c0.005-0.002,0.008,0.001,0.013,0.002c0.093,0.021,0.146,0.131,0.193,0.235
				c0.045,0.104,0.086,0.204,0.159,0.223c0.064,0.017,0.153-0.034,0.295-0.21c0.031,0.342,0.103,0.463,0.188,0.482
				c0.07,0.018,0.15-0.034,0.229-0.085c0.073-0.059,0.145-0.109,0.206-0.096c0.004,0.002,0.008,0.003,0.012,0.004
				c0.188,0.082,0.087,0.602,0.472,0.775c0.211,0.105,4.753,2.225,5.229,2.411c0.125,0.052,0.22,0.083,0.295,0.103
				c0.33,0.079,0.262-0.122,0.72-0.266c0.005,0,0.009,0.002,0.018,0.004c0.16,0.038,1.334,0.734,1.558,0.859
				c0.428,0.227,1.121,0.509,1.683,0.646c0.153,0.037,0.296,0.063,0.421,0.072c0.022,0.003,0.044,0.009,0.063,0.013
				c0.218,0.053,0.166,0.225,0.116,0.396c-0.057,0.166-0.112,0.333,0.078,0.379c0.039,0.012,0.09,0.017,0.151,0.015
				c0.128,0,0.263,0.021,0.4,0.055c0.188,0.046,0.383,0.113,0.582,0.183c0.188,0.067,0.378,0.138,0.565,0.184
				c0.124,0.028,0.246,0.051,0.367,0.055c0.227,0.014,0.692-0.418,0.997-0.345c0.1,0.022,0.179,0.101,0.231,0.261
				c0.237,0.712-0.545,1.421-0.554,2.09c-0.015,0.695-0.787,1.706-0.361,2.408c0.319,0.514,1.349,0.835,1.849,1.038
				c0.924,0.387,2.081,0.74,2.953,1.297c0.2,0.12,0.705,1.006,0.841,1.257c0.207,0.386-1.013,1.805-1.149,2.07
				c-0.599,1.228-1.488,2.79-2.388,3.797c-0.426,0.477-0.873,1.404-1.046,2.052c-0.34,1.241,0.373,1.116-0.917,1.774
				c-0.039,0.002-0.085-0.003-0.135-0.017c-0.237-0.059-0.59-0.271-0.966-0.487c-0.377-0.225-0.771-0.449-1.067-0.521
				c-0.218-0.053-0.384-0.021-0.45,0.153c-0.157,0.388-0.685,0.668-0.726,1.13c-0.108,1.173,1.783,1.478,2.101,2.425
				c0.232,0.692,0.758,0.429,0.453,1.208c-0.194,0.507-0.54,0.922-0.763,1.403c-0.591,1.234-7.993,12.165-8.215,12.646
				c-0.734,1.594-1.656,2.167-3.121,2.854c-0.821,0.383-1.718,2.135-2.187,3.037c-0.755,1.451-1.814,2.664-2.654,4.028
				c-0.567,0.937-1.887,2.075-1.498,3.26c0.309,0.955-0.604,1.832-1.1,2.584c-1.484,2.254-14.176,21.445-18.856,28.771
				c-1.467,2.294-7.831,13.022-8.842,13.433C178.901,268.774,179.373,267.635,179.674,266.837z"/>
		</g>
	</g>
</g>
</svg>
