<?xml version="1.0" encoding="iso-8859-1"?>
<!-- Generator: Adobe Illustrator 12.0.0, SVG Export Plug-In . SVG Version: 6.00 Build 51448)  -->
<!DOCTYPE svg PUBLIC "-//W3C//DTD SVG 1.1//EN" "http://www.w3.org/Graphics/SVG/1.1/DTD/svg11.dtd" [
	<!ENTITY ns_svg "http://www.w3.org/2000/svg">
	<!ENTITY ns_xlink "http://www.w3.org/1999/xlink">
]>
<svg  version="1.1" id="Ebene_1" xmlns="&ns_svg;" xmlns:xlink="&ns_xlink;" width="465.145" height="331.223"
	 viewBox="0 0 465.145 331.223" style="overflow:visible;enable-background:new 0 0 465.145 331.223;" xml:space="preserve">
<g id="background">
</g>
<path style="display:none;fill:#FFFFFF;" d="M259.068,218.121c0.941-0.544,2.104-0.544,3.045,0l25.212,14.544
	c0.94,0.544,1.522,1.55,1.522,2.638v29.116c0,1.088-0.582,2.094-1.521,2.637l-25.213,14.558c-0.941,0.546-2.104,0.543-3.047,0
	l-25.199-14.558c-0.941-0.543-1.521-1.549-1.521-2.637v-29.116c0-1.088,0.581-2.094,1.523-2.638L259.068,218.121z"/>
<path style="display:none;fill:#FFFFFF;" d="M259.068,51.675c0.941-0.543,2.104-0.543,3.045,0l25.212,14.545
	c0.94,0.543,1.522,1.549,1.522,2.637v29.116c0,1.088-0.582,2.094-1.521,2.637l-25.213,14.559c-0.941,0.544-2.104,0.543-3.047,0
	l-25.199-14.559c-0.941-0.543-1.521-1.549-1.521-2.637V68.858c0-1.088,0.581-2.094,1.523-2.637L259.068,51.675z"/>
<path style="display:none;fill:#E2E2E2;" d="M161.805,232.702c0,1.264-1.169,1.962-2.549,1.962H56.6
	c-1.379,0-2.382-0.698-2.382-1.962v-10.487c0-1.264,1.003-2.117,2.382-2.117h102.656c1.379,0,2.549,0.854,2.549,2.117V232.702
	L161.805,232.702z"/>
<rect x="100.894" y="254.197" style="display:none;fill:#EEC21B;" width="10.594" height="2.979"/>
<rect x="78.715" y="279.687" style="display:none;fill:#EEC21B;" width="10.924" height="2.646"/>
<rect x="100.894" y="259.49" style="display:none;fill:#EEC21B;" width="18.87" height="2.318"/>
<rect x="100.894" y="263.796" style="display:none;fill:#EEC21B;" width="29.794" height="2.979"/>
<path style="display:none;fill:#E2E2E2;" d="M492.442,431.538c0,3.955-3.661,6.143-7.98,6.143H163.102
	c-4.317,0-7.458-2.188-7.458-6.143v-32.832c0-3.954,3.141-6.624,7.458-6.624h321.359c4.319,0,7.98,2.67,7.98,6.624V431.538
	L492.442,431.538z"/>
<rect x="301.764" y="498.823" style="display:none;fill:#EEC21B;" width="33.163" height="9.322"/>
<rect x="232.333" y="578.619" style="display:none;fill:#EEC21B;" width="34.195" height="8.285"/>
<rect x="301.764" y="515.403" style="display:none;fill:#EEC21B;" width="59.069" height="7.256"/>
<rect x="301.764" y="528.877" style="display:none;fill:#EEC21B;" width="93.271" height="9.326"/>
<path style="opacity:0.15;enable-background:new    ;" d="M33.072,240.862L7.092,240.88l-1,3c0,14.667,11.888,25.551,27.55,25.551
	h394.24c13.666,0,29.547-10.885,29.547-25.551 M59.19,4.933c-14.664,0-26.551,11.888-27.551,26.552v212.396h5.273l9.003-212.398
	L59.19,4.933z"/>
<g>
	<rect x="226.148" y="20.274" style="fill:#585A5B;" width="14.698" height="14.699"/>
	<path style="fill:#D8D9DA;" d="M459.429,239.879H273.587c0,7.33-5.94,13.273-13.274,13.273h-53.099
		c-7.33,0-13.273-5.943-13.273-13.273H8.092c0,14.666,11.888,26.551,26.55,26.551h398.24
		C447.548,266.43,459.429,254.545,459.429,239.879z"/>
	<path style="fill:#C6C8C9;" d="M247.037,239.879h-53.1c0,7.33,5.945,13.273,13.273,13.273h53.1c7.332,0,13.275-5.943,13.275-13.273
		H247.037z"/>
	<path style="fill:#161B20;" d="M282.391,40.759V14.208H61.19c-7.332,0-13.274,5.941-13.274,13.273v212.396H61.19V40.759H282.391z
		 M233.762,24.167c1.832,0,3.317,1.481,3.317,3.316c0,1.833-1.485,3.317-3.317,3.317c-1.833,0-3.319-1.484-3.319-3.317
		C230.442,25.65,231.928,24.167,233.762,24.167z"/>
	<path style="fill:#161B20;" d="M419.605,146.957V27.485c0-7.332-5.944-13.273-13.271-13.273H273.587l-26.551,26.55h159.298v199.123
		h13.271V146.957L419.605,146.957z"/>
	<circle style="fill:#585A5B;" cx="233.762" cy="27.483" r="3.317"/>
	<path style="fill:#F4F4F4;" d="M432.881,133.682V27.486c0-4.842-1.314-9.366-3.583-13.272h-22.963
		c7.33,0,13.271,5.941,13.271,13.272v212.396h13.275V133.682L432.881,133.682z M47.915,27.483c0-7.332,5.942-13.273,13.274-13.273
		h185.848V13.26c-12.515-1.792-24.217-6.07-34.6-12.327H61.19c-14.664,0-26.551,11.888-26.551,26.552v212.396h13.273V27.483H47.915z
		 M406.335,14.209h22.963c-4.59-7.93-13.145-13.274-22.963-13.274H198.473l-13.273,13.274H406.335L406.335,14.209z"/>
	<g>
		<path style="fill:#585A5B;" d="M406.335,40.759H61.19v199.12h345.138V40.759H406.335z"/>
		<rect x="144.694" y="41.003" style="fill:#FEFEFE;" width="261.873" height="14.658"/>
		<rect x="60.933" y="41.003" style="fill:#464B4C;" width="83.762" height="198.935"/>
		<rect x="144.694" y="55.661" style="fill:#F3F3F3;" width="261.873" height="184.274"/>
		<rect x="144.694" y="108.013" style="fill:#EAEAEA;" width="261.873" height="43.975"/>
		<rect x="144.694" y="108.013" style="fill:#E0E0E0;" width="261.873" height="2.093"/>
		<rect x="144.694" y="55.661" style="fill:#EBEBEB;" width="205.218" height="2.094"/>
		<rect x="144.694" y="149.893" style="fill:#E0E0E0;" width="261.873" height="2.096"/>
		<rect x="184.481" y="116.389" style="fill:#B0BC74;" width="16.754" height="2.092"/>
		<rect x="180.294" y="122.673" style="fill:#B0BC74;" width="12.563" height="2.092"/>
		<rect x="178.199" y="128.952" style="fill:#B0BC74;" width="6.281" height="2.096"/>
		<rect x="190.764" y="135.235" style="fill:#B0BC74;" width="23.034" height="2.098"/>
		<rect x="184.481" y="141.516" style="fill:#B0BC74;" width="16.754" height="2.094"/>
		<circle style="fill:#CECECE;" cx="150.977" cy="61.943" r="2.094"/>
		<circle style="fill:#CECECE;" cx="150.977" cy="68.226" r="2.094"/>
		<circle style="fill:#CECECE;" cx="150.977" cy="74.508" r="2.094"/>
		<circle style="fill:#CECECE;" cx="150.977" cy="80.789" r="2.095"/>
		<circle style="fill:#CECECE;" cx="150.977" cy="87.071" r="2.094"/>
		<circle style="fill:#CECECE;" cx="150.977" cy="93.354" r="2.094"/>
		<circle style="fill:#CECECE;" cx="150.977" cy="99.636" r="2.094"/>
		<circle style="fill:#CECECE;" cx="150.977" cy="105.918" r="2.095"/>
		<circle style="fill:#CECECE;" cx="150.977" cy="112.2" r="2.094"/>
		<circle style="fill:#CECECE;" cx="150.977" cy="118.483" r="2.094"/>
		<circle style="fill:#CECECE;" cx="150.977" cy="124.766" r="2.093"/>
		<circle style="fill:#CECECE;" cx="150.977" cy="131.046" r="2.094"/>
		<path style="fill:#CECECE;" d="M150.977,135.235c1.157,0,2.095,0.938,2.095,2.098c0,1.152-0.938,2.093-2.095,2.093
			s-2.094-0.939-2.094-2.093C148.883,136.174,149.819,135.235,150.977,135.235z"/>
		<circle style="fill:#CECECE;" cx="150.977" cy="143.611" r="2.095"/>
		<circle style="fill:#CECECE;" cx="150.977" cy="149.893" r="2.096"/>
		<circle style="fill:#CECECE;" cx="150.977" cy="156.174" r="2.094"/>
		<circle style="fill:#CECECE;" cx="150.977" cy="162.457" r="2.094"/>
		<circle style="fill:#CECECE;" cx="150.977" cy="168.74" r="2.094"/>
		<circle style="fill:#CECECE;" cx="150.977" cy="175.021" r="2.095"/>
		<circle style="fill:#CECECE;" cx="150.977" cy="181.304" r="2.093"/>
		<circle style="fill:#CECECE;" cx="150.977" cy="187.586" r="2.094"/>
		<circle style="fill:#CECECE;" cx="150.977" cy="193.868" r="2.095"/>
		<circle style="fill:#CECECE;" cx="150.977" cy="200.151" r="2.096"/>
		<circle style="fill:#CECECE;" cx="150.977" cy="206.432" r="2.094"/>
		<circle style="fill:#CECECE;" cx="150.977" cy="212.715" r="2.094"/>
		<circle style="fill:#CECECE;" cx="150.977" cy="218.996" r="2.094"/>
		<circle style="fill:#CECECE;" cx="150.977" cy="225.279" r="2.095"/>
		<circle style="fill:#CECECE;" cx="150.977" cy="231.561" r="2.094"/>
		<circle style="fill:#CECECE;" cx="150.977" cy="237.844" r="2.094"/>
		<rect x="396.076" y="46.238" style="fill:#CECECE;" width="4.188" height="4.188"/>
		<rect x="387.698" y="46.238" style="fill:#CECECE;" width="4.188" height="4.188"/>
		<rect x="379.322" y="46.238" style="fill:#CECECE;" width="4.188" height="4.188"/>
		<polyline style="fill:#363A3A;" points="144.694,64.037 60.933,64.037 60.933,74.509 144.694,74.509 		"/>
		<rect x="71.403" y="68.226" style="fill:#B3B3B3;" width="33.505" height="2.094"/>
		<rect x="71.403" y="78.694" style="fill:#7A7A7A;" width="27.224" height="2.098"/>
		<rect x="71.403" y="95.448" style="fill:#5B5B5B;" width="27.224" height="2.096"/>
		<rect x="77.685" y="105.919" style="fill:#7A7A7A;" width="10.471" height="2.095"/>
		<rect x="83.968" y="116.389" style="fill:#707070;" width="18.846" height="2.092"/>
		<rect x="83.968" y="126.859" style="fill:#707070;" width="25.129" height="2.095"/>
		<rect x="83.968" y="137.331" style="fill:#707070;" width="16.752" height="2.093"/>
		<rect x="77.685" y="147.797" style="fill:#7A7A7A;" width="20.941" height="2.096"/>
		<rect x="83.968" y="158.268" style="fill:#707070;" width="27.222" height="2.096"/>
		<rect x="83.968" y="168.739" style="fill:#707070;" width="18.846" height="2.098"/>
		<rect x="83.968" y="179.211" style="fill:#707070;" width="23.033" height="2.094"/>
		<rect x="71.403" y="57.755" style="fill:#7A7A7A;" width="23.035" height="2.093"/>
		<rect x="169.823" y="91.26" style="fill:#4C7FC0;" width="8.377" height="2.092"/>
		<rect x="232.645" y="91.26" style="fill:#4C7FC0;" width="2.093" height="2.092"/>
		<rect x="188.669" y="91.26" style="fill:#F8C286;" width="16.754" height="2.092"/>
		<rect x="180.294" y="91.26" style="fill:#B0BC74;" width="8.375" height="2.092"/>
		<rect x="215.892" y="91.26" style="fill:#F8C286;" width="16.753" height="2.092"/>
		<rect x="207.517" y="91.26" style="fill:#B0BC74;" width="8.375" height="2.092"/>
		<rect x="161.448" y="110.106" style="fill:#4C7FC0;" width="6.281" height="2.097"/>
		<rect x="169.823" y="110.106" style="fill:#B7B7B7;" width="2.095" height="2.097"/>
		<rect x="201.235" y="116.389" style="fill:#B7B7B7;" width="2.094" height="2.092"/>
		<rect x="192.857" y="122.673" style="fill:#B7B7B7;" width="2.096" height="2.092"/>
		<rect x="184.481" y="128.952" style="fill:#B7B7B7;" width="2.095" height="2.096"/>
		<rect x="213.798" y="135.235" style="fill:#B7B7B7;" width="2.094" height="2.098"/>
		<rect x="201.235" y="141.516" style="fill:#B7B7B7;" width="2.094" height="2.094"/>
		<rect x="161.448" y="147.797" style="fill:#B7B7B7;" width="2.094" height="2.096"/>
		<rect x="169.823" y="116.389" style="fill:#B7B7B7;" width="12.563" height="2.092"/>
		<rect x="169.823" y="116.389" style="fill:#B7B7B7;" width="12.563" height="2.092"/>
		<rect x="169.823" y="122.673" style="fill:#B7B7B7;" width="8.377" height="2.092"/>
		<rect x="169.823" y="128.952" style="fill:#B7B7B7;" width="6.283" height="2.096"/>
		<rect x="169.823" y="135.235" style="fill:#B7B7B7;" width="18.847" height="2.098"/>
		<rect x="169.823" y="141.516" style="fill:#B7B7B7;" width="12.563" height="2.094"/>
		<rect x="169.823" y="84.976" style="fill:#4C7FC0;" width="8.377" height="2.096"/>
		<rect x="161.448" y="72.414" style="fill:#4C7FC0;" width="8.375" height="2.095"/>
		<rect x="161.448" y="97.542" style="fill:#4C7FC0;" width="8.375" height="2.093"/>
		<rect x="161.448" y="103.823" style="fill:#4C7FC0;" width="8.375" height="2.097"/>
		<rect x="169.823" y="154.08" style="fill:#4C7FC0;" width="6.283" height="2.096"/>
		<rect x="176.106" y="160.364" style="fill:#4C7FC0;" width="6.28" height="2.096"/>
		<rect x="176.106" y="198.055" style="fill:#4C7FC0;" width="6.28" height="2.096"/>
		<rect x="176.106" y="204.338" style="fill:#4C7FC0;" width="10.47" height="2.094"/>
		<rect x="203.328" y="154.08" style="fill:#4C7FC0;" width="2.095" height="2.096"/>
		<rect x="186.575" y="154.08" style="fill:#F8C286;" width="16.753" height="2.096"/>
		<rect x="178.199" y="154.08" style="fill:#B0BC74;" width="8.376" height="2.096"/>
		<rect x="182.387" y="166.647" style="fill:#4C7FC0;" width="6.282" height="2.092"/>
		<rect x="215.892" y="166.647" style="fill:#4C7FC0;" width="2.096" height="2.092"/>
		<rect x="199.14" y="166.647" style="fill:#F8C286;" width="16.752" height="2.092"/>
		<rect x="190.764" y="166.647" style="fill:#B0BC74;" width="8.376" height="2.092"/>
		<rect x="213.798" y="204.338" style="fill:#4C7FC0;" width="2.094" height="2.094"/>
		<rect x="197.046" y="204.338" style="fill:#F8C286;" width="16.752" height="2.094"/>
		<rect x="188.669" y="204.338" style="fill:#B0BC74;" width="8.377" height="2.094"/>
		<rect x="182.387" y="172.926" style="fill:#4C7FC0;" width="6.282" height="2.096"/>
		<rect x="211.704" y="172.926" style="fill:#4C7FC0;" width="2.094" height="2.096"/>
		<rect x="199.14" y="172.926" style="fill:#F8C286;" width="12.564" height="2.096"/>
		<rect x="190.764" y="172.926" style="fill:#B0BC74;" width="8.376" height="2.096"/>
		<rect x="182.387" y="210.621" style="fill:#4C7FC0;" width="4.188" height="2.092"/>
		<rect x="186.575" y="216.903" style="fill:#B7B7B7;" width="67.01" height="2.096"/>
		<rect x="186.575" y="223.184" style="fill:#B7B7B7;" width="58.634" height="2.096"/>
		<rect x="186.575" y="229.467" style="fill:#B7B7B7;" width="62.82" height="2.094"/>
		<rect x="182.387" y="235.75" style="fill:#4C7FC0;" width="4.188" height="2.092"/>
		<rect x="182.387" y="179.211" style="fill:#4C7FC0;" width="6.282" height="2.094"/>
		<rect x="205.423" y="179.211" style="fill:#4C7FC0;" width="2.094" height="2.094"/>
		<rect x="199.14" y="179.211" style="fill:#F8C286;" width="6.283" height="2.094"/>
		<rect x="190.764" y="179.211" style="fill:#B0BC74;" width="8.376" height="2.094"/>
		<rect x="182.387" y="185.492" style="fill:#4C7FC0;" width="6.282" height="2.096"/>
		<rect x="222.174" y="185.492" style="fill:#4C7FC0;" width="2.094" height="2.096"/>
		<rect x="199.14" y="185.492" style="fill:#F8C286;" width="23.034" height="2.096"/>
		<rect x="190.764" y="185.492" style="fill:#B0BC74;" width="8.376" height="2.096"/>
		<rect x="182.387" y="191.774" style="fill:#4C7FC0;" width="6.282" height="2.098"/>
		<rect x="215.892" y="191.774" style="fill:#4C7FC0;" width="2.096" height="2.098"/>
		<rect x="199.14" y="191.774" style="fill:#F8C286;" width="16.752" height="2.098"/>
		<rect x="190.764" y="191.774" style="fill:#B0BC74;" width="8.376" height="2.098"/>
		<rect x="161.448" y="59.848" style="fill:#B7B7B7;" width="16.752" height="2.095"/>
		<rect x="205.423" y="84.976" style="fill:#4C7FC0;" width="2.094" height="2.096"/>
		<rect x="188.669" y="84.976" style="fill:#F8C286;" width="16.754" height="2.096"/>
		<rect x="180.294" y="84.976" style="fill:#B0BC74;" width="8.375" height="2.096"/>
		<rect x="169.823" y="78.694" style="fill:#B7B7B7;" width="37.693" height="2.098"/>
		<polygon style="fill:#EAEAEA;" points="278.713,120.577 278.713,114.294 281.854,117.435 		"/>
	</g>
</g>
</svg>
