<?xml version="1.0" encoding="utf-8"?>
<!-- Generator: Adobe Illustrator 12.0.0, SVG Export Plug-In . SVG Version: 6.00 Build 51448)  -->
<!DOCTYPE svg PUBLIC "-//W3C//DTD SVG 1.1//EN" "http://www.w3.org/Graphics/SVG/1.1/DTD/svg11.dtd" [
	<!ENTITY ns_svg "http://www.w3.org/2000/svg">
	<!ENTITY ns_xlink "http://www.w3.org/1999/xlink">
]>
<svg  version="1.1" id="Ebene_1" opacity="0.8" xmlns="&ns_svg;" xmlns:xlink="&ns_xlink;" width="465.145" height="331.223"
	 viewBox="0 0 465.145 331.223" overflow="visible" enable-background="new 0 0 465.145 331.223" xml:space="preserve">
<rect x="0.072" y="0.112" display="none" fill="#FFCC00" width="465" height="332"/>
<g>
	<line fill="none" stroke="#5183A5" stroke-width="2" stroke-miterlimit="10" x1="372.838" y1="298.99" x2="427.732" y2="289.03"/>
	<path fill="none" stroke="#5183A5" stroke-width="2" stroke-miterlimit="10" d="M399.42,177.55"/>
	<line fill="none" stroke="#5183A5" stroke-width="2" stroke-miterlimit="10" x1="217.574" y1="260.301" x2="203.108" y2="316.37"/>
	
		<line fill="none" stroke="#5183A5" stroke-width="2" stroke-miterlimit="10" x1="159.822" y1="273.592" x2="217.574" y2="260.301"/>
	<line fill="none" stroke="#5183A5" stroke-width="2" stroke-miterlimit="10" x1="367.62" y1="106.635" x2="337.282" y2="21.112"/>
	<line fill="none" stroke="#5183A5" stroke-width="2" stroke-miterlimit="10" x1="138.378" y1="56.094" x2="115.218" y2="16.221"/>
	<line fill="none" stroke="#5183A5" stroke-width="2" stroke-miterlimit="10" x1="77.699" y1="56.094" x2="18.667" y2="32.167"/>
	<line fill="none" stroke="#00518A" stroke-width="2" stroke-miterlimit="10" x1="386.129" y1="50.113" x2="367.62" y2="106.635"/>
	<line fill="none" stroke="#00518A" stroke-width="2" stroke-miterlimit="10" x1="441.024" y1="69.386" x2="367.62" y2="106.635"/>
	<line fill="none" stroke="#00518A" stroke-width="2" stroke-miterlimit="10" x1="367.62" y1="106.635" x2="399.42" y2="177.55"/>
	<line fill="none" stroke="#00518A" stroke-width="2" stroke-miterlimit="10" x1="298.24" y1="235.105" x2="372.838" y2="298.99"/>
	<line fill="none" stroke="#00518A" stroke-width="2" stroke-miterlimit="10" x1="298.24" y1="235.105" x2="315.285" y2="298.99"/>
	<line fill="none" stroke="#00518A" stroke-width="2" stroke-miterlimit="10" x1="217.574" y1="260.301" x2="298.24" y2="235.105"/>
	<line fill="none" stroke="#00518A" stroke-width="2" stroke-miterlimit="10" x1="115.218" y1="125.893" x2="298.24" y2="235.105"/>
	<line fill="none" stroke="#00518A" stroke-width="2" stroke-miterlimit="10" x1="138.378" y1="56.094" x2="115.218" y2="125.893"/>
	<line fill="none" stroke="#00518A" stroke-width="2" stroke-miterlimit="10" x1="115.218" y1="125.893" x2="189.816" y2="42.804"/>
	<line fill="none" stroke="#00518A" stroke-width="2" stroke-miterlimit="10" x1="77.699" y1="56.094" x2="138.378" y2="56.094"/>
	<line fill="none" stroke="#00518A" stroke-width="2" stroke-miterlimit="10" x1="77.699" y1="56.094" x2="51.118" y2="106.04"/>
	<line fill="none" stroke="#00518A" stroke-width="2" stroke-miterlimit="10" x1="372.838" y1="298.99" x2="399.42" y2="177.55"/>
	<line fill="none" stroke="#00518A" stroke-width="2" stroke-miterlimit="10" x1="367.62" y1="106.635" x2="298.24" y2="235.105"/>
	<line fill="none" stroke="#00518A" stroke-width="2" stroke-miterlimit="10" x1="115.218" y1="125.893" x2="367.62" y2="106.635"/>
	<line fill="none" stroke="#00518A" stroke-width="2" stroke-miterlimit="10" x1="256.084" y1="116.264" x2="298.24" y2="235.105"/>
	<g id="Facebook" transform="translate(79.000000, 0.000000)">
		<path fill="#3B5998" d="M176.566,157.186c-23.155,0-41.931-18.746-41.931-41.868s18.773-41.865,41.931-41.865
			c23.156,0,41.93,18.742,41.93,41.865C218.494,138.44,199.723,157.185,176.566,157.186z"/>
		<path id="reflec_28_" fill-opacity="0.08" d="M151.745,81.571l48.043,68.614c-6.647,4.422-14.636,7.001-23.224,7.001
			c-23.154,0-41.93-18.745-41.93-41.868C134.637,101.47,141.369,89.194,151.745,81.571z"/>
	</g>
	<g id="Mail" transform="translate(158.000000, 0.000000)">
		<path fill="#FFFFFF" d="M215.466,319.076c-10.146,0-18.369-8.216-18.369-18.346c0-10.131,8.225-18.344,18.369-18.344
			c10.146,0,18.369,8.213,18.369,18.344S225.612,319.075,215.466,319.076z"/>
		<path id="reflec_2_" fill-opacity="0.08" d="M204.591,285.948l21.049,30.063c-2.912,1.938-6.41,3.068-10.174,3.068
			c-10.146,0-18.369-8.216-18.369-18.346C197.097,294.666,200.046,289.287,204.591,285.948z"/>
	</g>
	<path fill="#FFFFFF" d="M114.933,158.389c-17.646,0-31.952-14.285-31.952-31.907c0-17.621,14.306-31.904,31.952-31.904
		c17.647,0,31.954,14.283,31.954,31.904C146.887,144.104,132.58,158.389,114.933,158.389z"/>
	<path id="reflec_6_" fill-opacity="0.08" d="M96.017,100.765l36.611,52.288c-5.065,3.371-11.15,5.336-17.696,5.336
		c-17.646,0-31.952-14.285-31.952-31.907C82.98,115.929,88.11,106.573,96.017,100.765z"/>
	<g id="Android" transform="translate(553.000000, 0.000000)">
		<path fill="#A4C639" d="M-360.845,60.715c-9.277,0-16.799-7.51-16.799-16.774c0-9.264,7.521-16.772,16.799-16.772
			c9.278,0,16.801,7.51,16.801,16.772C-344.045,53.205-351.567,60.716-360.845,60.715z"/>
		<path id="reflec_7_" fill-opacity="0.08" d="M-370.791,30.419l19.249,27.491c-2.663,1.771-5.862,2.805-9.305,2.805
			c-9.277,0-16.799-7.51-16.799-16.774C-377.644,38.393-374.946,33.474-370.791,30.419z"/>
	</g>
	<g id="CSS3" transform="translate(79.000000, 0.000000)">
		<path fill="#0B6DBB" d="M124.336,329.46c-7.956,0-14.405-6.442-14.405-14.39c0-7.942,6.449-14.386,14.405-14.386
			c7.957,0,14.406,6.442,14.406,14.386C138.742,323.018,132.293,329.459,124.336,329.46z"/>
		<path id="reflec_10_" fill-opacity="0.08" d="M115.81,303.479l16.506,23.575c-2.283,1.519-5.027,2.406-7.979,2.406
			c-7.956,0-14.405-6.442-14.405-14.39C109.931,310.315,112.243,306.097,115.81,303.479z"/>
	</g>
	<g id="HTML5" transform="translate(158.000000, 0.000000)">
		<path fill="#E24628" d="M1.173,286.181c-7.499,0-13.578-6.069-13.578-13.558c0-7.489,6.079-13.561,13.578-13.561
			c7.497,0,13.575,6.07,13.575,13.561C14.748,280.112,8.67,286.181,1.173,286.181z"/>
		<path id="reflec_11_" fill-opacity="0.08" d="M-6.866,261.694l15.559,22.222c-2.153,1.433-4.739,2.268-7.52,2.268
			c-7.499,0-13.578-6.07-13.578-13.558C-12.405,268.14-10.226,264.163-6.866,261.694z"/>
	</g>
	<g id="Picasa" transform="translate(316.000000, 0.000000)">
		<path fill="#993E9F" d="M21.307,35.569c-8.382,0-15.175-6.781-15.175-15.149S12.925,5.265,21.307,5.265
			c8.38,0,15.174,6.783,15.174,15.152C36.48,28.785,29.688,35.569,21.307,35.569z"/>
		<path id="reflec_13_" fill-opacity="0.08" d="M12.323,8.204L29.71,33.035c-2.404,1.6-5.296,2.531-8.402,2.531
			c-8.382,0-15.175-6.781-15.175-15.149C6.132,15.406,8.569,10.962,12.323,8.204z"/>
	</g>
	<g id="LastFM" transform="translate(395.000000, 0.000000)">
		<path fill="#E00024" d="M-378.061,44.136c-6.636,0-12.014-5.371-12.014-11.997s5.378-11.997,12.014-11.997
			s12.015,5.372,12.015,11.997C-366.048,38.765-371.427,44.136-378.061,44.136z"/>
		<path id="reflec_14_" fill-opacity="0.08" d="M-385.174,22.47l13.768,19.66c-1.905,1.267-4.193,2.006-6.654,2.006
			c-6.636,0-12.014-5.372-12.014-11.997C-390.074,28.172-388.145,24.654-385.174,22.47z"/>
	</g>
	<g id="Soundcloud" transform="translate(553.000000, 0.000000)">
		<path fill="#FD6312" d="M-436.771,28.978c-7.938,0-14.375-6.427-14.375-14.354c0-7.929,6.437-14.354,14.375-14.354
			c7.94,0,14.376,6.426,14.376,14.354C-422.395,22.552-428.831,28.978-436.771,28.978z"/>
		<path id="reflec_16_" fill-opacity="0.08" d="M-445.282,3.053l16.472,23.524c-2.276,1.517-5.016,2.398-7.961,2.398
			c-7.938,0-14.375-6.427-14.375-14.354C-451.146,9.876-448.839,5.667-445.282,3.053z"/>
	</g>
	<g id="RSS" transform="translate(79.000000, 1.000000)">
		<path fill="#E18F00" d="M318.924,190.075c-7.718,0-13.975-6.248-13.975-13.954c0-7.705,6.257-13.955,13.975-13.955
			c7.72,0,13.978,6.25,13.978,13.955C332.901,183.827,326.644,190.075,318.924,190.075z"/>
		<path id="reflec_19_" fill-opacity="0.08" d="M310.652,164.872l16.013,22.871c-2.216,1.475-4.877,2.332-7.739,2.332
			c-7.717,0-13.975-6.248-13.975-13.954C304.949,171.507,307.194,167.414,310.652,164.872z"/>
	</g>
	<g id="Google__x2B_" transform="translate(157.000000, 0.500000)">
		<path fill="#D34836" d="M-19.044,70.144c-7.755,0-14.043-6.274-14.043-14.021c0-7.744,6.288-14.022,14.043-14.022
			c7.757,0,14.043,6.278,14.043,14.022S-11.287,70.145-19.044,70.144z"/>
		<path id="reflec_20_" fill-opacity="0.08" d="M-27.388,44.904l16.092,22.98c-2.227,1.479-4.899,2.344-7.775,2.344
			c-7.756,0-14.043-6.274-14.043-14.021C-33.116,51.57-30.861,47.458-27.388,44.904z"/>
	</g>
	<g id="LinkedIN" transform="translate(316.000000, 0.500000)">
		<path fill="#007BB6" d="M51.619,136.548c-16.761,0-30.349-13.568-30.349-30.305c0-16.735,13.588-30.306,30.349-30.306
			c16.763,0,30.349,13.568,30.349,30.306C81.968,122.98,68.381,136.549,51.619,136.548z"/>
		<path id="reflec_22_" fill-opacity="0.08" d="M33.656,81.817l34.772,49.664c-4.813,3.201-10.593,5.067-16.81,5.067
			c-16.761,0-30.349-13.568-30.349-30.305C21.273,96.222,26.146,87.336,33.656,81.817z"/>
	</g>
	<g id="Dropbox" transform="translate(474.000000, 1.000000)">
		<path fill="#3D9AE8" d="M-46.85,299.333c-7.499,0-13.577-6.07-13.577-13.56c0-7.484,6.078-13.557,13.577-13.557
			c7.498,0,13.576,6.071,13.576,13.557C-33.273,293.263-39.352,299.332-46.85,299.333z"/>
		<path id="reflec_24_" fill-opacity="0.08" d="M-54.886,274.849l15.557,22.217c-2.151,1.435-4.737,2.27-7.52,2.27
			c-7.499,0-13.577-6.07-13.577-13.56C-60.427,281.292-58.248,277.317-54.886,274.849z"/>
	</g>
	<g id="Twitter">
		<path fill="#4099FF" d="M298.376,266.057c-16.983,0-30.755-13.751-30.755-30.712c0-16.96,13.771-30.709,30.755-30.709
			c16.985,0,30.755,13.749,30.755,30.709C329.131,252.306,315.364,266.057,298.376,266.057z"/>
		<path id="reflec_27_" fill-opacity="0.08" d="M280.171,210.593l35.238,50.328c-4.877,3.244-10.731,5.136-17.032,5.136
			c-16.984,0-30.755-13.751-30.755-30.712C267.622,225.189,272.561,216.183,280.171,210.593z"/>
	</g>
	<g id="Dribbble" transform="translate(158.000000, 0.000000)">
		<path fill="#EA4C89" d="M229.025,69.063c-11.027,0-19.967-8.927-19.967-19.938c0-11.014,8.938-19.938,19.967-19.938
			c11.025,0,19.966,8.927,19.966,19.938C248.99,60.136,240.051,69.063,229.025,69.063z"/>
		<path id="reflec_29_" fill-opacity="0.08" d="M217.202,33.056l22.878,32.673c-3.166,2.106-6.969,3.334-11.058,3.334
			c-11.027,0-19.967-8.927-19.967-19.938C209.058,42.531,212.264,36.685,217.202,33.056z"/>
	</g>
	<g id="Github" transform="translate(237.000000, 0.000000)">
		<path fill="#333333" d="M-19.579,279.599c-8.822,0-15.974-7.141-15.974-15.95c0-8.807,7.151-15.949,15.974-15.949
			c8.823,0,15.974,7.144,15.974,15.949C-3.605,272.457-10.758,279.599-19.579,279.599z"/>
		<path id="reflec_30_" fill-opacity="0.08" d="M-29.035,250.793l18.303,26.139c-2.533,1.688-5.575,2.667-8.847,2.667
			c-8.822,0-15.974-7.141-15.974-15.95C-35.552,258.375-32.986,253.698-29.035,250.793z"/>
	</g>
	<g id="Youtube" transform="translate(316.000000, 0.000000)">
		<path id="YouTube" fill="#CD332D" d="M-237.824,70.652c-8.381,0-15.174-6.781-15.174-15.149c0-8.369,6.793-15.152,15.174-15.152
			c8.381,0,15.174,6.783,15.174,15.152C-222.65,63.868-229.443,70.652-237.824,70.652z"/>
		<path id="reflec_31_" fill-opacity="0.08" d="M-246.808,43.287l17.389,24.831c-2.405,1.601-5.297,2.531-8.403,2.531
			c-8.381,0-15.174-6.781-15.174-15.149C-252.998,50.489-250.562,46.046-246.808,43.287z"/>
	</g>
	<g id="Vimeo" transform="translate(395.000000, 0.000000)">
		<path fill="#4EBBFF" d="M-343.728,117.31c-7.499,0-13.577-6.07-13.577-13.557c0-7.488,6.078-13.56,13.577-13.56
			c7.498,0,13.576,6.069,13.576,13.56C-330.152,111.24-336.23,117.31-343.728,117.31z"/>
		<path id="reflec_32_" fill-opacity="0.08" d="M-351.766,92.826l15.557,22.217c-2.152,1.433-4.737,2.267-7.52,2.267
			c-7.499,0-13.577-6.07-13.577-13.557C-357.306,99.269-355.127,95.294-351.766,92.826z"/>
	</g>
	<g id="Instagram" transform="translate(553.000000, 0.000000)">
		<path fill="#517FA4" d="M-237.236,321.069c-10.585,0-19.166-8.567-19.166-19.141s8.581-19.139,19.166-19.139
			s19.167,8.566,19.167,19.139S-226.651,321.069-237.236,321.069z"/>
		<path id="reflec_34_" fill-opacity="0.08" d="M-248.585,286.502l21.963,31.366c-3.038,2.021-6.688,3.198-10.614,3.198
			c-10.585,0-19.166-8.567-19.166-19.141C-256.402,295.598-253.327,289.986-248.585,286.502z"/>
	</g>
	<g id="Pinterest" transform="translate(632.000000, 0.000000)">
		<path fill="#CB2027" d="M-190.367,89.819c-9.493,0-17.189-7.686-17.189-17.167c0-9.479,7.696-17.167,17.189-17.167
			c9.495,0,17.191,7.688,17.191,17.167C-173.176,82.133-180.872,89.819-190.367,89.819z"/>
		<path id="reflec_35_" fill-opacity="0.08" d="M-200.545,58.816l19.699,28.133c-2.727,1.813-6.001,2.87-9.521,2.87
			c-9.493,0-17.189-7.686-17.189-17.167C-207.557,66.974-204.798,61.941-200.545,58.816z"/>
	</g>
</g>
</svg>
