<?xml version="1.0" encoding="iso-8859-1"?>
<!-- Generator: Adobe Illustrator 12.0.0, SVG Export Plug-In . SVG Version: 6.00 Build 51448)  -->
<!DOCTYPE svg PUBLIC "-//W3C//DTD SVG 1.1//EN" "http://www.w3.org/Graphics/SVG/1.1/DTD/svg11.dtd" [
	<!ENTITY ns_svg "http://www.w3.org/2000/svg">
	<!ENTITY ns_xlink "http://www.w3.org/1999/xlink">
]>
<svg  version="1.1" id="Ebene_1" xmlns="&ns_svg;" xmlns:xlink="&ns_xlink;" width="465.145" height="331.223"
	 viewBox="0 0 465.145 331.223" style="overflow:visible;enable-background:new 0 0 465.145 331.223;" xml:space="preserve">
<g>
	<path style="opacity:0.8;fill:#353227;enable-background:new    ;" d="M254.369,80.198L32.95,67.136
		c-2.29-0.135-4.478,0.103-6.473,0.648c-2.004,0.548-3.814,1.405-5.342,2.513c-1.533,1.108-2.779,2.47-3.643,4.011
		c-0.867,1.547-1.35,3.278-1.35,5.122l0.037,198.25c0,2.536,0.57,4.912,1.598,7.034c1.03,2.125,2.52,3.99,4.355,5.501
		c1.835,1.511,4.014,2.664,6.42,3.368c2.402,0.703,5.026,0.957,7.759,0.672l324.76-33.645l-16.746-18.072l-22.396,1.923l0.002,0.009
		L90.732,264.33l-0.001-0.013l-51.146,4.395L36.376,85.484l44.536,2.047l176.626,8.117L254.369,80.198"/>
	<path style="fill:#222222;" d="M256.703,77.198L35.283,64.136c-2.29-0.135-4.478,0.103-6.473,0.648
		c-2.004,0.548-3.814,1.405-5.342,2.513c-1.533,1.108-2.779,2.47-3.643,4.011c-0.867,1.547-1.35,3.278-1.35,5.122l0.037,198.25
		c0,2.536,0.57,4.912,1.598,7.034c1.03,2.125,2.52,3.99,4.355,5.501c1.835,1.511,4.014,2.664,6.42,3.368
		c2.402,0.703,5.026,0.957,7.759,0.672l312.767-32.54l-4.753-19.177l-22.396,1.923l0.002,0.009l-231.2,19.86l-0.001-0.013
		l-51.146,4.395L38.71,82.484l44.536,2.047l176.627,8.117L256.703,77.198"/>
	<path style="fill:#D8D8D8;" d="M340.639,215.248l-22.099,1.396l5.725,24.817l22.396-1.923L340.639,215.248 M83.245,84.531
		l-44.536-2.047l3.208,183.229l51.146-4.395L83.245,84.531"/>
	<path style="fill:#EFEFEF;" d="M224.766,242.962l-0.846-5.439l90.066-6.799l1.125,5.007L224.766,242.962 M106.843,260.147
		l-3.688-56.009l104.823-4.556l7.564,51.228L106.843,260.147 M97.607,119.858l-1.76-26.73l46.668,1.863l2.718,25.818L97.607,119.858
		 M156.662,121.036l-2.938-25.6l106.658,4.261l4.803,23.504L156.662,121.036 M259.872,92.649L83.245,84.531l9.819,176.788
		l0.001,0.013l231.201-19.86l-0.002-0.009l-5.725-24.817l-7.608,0.48l0.035,0.157l-89.314,5.65l-0.818-5.269l66.621-3.922
		c-0.532-0.51-1.03-1.052-1.484-1.619c-0.455-0.568-0.865-1.164-1.229-1.78c-0.364-0.616-0.677-1.252-0.933-1.901
		c-0.258-0.646-0.457-1.311-0.595-1.979l-1.034-5.047l-63.402,3.035l-0.796-5.12l63.204-2.758l-2.642-12.882l-176.361,5.703
		l-0.358-5.452l175.754-4.961l-2.392-11.65l-174.25,3.148l-0.348-5.291l173.657-2.446l-2.289-11.162l-172.214,0.763l-0.34-5.149
		l171.634-0.097l-2.271-11.065l-170.199-1.525l-0.329-4.994l169.633,2.156L259.872,92.649"/>
	<polyline style="fill:#A7BDB9;" points="267.875,131.669 98.243,129.512 98.571,134.506 268.771,136.031 267.875,131.669 	"/>
	<polyline style="fill:#A7BDB9;" points="271.04,147.098 99.407,147.195 99.746,152.344 271.96,151.581 271.04,147.098 	"/>
	<polyline style="fill:#A7BDB9;" points="274.249,162.743 100.592,165.192 100.94,170.483 275.189,167.332 274.249,162.743 	"/>
	<polyline style="fill:#A7BDB9;" points="277.58,178.985 101.826,183.946 102.185,189.398 278.546,183.695 277.58,178.985 	"/>
	<polyline style="fill:#A7BDB9;" points="281.188,196.575 217.983,199.332 218.779,204.452 282.182,201.417 281.188,196.575 	"/>
	<path style="fill:#A7BDB9;" d="M287.454,213.743l-66.621,3.922l0.818,5.269l89.314-5.651l-0.035-0.156l-12.975,0.816
		c-0.951,0.063-1.905-0.003-2.848-0.173c-0.939-0.171-1.867-0.449-2.767-0.82c-0.897-0.369-1.766-0.834-2.586-1.372
		C288.938,215.036,288.165,214.419,287.454,213.743"/>
	<path style="fill:#212121;stroke:#050503;stroke-width:0.25;" d="M431.574,207.073c-0.169,0.071-0.343,0.138-0.521,0.192
		c-0.179,0.058-0.36,0.107-0.548,0.15c-0.188,0.043-0.379,0.078-0.574,0.104c-0.194,0.028-0.396,0.048-0.601,0.063l-19.616,1.196
		l0.626,2.067l16.265-1.026c0.54-0.032,1.053-0.124,1.533-0.264c0.479-0.14,0.932-0.33,1.349-0.566
		c0.417-0.233,0.801-0.517,1.149-0.838C430.985,207.832,431.299,207.47,431.574,207.073 M247.887,21.195
		c-0.33,0.403-0.611,0.852-0.84,1.337c-0.229,0.488-0.4,1.018-0.517,1.58c-0.114,0.565-0.17,1.167-0.16,1.805
		c0.009,0.637,0.083,1.307,0.228,2.006L256.703,77.2l3.169,15.447l8.003,39.021l0.896,4.361l2.271,11.066l0.92,4.483l2.289,11.162
		l0.94,4.589l2.391,11.65l0.966,4.71l2.643,12.882l0.992,4.843l1.035,5.047c0.139,0.668,0.338,1.33,0.594,1.979
		c0.258,0.649,0.569,1.285,0.934,1.901c0.361,0.616,0.771,1.212,1.229,1.78c0.453,0.567,0.951,1.109,1.483,1.619
		c0.711,0.676,1.482,1.292,2.306,1.831c0.82,0.539,1.688,1.004,2.586,1.373c0.897,0.371,1.824,0.649,2.768,0.82
		c0.939,0.17,1.895,0.233,2.846,0.173l12.975-0.816l7.609-0.48l22.098-1.396l-0.549-2.219l-39.967,2.441
		c-1.674,0.103-3.356-0.175-4.963-0.763c-1.608-0.589-3.143-1.488-4.512-2.63c-1.367-1.144-2.571-2.522-3.528-4.074
		c-0.955-1.549-1.661-3.267-2.037-5.076L248.007,23.91c-0.05-0.241-0.089-0.479-0.117-0.713c-0.029-0.233-0.05-0.466-0.06-0.69
		c-0.012-0.229-0.009-0.45,0-0.669C247.839,21.62,247.857,21.406,247.887,21.195"/>
	<path style="fill:#111111;stroke:#050503;stroke-width:0.25;" d="M372.346,28.345L256.781,15.446
		c-1.205-0.134-2.33-0.084-3.35,0.127c-1.02,0.213-1.932,0.587-2.709,1.097c-0.779,0.512-1.424,1.161-1.904,1.922
		c-0.482,0.764-0.803,1.64-0.932,2.604c-0.029,0.211-0.049,0.428-0.059,0.646c-0.011,0.219-0.011,0.44,0,0.669
		c0.01,0.227,0.028,0.458,0.059,0.69s0.068,0.472,0.118,0.713l37.077,179.018c0.376,1.813,1.082,3.527,2.037,5.076
		c0.957,1.552,2.159,2.933,3.528,4.074c1.369,1.141,2.9,2.041,4.511,2.63c1.606,0.588,3.289,0.863,4.963,0.763l39.968-2.44
		l-4.707-18.986l-36.776,1.599c-0.076,0.004-0.147,0-0.221-0.012s-0.142-0.03-0.213-0.059c-0.07-0.026-0.144-0.063-0.216-0.105
		c-0.073-0.044-0.149-0.096-0.229-0.157c-0.074-0.063-0.141-0.13-0.197-0.194c-0.059-0.064-0.107-0.131-0.151-0.196
		c-0.043-0.067-0.079-0.138-0.109-0.209c-0.031-0.073-0.056-0.149-0.074-0.23l-36.26-166.377c-0.013-0.062-0.019-0.119-0.018-0.172
		c0.001-0.054,0.009-0.104,0.022-0.154c0.015-0.049,0.035-0.096,0.063-0.143c0.027-0.046,0.063-0.092,0.104-0.138
		c0.047-0.042,0.094-0.078,0.144-0.107c0.049-0.029,0.1-0.051,0.151-0.066c0.055-0.018,0.109-0.026,0.169-0.031
		c0.061-0.005,0.122-0.004,0.19,0.001l6.51,0.664l100.042,10.199l5.375,0.549c0.057,0.006,0.111,0.016,0.166,0.029
		c0.055,0.018,0.106,0.036,0.162,0.063c0.055,0.023,0.107,0.056,0.165,0.093s0.114,0.079,0.176,0.128
		c0.061,0.051,0.112,0.104,0.159,0.151c0.049,0.049,0.09,0.098,0.124,0.146c0.036,0.05,0.065,0.101,0.094,0.15
		c0.024,0.051,0.047,0.104,0.063,0.161l47.398,149.556c0.021,0.072,0.039,0.141,0.049,0.205c0.011,0.065,0.014,0.129,0.011,0.19
		c-0.004,0.061-0.015,0.121-0.029,0.183c-0.018,0.061-0.04,0.122-0.068,0.185c-0.033,0.061-0.066,0.11-0.104,0.153
		s-0.076,0.079-0.12,0.108c-0.043,0.026-0.09,0.05-0.143,0.063c-0.051,0.018-0.106,0.023-0.169,0.026l-17.271,0.751l5.363,17.731
		l19.616-1.196c0.204-0.015,0.404-0.032,0.601-0.063c0.196-0.028,0.388-0.063,0.574-0.104c0.188-0.043,0.368-0.095,0.548-0.15
		c0.18-0.057,0.354-0.121,0.521-0.191c0.918-0.386,1.702-0.971,2.335-1.715c0.632-0.741,1.111-1.642,1.424-2.658
		c0.313-1.016,0.453-2.146,0.411-3.354c-0.043-1.206-0.271-2.488-0.699-3.81L383.779,37.982c-0.392-1.201-1.004-2.371-1.776-3.457
		c-0.773-1.085-1.707-2.089-2.739-2.959c-1.033-0.871-2.166-1.607-3.338-2.163C374.752,28.848,373.537,28.478,372.346,28.345"/>
	<path style="fill:#D8D8D8;" d="M268.271,27.953l-6.511-0.664c-0.067-0.005-0.131-0.006-0.19-0.001
		c-0.059,0.005-0.113,0.015-0.168,0.03c-0.053,0.018-0.104,0.038-0.151,0.067s-0.097,0.064-0.144,0.107
		c-0.043,0.046-0.078,0.092-0.104,0.138c-0.027,0.047-0.049,0.094-0.063,0.143c-0.016,0.049-0.021,0.102-0.022,0.154
		s0.005,0.111,0.018,0.172l36.26,166.376c0.021,0.081,0.045,0.157,0.074,0.23c0.031,0.07,0.067,0.142,0.11,0.209
		c0.044,0.065,0.095,0.132,0.15,0.195c0.06,0.065,0.123,0.132,0.199,0.195c0.078,0.063,0.154,0.113,0.229,0.157
		s0.146,0.079,0.216,0.104c0.071,0.027,0.142,0.047,0.213,0.06c0.071,0.012,0.146,0.016,0.22,0.012l36.777-1.599l-29.523,1.282
		L268.271,27.953 M373.688,38.7l-5.375-0.55l47.482,152.396l-11.445,0.498l17.271-0.751c0.063-0.003,0.118-0.012,0.169-0.026
		c0.053-0.016,0.1-0.037,0.143-0.063c0.044-0.029,0.083-0.065,0.12-0.108s0.07-0.095,0.104-0.153
		c0.028-0.063,0.053-0.124,0.068-0.185c0.017-0.063,0.025-0.121,0.029-0.183c0.003-0.063,0-0.125-0.011-0.19
		c-0.01-0.065-0.025-0.133-0.049-0.205L374.799,39.624c-0.019-0.058-0.039-0.109-0.063-0.161c-0.025-0.052-0.058-0.104-0.094-0.15
		c-0.034-0.049-0.075-0.098-0.124-0.146c-0.047-0.049-0.1-0.102-0.159-0.151c-0.062-0.049-0.118-0.092-0.176-0.128
		c-0.057-0.037-0.11-0.068-0.165-0.093c-0.055-0.025-0.107-0.045-0.162-0.063C373.801,38.717,373.744,38.706,373.688,38.7"/>
	<polyline style="fill:#86BCB6;" points="142.516,94.99 95.847,93.126 97.607,119.858 145.234,120.808 142.516,94.99 	"/>
	<polyline style="fill:#86BCB6;" points="207.979,199.582 103.156,204.138 106.843,260.147 215.543,250.81 207.979,199.582 	"/>
	<polyline style="fill:#F4C500;" points="260.384,99.698 153.726,95.438 156.662,121.036 265.186,123.201 260.384,99.698 	"/>
	<polyline style="fill:#A7BDB9;" points="313.987,230.724 223.92,237.523 224.766,242.962 315.112,235.731 313.987,230.724 	"/>
	<path style="fill:#EFEFEF;" d="M295.061,107.445l-0.938-4.042l90.522,3.431l1.146,3.729L295.061,107.445 M291.8,93.395
		l-0.918-3.956l89.799,4.492l1.124,3.657L291.8,93.395 M288.65,79.826l-0.896-3.865l89.093,5.496l1.102,3.58L288.65,79.826
		 M285.537,66.409l-0.875-3.771l88.389,6.465l1.075,3.498L285.537,66.409 M282.967,55.333l-4.723-20.354l32.634,3.157l5.161,19.822
		L282.967,55.333 M324.048,58.595l-5.265-19.693l45.503,4.402l5.81,18.948L324.048,58.595 M368.313,38.153L268.271,27.953
		l37.587,167.375l29.523-1.283l-1.109-4.479l-19.773,0.777l-0.18-0.777l-1.713,0.066l1.713-0.066l-0.896-3.854l19.723-0.693
		l-2.771-11.178l-19.793,0.493l-1.047-4.508l19.791-0.413c-0.162-0.98-0.215-1.933-0.166-2.838c0.05-0.905,0.198-1.771,0.438-2.575
		c0.24-0.808,0.572-1.558,0.985-2.238s0.908-1.294,1.478-1.828c0.059-0.085,0.116-0.169,0.178-0.252
		c0.061-0.083,0.121-0.164,0.185-0.245c0.063-0.08,0.127-0.159,0.191-0.234c0.064-0.078,0.132-0.154,0.2-0.229l-25.729,0.293
		l-9.497-40.923l90.391,2.243l11.536,37.626l-9.073,0.104c0.773,0.544,1.518,1.163,2.213,1.847c0.695,0.682,1.348,1.428,1.938,2.225
		s1.119,1.646,1.572,2.535c0.455,0.891,0.836,1.819,1.125,2.779l0.091,0.298l1.284-0.027l1.259,4.144l-1.288,0.031l3.165,10.464
		l1.47-0.052l1.289,4.247l-1.473,0.058l1.268,4.189l11.445-0.498L368.313,38.153"/>
	<polyline style="fill:#A7BDB9;" points="373.051,69.104 284.662,62.639 285.537,66.409 374.126,72.602 373.051,69.104 	"/>
	<polyline style="fill:#A7BDB9;" points="376.847,81.457 287.754,75.961 288.65,79.826 377.947,85.036 376.847,81.457 	"/>
	<polyline style="fill:#A7BDB9;" points="380.681,93.932 290.882,89.44 291.8,93.395 381.805,97.589 380.681,93.932 	"/>
	<polyline style="fill:#A7BDB9;" points="384.646,106.831 294.122,103.402 295.061,107.445 385.792,110.562 384.646,106.831 	"/>
	<path style="fill:#A7BDB9;" d="M329.325,169.412l-19.791,0.413l1.047,4.508l19.793-0.493l-0.812-3.272
		c-0.023-0.098-0.048-0.192-0.068-0.291c-0.021-0.097-0.043-0.191-0.063-0.29c-0.021-0.096-0.039-0.19-0.058-0.288
		C329.357,169.603,329.342,169.507,329.325,169.412 M398.662,167.966l-1.284,0.027l1.255,4.146l1.288-0.032L398.662,167.966"/>
	<polyline style="fill:#86BCB6;" points="310.878,38.137 278.244,34.98 282.967,55.333 316.039,57.959 310.878,38.137 	"/>
	<path style="fill:#86BCB6;" d="M387.979,120.582l-90.392-2.243l9.497,40.923l25.729-0.293c0.394-0.438,0.831-0.828,1.308-1.172
		c0.478-0.343,0.992-0.638,1.543-0.879c0.552-0.24,1.139-0.43,1.757-0.558c0.617-0.128,1.269-0.196,1.945-0.202l43.7-0.391
		c0.626-0.006,1.256,0.05,1.886,0.161c0.63,0.112,1.258,0.279,1.88,0.498c0.621,0.219,1.236,0.488,1.841,0.804
		c0.604,0.316,1.193,0.678,1.769,1.078l9.073-0.104L387.979,120.582"/>
	<polyline style="fill:#F4C500;" points="364.286,43.304 318.783,38.902 324.048,58.595 370.096,62.252 364.286,43.304 	"/>
	<path style="fill:#A7BDB9;" d="M334.084,188.802l-19.766,0.763l0.181,0.777l19.772-0.777L334.084,188.802 M333.146,185.018
		l-19.722,0.693l0.896,3.854l19.766-0.763L333.146,185.018 M403.268,182.553l-1.47,0.052l1.069,3.54l0.024-0.001l-0.024,0.001
		l0.217,0.713l1.473-0.058L403.268,182.553"/>
	<path style="fill:#727272;" d="M334.084,188.802l-19.766,0.763l-1.713,0.066l1.713-0.066L334.084,188.802 M402.894,186.144
		l-0.024,0.001L402.894,186.144"/>
	<path style="fill:#353227;stroke:#050503;stroke-width:0.25;" d="M332.062,159.933c-0.567,0.534-1.063,1.147-1.477,1.828
		c-0.414,0.683-0.746,1.433-0.986,2.238c-0.239,0.807-0.39,1.67-0.438,2.573c-0.049,0.907,0.005,1.857,0.166,2.84
		c0.017,0.095,0.032,0.188,0.051,0.284c0.018,0.098,0.035,0.192,0.057,0.288c0.021,0.099,0.04,0.193,0.063,0.29
		c0.021,0.099,0.046,0.193,0.069,0.291l0.812,3.272l2.771,11.178l0.938,3.784l0.188,0.763l1.109,4.479l4.707,18.985l0.549,2.219
		l6.021,24.29l4.753,19.177l7.946,32.057c0.53,2.146,1.399,4.149,2.518,5.937c1.117,1.787,2.479,3.351,3.994,4.61
		c1.517,1.263,3.181,2.221,4.9,2.796c1.718,0.575,3.487,0.771,5.219,0.514l47.124-7.069c0.786-0.117,1.521-0.337,2.203-0.646
		c0.681-0.311,1.307-0.707,1.874-1.186c0.565-0.477,1.072-1.029,1.518-1.647c0.442-0.618,0.822-1.305,1.136-2.042
		c-0.332,0.479-0.702,0.922-1.105,1.317c-0.406,0.398-0.849,0.754-1.321,1.062c-0.477,0.306-0.984,0.563-1.524,0.767
		c-0.541,0.203-1.113,0.354-1.716,0.441l-46.938,6.958c-1.725,0.255-3.486,0.059-5.198-0.519c-1.715-0.576-3.373-1.528-4.884-2.787
		c-1.51-1.257-2.869-2.813-3.983-4.594c-1.113-1.777-1.98-3.771-2.515-5.908l-29.829-119.711c-0.222-0.892-0.354-1.763-0.402-2.604
		c-0.048-0.841-0.015-1.652,0.1-2.426c0.11-0.771,0.3-1.508,0.56-2.192C331.34,161.155,331.669,160.516,332.062,159.933"/>
	<path style="fill:#111111;stroke:#050503;stroke-width:0.25;" d="M362.527,277.286L336.74,175.223l58.466-1.539l28.765,96.075
		L362.527,277.286 M383.067,155.771l-43.7,0.391c-0.679,0.006-1.328,0.074-1.945,0.202c-0.618,0.13-1.205,0.315-1.757,0.558
		c-0.551,0.242-1.065,0.536-1.543,0.879c-0.478,0.344-0.914,0.735-1.309,1.172c-0.067,0.075-0.135,0.151-0.199,0.229
		c-0.064,0.075-0.129,0.154-0.191,0.234c-0.063,0.081-0.124,0.162-0.185,0.245c-0.062,0.083-0.119,0.167-0.178,0.252
		c-0.394,0.583-0.722,1.222-0.979,1.907c-0.259,0.687-0.446,1.421-0.56,2.19c-0.111,0.773-0.146,1.587-0.099,2.428
		c0.049,0.842,0.183,1.713,0.402,2.604l29.829,119.712c0.532,2.138,1.399,4.131,2.515,5.908c1.114,1.779,2.475,3.337,3.983,4.594
		s3.169,2.211,4.884,2.787c1.711,0.575,3.476,0.771,5.198,0.519l46.938-6.958c0.603-0.092,1.175-0.238,1.716-0.441
		c0.54-0.203,1.05-0.461,1.523-0.767c0.476-0.308,0.916-0.661,1.322-1.062c0.403-0.396,0.773-0.839,1.105-1.319
		c0.533-0.771,0.972-1.643,1.304-2.593c0.33-0.944,0.558-1.972,0.671-3.053c0.111-1.079,0.111-2.215-0.009-3.387
		c-0.121-1.17-0.36-2.376-0.73-3.6l-20.736-68.558l-0.626-2.067l-5.363-17.731l-1.269-4.189l-0.216-0.713l-1.07-3.54l-3.164-10.464
		l-1.256-4.146l-0.09-0.3c-0.29-0.959-0.67-1.889-1.125-2.777c-0.454-0.891-0.982-1.738-1.572-2.535
		c-0.591-0.797-1.24-1.543-1.938-2.227c-0.697-0.682-1.438-1.301-2.214-1.845c-0.572-0.401-1.165-0.763-1.769-1.078
		c-0.604-0.313-1.219-0.585-1.841-0.804s-1.25-0.386-1.879-0.498C384.323,155.821,383.693,155.765,383.067,155.771"/>
	<path style="fill:#EFEFEF;" d="M365.064,268.3l-1.302-5.077l52.39-5.734l1.424,4.808L365.064,268.3 M361.237,253.364l-1.271-4.967
		l52.024-4.955l1.396,4.707L361.237,253.364 M357.546,238.953l-1.245-4.86l51.67-4.216l1.366,4.608L357.546,238.953 M354.21,225.933
		l-1.222-4.765l51.347-3.563l1.341,4.524L354.21,225.933 M351.075,214.701l-4.097-16.004l50.978-2.457l4.507,15.212L351.075,214.701
		 M346.293,195.434l-3.854-15.042l20.486-0.64l4.019,14.749L346.293,195.434 M395.206,173.684l-58.466,1.539l25.786,102.063
		l61.442-7.527L395.206,173.684"/>
	<polyline style="fill:#A7BDB9;" points="404.335,217.608 352.989,221.168 354.21,225.933 405.676,222.132 404.335,217.608 	"/>
	<polyline style="fill:#A7BDB9;" points="407.971,229.877 356.301,234.093 357.546,238.953 409.337,234.488 407.971,229.877 	"/>
	<polyline style="fill:#A7BDB9;" points="411.99,243.442 359.965,248.397 361.237,253.364 413.385,248.149 411.99,243.442 	"/>
	<polyline style="fill:#A7BDB9;" points="416.152,257.489 363.764,263.223 365.064,268.3 417.575,262.294 416.152,257.489 	"/>
	<polyline style="fill:#86BCB6;" points="362.927,179.752 342.439,180.392 346.293,195.434 366.944,194.501 362.927,179.752 	"/>
	<polyline style="fill:#F4C500;" points="397.956,196.24 346.979,198.698 351.075,214.701 402.463,211.452 397.956,196.24 	"/>
</g>
</svg>
