<?xml version="1.0" encoding="utf-8"?>
<!-- Generator: Adobe Illustrator 12.0.0, SVG Export Plug-In . SVG Version: 6.00 Build 51448)  -->
<!DOCTYPE svg PUBLIC "-//W3C//DTD SVG 1.0//EN" "http://www.w3.org/TR/2001/REC-SVG-20010904/DTD/svg10.dtd" [
	<!ENTITY ns_svg "http://www.w3.org/2000/svg">
	<!ENTITY ns_xlink "http://www.w3.org/1999/xlink">
]>
<svg  version="1.0" id="Ebene_1" xmlns="&ns_svg;" xmlns:xlink="&ns_xlink;" width="130.642" height="123.531"
	 viewBox="0 0 130.642 123.531" overflow="visible" enable-background="new 0 0 130.642 123.531" xml:space="preserve">
<g>
	<g>
		<path d="M0.11,39.002c-0.104,1.428-0.135,2.874-0.092,4.334c0.043,1.462,0.162,2.901,0.35,4.321l6.693,1.465
			c0.441,2.206,1.079,4.339,1.904,6.373l-4.77,4.899c1.27,2.619,2.797,5.085,4.558,7.367l6.517-2.076
			c1.47,1.666,3.09,3.193,4.841,4.557l-1.682,6.633c2.382,1.619,4.934,3,7.626,4.109l4.605-5.057
			c2.08,0.703,4.246,1.213,6.475,1.521l1.863,6.594c1.427,0.104,2.871,0.137,4.334,0.092c1.46-0.045,2.902-0.162,4.321-0.352
			l1.463-6.693c2.208-0.441,4.337-1.078,6.374-1.904l4.897,4.77c2.62-1.268,5.087-2.799,7.366-4.557l-2.074-6.52
			c1.664-1.467,3.191-3.088,4.559-4.838l6.63,1.682c1.62-2.381,3.001-4.934,4.109-7.625l-5.053-4.607
			c0.7-2.081,1.21-4.245,1.519-6.474l6.596-1.862c0.102-1.428,0.134-2.872,0.091-4.334c-0.046-1.462-0.163-2.904-0.352-4.322
			l-6.694-1.465c-0.44-2.206-1.078-4.336-1.904-6.373l4.771-4.896c-1.27-2.622-2.799-5.089-4.559-7.369l-6.52,2.076
			c-1.468-1.665-3.088-3.193-4.839-4.558l1.683-6.631c-2.382-1.622-4.935-3-7.625-4.11l-4.605,5.054
			c-2.082-0.703-4.248-1.211-6.476-1.519L45.149,0.11c-1.428-0.103-2.872-0.134-4.334-0.091c-1.461,0.043-2.902,0.162-4.32,0.349
			L35.03,7.065c-2.205,0.44-4.338,1.076-6.373,1.902l-4.898-4.771c-2.621,1.271-5.088,2.801-7.366,4.56l2.075,6.519
			c-1.668,1.467-3.193,3.089-4.559,4.838l-6.631-1.681c-1.62,2.381-3.001,4.934-4.11,7.624l5.054,4.607
			c-0.703,2.081-1.211,4.245-1.52,6.474L0.11,39.002z M41.181,12.23c16.488-0.494,30.251,12.473,30.745,28.959
			c0.491,16.486-12.471,30.248-28.958,30.741c-16.487,0.495-30.251-12.472-30.743-28.957C11.733,26.487,24.697,12.72,41.181,12.23z"
			/>
	</g>
	<g>
		<path d="M68.989,84.847c-0.252,1.031-0.451,2.09-0.601,3.164c-0.148,1.078-0.238,2.148-0.274,3.211l4.727,1.896
			c0.052,1.674,0.258,3.314,0.611,4.908l-4.1,3.004c0.607,2.078,1.424,4.074,2.435,5.963l5.034-0.719
			c0.872,1.402,1.872,2.719,2.988,3.936l-2.05,4.656c1.547,1.479,3.248,2.805,5.086,3.951l3.999-3.141
			c1.438,0.771,2.963,1.412,4.561,1.912l0.553,5.063c1.034,0.254,2.09,0.455,3.166,0.604c1.076,0.146,2.148,0.238,3.213,0.275
			l1.896-4.73c1.672-0.053,3.313-0.256,4.906-0.609l3.006,4.098c2.076-0.605,4.072-1.424,5.961-2.434l-0.719-5.035
			c1.4-0.869,2.719-1.873,3.938-2.988l4.652,2.049c1.482-1.545,2.807-3.248,3.953-5.082l-3.139-4c0.77-1.438,1.41-2.967,1.91-4.561
			l5.064-0.553c0.252-1.035,0.451-2.088,0.602-3.168c0.146-1.076,0.238-2.146,0.273-3.211l-4.729-1.896
			c-0.051-1.672-0.256-3.313-0.611-4.906l4.1-3.006c-0.607-2.076-1.424-4.074-2.436-5.961l-5.035,0.719
			c-0.871-1.4-1.871-2.721-2.986-3.938l2.049-4.654c-1.545-1.482-3.248-2.807-5.084-3.951l-3.998,3.139
			c-1.441-0.771-2.967-1.41-4.561-1.91l-0.553-5.067c-1.035-0.251-2.09-0.452-3.168-0.6c-1.076-0.147-2.148-0.236-3.211-0.275
			l-1.896,4.729c-1.672,0.051-3.314,0.256-4.908,0.609l-3.003-4.1c-2.077,0.609-4.075,1.428-5.962,2.438l0.719,5.033
			c-1.402,0.873-2.721,1.873-3.938,2.986l-4.654-2.049c-1.479,1.547-2.808,3.25-3.951,5.086l3.139,3.996
			c-0.771,1.441-1.412,2.967-1.912,4.561L68.989,84.847z M102.326,70.786c11.862,1.628,20.161,12.566,18.533,24.432
			c-1.63,11.861-12.566,20.157-24.43,18.527c-11.866-1.628-20.161-12.563-18.531-24.428C79.527,77.452,90.462,69.156,102.326,70.786
			z"/>
	</g>
</g>
</svg>
