<?xml version="1.0" encoding="utf-8"?>
<!-- Generator: Adobe Illustrator 12.0.0, SVG Export Plug-In . SVG Version: 6.00 Build 51448)  -->
<!DOCTYPE svg PUBLIC "-//W3C//DTD SVG 1.0//EN" "http://www.w3.org/TR/2001/REC-SVG-20010904/DTD/svg10.dtd" [
	<!ENTITY ns_svg "http://www.w3.org/2000/svg">
	<!ENTITY ns_xlink "http://www.w3.org/1999/xlink">
]>
<svg  version="1.0" id="Ebene_1" xmlns="&ns_svg;" xmlns:xlink="&ns_xlink;" width="50.595" height="133.108"
	 viewBox="0 0 50.595 133.108" overflow="visible" enable-background="new 0 0 50.595 133.108" xml:space="preserve">
<g>
	<path d="M50.096,118.031c-1.771-4.563-23.062-60.06-24.392-62.626c-0.525-1.014-1.462-1.559-2.364-1.852
		c-0.359-0.633-1.029-1.063-1.807-1.063c-1.151,0-2.084,0.934-2.084,2.085c0,1.152,0.934,2.084,2.084,2.084
		c0.605,0,1.146-0.262,1.527-0.674c0.299,0.176,0.612,0.396,0.933,0.718c1.584,1.584,22.174,56.639,23.95,61.327
		c2.789,8.615-6.845,13.177-11.405,13.177s-30.41,0-30.41,0v1.774c0,0,24.58,0.126,30.41,0.126
		C44.269,133.108,52.756,126.139,50.096,118.031z"/>
	<g>
		<path d="M21.883,1.353L0.043,98.029c-0.102,0.452-0.023,0.919,0.228,1.31c0.248,0.394,0.632,0.666,1.084,0.769l5.439,1.229
			c0.934,0.21,1.866-0.377,2.078-1.312l21.84-96.674c0.102-0.452,0.022-0.919-0.229-1.311c-0.248-0.394-0.631-0.665-1.083-0.767
			L23.96,0.043C23.028-0.168,22.096,0.419,21.883,1.353z"/>
	</g>
</g>
</svg>
