<?xml version="1.0" encoding="utf-8"?>
<!-- Generator: Adobe Illustrator 12.0.0, SVG Export Plug-In . SVG Version: 6.00 Build 51448)  -->
<!DOCTYPE svg PUBLIC "-//W3C//DTD SVG 1.0//EN" "http://www.w3.org/TR/2001/REC-SVG-20010904/DTD/svg10.dtd" [
	<!ENTITY ns_svg "http://www.w3.org/2000/svg">
	<!ENTITY ns_xlink "http://www.w3.org/1999/xlink">
]>
<svg  version="1.0" id="Ebene_1" xmlns="&ns_svg;" xmlns:xlink="&ns_xlink;" width="126.061" height="130.204"
	 viewBox="0 0 126.061 130.204" overflow="visible" enable-background="new 0 0 126.061 130.204" xml:space="preserve">
<path d="M113.714,45.785c-6.346-0.004-11.569,4.793-12.257,10.959H77.276c-0.304-4.268-1.992-8.144-4.63-11.188L85.261,32.94
	c4.978,4.011,12.288,3.706,16.911-0.921c4.96-4.951,4.955-12.99,0.003-17.942c-4.955-4.955-12.99-4.955-17.946,0.001
	c-4.623,4.621-4.927,11.924-0.92,16.908L70.692,43.604c-3.371-2.92-7.756-4.699-12.566-4.699c-4.81,0-9.195,1.779-12.565,4.699
	L20.807,18.85c1.56-1.983,2.498-4.478,2.498-7.196C23.305,5.218,18.089,0,11.652,0C5.216,0,0,5.218,0,11.653
	s5.216,11.652,11.652,11.652c2.721,0,5.218-0.94,7.202-2.502l24.753,24.754c-2.638,3.044-4.328,6.92-4.632,11.188H23.048
	c-0.666-4.253-4.333-7.508-8.772-7.508c-4.909,0-8.889,3.98-8.889,8.889c0,4.91,3.979,8.89,8.889,8.89
	c4.439,0,8.106-3.257,8.772-7.508h15.926c0.68,9.509,8.261,17.092,17.77,17.769v28.328c-6.165,0.687-10.96,5.91-10.96,12.259
	c0,6.815,5.525,12.342,12.341,12.342c6.816,0,12.342-5.526,12.342-12.342c0-6.349-4.795-11.572-10.96-12.259V77.275
	c4.267-0.303,8.144-1.992,11.189-4.629l12,11.998c-1.256,1.663-2.008,3.725-2.008,5.966c0,5.48,4.442,9.925,9.924,9.925
	c5.48,0,9.922-4.444,9.922-9.925c0-5.479-4.441-9.922-9.922-9.922c-2.24,0-4.302,0.752-5.964,2.002L72.649,70.691
	c2.637-3.044,4.323-6.919,4.627-11.185h24.181c0.686,6.165,5.91,10.964,12.26,10.962c6.819,0.002,12.346-5.525,12.345-12.344
	C126.062,51.31,120.535,45.783,113.714,45.785z M82.631,22.937c0-5.85,4.743-10.592,10.593-10.592
	c5.848,0,10.591,4.742,10.591,10.592c0,5.847-4.743,10.59-10.591,10.59C87.375,33.527,82.631,28.784,82.631,22.937z M11.706,21.279
	c-5.291,0-9.583-4.291-9.583-9.583c0-5.294,4.293-9.584,9.583-9.584c5.293,0,9.586,4.29,9.586,9.584
	C21.292,16.988,16.999,21.279,11.706,21.279z M14.28,65.154c-3.912,0-7.08-3.168-7.08-7.077s3.167-7.079,7.08-7.079
	c3.908,0,7.078,3.17,7.078,7.079S18.188,65.154,14.28,65.154z M90.634,82.602c4.45,0,8.058,3.607,8.058,8.057
	c0,4.45-3.607,8.057-8.058,8.057c-4.452,0-8.058-3.606-8.058-8.057C82.577,86.209,86.182,82.602,90.634,82.602z M68.271,117.828
	c0,5.625-4.563,10.188-10.188,10.188c-5.627,0-10.188-4.563-10.188-10.188c0-5.627,4.561-10.188,10.188-10.188
	C63.708,107.64,68.271,112.201,68.271,117.828z M57.941,74.452c-9.002,0-16.302-7.296-16.302-16.301c0-9.004,7.299-16.3,16.302-16.3
	c9.006,0,16.302,7.296,16.302,16.3C74.243,67.156,66.947,74.452,57.941,74.452z M113.7,68.382c-5.626,0-10.188-4.563-10.188-10.188
	c0-5.627,4.562-10.189,10.188-10.189c5.627,0,10.19,4.563,10.19,10.189C123.89,63.818,119.327,68.382,113.7,68.382z"/>
</svg>
